<?xml version="1.0" encoding="UTF-8"?>
<svg version="1.1" xmlns="http://www.w3.org/2000/svg" width="512" height="512">
<path d="M0 0 C5.03619191 1.00196454 9.47468313 3.5034824 14.00897217 5.83291626 C15.64958115 6.65459541 15.64958115 6.65459541 17.32333374 7.49287415 C19.62487697 8.64967004 21.92254105 9.81421242 24.2164917 10.98599243 C27.73591513 12.7823292 31.267562 14.55254588 34.80194092 16.31924438 C37.03838048 17.44729128 39.27408424 18.57679839 41.50897217 19.70791626 C42.56724213 20.23927689 43.62551208 20.77063751 44.71585083 21.31809998 C46.17844833 22.06853828 46.17844833 22.06853828 47.67059326 22.83413696 C48.53026703 23.27159744 49.3899408 23.70905792 50.27566528 24.15977478 C52.36053467 25.46963501 52.36053467 25.46963501 54.36053467 28.46963501 C55.02695558 34.57849341 55.02695558 34.57849341 52.93133545 37.38076782 C49.22083638 40.39568045 45.12982361 42.34992205 40.85272217 44.45401001 C39.93089142 44.91446716 39.00906067 45.37492432 38.05929565 45.84933472 C36.11618712 46.81787502 34.17114137 47.78253732 32.2243042 48.74356079 C29.23508765 50.21985578 26.25251628 51.70894558 23.27069092 53.20010376 C21.38174468 54.13966353 19.49243413 55.07849129 17.60272217 56.01651001 C16.25898026 56.68671173 16.25898026 56.68671173 14.88809204 57.37045288 C14.06028229 57.77797791 13.23247253 58.18550293 12.37957764 58.6053772 C11.64995819 58.96637512 10.92033875 59.32737305 10.16860962 59.6993103 C8.36053467 60.46963501 8.36053467 60.46963501 6.36053467 60.46963501 C4.8639932 77.33652421 12.38392432 90.53892259 19.94860077 105.03754926 C21.70558274 108.42379636 23.42294467 111.83002094 25.14422607 115.23451233 C28.4015737 121.66390122 31.68886068 128.07740746 34.98973274 134.48454279 C40.90575254 145.96912165 46.77889218 157.47555922 52.62707329 168.99481815 C54.67629436 173.02792387 56.74152801 177.05226736 58.82063293 181.07004464 C60.11194135 183.57140249 61.39170011 186.07854661 62.66883087 188.58716774 C63.54037829 190.28998765 64.42624713 191.98545406 65.31262207 193.68060303 C68.3851285 199.74609519 70.31039414 204.6226646 70.36053467 211.46963501 C68.61053467 214.53213501 68.61053467 214.53213501 65.36053467 216.46963501 C61.73053467 216.46963501 58.10053467 216.46963501 54.36053467 216.46963501 C54.36053467 250.78963501 54.36053467 285.10963501 54.36053467 320.46963501 C59.64053467 320.46963501 64.92053467 320.46963501 70.36053467 320.46963501 C70.32572998 319.22826782 70.29092529 317.98690063 70.25506592 316.70791626 C70.22691883 315.06600275 70.19961966 313.42407455 70.17303467 311.78213501 C70.13532959 310.55720337 70.13532959 310.55720337 70.09686279 309.30752563 C70.03882981 304.52947679 70.21149596 301.33540408 73.36053467 297.46963501 C76.1267103 296.0865472 78.37071466 296.35753305 81.46209717 296.37197876 C82.67381592 296.37520142 83.88553467 296.37842407 85.13397217 296.38174438 C87.04049561 296.39431274 87.04049561 296.39431274 88.98553467 296.40713501 C90.26428467 296.41164673 91.54303467 296.41615845 92.86053467 296.42080688 C96.02722112 296.43262288 99.19388363 296.4505588 102.36053467 296.46963501 C102.36053467 288.54963501 102.36053467 280.62963501 102.36053467 272.46963501 C98.73053467 272.46963501 95.10053467 272.46963501 91.36053467 272.46963501 C87.36053467 269.46963501 87.36053467 269.46963501 86.31918335 266.44061279 C86.37780845 260.81082936 88.49603114 256.88900358 91.02215576 251.93399048 C91.52163916 250.92390867 92.02112255 249.91382687 92.53574181 248.87313652 C96.94021555 240.06638606 101.68504033 231.45462591 106.50874329 222.87242126 C135.78171251 170.77458723 159.42331597 125.91463002 150.3117218 65.1424408 C150.37792825 61.51722894 151.80234565 59.02782403 154.36053467 56.46963501 C162.04564027 55.55302665 167.270647 58.3711866 174.00897217 61.83291626 C175.10271149 62.38070236 176.19645081 62.92848846 177.32333374 63.49287415 C179.62487697 64.64967004 181.92254105 65.81421242 184.2164917 66.98599243 C187.73591513 68.7823292 191.267562 70.55254588 194.80194092 72.31924438 C197.03838048 73.44729128 199.27408424 74.57679839 201.50897217 75.70791626 C202.56724213 76.23927689 203.62551208 76.77063751 204.71585083 77.31809998 C205.69091583 77.81839218 206.66598083 78.31868439 207.67059326 78.83413696 C208.53026703 79.27159744 209.3899408 79.70905792 210.27566528 80.15977478 C212.36053467 81.46963501 212.36053467 81.46963501 214.36053467 84.46963501 C214.99327803 90.16432528 214.99327803 90.16432528 214.36053467 92.46963501 C210.05419448 96.52051434 204.93665174 98.87359805 199.68475342 101.45401001 C198.75959427 101.91446716 197.83443512 102.37492432 196.88124084 102.84933472 C193.9396185 104.31178181 190.99392462 105.7658067 188.04803467 107.21963501 C186.04710873 108.21257083 184.04645451 109.20605439 182.04608154 110.20010376 C177.15402876 112.62963433 172.25861046 115.05227221 167.36053467 117.46963501 C164.3976174 133.98916786 172.67919461 147.21777968 180.08206749 161.37294507 C181.87449807 164.82022894 183.62482248 168.28875619 185.37921143 171.75550842 C188.70013032 178.30374839 192.05265688 184.83517388 195.41963816 191.3598308 C201.45529951 203.05698868 207.44885971 214.77560971 213.41145849 226.5101704 C215.5018727 230.62060195 217.610179 234.72116918 219.7338028 238.81453621 C221.05139881 241.36112191 222.35585489 243.91427958 223.65724373 246.46917915 C224.54795908 248.20747841 225.45495317 249.93740647 226.36247253 251.66699219 C229.34448847 257.55468412 231.28822235 261.83839157 230.36053467 268.46963501 C228.54803467 270.96963501 228.54803467 270.96963501 225.36053467 272.46963501 C221.73053467 272.46963501 218.10053467 272.46963501 214.36053467 272.46963501 C214.36053467 306.78963501 214.36053467 341.10963501 214.36053467 376.46963501 C223.27053467 376.46963501 232.18053467 376.46963501 241.36053467 376.46963501 C246.36053467 380.46963501 246.36053467 380.46963501 246.98415375 382.9680872 C246.98308498 384.38364729 246.98308498 384.38364729 246.98199463 385.82780457 C246.99320343 386.91439362 247.00441223 388.00098267 247.01596069 389.12049866 C247.00269745 390.30764969 246.9894342 391.49480072 246.97576904 392.71792603 C246.98131805 393.97190186 246.98686707 395.22587769 246.99258423 396.51785278 C247.00237282 399.95421262 246.98977722 403.38906897 246.96629906 406.82526898 C246.94619151 410.42066477 246.95206948 414.01602727 246.95440674 417.61146545 C246.95435317 423.64822598 246.93459824 429.68467344 246.90252686 435.72134399 C246.86561737 442.70265368 246.85685356 449.68355352 246.86382437 456.66494805 C246.8701268 463.37978121 246.85938106 470.0944737 246.83985901 476.80927849 C246.83167993 479.66768331 246.82897637 482.52601629 246.83055115 485.38443184 C246.83159227 489.37335372 246.80743545 493.36190299 246.78045654 497.35073853 C246.78338715 498.53991379 246.78631775 499.72908905 246.78933716 500.95429993 C246.77231247 502.57995377 246.77231247 502.57995377 246.75494385 504.2384491 C246.75121513 505.1817788 246.74748642 506.12510851 246.74364471 507.09702396 C246.36053467 509.46963501 246.36053467 509.46963501 245.31468868 511.27193356 C242.27179408 513.13692437 239.16271936 512.88899519 235.69966125 512.86404419 C234.91179464 512.87013529 234.12392802 512.8762264 233.31218666 512.88250208 C230.66352535 512.89919473 228.01534149 512.89434744 225.36663818 512.88955688 C223.47122699 512.89689358 221.57582027 512.90547863 219.68041992 512.91522217 C214.52549534 512.93748869 209.37073036 512.94036629 204.21576428 512.93847466 C199.91635839 512.93835519 195.61698661 512.94690933 191.31759018 512.95525217 C181.17685269 512.97450465 171.03619753 512.9773633 160.89544678 512.97061157 C150.42469231 512.96396857 139.95428992 512.98684142 129.48360687 513.0239253 C120.50179652 513.05458496 111.52009965 513.06598641 102.53823799 513.06208849 C97.17024163 513.06001717 91.80251917 513.06555916 86.43457222 513.08998108 C81.38737888 513.11218409 76.34075941 513.11042423 71.29356384 513.09005356 C69.43918351 513.08663209 67.58476502 513.09178126 65.73043633 513.10603714 C63.20241218 513.12413407 60.67635479 513.11155375 58.14839172 513.09109497 C57.41113643 513.10361282 56.67388113 513.11613067 55.91428477 513.12902784 C52.16982454 513.06386864 50.65237323 512.74889464 47.90454769 510.11950684 C46.00720697 506.86324563 45.86745724 504.80707595 45.87811279 501.04971313 C45.87130493 499.77068115 45.86449707 498.49164917 45.85748291 497.17385864 C45.86315781 496.49456802 45.8688327 495.8152774 45.87467957 495.11540222 C45.89204523 492.96867492 45.88437578 490.82328272 45.87042236 488.67654419 C45.84086531 483.33959793 45.85386442 478.00290996 45.86560059 472.66592407 C45.87387784 468.16118025 45.86554884 463.65702106 45.83647156 459.15235901 C45.82948272 457.06017492 45.84592676 454.96908154 45.86358643 452.87698364 C45.78800508 438.39711813 42.07638833 426.16695734 32.36444092 415.21963501 C23.29494756 406.43304328 11.08174235 401.65450436 -1.45196533 401.15713501 C-14.3398137 401.49628891 -26.39518678 406.63892743 -35.79571533 415.44229126 C-46.09759519 426.76999391 -49.25187102 439.92208486 -49.12532043 454.91423035 C-49.10773573 457.05939131 -49.11573067 459.20324309 -49.12957764 461.34841919 C-49.15462616 465.88891953 -49.1494501 470.42909404 -49.13946533 474.96963501 C-49.12789736 480.26581319 -49.12910476 485.56134096 -49.16352844 490.85743713 C-49.17058928 492.96328925 -49.15400548 495.06808987 -49.13641357 497.17385864 C-49.14662537 499.09240662 -49.14662537 499.09240662 -49.15704346 501.04971313 C-49.15386108 502.17188232 -49.15067871 503.29405151 -49.1473999 504.45022583 C-49.77671713 508.31183873 -50.81466717 509.76659228 -53.63946533 512.46963501 C-56.43712643 512.96840369 -58.63093026 513.13857488 -61.42732239 513.09109497 C-62.216749 513.09748379 -63.0061756 513.10387261 -63.81952423 513.11045504 C-66.46778228 513.1257297 -69.11455013 513.1052285 -71.76275635 513.08486938 C-73.6599375 513.08836982 -75.55711573 513.09402753 -77.45428467 513.10168457 C-82.60923784 513.11595233 -87.76365889 513.09885206 -92.91856122 513.0753994 C-98.30770009 513.05532156 -103.69681621 513.06116831 -109.08598328 513.06350708 C-118.1357198 513.06345348 -127.18524774 513.04367832 -136.23492432 513.0116272 C-146.70621865 512.97472207 -157.17723975 512.96595287 -167.64859062 512.97292471 C-177.71225151 512.9792236 -187.77581844 512.96848752 -197.83946037 512.94895935 C-202.12689487 512.94077231 -206.41428143 512.93807819 -210.7017231 512.93965149 C-215.74720434 512.94052859 -220.79242476 512.92636151 -225.83783722 512.90042496 C-227.69262109 512.89324552 -229.54743267 512.89118803 -231.4022274 512.89454269 C-233.92796789 512.89824039 -236.45293994 512.88357035 -238.97859192 512.86404419 C-239.71807794 512.86937212 -240.45756395 512.87470004 -241.21945864 512.88018942 C-244.04765508 512.84228783 -246.14913489 512.77015865 -248.59361935 511.27193356 C-250.01362166 508.82485421 -250.02269679 507.06630869 -250.03387451 504.2384491 C-250.0452243 503.15467987 -250.0565741 502.07091064 -250.06826782 500.95429993 C-250.06533722 499.76512466 -250.06240662 498.5759494 -250.05938721 497.35073853 C-250.06785675 496.09851501 -250.07632629 494.8462915 -250.08505249 493.55612183 C-250.10446515 490.12001529 -250.11019802 486.68445138 -250.10830498 483.24832654 C-250.10818539 480.38046253 -250.11674475 477.5126495 -250.12508249 474.64479965 C-250.14432541 467.8792643 -250.14719719 461.11385234 -250.14044189 454.34829712 C-250.13379998 447.36749277 -250.15666886 440.38721667 -250.19375563 433.40651947 C-250.22443758 427.41405836 -250.23581434 421.42176731 -250.23191881 415.4292292 C-250.22984971 411.84970219 -250.23535446 408.27058618 -250.2598114 404.6911335 C-250.28618077 400.69985315 -250.27236192 396.7092664 -250.25469971 392.71792603 C-250.26796295 391.53077499 -250.2812262 390.34362396 -250.29489136 389.12049866 C-250.28368256 388.03390961 -250.27247375 386.94732056 -250.26092529 385.82780457 C-250.2616378 384.88409783 -250.26235031 383.9403911 -250.26308441 382.9680872 C-249.63946533 380.46963501 -249.63946533 380.46963501 -244.63946533 376.46963501 C-235.72946533 376.46963501 -226.81946533 376.46963501 -217.63946533 376.46963501 C-217.63946533 342.14963501 -217.63946533 307.82963501 -217.63946533 272.46963501 C-221.26946533 272.46963501 -224.89946533 272.46963501 -228.63946533 272.46963501 C-231.82696533 270.96963501 -231.82696533 270.96963501 -233.63946533 268.46963501 C-234.70191174 260.73242989 -231.62938119 255.77765605 -227.87213135 249.16934204 C-226.93094297 247.46033361 -225.98980509 245.7512965 -225.05048436 244.04126084 C-224.03973837 242.20571078 -223.02208351 240.37411538 -222.00356293 238.54286957 C-218.35709759 231.96967648 -214.82096682 225.33660385 -211.28131104 218.70547485 C-210.9119036 218.01356961 -210.54249616 217.32166437 -210.16189456 216.6087923 C-170.85032934 144.01832758 -170.85032934 144.01832758 -169.73451233 62.91210938 C-169.63946533 60.46963501 -169.63946533 60.46963501 -167.88993835 58.17710876 C-165.23028701 56.15918417 -163.28529644 55.83711739 -159.96868896 56.0178833 C-155.11996047 56.95829166 -150.86511373 59.31147454 -146.49884033 61.54385376 C-145.45423645 62.06470047 -144.40963257 62.58554718 -143.33337402 63.12217712 C-141.13432094 64.22335868 -138.93920469 65.3324332 -136.74786377 66.44888306 C-133.39647735 68.15356834 -130.03114109 69.82783556 -126.66290283 71.49893188 C-124.52398639 72.57462686 -122.3859346 73.65204319 -120.24884033 74.73135376 C-119.2446405 75.23051804 -118.24044067 75.72968231 -117.20581055 76.24397278 C-108.2688761 80.83369465 -108.2688761 80.83369465 -105.63946533 85.46963501 C-105.57696533 89.03213501 -105.57696533 89.03213501 -106.63946533 92.46963501 C-110.75628307 96.4286372 -115.74044621 98.72944866 -120.80743408 101.23526001 C-122.12146965 101.89265167 -122.12146965 101.89265167 -123.46205139 102.56332397 C-125.30547806 103.48387127 -127.15037432 104.40148088 -128.99664307 105.3163147 C-131.83131536 106.72179182 -134.66045845 108.13795333 -137.48907471 109.55557251 C-139.28237769 110.44943755 -141.07598694 111.34268847 -142.86993408 112.23526001 C-143.71887741 112.66018738 -144.56782074 113.08511475 -145.44248962 113.5229187 C-146.22703018 113.91042297 -147.01157074 114.29792725 -147.81988525 114.69717407 C-148.51095871 115.0404071 -149.20203217 115.38364014 -149.91404724 115.73727417 C-151.63946533 116.46963501 -151.63946533 116.46963501 -153.63946533 116.46963501 C-155.0777853 133.85664315 -147.86325053 147.22943396 -140.05139923 162.20480633 C-138.29342886 165.59416493 -136.57677286 169.00433184 -134.85577393 172.41256714 C-131.60035342 178.84531432 -128.31235139 185.26074742 -125.01026726 191.66964555 C-119.08860528 203.16591066 -113.22749614 214.69312154 -107.37292671 226.22366548 C-105.32102919 230.26173495 -103.2560182 234.29273136 -101.17936707 238.31812429 C-99.89074618 240.81964458 -98.61013362 243.32520786 -97.33116913 245.83167648 C-96.45691574 247.53824443 -95.57231439 249.23949896 -94.68737793 250.94055176 C-89.75078522 260.64627389 -89.75078522 260.64627389 -89.63946533 266.46963501 C-90.98508933 269.41719233 -91.72501077 271.01240773 -94.63946533 272.46963501 C-98.26946533 272.46963501 -101.89946533 272.46963501 -105.63946533 272.46963501 C-105.63946533 280.38963501 -105.63946533 288.30963501 -105.63946533 296.46963501 C-103.73680908 296.43483032 -101.83415283 296.40002563 -99.87384033 296.36416626 C-97.37905748 296.33602961 -94.8842651 296.30872932 -92.38946533 296.28213501 C-91.13520752 296.25699829 -89.88094971 296.23186157 -88.58868408 296.20596313 C-87.38341064 296.19629517 -86.17813721 296.1866272 -84.93634033 296.17666626 C-83.82613525 296.16095581 -82.71593018 296.14524536 -81.57208252 296.12905884 C-78.28945618 296.51028293 -76.95748535 297.1512759 -74.63946533 299.46963501 C-73.71758072 302.23528883 -73.52161311 303.85247203 -73.54180908 306.70010376 C-73.54503174 307.50254517 -73.54825439 308.30498657 -73.55157471 309.13174438 C-73.55995361 309.96512329 -73.56833252 310.7985022 -73.57696533 311.65713501 C-73.58147705 312.50211548 -73.58598877 313.34709595 -73.59063721 314.21768188 C-73.6024113 316.30169656 -73.62034643 318.38567478 -73.63946533 320.46963501 C-68.35946533 320.46963501 -63.07946533 320.46963501 -57.63946533 320.46963501 C-57.63946533 286.14963501 -57.63946533 251.82963501 -57.63946533 216.46963501 C-61.26946533 216.46963501 -64.89946533 216.46963501 -68.63946533 216.46963501 C-71.88946533 214.53213501 -71.88946533 214.53213501 -73.63946533 211.46963501 C-73.58182496 203.48739006 -70.73829434 198.08069974 -66.85040283 191.2394104 C-65.5993655 188.97175141 -64.34917221 186.70362663 -63.09970093 184.43510437 C-62.42770277 183.2257732 -61.75546899 182.01657292 -61.08301163 180.80749702 C-13.81259548 98.9912018 -13.81259548 98.9912018 -9.74124146 6.92556763 C-9.63946533 4.46963501 -9.63946533 4.46963501 -7.88696289 2.17625427 C-5.23851564 0.16517707 -3.30607495 -0.18044138 0 0 Z M6.36053467 21.46963501 C6.36053467 28.39963501 6.36053467 35.32963501 6.36053467 42.46963501 C11.56719119 40.73670416 11.56719119 40.73670416 16.44647217 38.52432251 C17.14901123 38.16983032 17.85155029 37.81533813 18.57537842 37.45010376 C19.64465576 36.90289673 19.64465576 36.90289673 20.73553467 36.34463501 C21.47158936 35.97209595 22.20764404 35.59955688 22.96600342 35.21572876 C24.76603825 34.30402281 26.56354869 33.38733569 28.36053467 32.46963501 C24.65881298 29.39778743 20.52008768 27.40141749 16.23553467 25.28213501 C15.50721436 24.91410767 14.77889404 24.54608032 14.02850342 24.16690063 C10.37332866 22.17734972 10.37332866 22.17734972 6.36053467 21.46963501 Z M-153.63946533 77.46963501 C-153.63946533 84.39963501 -153.63946533 91.32963501 -153.63946533 98.46963501 C-148.49604927 96.77460612 -148.49604927 96.77460612 -143.77227783 94.52432251 C-143.11485596 94.16983032 -142.45743408 93.81533813 -141.78009033 93.45010376 C-141.11493408 93.08529907 -140.44977783 92.72049438 -139.76446533 92.34463501 C-138.73192627 91.78582642 -138.73192627 91.78582642 -137.67852783 91.21572876 C-135.99651736 90.30463975 -134.31766097 89.38773186 -132.63946533 88.46963501 C-136.45537682 85.21790399 -140.87371 83.35320985 -145.38946533 81.28213501 C-148.11196533 80.02401001 -150.83446533 78.76588501 -153.63946533 77.46963501 Z M166.36053467 77.46963501 C166.36053467 84.72963501 166.36053467 91.98963501 166.36053467 99.46963501 C169.43365967 98.04651001 172.50678467 96.62338501 175.67303467 95.15713501 C176.63765625 94.71458374 177.60227783 94.27203247 178.59613037 93.81607056 C179.3601416 93.45811401 180.12415283 93.10015747 180.91131592 92.73135376 C181.69160156 92.37001343 182.47188721 92.0086731 183.27581787 91.63638306 C185.36281215 90.46836038 186.76869825 89.239579 188.36053467 87.46963501 C185.0721159 85.79650178 181.77928785 84.13223894 178.48553467 82.46963501 C177.54838623 81.99268188 176.61123779 81.51572876 175.64569092 81.02432251 C174.74979248 80.57315063 173.85389404 80.12197876 172.93084717 79.65713501 C172.10343018 79.2381897 171.27601318 78.81924438 170.42352295 78.38760376 C168.43232449 77.33412177 168.43232449 77.33412177 166.36053467 77.46963501 Z M-2.63946533 99.46963501 C-9.16107877 112.48953285 -15.68039384 125.51057924 -22.19703674 138.53296566 C-25.22266015 144.57904953 -28.24903442 150.62475538 -31.27716064 156.66958618 C-34.19670644 162.49767088 -37.1141807 168.32678965 -40.03036499 174.15655708 C-41.14609481 176.38616184 -42.26253133 178.61541308 -43.37966919 180.84431267 C-44.93816424 183.954097 -46.49419458 187.06510238 -48.04962158 190.17642212 C-48.75092697 191.57363998 -48.75092697 191.57363998 -49.46640015 192.99908447 C-50.0974617 194.26326958 -50.0974617 194.26326958 -50.74127197 195.55299377 C-51.10998917 196.28950637 -51.47870636 197.02601896 -51.8585968 197.78485012 C-52.70955063 199.31135819 -52.70955063 199.31135819 -52.63946533 200.46963501 C-18.97946533 200.46963501 14.68053467 200.46963501 49.36053467 200.46963501 C42.5779895 186.07084408 42.5779895 186.07084408 35.57513428 171.78530884 C35.17392365 170.98274155 34.77271301 170.18017426 34.35934448 169.35328674 C33.07909071 166.79345623 31.79604054 164.23503994 30.51287842 161.67666626 C29.60633432 159.86545017 28.69997097 158.0541436 27.79377747 156.24275208 C25.44314289 151.54524583 23.0901062 146.84894712 20.73651123 142.15292358 C18.3212793 137.33281013 15.9083983 132.51152014 13.49530029 127.69033813 C8.78597023 118.28230505 4.07409348 108.87555006 -0.63946533 99.46963501 C-1.29946533 99.46963501 -1.95946533 99.46963501 -2.63946533 99.46963501 Z M-162.63946533 154.46963501 C-169.16350797 167.47104485 -175.68294286 180.47475598 -182.19703674 193.48115349 C-185.22157525 199.51990832 -188.24761206 205.5579036 -191.27716064 211.59414673 C-194.19852285 217.41484366 -197.11573079 223.23761097 -200.03036499 229.06167984 C-201.1453893 231.28802104 -202.26182606 233.5136554 -203.37966919 235.73858261 C-204.94001799 238.84485153 -206.49541433 241.95355146 -208.04962158 245.06289673 C-208.75092697 246.45472168 -208.75092697 246.45472168 -209.46640015 247.87466431 C-209.88710785 248.71882904 -210.30781555 249.56299377 -210.74127197 250.43273926 C-211.29434776 251.53612546 -211.29434776 251.53612546 -211.8585968 252.66180229 C-212.77164113 254.44743138 -212.77164113 254.44743138 -212.63946533 256.46963501 C-179.30946533 256.46963501 -145.97946533 256.46963501 -111.63946533 256.46963501 C-112.898888 252.69136699 -113.96478867 249.56938269 -115.70223999 246.10357666 C-116.10886871 245.28756989 -116.51549744 244.47156311 -116.93444824 243.63082886 C-117.37609314 242.75472961 -117.81773804 241.87863037 -118.27276611 240.97598267 C-118.74122955 240.03876373 -119.20969299 239.1015448 -119.69235229 238.13592529 C-121.23604102 235.04993706 -122.7853716 231.96681852 -124.33477783 228.88369751 C-125.40844035 226.74010403 -126.4817489 224.59633322 -127.55471802 222.45239258 C-130.37553518 216.81838337 -133.20114964 211.18679353 -136.027771 205.55569458 C-138.91295665 199.80580572 -141.79359725 194.05364097 -144.67462158 188.30166626 C-150.32512426 177.02209107 -155.98054373 165.74498861 -161.63946533 154.46963501 C-161.96946533 154.46963501 -162.29946533 154.46963501 -162.63946533 154.46963501 Z M158.36053467 154.46963501 C151.83649203 167.47104485 145.31705714 180.47475598 138.80296326 193.48115349 C135.77842475 199.51990832 132.75238794 205.5579036 129.72283936 211.59414673 C126.80147715 217.41484366 123.88426921 223.23761097 120.96963501 229.06167984 C119.8546107 231.28802104 118.73817394 233.5136554 117.62033081 235.73858261 C116.05998201 238.84485153 114.50458567 241.95355146 112.95037842 245.06289673 C112.24907303 246.45472168 112.24907303 246.45472168 111.53359985 247.87466431 C111.11289215 248.71882904 110.69218445 249.56299377 110.25872803 250.43273926 C109.70565224 251.53612546 109.70565224 251.53612546 109.1414032 252.66180229 C108.22835887 254.44743138 108.22835887 254.44743138 108.36053467 256.46963501 C141.69053467 256.46963501 175.02053467 256.46963501 209.36053467 256.46963501 C208.101112 252.69136699 207.03521133 249.56938269 205.29776001 246.10357666 C204.89113129 245.28756989 204.48450256 244.47156311 204.06555176 243.63082886 C203.62390686 242.75472961 203.18226196 241.87863037 202.72723389 240.97598267 C202.25877045 240.03876373 201.79030701 239.1015448 201.30764771 238.13592529 C199.76395898 235.04993706 198.2146284 231.96681852 196.66522217 228.88369751 C195.59155965 226.74010403 194.5182511 224.59633322 193.44528198 222.45239258 C190.62446482 216.81838337 187.79885036 211.18679353 184.972229 205.55569458 C182.08704335 199.80580572 179.20640275 194.05364097 176.32537842 188.30166626 C170.67487574 177.02209107 165.01945627 165.74498861 159.36053467 154.46963501 C159.03053467 154.46963501 158.70053467 154.46963501 158.36053467 154.46963501 Z M-41.63946533 216.46963501 C-41.63946533 242.86963501 -41.63946533 269.26963501 -41.63946533 296.46963501 C-28.27446533 296.96463501 -28.27446533 296.96463501 -14.63946533 297.46963501 C-10.13946533 301.96963501 -10.13946533 301.96963501 -10.03009033 306.01651001 C-9.99786377 306.86084595 -9.96563721 307.70518188 -9.93243408 308.57510376 C-9.91825439 309.44779907 -9.90407471 310.32049438 -9.88946533 311.21963501 C-9.85981689 312.10779907 -9.83016846 312.99596313 -9.79962158 313.91104126 C-9.72911472 316.09675398 -9.682003 318.28319912 -9.63946533 320.46963501 C-4.35946533 320.46963501 0.92053467 320.46963501 6.36053467 320.46963501 C6.39920654 318.48190063 6.39920654 318.48190063 6.43865967 316.45401001 C6.49494433 314.70918557 6.55229159 312.96439518 6.61053467 311.21963501 C6.62471436 310.3469397 6.63889404 309.47424438 6.65350342 308.57510376 C6.68572998 307.73076782 6.71795654 306.88643188 6.75115967 306.01651001 C6.77210693 305.24146118 6.7930542 304.46641235 6.81463623 303.6678772 C7.36053467 301.46963501 7.36053467 301.46963501 11.36053467 297.46963501 C20.27053467 297.13963501 29.18053467 296.80963501 38.36053467 296.46963501 C38.36053467 270.06963501 38.36053467 243.66963501 38.36053467 216.46963501 C11.96053467 216.46963501 -14.43946533 216.46963501 -41.63946533 216.46963501 Z M-201.63946533 272.46963501 C-201.63946533 314.70963501 -201.63946533 356.94963501 -201.63946533 400.46963501 C-196.35946533 400.46963501 -191.07946533 400.46963501 -185.63946533 400.46963501 C-185.61368408 399.0606897 -185.58790283 397.65174438 -185.56134033 396.20010376 C-185.50506559 394.35241626 -185.44771811 392.50476121 -185.38946533 390.65713501 C-185.37528564 389.72836548 -185.36110596 388.79959595 -185.34649658 387.84268188 C-185.31427002 386.9500061 -185.28204346 386.05733032 -185.24884033 385.13760376 C-185.22789307 384.31542358 -185.2069458 383.49324341 -185.18536377 382.64614868 C-184.63946533 380.46963501 -184.63946533 380.46963501 -183.1206665 378.70718384 C-179.58586394 376.94413019 -176.19786015 377.00189261 -172.33087158 377.00088501 C-171.52713608 376.99327148 -170.72340057 376.98565796 -169.89530945 376.97781372 C-168.19832459 376.96702634 -166.50127342 376.9641541 -164.80426025 376.96865845 C-162.21369246 376.96963061 -159.62608981 376.92800286 -157.03594971 376.88369751 C-155.38426316 376.87848995 -153.73256634 376.87580233 -152.08087158 376.87588501 C-151.30989639 376.85948975 -150.5389212 376.84309448 -149.74458313 376.82620239 C-145.77927519 376.87692391 -143.84905211 377.31083272 -140.65606689 379.73013306 C-138.64581476 382.46100947 -138.00385338 383.58632195 -137.93243408 386.89541626 C-137.90343018 387.69141235 -137.87442627 388.48740845 -137.84454346 389.30752563 C-137.83874268 390.12414673 -137.83294189 390.94076782 -137.82696533 391.78213501 C-137.80182861 392.61809204 -137.77669189 393.45404907 -137.75079346 394.31533813 C-137.69219543 396.3662691 -137.6629004 398.41800094 -137.63946533 400.46963501 C-132.35946533 400.46963501 -127.07946533 400.46963501 -121.63946533 400.46963501 C-121.63946533 358.22963501 -121.63946533 315.98963501 -121.63946533 272.46963501 C-148.03946533 272.46963501 -174.43946533 272.46963501 -201.63946533 272.46963501 Z M118.36053467 272.46963501 C118.36053467 314.70963501 118.36053467 356.94963501 118.36053467 400.46963501 C123.64053467 400.46963501 128.92053467 400.46963501 134.36053467 400.46963501 C134.3818042 398.60758423 134.3818042 398.60758423 134.40350342 396.70791626 C134.45041667 395.06595258 134.49866399 393.42402664 134.54803467 391.78213501 C134.55383545 390.96551392 134.55963623 390.14889282 134.56561279 389.30752563 C134.5946167 388.51152954 134.62362061 387.71553345 134.65350342 386.89541626 C134.66921387 386.16749878 134.68492432 385.4395813 134.70111084 384.68960571 C135.75170694 381.15274146 137.44172398 379.68119542 140.36053467 377.46963501 C143.37239622 376.99458393 145.80162715 376.81208148 148.80194092 376.87588501 C149.60663315 376.87584473 150.41132538 376.87580444 151.24040222 376.87576294 C152.9357182 376.88110805 154.6310344 376.89864788 156.32611084 376.92764282 C158.91843442 376.96956062 161.50816308 376.96870401 164.10076904 376.96182251 C165.75117769 376.97231382 167.40157297 376.98525161 169.05194092 377.00088501 C169.82494034 377.00108643 170.59793976 377.00128784 171.3943634 377.00149536 C174.55590139 377.07094735 176.99190453 377.28577334 179.84173584 378.70718384 C181.77542752 380.95108679 181.89497944 382.19659222 181.96990967 385.13760376 C182.01824951 386.47661743 182.01824951 386.47661743 182.06756592 387.84268188 C182.08174561 388.77145142 182.09592529 389.70022095 182.11053467 390.65713501 C182.14018311 391.5975061 182.16983154 392.5378772 182.20037842 393.50674438 C182.27105359 395.82724579 182.31806095 398.14844614 182.36053467 400.46963501 C187.64053467 400.46963501 192.92053467 400.46963501 198.36053467 400.46963501 C198.36053467 358.22963501 198.36053467 315.98963501 198.36053467 272.46963501 C171.96053467 272.46963501 145.56053467 272.46963501 118.36053467 272.46963501 Z M-105.63946533 312.46963501 C-105.63946533 373.51963501 -105.63946533 434.56963501 -105.63946533 497.46963501 C-92.43946533 497.46963501 -79.23946533 497.46963501 -65.63946533 497.46963501 C-65.61368408 493.45678345 -65.58790283 489.44393188 -65.56134033 485.30947876 C-65.52956173 482.0662317 -65.49390589 478.82307761 -65.45567322 475.57990265 C-65.4166418 472.18041702 -65.38409876 468.78118084 -65.36846924 465.38150024 C-65.23642788 441.48641492 -64.01508712 421.19932012 -46.49102783 403.03994751 C-35.49356719 393.12716791 -21.61245788 386.23097361 -6.63946533 385.46963501 C-5.88794189 385.43096313 -5.13641846 385.39229126 -4.36212158 385.35244751 C14.14933408 384.82605541 30.17629324 391.5778714 43.89569092 403.71182251 C48.50607166 408.40919156 51.74840739 413.53130546 54.73553467 419.34463501 C55.05755859 419.96797729 55.37958252 420.59131958 55.71136475 421.23355103 C60.67051908 431.53111231 61.81240777 442.02709562 61.87225342 453.32901001 C61.89020462 454.59940125 61.90815582 455.86979248 61.926651 457.17868042 C61.97126004 460.51258674 62.00376187 463.84613907 62.03009033 467.1802063 C62.06017771 470.5997289 62.1064545 474.01903285 62.15155029 477.43838501 C62.23844955 484.11548139 62.29886288 490.7920686 62.36053467 497.46963501 C75.56053467 497.46963501 88.76053467 497.46963501 102.36053467 497.46963501 C102.36053467 436.41963501 102.36053467 375.36963501 102.36053467 312.46963501 C97.08053467 312.46963501 91.80053467 312.46963501 86.36053467 312.46963501 C86.32315186 313.87858032 86.28576904 315.28752563 86.24725342 316.73916626 C86.1815997 318.5868494 86.11515216 320.43450446 86.04803467 322.28213501 C86.01419678 323.67528931 86.01419678 323.67528931 85.97967529 325.09658813 C85.94422607 325.98926392 85.90877686 326.8819397 85.87225342 327.80166626 C85.84606934 328.62384644 85.81988525 329.44602661 85.79290771 330.29312134 C85.25774488 332.9870664 84.4737734 333.75687544 82.36053467 335.46963501 C79.39501094 335.7802839 76.64391738 335.91378572 73.67694092 335.90322876 C72.3990696 335.91109154 72.3990696 335.91109154 71.09538269 335.91911316 C69.29404795 335.92553505 67.49267128 335.92419418 65.69134521 335.91567993 C62.93643378 335.90717637 60.1836002 335.9359167 57.42889404 335.96768188 C55.67824362 335.96929417 53.92758953 335.96871584 52.17694092 335.96572876 C51.35391983 335.97696274 50.53089874 335.98819672 49.68293762 335.99977112 C45.95552296 335.95440838 43.96714814 335.89131182 40.84759521 333.72280884 C39.19862906 331.22431784 38.83134091 329.88946591 38.75115967 326.92276001 C38.71893311 326.07842407 38.68670654 325.23408813 38.65350342 324.36416626 C38.63932373 323.49147095 38.62514404 322.61877563 38.61053467 321.71963501 C38.58088623 320.83147095 38.55123779 319.94330688 38.52069092 319.02822876 C38.45018406 316.84251603 38.40307233 314.6560709 38.36053467 312.46963501 C33.08053467 312.46963501 27.80053467 312.46963501 22.36053467 312.46963501 C22.33475342 313.79479126 22.30897217 315.11994751 22.28240967 316.48526001 C22.22612501 318.23008445 22.16877775 319.97487484 22.11053467 321.71963501 C22.09635498 322.59233032 22.08217529 323.46502563 22.06756592 324.36416626 C22.03533936 325.2085022 22.00311279 326.05283813 21.96990967 326.92276001 C21.9489624 327.69780884 21.92801514 328.47285767 21.90643311 329.27139282 C21.11058989 332.47612106 20.07056549 333.5714476 17.36053467 335.46963501 C14.37983954 335.8673612 11.77649164 336.0311056 8.79803467 336.00088501 C7.55557983 336.00662537 7.55557983 336.00662537 6.2880249 336.01248169 C4.5397215 336.01519926 2.79137733 336.00784882 1.04315186 335.99111938 C-1.6306231 335.96970582 -4.3017113 335.99092444 -6.97540283 336.01651001 C-8.67592959 336.0138667 -10.37645467 336.00874166 -12.07696533 336.00088501 C-12.87497559 336.00898193 -13.67298584 336.01707886 -14.49517822 336.02542114 C-18.01511268 335.96605378 -20.21828996 335.76463896 -23.13653564 333.72061157 C-24.80509042 331.22157404 -25.16838453 329.89962467 -25.24884033 326.92276001 C-25.28106689 326.07842407 -25.31329346 325.23408813 -25.34649658 324.36416626 C-25.36067627 323.49147095 -25.37485596 322.61877563 -25.38946533 321.71963501 C-25.41911377 320.83147095 -25.44876221 319.94330688 -25.47930908 319.02822876 C-25.54981594 316.84251603 -25.59692767 314.6560709 -25.63946533 312.46963501 C-30.91946533 312.46963501 -36.19946533 312.46963501 -41.63946533 312.46963501 C-41.67813721 314.45736938 -41.67813721 314.45736938 -41.71759033 316.48526001 C-41.77387499 318.23008445 -41.83122225 319.97487484 -41.88946533 321.71963501 C-41.90364502 322.59233032 -41.91782471 323.46502563 -41.93243408 324.36416626 C-41.96466064 325.2085022 -41.99688721 326.05283813 -42.03009033 326.92276001 C-42.0510376 327.69780884 -42.07198486 328.47285767 -42.09356689 329.27139282 C-42.89216809 332.48722698 -43.91076141 333.57282392 -46.63946533 335.46963501 C-49.58155784 336.04322915 -52.46630094 336.00653546 -55.45587158 335.96572876 C-56.30874252 335.96718399 -57.16161346 335.96863922 -58.04032898 335.97013855 C-59.83992943 335.96848118 -61.6395443 335.956938 -63.43902588 335.93618774 C-66.19590281 335.90719876 -68.9508605 335.91558816 -71.70782471 335.92861938 C-73.45718302 335.9223828 -75.20653526 335.91399247 -76.95587158 335.90322876 C-78.19343956 335.90763222 -78.19343956 335.90763222 -79.45600891 335.91212463 C-85.21083195 335.81703822 -85.21083195 335.81703822 -87.35351562 334.08041382 C-89.0636064 331.93835649 -89.06454494 330.52213537 -89.15118408 327.80166626 C-89.20435791 326.46265259 -89.20435791 326.46265259 -89.25860596 325.09658813 C-89.28116455 324.1678186 -89.30372314 323.23904907 -89.32696533 322.28213501 C-89.36112549 321.34176392 -89.39528564 320.40139282 -89.43048096 319.43252563 C-89.51293684 317.11198141 -89.57787836 314.79082684 -89.63946533 312.46963501 C-94.91946533 312.46963501 -100.19946533 312.46963501 -105.63946533 312.46963501 Z M-233.63946533 392.46963501 C-233.63946533 427.11963501 -233.63946533 461.76963501 -233.63946533 497.46963501 C-196.67946533 497.46963501 -159.71946533 497.46963501 -121.63946533 497.46963501 C-121.63946533 470.73963501 -121.63946533 444.00963501 -121.63946533 416.46963501 C-135.49946533 415.97463501 -135.49946533 415.97463501 -149.63946533 415.46963501 C-152.85854295 412.25055739 -153.01745061 412.00089718 -153.15118408 407.80166626 C-153.1866333 406.90899048 -153.22208252 406.0163147 -153.25860596 405.09658813 C-153.28116455 404.1678186 -153.30372314 403.23904907 -153.32696533 402.28213501 C-153.36112549 401.34176392 -153.39528564 400.40139282 -153.43048096 399.43252563 C-153.51293684 397.11198141 -153.57787836 394.79082684 -153.63946533 392.46963501 C-158.91946533 392.46963501 -164.19946533 392.46963501 -169.63946533 392.46963501 C-169.68844971 393.72260376 -169.73743408 394.97557251 -169.78790283 396.26651001 C-169.86295116 397.91757322 -169.9384981 399.56861382 -170.01446533 401.21963501 C-170.04540283 402.04463501 -170.07634033 402.86963501 -170.10821533 403.71963501 C-170.14688721 404.51885376 -170.18555908 405.31807251 -170.22540283 406.14151001 C-170.25682373 406.87466431 -170.28824463 407.6078186 -170.32061768 408.3631897 C-170.68304345 410.75753091 -171.37593581 412.40959354 -172.63946533 414.46963501 C-175.94393427 416.12186948 -179.62700427 415.65422964 -183.26055908 415.67276001 C-184.54411034 415.68131012 -184.54411034 415.68131012 -185.85359192 415.69003296 C-187.66509767 415.699486 -189.47662065 415.70601815 -191.28814697 415.70986938 C-194.06245799 415.71958421 -196.83603111 415.75060792 -199.61016846 415.78213501 C-201.36862759 415.7886641 -203.12709203 415.79391494 -204.88555908 415.79776001 C-205.71687851 415.81010681 -206.54819794 415.82245361 -207.40470886 415.83517456 C-213.21484686 415.8126501 -213.21484686 415.8126501 -215.35549927 414.08338928 C-217.06166645 411.93899103 -217.06455681 410.52176273 -217.15118408 407.80166626 C-217.20435791 406.46265259 -217.20435791 406.46265259 -217.25860596 405.09658813 C-217.28116455 404.1678186 -217.30372314 403.23904907 -217.32696533 402.28213501 C-217.36112549 401.34176392 -217.39528564 400.40139282 -217.43048096 399.43252563 C-217.51293684 397.11198141 -217.57787836 394.79082684 -217.63946533 392.46963501 C-222.91946533 392.46963501 -228.19946533 392.46963501 -233.63946533 392.46963501 Z M150.36053467 392.46963501 C150.32315186 393.87858032 150.28576904 395.28752563 150.24725342 396.73916626 C150.1815997 398.5868494 150.11515216 400.43450446 150.04803467 402.28213501 C150.02547607 403.21090454 150.00291748 404.13967407 149.97967529 405.09658813 C149.94422607 405.98926392 149.90877686 406.8819397 149.87225342 407.80166626 C149.84606934 408.62384644 149.81988525 409.44602661 149.79290771 410.29312134 C149.36053467 412.46963501 149.36053467 412.46963501 146.36053467 415.46963501 C137.12053467 415.79963501 127.88053467 416.12963501 118.36053467 416.46963501 C118.36053467 443.19963501 118.36053467 469.92963501 118.36053467 497.46963501 C155.32053467 497.46963501 192.28053467 497.46963501 230.36053467 497.46963501 C230.36053467 462.81963501 230.36053467 428.16963501 230.36053467 392.46963501 C225.08053467 392.46963501 219.80053467 392.46963501 214.36053467 392.46963501 C214.32315186 393.87858032 214.28576904 395.28752563 214.24725342 396.73916626 C214.1815997 398.5868494 214.11515216 400.43450446 214.04803467 402.28213501 C214.02547607 403.21090454 214.00291748 404.13967407 213.97967529 405.09658813 C213.92650146 406.43560181 213.92650146 406.43560181 213.87225342 407.80166626 C213.84606934 408.62384644 213.81988525 409.44602661 213.79290771 410.29312134 C213.25769998 412.9872924 212.47580197 413.75866931 210.36053467 415.46963501 C207.38271338 415.75589178 204.61852685 415.86601892 201.64178467 415.83291626 C200.78749878 415.83341476 199.93321289 415.83391327 199.05303955 415.83442688 C197.24747389 415.83208716 195.44190492 415.82236458 193.63641357 415.80581665 C190.87098051 415.78222413 188.10651154 415.78525633 185.34100342 415.79190063 C183.58709141 415.78632379 181.83318347 415.77921387 180.07928467 415.77041626 C178.83701111 415.77178337 178.83701111 415.77178337 177.56964111 415.7731781 C173.66262136 415.72486862 171.68337085 415.68485913 168.36053467 413.46963501 C167.47414078 410.81045335 167.18064442 408.9889886 167.04412842 406.23916626 C167.00223389 405.43672485 166.96033936 404.63428345 166.91717529 403.80752563 C166.87785889 402.97414673 166.83854248 402.14076782 166.79803467 401.28213501 C166.75485107 400.43715454 166.71166748 399.59217407 166.66717529 398.72158813 C166.56121949 396.63779068 166.46038447 394.55373398 166.36053467 392.46963501 C161.08053467 392.46963501 155.80053467 392.46963501 150.36053467 392.46963501 Z " fill="#000000" transform="translate(257.63946533203125,-0.469635009765625)"/>
<path d="M0 0 C5.8452517 4.04671272 9.6071144 8.92944739 11 16 C11.73308945 24.28954997 10.48787917 30.40639676 5.75 37.25 C0.41959423 42.58040577 -5.21740443 45.10606505 -12.75 45.25 C-20.69768514 45.14481005 -26.33421247 42.66578753 -32 37 C-36.73324697 30.27062332 -37.66741686 24.05754167 -37 16 C-35.61105596 9.78802979 -32.56212223 4.50549271 -27.26171875 0.77734375 C-18.74895462 -4.30844039 -8.80073287 -4.72280708 0 0 Z M-18.3125 14.625 C-20.37096501 17.5220989 -20.8524997 19.45999272 -21 23 C-20.19470612 25.63550724 -19.44657038 26.66507222 -17.25 28.3125 C-14.15305467 29.25878885 -12.09970844 28.85736616 -9 28 C-6.36816516 26.27569441 -6.03570635 25.12909218 -5.1875 22.0625 C-4.9903647 18.84262343 -5.15035573 17.58950198 -7 15 C-11.06220118 12.29186588 -14.18281117 11.7230565 -18.3125 14.625 Z " fill="#000000" transform="translate(269,235)"/>
<path d="M0 0 C5.43475883 4.51706972 8.91391719 9.98571516 10 17 C10.34292946 24.50158193 8.89193858 30.25291534 4 36 C-1.46412963 41.7188676 -6.35700937 44.02093088 -14.3125 44.375 C-20.95764355 44.21270341 -26.08964608 42.66550579 -31.04296875 38.12890625 C-37.10810149 31.51353466 -38.48012123 26.22248749 -38.30859375 17.29296875 C-37.70258732 10.82634313 -35.49799189 6.06877273 -30.75 1.625 C-21.2624514 -5.6420585 -10.29763739 -6.04241533 0 0 Z M-21 15 C-22.44430855 17.88861709 -22.37688506 19.79647701 -22 23 C-19.54853142 26.31669279 -18.04375441 27.76080628 -14 28.6875 C-10.74250242 28.19513758 -10.74250242 28.19513758 -8.0625 25.375 C-5.75454198 22.21391971 -5.75454198 22.21391971 -5.875 18.875 C-7.27522837 15.29663862 -8.73066486 13.97680729 -12 12 C-16.29387011 12 -17.58866484 12.60284556 -21 15 Z " fill="#000000" transform="translate(110,292)"/>
<path d="M0 0 C5.82376477 3.70819308 9.3094666 8.27787901 11 15 C11.90820904 22.64019155 11.86117385 29.73766428 7 36 C2.43994156 40.94382574 -2.76526066 44.54287671 -9.60546875 45.28125 C-16.53159772 45.51052875 -22.41333576 44.85778479 -27.94140625 40.453125 C-34.05909085 34.68027857 -36.53178532 29.19385731 -37.0546875 20.8046875 C-36.91220311 13.49727366 -34.0686214 7.99000909 -29.08203125 2.73046875 C-20.65776108 -4.27131678 -9.53677978 -5.13818339 0 0 Z M-17.875 14.5625 C-20.49205081 17.56441122 -21.15957397 19.01065066 -21 23 C-19.08667706 26.49598994 -19.08667706 26.49598994 -16 29 C-13 29.91666667 -13 29.91666667 -10 29 C-6.63003665 26.50915752 -5.18189573 25.11411135 -4.5 20.9375 C-5.06667329 17.60829443 -5.44921042 16.22165544 -8 14 C-12.11294095 12.78135083 -14.06522714 12.49197127 -17.875 14.5625 Z " fill="#000000" transform="translate(429,291)"/>
</svg>
