<?xml version="1.0" encoding="UTF-8"?>
<svg version="1.1" xmlns="http://www.w3.org/2000/svg" width="512" height="512">
<path d="M0 0 C0.84625443 -0.00524185 1.69250885 -0.0104837 2.56440735 -0.0158844 C4.34183662 -0.02227357 6.11930836 -0.0210081 7.89672852 -0.01245117 C10.61615622 -0.00389721 13.33351137 -0.03281429 16.05273438 -0.06445312 C17.78515562 -0.06606429 19.51758058 -0.06548923 21.25 -0.0625 C22.4657093 -0.07935097 22.4657093 -0.07935097 23.70597839 -0.09654236 C27.29777446 -0.05208548 29.48485682 0.11536506 32.43676758 2.24584961 C34.62445559 5.46012609 34.46782943 7.63925652 33.92578125 11.43359375 C31.70715096 14.34076448 30.40633196 15.27341018 26.92578125 16.43359375 C24.4729323 16.53932941 22.0432277 16.59458265 19.58984375 16.609375 C18.11847527 16.63257295 16.64712106 16.65669028 15.17578125 16.68164062 C12.86285846 16.71673697 10.55046128 16.74609561 8.23730469 16.75952148 C6.00000887 16.77503837 3.76423503 16.81526318 1.52734375 16.859375 C0.84072662 16.85746658 0.1541095 16.85555817 -0.55331421 16.85359192 C-5.34552845 16.97505699 -7.75084072 18.00197062 -11.07421875 21.43359375 C-12.93904092 24.05312086 -12.93904092 24.05312086 -14.53515625 27.03515625 C-15.16357422 28.15148437 -15.79199219 29.2678125 -16.43945312 30.41796875 C-17.10942712 31.63148164 -17.77934757 32.8450241 -18.44921875 34.05859375 C-19.15703982 35.32226689 -19.86604381 36.5852781 -20.57617188 37.84765625 C-22.03588708 40.44360884 -23.49137598 43.04186282 -24.94433594 45.64160156 C-28.09802529 51.27133095 -31.33758646 56.8512759 -34.57421875 62.43359375 C-38.43207947 69.10152001 -42.27646536 75.776449 -46.078125 82.4765625 C-57.35692616 102.34591265 -69.15781472 121.85000981 -81.30419922 141.20141602 C-84.71149719 146.63348816 -88.09263347 152.08012711 -91.4375 157.55078125 C-91.80000854 158.14301987 -92.16251709 158.73525848 -92.53601074 159.34544373 C-94.29375186 162.21772565 -96.04786151 165.0920585 -97.79638672 167.9699707 C-98.42818848 169.003396 -99.05999023 170.03682129 -99.7109375 171.1015625 C-100.26483154 172.01188232 -100.81872559 172.92220215 -101.3894043 173.86010742 C-105.90905853 180.76369752 -110.87329073 184.15657088 -117.88671875 188.30859375 C-119.34561523 189.21738281 -119.34561523 189.21738281 -120.83398438 190.14453125 C-128.8800277 194.93838238 -128.8800277 194.93838238 -133.15625 194.38671875 C-137.56672624 192.94608126 -137.56672624 192.94608126 -139.07421875 190.43359375 C-140.07421875 187.05859375 -140.07421875 187.05859375 -140.07421875 183.43359375 C-136.96110052 179.66030064 -133.48333049 177.33817146 -129.30175781 174.94970703 C-121.45820852 170.45961205 -116.53872917 166.40940758 -112.07421875 158.43359375 C-111.05439252 156.73792068 -110.02909523 155.04553257 -109 153.35546875 C-105.99005277 148.40178009 -103.02165155 143.42468652 -100.07421875 138.43359375 C-122.80081784 151.56127119 -122.80081784 151.56127119 -145.07421875 165.43359375 C-145.91726562 165.95566406 -146.7603125 166.47773438 -147.62890625 167.015625 C-156.44994965 172.88016484 -159.18144755 183.93032767 -162.62890625 193.47265625 C-163.04784149 194.61680496 -163.46677673 195.76095367 -163.89840698 196.93977356 C-165.02217714 200.01113815 -166.14098691 203.08425333 -167.25779724 206.15815353 C-168.41884429 209.34940586 -169.58684109 212.53810913 -170.75488281 215.72680664 C-170.9880294 216.3633294 -171.22117599 216.99985216 -171.46138763 217.65566349 C-171.93268689 218.94232401 -172.40401307 220.22897468 -172.87536621 221.51561546 C-173.58199652 223.44521767 -174.28790121 225.37508402 -174.99365234 227.30500793 C-179.21615158 238.84750286 -183.50404816 250.36484845 -187.82421875 261.87109375 C-188.14195251 262.71915588 -188.45968628 263.56721802 -188.78704834 264.440979 C-189.66790768 266.79188099 -190.55036129 269.14217621 -191.43359375 271.4921875 C-191.81800125 272.51769463 -191.81800125 272.51769463 -192.21017456 273.56391907 C-193.95800337 278.201163 -193.95800337 278.201163 -195.07421875 280.43359375 C-186.49421875 280.10359375 -177.91421875 279.77359375 -169.07421875 279.43359375 C-167.27984375 275.98921875 -165.48546875 272.54484375 -163.63671875 268.99609375 C-162.53425536 266.88781099 -161.43146324 264.77970005 -160.328125 262.671875 C-158.33807626 258.86601604 -156.36429314 255.05296439 -154.4140625 251.2265625 C-154.01566162 250.45304443 -153.61726074 249.67952637 -153.20678711 248.88256836 C-152.46951007 247.45108435 -151.73945672 246.0158491 -151.01782227 244.57641602 C-149.15587895 240.98671943 -147.73475749 238.27002564 -144.07421875 236.43359375 C-140.24660288 235.43541529 -136.35400489 234.78942715 -132.453125 234.1484375 C-130.22306648 233.72140502 -128.18033161 233.28363737 -126.07421875 232.43359375 C-124.62986787 230.19365771 -124.62986787 230.19365771 -124.07421875 227.43359375 C-122.82958838 225.38345585 -121.53424076 223.36355112 -120.19921875 221.37109375 C-119.18214844 219.83775391 -119.18214844 219.83775391 -118.14453125 218.2734375 C-116.26118178 215.69005059 -114.51214151 213.49757218 -112.07421875 211.43359375 C-108.12505725 210.86942782 -106.02778035 210.78115687 -102.69921875 213.05859375 C-100.60613012 216.11772328 -100.15984624 217.69595385 -100.07421875 221.43359375 C-101.43442762 224.63855267 -103.2907328 227.46739984 -105.19921875 230.37109375 C-105.68648437 231.14388672 -106.17375 231.91667969 -106.67578125 232.71289062 C-108.11284069 234.97358387 -109.59149187 237.20269267 -111.07421875 239.43359375 C-111.69756104 240.44437988 -111.69756104 240.44437988 -112.33349609 241.47558594 C-115.17000221 245.87520504 -117.40949062 247.50377103 -122.44921875 248.80859375 C-123.58488281 249.11023438 -124.72054687 249.411875 -125.890625 249.72265625 C-129.29799243 250.4835653 -132.59948153 251.11036238 -136.07421875 251.43359375 C-137.06421875 254.40359375 -137.06421875 254.40359375 -138.07421875 257.43359375 C-142.03421875 265.02359375 -145.99421875 272.61359375 -150.07421875 280.43359375 C-132.58421875 280.43359375 -115.09421875 280.43359375 -97.07421875 280.43359375 C-96.16671875 274.59671875 -95.25921875 268.75984375 -94.32421875 262.74609375 C-88.6749993 226.96669012 -83.23069591 204.38611492 -54.046875 180.87109375 C-50.54100955 177.99637622 -47.11804441 175.03579034 -43.69921875 172.05859375 C-42.4153796 170.94399312 -41.13152547 169.82940974 -39.84765625 168.71484375 C-38.00011751 167.10993018 -36.15403613 165.5035391 -34.31347656 163.890625 C-16.8972845 148.64520473 -1.76499822 141.39317656 21.49804688 142.26318359 C32.85798899 143.06057293 43.06199948 149.18742498 52.92578125 154.43359375 C53.9405957 154.96903809 54.95541016 155.50448242 56.00097656 156.05615234 C59.4177299 157.86146527 62.82903753 159.67664157 66.23828125 161.49609375 C67.32326904 162.07343262 68.40825684 162.65077148 69.52612305 163.24560547 C87.13302059 172.72531276 102.78696404 183.10779739 109.07952881 203.09899902 C111.37822301 212.42376373 112.96725236 221.66412648 114.06640625 231.21484375 C114.23916353 232.64939918 114.41282757 234.08384566 114.58734131 235.51818848 C115.03683969 239.23235187 115.47429123 242.94783042 115.90893555 246.66375732 C116.35756336 250.47986428 116.81800289 254.29454545 117.27734375 258.109375 C118.17148849 265.54947052 119.05176552 272.99110169 119.92578125 280.43359375 C126.52578125 280.43359375 133.12578125 280.43359375 139.92578125 280.43359375 C139.05953125 278.190625 139.05953125 278.190625 138.17578125 275.90234375 C137.42509304 273.91301998 136.67513132 271.92342196 135.92578125 269.93359375 C135.54421875 268.95132812 135.16265625 267.9690625 134.76953125 266.95703125 C132.61672352 261.19058197 131.30251819 256.59619475 131.92578125 250.43359375 C133.48828125 247.93359375 133.48828125 247.93359375 135.92578125 246.43359375 C139.42578125 245.93359375 139.42578125 245.93359375 142.92578125 246.43359375 C146.29033375 249.1789545 147.75867152 251.82800267 149.25 255.86328125 C149.63865234 256.90613281 150.02730469 257.94898438 150.42773438 259.0234375 C151.01458008 260.64958984 151.01458008 260.64958984 151.61328125 262.30859375 C152.2175293 263.92314453 152.2175293 263.92314453 152.83398438 265.5703125 C154.69940562 270.63850891 156.02895165 275.05261615 156.92578125 280.43359375 C162.86578125 280.10359375 168.80578125 279.77359375 174.92578125 279.43359375 C170.99699655 267.62427877 167.06677928 255.81544289 163.13430595 244.00735569 C161.30664953 238.51925636 159.47952689 233.03098075 157.65380859 227.54223633 C150.06599723 204.73189699 142.4459004 181.93451324 134.65391159 159.19301033 C129.58740479 144.40584824 124.61376233 129.59001617 119.69314575 114.75372314 C117.47282637 108.0592401 115.24482211 101.36731252 113.015625 94.67578125 C112.79609098 94.01675182 112.57655697 93.3577224 112.35037041 92.67872238 C108.27735898 80.45571156 104.15597949 68.24963704 99.98828125 56.05859375 C99.715 55.25848877 99.44171875 54.45838379 99.16015625 53.6340332 C97.90750114 49.9693262 96.64850639 46.30709838 95.37548828 42.64941406 C94.34485342 39.68071762 93.35992227 36.70032632 92.39404297 33.70996094 C91.88254426 32.16729871 91.37099005 30.62465489 90.859375 29.08203125 C90.63838638 28.37237213 90.41739777 27.66271301 90.18971252 26.93154907 C88.66239087 22.3962091 87.07749912 19.87024718 82.92578125 17.43359375 C80.3191311 16.83469906 80.3191311 16.83469906 77.58203125 16.89453125 C76.08349609 16.85972656 76.08349609 16.85972656 74.5546875 16.82421875 C73.00587891 16.81648438 73.00587891 16.81648438 71.42578125 16.80859375 C69.3735786 16.78297324 67.32145658 16.74939358 65.26953125 16.70703125 C64.36396484 16.70106934 63.45839844 16.69510742 62.52539062 16.68896484 C59.65406389 16.40690175 57.51728776 15.68608031 54.92578125 14.43359375 C52.75858919 11.77385805 52.93043262 10.34521779 53.11328125 6.87109375 C54.17008024 2.40002108 54.17008024 2.40002108 56.92578125 0.43359375 C61.58057715 -0.25369691 66.28853068 -0.07563502 70.98828125 -0.06640625 C72.27412109 -0.09476563 73.55996094 -0.123125 74.88476562 -0.15234375 C84.81163188 -0.172613 92.46573859 1.64501409 99.67578125 8.74609375 C102.52797831 12.41263118 104.18099209 16.24846899 105.73901367 20.58276367 C105.99521831 21.28119227 106.25142294 21.97962088 106.51539135 22.69921398 C109.53578695 30.99678077 112.35398431 39.36383676 115.1640625 47.734375 C115.73578222 49.43075876 116.30774238 51.12706149 116.87992859 52.82328796 C118.36638261 57.23193208 119.84960218 61.64165737 121.33209229 66.05163574 C122.84893121 70.56179746 124.36895788 75.07088454 125.88867188 79.58007812 C128.10101066 86.1456871 130.31207648 92.71172217 132.52075195 99.27856445 C132.75084961 99.96264877 132.98094727 100.64673309 133.21801758 101.35154724 C134.12358139 104.04458454 135.02731 106.73817999 135.92578125 109.43359375 C138.2563072 110.34322572 138.2563072 110.34322572 141.21875 110.875 C142.39872559 111.12266113 143.57870117 111.37032227 144.79443359 111.62548828 C146.17116595 111.89681018 147.54830917 112.16605272 148.92578125 112.43359375 C149.68070862 112.5820575 150.43563599 112.73052124 151.21343994 112.88348389 C158.1197366 114.23898432 165.02889844 115.58219022 171.9465332 116.87866211 C174.58374475 117.3744397 177.21770151 117.88519617 179.8515625 118.3984375 C180.64444168 118.54337143 181.43732086 118.68830536 182.25422668 118.83763123 C189.84249867 120.34055121 198.4593992 123.41682415 203.03222656 130.03491211 C207.49073654 137.6833038 210.13513038 145.97026705 212.98828125 154.30859375 C213.50898301 155.81277115 214.03046271 157.31667948 214.55273438 158.8203125 C215.31420165 161.01265314 216.07459044 163.20530666 216.82975769 165.39982605 C218.53964502 170.36357895 220.33180988 175.29102955 222.20458984 180.19604492 C223.40593081 183.9232927 223.53997812 186.54368025 222.92578125 190.43359375 C220.34410171 193.4708638 218.80079132 194.30859231 214.86328125 194.87109375 C211.53574517 194.37550327 210.38506321 193.67202515 207.92578125 191.43359375 C206.83302307 189.29093933 206.83302307 189.29093933 205.99047852 186.78198242 C205.66656631 185.84057907 205.34265411 184.89917572 205.00892639 183.929245 C204.67340256 182.91360977 204.33787872 181.89797455 203.9921875 180.8515625 C203.63237289 179.80462723 203.27255829 178.75769196 202.90184021 177.67903137 C201.75138811 174.33052896 200.61787034 170.97668731 199.48828125 167.62109375 C198.00448617 163.2134895 196.50364712 158.81224607 194.9921875 154.4140625 C194.6586879 153.40449997 194.32518829 152.39493744 193.98158264 151.3547821 C192.05599673 145.75661089 190.27453032 141.52650966 185.92578125 137.43359375 C183.51165988 136.25998718 183.51165988 136.25998718 180.890625 135.89453125 C179.91416016 135.70632813 178.93769531 135.518125 177.93164062 135.32421875 C176.91908203 135.1540625 175.90652344 134.98390625 174.86328125 134.80859375 C172.89322062 134.44145213 170.92316889 134.07426273 168.953125 133.70703125 C167.89464355 133.51850586 166.83616211 133.32998047 165.74560547 133.13574219 C157.7857777 131.67259092 149.85869201 130.03529374 141.92578125 128.43359375 C147.19397076 154.34116367 147.19397076 154.34116367 162.76171875 174.06640625 C168.28347043 177.23676919 174.24463012 179.48554105 180.32885742 181.32910156 C183.29414703 182.59026262 184.34144637 183.66076072 185.92578125 186.43359375 C186.60812166 190.44234365 186.24161455 191.95474971 183.98828125 195.37109375 C180.32531313 197.83799065 178.72630795 197.77340409 174.5 197.21875 C172.06332344 196.47554516 170.03018118 195.53567705 167.76489258 194.38452148 C167.04562088 194.02035629 166.32634918 193.6561911 165.58528137 193.2809906 C165.03764633 193.00134964 164.49001129 192.72170868 163.92578125 192.43359375 C166.52380159 200.25117133 169.12359842 208.06815519 171.72546387 215.88445377 C172.93449471 219.51669143 174.14298685 223.14910618 175.35009766 226.78198242 C176.74862014 230.99064021 178.14902645 235.19866772 179.55078125 239.40625 C179.89402435 240.43701597 179.89402435 240.43701597 180.24420166 241.4886055 C183.61739543 251.61063024 187.06490405 261.703849 190.64111328 271.75636292 C190.9451709 272.61720993 191.24922852 273.47805695 191.5625 274.36499023 C191.82764404 275.108452 192.09278809 275.85191376 192.3659668 276.61790466 C192.92578125 278.43359375 192.92578125 278.43359375 192.92578125 280.43359375 C208.10578125 280.43359375 223.28578125 280.43359375 238.92578125 280.43359375 C236.56059327 273.60139668 234.19478287 266.76942165 231.82739258 259.93798828 C231.02299106 257.61617462 230.21895001 255.29423604 229.4152832 252.97216797 C228.25698122 249.62564347 227.09736391 246.27957718 225.9375 242.93359375 C225.40294441 241.3878064 225.40294441 241.3878064 224.85758972 239.81079102 C223.36169006 235.49886528 221.85063303 231.20306289 220.20629883 226.9453125 C218.79154885 223.06547196 218.30865491 220.52205578 218.92578125 216.43359375 C221.40071484 213.01236202 222.80841906 211.63882354 226.98828125 210.87109375 C230.66656342 211.57544565 231.54709804 212.57525717 233.92578125 215.43359375 C235.33447266 218.48706055 235.33447266 218.48706055 236.65234375 222.1953125 C237.02391098 223.2275721 237.02391098 223.2275721 237.40298462 224.28068542 C238.25564487 226.66097854 239.09060244 229.04711423 239.92578125 231.43359375 C240.58496205 233.2901072 241.2448225 235.14637943 241.90527344 237.00244141 C243.69189381 242.03883472 245.4573819 247.08234567 247.21435547 252.12915039 C248.31526319 255.28764227 249.42320876 258.443614 250.53125 261.59960938 C251.23350227 263.61313156 251.93534103 265.62679802 252.63671875 267.640625 C252.96787689 268.58114212 253.29903503 269.52165924 253.64022827 270.49067688 C253.94119415 271.35976181 254.24216003 272.22884674 254.55224609 273.12426758 C254.81838715 273.88653152 255.0845282 274.64879547 255.35873413 275.43415833 C255.92578125 277.43359375 255.92578125 277.43359375 255.92578125 280.43359375 C257.09496094 280.3871875 258.26414062 280.34078125 259.46875 280.29296875 C261.01690145 280.25543781 262.56508064 280.21903906 264.11328125 280.18359375 C264.88220703 280.15007812 265.65113281 280.1165625 266.44335938 280.08203125 C270.3921884 280.01424019 272.45697241 280.15910982 275.94140625 282.19921875 C278.02679262 284.54733096 278.590421 285.35738468 278.48828125 288.43359375 C278.48957031 289.09359375 278.49085938 289.75359375 278.4921875 290.43359375 C277.64063548 293.4404533 276.41009065 294.52889763 273.92578125 296.43359375 C271.01507644 296.82550429 268.48361111 296.97115316 265.5736084 296.93695831 C264.71925107 296.94277208 263.86489374 296.94858584 262.9846468 296.95457578 C260.1021126 296.96925347 257.22041958 296.95525441 254.33789062 296.94152832 C252.25838534 296.94613416 250.1788833 296.95248493 248.09938812 296.9604373 C242.36966681 296.97719722 236.64021062 296.968854 230.91048813 296.95649242 C224.73726315 296.94747146 218.56408494 296.96139695 212.39086914 296.97241211 C200.9913944 296.98920261 189.59202822 296.98770276 178.19255614 296.97676624 C167.66245996 296.9667131 157.13239492 296.96407296 146.60229492 296.96885681 C145.9044316 296.96916235 145.20656828 296.96946789 144.48755759 296.96978269 C141.65486635 296.971028 138.82217513 296.97230159 135.98948392 296.97362175 C109.40420185 296.98586407 82.81897388 296.97475389 56.23370016 296.95323416 C32.6023857 296.93425102 8.97115745 296.93594951 -14.66015625 296.95507812 C-41.19609653 296.97648601 -67.73198899 296.98499593 -94.26793671 296.97262907 C-97.09553527 296.97134616 -99.92313384 296.9700948 -102.75073242 296.96885681 C-103.44698457 296.9685405 -104.14323672 296.96822419 -104.86058742 296.9678983 C-115.38534286 296.963344 -125.91006379 296.9686777 -136.43481445 296.97877502 C-148.39919185 296.99019612 -160.36346738 296.98700065 -172.32784081 296.96565205 C-178.43662677 296.95511246 -184.5452374 296.95106927 -190.65402222 296.96424866 C-196.24000509 296.97611819 -201.82564918 296.96970014 -207.41160107 296.94833845 C-209.43845374 296.94384923 -211.46533471 296.94619018 -213.49216938 296.9558416 C-216.23587526 296.96791014 -218.9784028 296.95562836 -221.7220459 296.93695831 C-222.91745389 296.95100531 -222.91745389 296.95100531 -224.13701153 296.96533608 C-227.70876606 296.91636635 -229.68495963 296.73203497 -232.56082916 294.52713346 C-234.19072642 292.27242346 -234.64209517 291.18632072 -234.63671875 288.43359375 C-234.65863281 287.77359375 -234.68054688 287.11359375 -234.703125 286.43359375 C-233.66901076 283.14498202 -232.01461068 282.15517037 -229.07421875 280.43359375 C-226.11486092 279.96926766 -223.24770662 280.05344172 -220.26171875 280.18359375 C-219.47345703 280.20164062 -218.68519531 280.2196875 -217.87304688 280.23828125 C-215.93957614 280.28515327 -214.0067359 280.35688965 -212.07421875 280.43359375 C-211.9772168 279.7991333 -211.88021484 279.16467285 -211.78027344 278.51098633 C-210.80603756 274.2647058 -209.29028147 270.27618322 -207.77734375 266.1953125 C-207.43610474 265.26613007 -207.09486572 264.33694763 -206.74328613 263.37960815 C-205.60778047 260.29187693 -204.46644307 257.20634545 -203.32421875 254.12109375 C-202.525039 251.95761055 -201.72588584 249.79411753 -200.92675781 247.63061523 C-199.2184614 243.00947545 -197.50663122 238.38966017 -195.79296875 233.77050781 C-193.943027 228.78253534 -192.09953672 223.79225158 -190.26171875 218.79980469 C-188.14702453 213.05542962 -186.02471526 207.31393413 -183.89359665 201.57563114 C-182.74965981 198.49497998 -181.60987067 195.41290607 -180.47619629 192.32846069 C-179.20072693 188.86117309 -177.91243552 185.39890217 -176.62109375 181.9375 C-176.24980347 180.91961395 -175.87851318 179.90172791 -175.49597168 178.85299683 C-169.69911403 163.43824472 -161.52224766 154.52402712 -147.26171875 146.49609375 C-145.31273681 145.37163605 -143.36487458 144.24523599 -141.41796875 143.1171875 C-140.39058594 142.52405762 -139.36320312 141.93092773 -138.3046875 141.31982422 C-131.98085482 137.62741708 -125.74072671 133.79537476 -119.49221802 129.97738647 C-113.0081852 126.01609498 -106.5107536 122.08690218 -99.9453125 118.26171875 C-98.81005127 117.59575684 -97.67479004 116.92979492 -96.50512695 116.24365234 C-94.36532192 114.99115292 -92.21965034 113.7486004 -90.06713867 112.51806641 C-79.7273289 106.44253204 -75.21667542 99.42181115 -69.57421875 88.99609375 C-68.33387776 86.74247232 -67.09164225 84.4898927 -65.84765625 82.23828125 C-65.21956055 81.0997168 -64.59146484 79.96115234 -63.94433594 78.78808594 C-61.10191778 73.68954475 -58.15686656 68.65340843 -55.19921875 63.62109375 C-51.40296439 57.15419979 -47.6289578 50.67632714 -43.91796875 44.16015625 C-43.56612518 43.54253922 -43.21428162 42.92492218 -42.85177612 42.28858948 C-41.14918461 39.29809516 -39.4499159 36.30579225 -37.75439453 33.3112793 C-34.51967849 27.62066796 -31.23990805 21.959826 -27.8515625 16.359375 C-27.22499756 15.32079346 -26.59843262 14.28221191 -25.95288086 13.2121582 C-19.51214648 3.68623254 -11.1938438 -0.04085165 0 0 Z M-26.23925781 178.83251953 C-29.18876806 181.40608103 -32.1629499 183.95064722 -35.13671875 186.49609375 C-35.71204346 186.98956299 -36.28736816 187.48303223 -36.88012695 187.99145508 C-40.3329149 190.95119558 -43.79704729 193.89698413 -47.27270508 196.82983398 C-48.37963366 197.76492831 -49.48497489 198.70190534 -50.58862305 199.64086914 C-52.84084878 201.5567755 -55.09947295 203.45358666 -57.41796875 205.2890625 C-71.8072846 216.93887399 -73.48248271 233.72030581 -76.29125977 250.87817383 C-76.76368133 253.75805765 -77.24744988 256.63587788 -77.73242188 259.51367188 C-78.03843455 261.35796119 -78.34379623 263.20235866 -78.6484375 265.046875 C-78.79214279 265.90009842 -78.93584808 266.75332184 -79.08390808 267.63240051 C-79.21437027 268.4373143 -79.34483246 269.24222809 -79.47924805 270.0715332 C-79.59455368 270.77115677 -79.70985931 271.47078033 -79.82865906 272.19160461 C-80.12791141 274.92381407 -80.07421875 277.68504495 -80.07421875 280.43359375 C-75.45421875 280.43359375 -70.83421875 280.43359375 -66.07421875 280.43359375 C-65.77970825 278.71813354 -65.77970825 278.71813354 -65.47924805 276.96801758 C-64.73931449 272.66398555 -63.99448695 268.36081167 -63.24829102 264.05786133 C-62.92797615 262.20684961 -62.60893202 260.35561747 -62.29125977 258.50415039 C-56.22149864 223.14659697 -56.22149864 223.14659697 -41.953125 211.18359375 C-38.57063075 209.12747784 -36.00356831 208.66118019 -32.07421875 208.43359375 C-29.63671875 209.37109375 -29.63671875 209.37109375 -28.07421875 211.43359375 C-27.46666865 214.7475034 -27.21508592 216.30266002 -28.07421875 219.43359375 C-30.48052729 222.79139391 -33.58653131 225.25486172 -36.8046875 227.8046875 C-43.08974687 232.786179 -43.58535832 238.4924082 -44.80078125 246.0390625 C-44.95332367 246.9594783 -45.10586609 247.8798941 -45.26303101 248.82820129 C-45.58327859 250.76678599 -45.90081966 252.70581949 -46.21582031 254.64526367 C-46.69935002 257.62190183 -47.19072917 260.59716026 -47.68359375 263.57226562 C-47.99394465 265.45695637 -48.30385583 267.34171959 -48.61328125 269.2265625 C-48.83354477 270.56559883 -48.83354477 270.56559883 -49.05825806 271.9316864 C-49.19194794 272.75626846 -49.32563782 273.58085052 -49.46337891 274.43041992 C-49.58170074 275.15702316 -49.70002258 275.8836264 -49.82192993 276.63224792 C-50.12045274 278.46055059 -50.12045274 278.46055059 -50.07421875 280.43359375 C-9.48421875 280.43359375 31.10578125 280.43359375 72.92578125 280.43359375 C70.48986269 258.30117614 70.48986269 258.30117614 67.92578125 236.18359375 C67.85004883 235.51263672 67.77431641 234.84167969 67.69628906 234.15039062 C66.70683413 221.29928388 66.70683413 221.29928388 59.4296875 211.36328125 C54.49348437 207.96436246 49.20549926 205.25541633 43.86328125 202.55859375 C41.81705348 201.51691037 39.7714808 200.47393916 37.7265625 199.4296875 C36.7360791 198.92421387 35.7455957 198.41874023 34.72509766 197.89794922 C32.24722454 196.60174453 29.82164299 195.25194783 27.40625 193.84375 C19.31953175 188.77495191 19.31953175 188.77495191 10.16796875 188.265625 C6.43111918 190.21217208 3.42134568 193.08577257 0.31591797 195.89672852 C-2.60376335 198.46685727 -4.67439525 200.15868956 -8.63671875 200.24609375 C-12.07421875 199.43359375 -12.07421875 199.43359375 -14.07421875 198.37109375 C-15.70935498 195.20301731 -15.55681762 192.93243554 -15.07421875 189.43359375 C-13.43787137 187.30634216 -12.13618935 186.07484838 -10.07421875 184.43359375 C-9.33429688 183.78003906 -8.594375 183.12648438 -7.83203125 182.453125 C-0.43499186 176.12761936 6.31099628 172.65845513 16.19995117 173.10424805 C25.340581 174.20865554 33.70265365 179.21255685 41.61328125 183.62109375 C42.65476318 184.19625732 43.69624512 184.7714209 44.76928711 185.36401367 C46.85462271 186.51681281 48.93840453 187.67242777 51.02050781 188.83105469 C53.59687474 190.25217002 56.18754232 191.63707127 58.79296875 193.00390625 C68.62123335 198.21264283 76.38430526 203.37183156 79.92578125 214.43359375 C80.80771357 219.02444635 81.36796225 223.64604539 81.93359375 228.28515625 C82.10532169 229.63093017 82.27801691 230.97658097 82.45162964 232.32211304 C82.90406519 235.84701226 83.34447487 239.37330627 83.78198242 242.90008545 C84.31549709 247.18431487 84.86206221 251.46689462 85.40794182 255.74956322 C85.83254749 259.08131808 86.25412949 262.41334589 86.66970825 265.74624634 C86.89531937 267.5436879 86.89531937 267.5436879 87.12548828 269.37744141 C87.2563382 270.42888336 87.38718811 271.48032532 87.52200317 272.56362915 C87.89324998 275.20236871 88.40318527 277.82061383 88.92578125 280.43359375 C93.54578125 280.43359375 98.16578125 280.43359375 102.92578125 280.43359375 C102.32121048 268.13573945 101.02616639 256.01480834 99.45166016 243.80517578 C99.04979132 240.67588529 98.66121417 237.54512683 98.2734375 234.4140625 C96.59841427 216.19551604 96.59841427 216.19551604 89.67578125 199.62109375 C88.86367188 198.37392578 88.86367188 198.37392578 88.03515625 197.1015625 C81.65798193 189.03561794 74.2916712 184.46447068 65.30078125 179.68359375 C64.00588282 178.98442141 62.7114535 178.2843796 61.41748047 177.58349609 C58.19721548 175.84357374 54.96881125 174.11941751 51.73754883 172.40002441 C49.01887393 170.94983245 46.30902696 169.4833227 43.59765625 168.01953125 C41.74950712 167.03103765 39.9006033 166.04395317 38.05078125 165.05859375 C37.2211084 164.61290039 36.39143555 164.16720703 35.53662109 163.70800781 C10.9150031 150.78153063 -7.6011316 162.5278591 -26.23925781 178.83251953 Z " fill="#000000" transform="translate(234.07421875,178.56640625)"/>
<path d="M0 0 C9.27665404 10.15932074 13.54746463 22.80960603 12.9375 36.4375 C11.55656673 49.69759792 5.57707409 60.92083286 -4.76953125 69.40625 C-15.70015799 77.1266206 -26.75438498 78.99744895 -39.9375 77.9375 C-52.06062548 75.58505228 -62.22795899 69.64340637 -69.9375 59.9375 C-77.25541999 47.89781789 -79.88583625 36.14043344 -77.4375 22.0625 C-73.86721443 9.07964337 -66.18006034 -0.70681832 -54.703125 -7.58984375 C-36.71946872 -17.16588671 -14.9798218 -13.58576055 0 0 Z M-54.9375 12.9375 C-61.01467205 20.63426069 -62.7497763 28.24433613 -61.9375 37.9375 C-60.70424325 46.03409863 -55.91058888 51.57233454 -49.9375 56.9375 C-42.58438142 61.76338093 -35.54502614 62.6827858 -26.9375 61.9375 C-19.32393141 60.05561511 -12.98281465 56.30299095 -8.46875 49.83203125 C-3.67705135 41.7390751 -1.78653307 34.23023947 -3.9375 24.9375 C-7.02530218 16.36596616 -11.99529871 9.6388957 -20.25 5.5625 C-32.96675593 0.59199134 -45.31025033 3.21339671 -54.9375 12.9375 Z " fill="#000000" transform="translate(139.9375,102.0625)"/>
<path d="M0 0 C2.90916065 3.03512154 3.88353566 6.28788877 5.05859375 10.26953125 C5.44595703 11.48833984 5.83332031 12.70714844 6.23242188 13.96289062 C7.03904066 16.50988592 7.79667649 19.05845327 8.53710938 21.62695312 C10.81448361 28.60624056 12.6614318 32.47461466 19.16015625 36.19921875 C20.18890869 36.68608154 21.21766113 37.17294434 22.27758789 37.67456055 C25.43021183 39.20945386 27.33140662 40.5957712 28.85429382 43.79425049 C29.07857559 44.45930603 29.30285736 45.12436157 29.53393555 45.80957031 C29.92400032 46.94655365 29.92400032 46.94655365 30.32194519 48.10650635 C30.59082047 48.9221405 30.85969574 49.73777466 31.13671875 50.578125 C31.56317436 51.84532379 31.56317436 51.84532379 31.99824524 53.13812256 C32.59681881 54.92538479 33.19080134 56.71419025 33.78051758 58.50439453 C34.68110209 61.23063233 35.6021749 63.94932387 36.52539062 66.66796875 C37.10542284 68.40843604 37.68423864 70.14930927 38.26171875 71.890625 C38.53666672 72.69816223 38.81161469 73.50569946 39.09489441 74.33770752 C40.83554425 79.69050747 42.34917555 84.98419582 39.9375 90.375 C37.00693033 92.83289714 34.77910616 93 31 93 C26.06283946 90.06798074 24.57556225 86.30700467 22.88671875 81.05859375 C22.62744095 80.29450699 22.36816315 79.53042023 22.10102844 78.74317932 C21.55836274 77.13447326 21.02343776 75.52313755 20.49584961 73.90942383 C19.68737127 71.43710636 18.85668984 68.9731677 18.02148438 66.50976562 C17.49609477 64.94314406 16.97196225 63.37610024 16.44921875 61.80859375 C16.20241867 61.07104355 15.95561859 60.33349335 15.70133972 59.57359314 C14.73171057 56.59869414 14 54.15029453 14 51 C13.195625 50.79375 12.39125 50.5875 11.5625 50.375 C8.6172714 49.2382451 6.08630276 48.08644823 3.375 46.5 C2.64023437 46.0771875 1.90546875 45.654375 1.1484375 45.21875 C-2.22637398 41.73349014 -3.40139321 37.51993052 -5 33 C-5.35078613 32.05253906 -5.70157227 31.10507812 -6.06298828 30.12890625 C-7.15004365 27.1775534 -8.20322725 24.21585612 -9.25 21.25 C-9.61351562 20.24839844 -9.97703125 19.24679687 -10.3515625 18.21484375 C-13.63458512 8.89649009 -13.63458512 8.89649009 -13 4 C-9.81236173 -1.61631505 -5.9196772 -1.37421078 0 0 Z " fill="#000000" transform="translate(300,241)"/>
<path d="M0 0 C3.43677081 1.44874902 6.56635933 3.31619663 9.75 5.25 C10.59949219 5.74113281 11.44898437 6.23226562 12.32421875 6.73828125 C16.34036591 9.11751535 19.46191492 10.98087682 22 15 C22.5 17.9375 22.5 17.9375 22 21 C19.71005525 24.09816055 18.27692572 25.76941706 14.42578125 26.46484375 C9.35435297 25.7767024 5.64231386 23.31454085 1.3125 20.6875 C0.45849609 20.18798828 -0.39550781 19.68847656 -1.27539062 19.17382812 C-10.47772685 13.71604034 -10.47772685 13.71604034 -11.875 9.125 C-12.02405268 5.39868289 -11.25133987 3.91840353 -9 1 C-5.9709459 -0.51452705 -3.27185385 -0.56306322 0 0 Z " fill="#000000" transform="translate(33,82)"/>
<path d="M0 0 C2.5625 2.0625 2.5625 2.0625 4 5 C4 8.72006007 3.81493856 11.00508742 1.42578125 13.921875 C-1.75752006 16.64895439 -5.16471335 18.642988 -8.8125 20.6875 C-9.49892578 21.09033203 -10.18535156 21.49316406 -10.89257812 21.90820312 C-15.24372506 24.36575726 -18.90329043 25.78632784 -24 26 C-27.50949663 24.09266488 -28.71110949 22.84861588 -30 19.0625 C-30 15.17872431 -29.3908025 14.0796778 -27 11 C-24.08253925 8.80121983 -20.98148806 6.998005 -17.8125 5.1875 C-16.98685547 4.68541016 -16.16121094 4.18332031 -15.31054688 3.66601562 C-9.92321373 0.54569264 -6.23322943 -0.79631565 0 0 Z " fill="#000000" transform="translate(51,162)"/>
<path d="M0 0 C3.23539023 1.29776098 6.18499484 2.98760621 9.1875 4.75 C10.37762695 5.41515625 10.37762695 5.41515625 11.59179688 6.09375 C19.23217804 10.45601632 19.23217804 10.45601632 22 14 C22.45377473 17.63019782 22.43699866 20.02317947 20.9375 23.375 C18.14184452 25.71974331 15.56183261 26.26824835 12 26 C8.36222831 24.62374615 5.09518141 22.72091829 1.75 20.75 C0.8528125 20.24597656 -0.044375 19.74195313 -0.96875 19.22265625 C-8.82054174 14.74431396 -8.82054174 14.74431396 -11 12 C-11.75471698 5.20754717 -11.75471698 5.20754717 -9.4375 1.5 C-6.00037659 -0.61515287 -4.02229901 -0.40062739 0 0 Z " fill="#000000" transform="translate(171,162)"/>
<path d="M0 0 C2.9236459 2.5488195 3.84909176 4.19515606 4.5625 8 C3.7258958 12.46188907 0.92382068 14.59964333 -2.68774414 17.22851562 C-4.5354836 18.45315976 -6.4122597 19.608703 -8.3125 20.75 C-8.93833984 21.14832031 -9.56417969 21.54664062 -10.20898438 21.95703125 C-14.84822983 24.76436952 -18.56340061 25.78803564 -24 26 C-27 24.5625 -27 24.5625 -29 22 C-29.94327177 16.59762533 -29.94327177 16.59762533 -29 14 C-24.80893645 9.96320873 -20.10328965 7.05364435 -15.0625 4.1875 C-14.38509766 3.78080078 -13.70769531 3.37410156 -13.00976562 2.95507812 C-8.54061291 0.40556147 -5.27624666 -0.66116738 0 0 Z " fill="#000000" transform="translate(189,82)"/>
<path d="M0 0 C2.91354262 2.15553459 3.88530093 3.36335453 4.53344727 6.9609375 C4.56898301 10.64191449 4.5939152 14.31887722 4.5625 18 C4.58634766 19.28390625 4.61019531 20.5678125 4.63476562 21.890625 C4.63283203 23.12296875 4.63089844 24.3553125 4.62890625 25.625 C4.62963135 26.75164063 4.63035645 27.87828125 4.63110352 29.0390625 C4 32 4 32 1.65209961 34.37109375 C-1.57645943 36.35405848 -3.27186798 36.5552537 -7 36 C-10.1359157 34.22015595 -10.84102736 33.47691793 -12 30 C-12.25853371 26.04600107 -12.23137931 22.08655198 -12.25 18.125 C-12.270625 17.03574219 -12.29125 15.94648437 -12.3125 14.82421875 C-12.31765625 13.77105469 -12.3228125 12.71789062 -12.328125 11.6328125 C-12.3374707 10.67262207 -12.34681641 9.71243164 -12.35644531 8.72314453 C-11.93372547 5.49368073 -10.90245167 3.62093692 -9 1 C-5.90826248 -0.54586876 -3.40570448 -0.29359521 0 0 Z " fill="#000000" transform="translate(111,37)"/>
<path d="M0 0 C0.66 -0.00128906 1.32 -0.00257813 2 -0.00390625 C4.92137346 0.82343584 6.0974107 2.21734606 8 4.5625 C8.50170898 7.43164062 8.50170898 7.43164062 8.49609375 10.71875 C8.49673828 11.90597656 8.49738281 13.09320313 8.49804688 14.31640625 C8.47806641 15.55261719 8.45808594 16.78882813 8.4375 18.0625 C8.44458984 19.29871094 8.45167969 20.53492188 8.45898438 21.80859375 C8.38572384 32.18904862 8.38572384 32.18904862 5 35.5625 C1.625 36.5625 1.625 36.5625 -2 36.5625 C-4.80189446 34.79608828 -6.51524911 33.53200178 -8 30.5625 C-8.29695976 26.46445531 -8.27806005 22.3575376 -8.3125 18.25 C-8.34150391 17.10853516 -8.37050781 15.96707031 -8.40039062 14.79101562 C-8.46401717 6.41678327 -8.46401717 6.41678327 -6.23046875 2.3046875 C-3.88946841 0.47616535 -2.92920818 -0.09725887 0 0 Z " fill="#000000" transform="translate(107,196.4375)"/>
<path d="M0 0 C2.4187408 2.77055764 4.19169291 5.80886983 6 9 C6.99 10.485 6.99 10.485 8 12 C8.56323703 16.3449714 8.45393941 18.31909089 6 22 C2.90115925 24.06589383 0.87741128 24.94366898 -2.86328125 24.23828125 C-7.84483659 21.35134699 -10.78734262 15.11382783 -13 10 C-13.32128703 6.49505053 -13.42524569 4.74924241 -11.6875 1.6875 C-8.13807042 -1.86192958 -4.5209712 -1.37927935 0 0 Z " fill="#000000" transform="translate(147,188)"/>
<path d="M0 0 C0.80695313 -0.01933594 1.61390625 -0.03867188 2.4453125 -0.05859375 C6.62955154 -0.02407033 8.37478558 0.0460264 11.53515625 2.97265625 C13.31598645 6.19714614 13.54102976 7.99237164 13 11.625 C11.22015595 14.7609157 10.47691793 15.46602736 7 16.625 C4.71148355 16.77119515 2.41799684 16.84591336 0.125 16.875 C-1.08929688 16.90078125 -2.30359375 16.9265625 -3.5546875 16.953125 C-7.23941521 16.60219855 -9.07816773 15.84602379 -12 13.625 C-13.42662219 10.77175563 -13.31033868 8.79045451 -13 5.625 C-9.76171918 -0.28724996 -6.14388279 -0.14721764 0 0 Z " fill="#000000" transform="translate(182,126.375)"/>
<path d="M0 0 C4.52778519 3.47481189 8.32741667 8.37212627 9.38671875 14.0859375 C9.56593674 17.41074027 9.21519747 19.64133755 7.5 22.5 C3.96983101 24.61810139 1.01191241 24.92199229 -3 24 C-5.1875 22.125 -5.1875 22.125 -7 19 C-7.68449219 17.83791016 -7.68449219 17.83791016 -8.3828125 16.65234375 C-10.50359049 12.81060657 -11.98190045 9.99547526 -12.0625 5.5625 C-9.68899754 -0.16182946 -5.89472545 -0.82732989 0 0 Z " fill="#000000" transform="translate(71,58)"/>
<path d="M0 0 C1.9375 1.0625 1.9375 1.0625 3 3 C4.03620784 9.56264962 2.15308734 13.25122061 -1.296875 18.80078125 C-3.04681462 21.06045099 -4.54460476 22.54196066 -7 24 C-10.42819926 23.87971231 -12.94725831 23.6667364 -15.875 21.8125 C-17.49532212 19.20198103 -17.74923386 17.05713432 -18 14 C-14.79626256 5.20778824 -10.24660681 -2.84627967 0 0 Z " fill="#000000" transform="translate(77,188)"/>
<path d="M0 0 C0.76828125 -0.02900391 1.5365625 -0.05800781 2.328125 -0.08789062 C8.00824312 -0.15176739 8.00824312 -0.15176739 11.10546875 2.1796875 C12.90831463 4.71016013 13.54902494 6.19752246 13.625 9.3125 C12.00344371 12.79884601 10.86046708 14.15552194 7.625 16.3125 C4.2265625 16.6484375 4.2265625 16.6484375 0.25 16.6875 C-1.05710937 16.71585938 -2.36421875 16.74421875 -3.7109375 16.7734375 C-7.87521138 16.24957362 -9.46806018 15.2738769 -12.375 12.3125 C-13.83796477 8.83795866 -13.48775119 7.59169342 -12.0625 4.0625 C-9.08388309 -0.79154238 -5.22620102 0.06511048 0 0 Z " fill="#000000" transform="translate(32.375,126.6875)"/>
<path d="M0 0 C2.97819304 0.09205324 4.02122686 0.31014179 6.625 1.9375 C8.80806478 5.48498027 8.79232152 7.23760657 8.125 11.375 C5.8629147 16.04099413 3.23960751 21.09162633 -0.875 24.375 C-3.97062931 24.76809578 -5.91836605 24.99838668 -8.875 24.375 C-11.4375 22.3125 -11.4375 22.3125 -12.875 19.375 C-13.13431353 12.76250511 -9.50510039 7.64201568 -5.875 2.375 C-3.875 0.375 -3.875 0.375 0 0 Z " fill="#000000" transform="translate(146.875,57.625)"/>
</svg>
