<?xml version="1.0" standalone="no"?>
<!DOCTYPE svg PUBLIC "-//W3C//DTD SVG 20010904//EN"
 "http://www.w3.org/TR/2001/REC-SVG-20010904/DTD/svg10.dtd">
<svg version="1.0" xmlns="http://www.w3.org/2000/svg"
 width="512.000000pt" height="512.000000pt" viewBox="0 0 512.000000 512.000000"
 preserveAspectRatio="xMidYMid meet">

<g transform="translate(0.000000,512.000000) scale(0.100000,-0.100000)"
fill="#000000" stroke="none">
<path d="M3895 5095 c-24 -23 -25 -31 -25 -132 1 -73 5 -114 14 -125 32 -43
103 -38 125 8 6 14 11 70 11 125 0 93 -2 102 -25 124 -13 14 -36 25 -50 25
-14 0 -37 -11 -50 -25z"/>
<path d="M3341 4944 c-12 -15 -21 -36 -21 -47 0 -27 97 -195 120 -207 48 -26
110 9 110 62 0 31 -85 183 -113 203 -33 23 -73 19 -96 -11z"/>
<path d="M4454 4956 c-31 -22 -114 -171 -114 -205 0 -54 60 -88 109 -62 22 12
110 161 117 199 12 60 -60 104 -112 68z"/>
<path d="M3862 4629 c-157 -18 -285 -82 -407 -204 -135 -134 -198 -289 -197
-485 1 -191 65 -345 201 -481 138 -138 291 -201 486 -200 120 0 195 17 298 65
154 73 287 219 347 379 32 86 12 137 -54 137 -41 0 -53 -13 -105 -122 -92
-193 -274 -310 -485 -310 -147 -1 -275 52 -380 158 -213 212 -213 546 0 758
104 105 232 158 379 158 211 0 394 -117 487 -311 51 -108 63 -121 104 -121 69
0 87 53 50 146 -117 292 -411 467 -724 433z"/>
<path d="M2947 4550 c-35 -28 -37 -78 -4 -106 44 -40 166 -104 196 -104 54 0
88 60 62 109 -12 22 -161 110 -199 117 -19 4 -36 -1 -55 -16z"/>
<path d="M4850 4552 c-92 -48 -151 -86 -160 -102 -27 -50 7 -110 61 -110 34 0
183 83 205 114 21 30 17 64 -11 91 -29 30 -49 31 -95 7z"/>
<path d="M2795 3995 c-14 -13 -25 -36 -25 -50 0 -14 11 -37 25 -50 23 -24 31
-25 132 -25 73 1 114 5 125 14 43 32 38 103 -8 125 -14 6 -70 11 -125 11 -93
0 -102 -2 -124 -25z"/>
<path d="M4843 4008 c-44 -21 -47 -93 -5 -124 11 -9 52 -13 125 -14 101 0 109
1 132 25 14 13 25 36 25 50 0 14 -11 37 -25 50 -23 23 -31 25 -127 24 -57 0
-113 -5 -125 -11z"/>
<path d="M1273 3849 c-149 -47 -259 -181 -283 -344 -6 -42 -10 -373 -10 -827
l0 -758 -34 0 -34 0 -4 218 c-3 200 -5 221 -26 267 -48 106 -139 165 -252 165
-111 -1 -199 -56 -246 -155 -23 -49 -24 -55 -24 -366 0 -294 1 -319 21 -377
42 -126 148 -232 276 -279 55 -20 83 -23 193 -23 l130 0 0 -374 0 -373 -117
-38 c-276 -88 -765 -309 -826 -373 -56 -58 -43 -150 26 -192 31 -19 59 -20
1190 -20 l1158 0 24 25 c30 29 32 64 6 96 l-19 24 -1099 5 -1098 5 130 64
c501 245 1086 399 1735 456 220 20 676 23 890 6 657 -53 1276 -213 1785 -462
l130 -64 -1098 -5 -1099 -5 -19 -24 c-26 -32 -24 -67 6 -96 l24 -25 1157 0
c1142 0 1157 0 1189 20 64 40 65 45 65 484 0 334 -2 402 -15 433 -37 88 -71
103 -270 119 -548 45 -1160 -25 -1667 -192 l-108 -36 -283 11 c-299 11 -530 4
-806 -24 -79 -8 -145 -15 -147 -15 -2 0 -4 268 -4 595 l0 595 143 0 c209 0
307 31 405 129 56 56 91 113 118 191 17 49 19 87 19 365 0 295 -1 312 -21 356
-47 102 -143 163 -254 163 -112 0 -198 -56 -246 -159 -23 -48 -24 -60 -24
-272 l0 -223 -70 0 -69 0 -3 508 -3 507 -31 66 c-95 200 -305 294 -511 228z
m252 -157 c47 -24 95 -72 121 -122 18 -33 19 -73 24 -588 l5 -554 24 -19 c21
-17 41 -19 188 -19 90 0 173 4 183 10 34 18 40 65 40 322 l0 250 33 33 c58 58
116 58 173 1 43 -43 47 -73 42 -378 -3 -248 -4 -254 -29 -309 -34 -72 -99
-134 -166 -159 -47 -17 -78 -20 -238 -20 -196 0 -225 -6 -244 -47 -8 -17 -11
-217 -11 -668 0 -604 -1 -644 -17 -649 -10 -3 -72 -15 -138 -26 -66 -12 -175
-35 -243 -51 -68 -16 -127 -29 -133 -29 -5 0 -9 159 -9 403 0 398 0 404 -21
423 -19 17 -43 20 -208 24 -166 5 -190 8 -227 27 -67 36 -101 70 -133 135
l-31 61 0 303 0 303 35 36 c31 30 42 35 85 35 60 0 104 -33 120 -88 5 -21 10
-145 10 -279 0 -307 -16 -283 185 -283 132 0 147 2 165 20 20 20 20 33 20 833
0 542 4 833 11 873 17 95 66 159 154 201 42 20 61 23 120 20 45 -2 84 -11 110
-25z m3260 -2782 c77 -6 150 -12 163 -15 l22 -5 0 -300 c0 -165 -2 -300 -4
-300 -1 0 -72 33 -157 74 -391 188 -854 331 -1309 407 -88 14 -91 13 125 58
373 78 790 107 1160 81z"/>
<path d="M3032 3505 c-98 -58 -112 -72 -112 -111 0 -36 37 -74 73 -74 27 0
195 97 207 120 27 50 -9 110 -66 109 -16 0 -62 -20 -102 -44z"/>
<path d="M4702 3527 c-24 -25 -28 -57 -12 -87 12 -23 180 -120 207 -120 33 0
73 38 73 69 0 41 -23 65 -111 115 -92 52 -125 57 -157 23z"/>
<path d="M3438 3200 c-22 -13 -118 -182 -118 -207 0 -63 85 -97 126 -50 39 42
104 166 104 195 0 53 -65 89 -112 62z"/>
<path d="M4362 3187 c-32 -34 -27 -70 20 -150 57 -99 75 -117 114 -117 41 0
78 42 70 80 -6 34 -83 170 -108 193 -28 24 -70 21 -96 -6z"/>
<path d="M3921 3078 c-44 -16 -50 -36 -51 -151 0 -101 1 -109 25 -132 13 -14
36 -25 50 -25 14 0 37 11 50 25 23 22 25 31 25 124 0 55 -5 111 -11 125 -14
31 -55 47 -88 34z"/>
</g>
</svg>
