<?xml version="1.0" encoding="UTF-8"?>
<svg version="1.1" xmlns="http://www.w3.org/2000/svg" width="512" height="512">
<path d="M0 0 C0.89847656 0.42925781 1.79695313 0.85851563 2.72265625 1.30078125 C26.13895312 13.26162354 43.25648123 34.06114 51.34765625 58.98046875 C53.65040754 66.81312458 55.12269596 74.09512767 55.13422108 82.28082275 C55.13657331 82.99506519 55.13892554 83.70930762 55.14134905 84.44519377 C55.14800667 86.83880344 55.14758181 89.23235843 55.14717102 91.62597656 C55.15047162 93.35929573 55.1541976 95.09261413 55.1583125 96.82593155 C55.16831751 101.58945394 55.17204685 106.35296373 55.17470181 111.11649513 C55.17860905 116.25357217 55.18818678 121.39063928 55.19691467 126.52770996 C55.21666235 138.93023453 55.22674101 151.33275989 55.23564246 163.73529625 C55.24002624 169.57422311 55.24539264 175.41314906 55.25063133 181.2520752 C55.26763834 200.65655326 55.28213466 220.06103076 55.28938007 239.46551514 C55.29128998 244.49914552 55.29321032 249.53277589 55.29516602 254.56640625 C55.29564976 255.81749758 55.2961335 257.06858891 55.2966319 258.35759211 C55.3049404 278.64514545 55.3302935 298.93263999 55.36274669 319.22016764 C55.39578368 340.04199624 55.4138256 360.86379491 55.41702431 381.68564987 C55.41919202 393.37937825 55.42797924 405.07302076 55.45348549 416.76672363 C55.47514619 426.72030545 55.4832656 436.67378052 55.47351871 446.62738323 C55.46896119 451.70762018 55.4709445 456.78763665 55.49028015 461.86784363 C55.50782032 466.51630694 55.50698895 471.16438743 55.49138286 475.81285429 C55.48899288 477.49648985 55.49340182 479.18015129 55.50521151 480.86374712 C55.52025405 483.14935867 55.51071255 485.43360025 55.49498463 487.71917725 C55.49596144 488.9895068 55.49693824 490.25983635 55.49794465 491.56866074 C54.81596908 496.26815802 53.0224873 499.45232187 49.22463495 502.35857153 C45.96253113 503.29913316 42.77100532 503.27941731 39.40584087 503.26285553 C38.63342427 503.2669608 37.86100767 503.27106606 37.0651845 503.27529573 C34.46158034 503.28665796 31.85818704 503.28371859 29.25456238 503.28088379 C27.37518755 503.28604979 25.49581493 503.29207575 23.61644536 503.29889059 C18.43986836 503.31505223 13.26334678 503.31861093 8.08674753 503.32008553 C2.50856621 503.32378284 -3.0695862 503.33887551 -8.64775085 503.35235596 C-20.85007017 503.37953808 -33.05237637 503.39157418 -45.25472093 503.40037727 C-52.87046161 503.40589899 -60.48619719 503.41437307 -68.10193443 503.42338562 C-89.17825017 503.447772 -110.25456254 503.46844184 -131.33089161 503.4751358 C-132.69385051 503.47557907 -134.05680941 503.47602264 -135.41976831 503.47646651 C-136.78602656 503.47690779 -138.15228481 503.47734875 -139.51854306 503.4777894 C-142.25951374 503.47867451 -145.00048441 503.47956874 -147.74145508 503.48046875 C-148.42105649 503.48068753 -149.1006579 503.48090631 -149.80085329 503.48113173 C-171.84207836 503.48839466 -193.88317193 503.52024201 -215.92434663 503.56684948 C-239.22458355 503.6160293 -262.52473507 503.6434672 -285.82503432 503.64587164 C-298.52769934 503.647707 -311.23019216 503.65925818 -323.93280983 503.69551086 C-334.74759253 503.72626656 -345.56214984 503.7365813 -356.37696794 503.72003466 C-361.89688415 503.71220526 -367.41634611 503.71415949 -372.93620682 503.74214935 C-377.98771778 503.76753061 -383.03843095 503.76531936 -388.08994003 503.74096793 C-389.9190118 503.73703695 -391.74813914 503.74328943 -393.57713268 503.76065665 C-408.95879961 503.89748634 -408.95879961 503.89748634 -413.57039928 500.14156342 C-417.17495372 495.48074147 -417.16104131 491.77934903 -417.19287109 486.11962891 C-417.20513733 484.91669945 -417.20513733 484.91669945 -417.21765137 483.68946838 C-417.24246778 481.03517399 -417.25900991 478.38093286 -417.2734375 475.7265625 C-417.27876118 474.8198518 -417.28408485 473.9131411 -417.28956985 472.97895432 C-417.31628249 468.18161617 -417.3356652 463.3843039 -417.35009766 458.58691406 C-417.36344999 454.61565179 -417.39132881 450.64490176 -417.43212891 446.67382812 C-417.48139511 441.87870343 -417.50621091 437.08404421 -417.51332474 432.28867722 C-417.52004376 430.46180515 -417.53528277 428.63494374 -417.55921555 426.80821609 C-417.59080902 424.25131177 -417.59091343 421.69620813 -417.58349609 419.13916016 C-417.59990143 418.38573837 -417.61630676 417.63231659 -417.63320923 416.85606384 C-417.58631498 412.90476904 -417.1328321 411.16793025 -414.65103149 408.03036499 C-412 406 -412 406 -409 405.375 C-406 406 -406 406 -401 411 C-401 424.53 -401 438.06 -401 452 C-373.28 452 -345.56 452 -317 452 C-317 418.01 -317 384.02 -317 349 C-321.29 349 -325.58 349 -330 349 C-335.72526069 348.18210562 -338.2395194 346.22837932 -341.8359375 341.94921875 C-345.04036517 336.58341537 -344.1837037 329.65353049 -344.1875 323.625 C-344.19974609 322.60921875 -344.21199219 321.5934375 -344.22460938 320.546875 C-344.24935471 307.8442722 -344.24935471 307.8442722 -340.44921875 303.0390625 C-339.86785156 302.57242187 -339.28648437 302.10578125 -338.6875 301.625 C-337.82705078 300.90183594 -337.82705078 300.90183594 -336.94921875 300.1640625 C-332.13278921 297.2877178 -326.32904727 297.84599567 -320.89868164 297.83886719 C-319.53678963 297.83141983 -319.53678963 297.83141983 -318.14738464 297.82382202 C-315.15163407 297.80924747 -312.15593641 297.80240724 -309.16015625 297.796875 C-307.07417296 297.79112091 -304.98818969 297.78536321 -302.90220642 297.77960205 C-298.53188837 297.76910633 -294.16158864 297.7632539 -289.79125977 297.75976562 C-284.19472083 297.75427533 -278.59842448 297.73022975 -273.00196171 297.70179367 C-268.6945271 297.68316289 -264.38715099 297.67796151 -260.07967949 297.67642975 C-258.01642972 297.67340512 -255.95318093 297.66538302 -253.88997078 297.65224457 C-251.00336362 297.63517052 -248.1173502 297.6370674 -245.23071289 297.64355469 C-244.38117035 297.6343399 -243.53162781 297.62512512 -242.65634155 297.6156311 C-237.70696283 297.65043602 -234.28333958 298.23806835 -230 301 C-228.45413124 304.09173752 -228.70640479 306.59429552 -229 310 C-230.44610596 312.19818115 -230.44610596 312.19818115 -233 314 C-236.0590429 314.57564931 -239.07048454 314.5051847 -242.17480469 314.45410156 C-243.56556465 314.45497772 -243.56556465 314.45497772 -244.98442078 314.45587158 C-248.04728712 314.45308614 -251.10917879 314.42197199 -254.171875 314.390625 C-256.29607613 314.38316426 -258.42028415 314.37747054 -260.54449463 314.37347412 C-266.13420631 314.35820474 -271.72350196 314.31891132 -277.31304932 314.2746582 C-283.01723604 314.23373385 -288.72149002 314.21546914 -294.42578125 314.1953125 C-305.61739966 314.15241852 -316.80860014 314.08205764 -328 314 C-328 320.27 -328 326.54 -328 333 C-259.03 333 -190.06 333 -119 333 C-119 326.73 -119 320.46 -119 314 C-121.61454102 314.02094727 -124.22908203 314.04189453 -126.92285156 314.06347656 C-135.5561436 314.12972154 -144.18944679 314.1739254 -152.82292557 314.20724869 C-158.05803102 314.22813361 -163.29287632 314.25646796 -168.52783203 314.30175781 C-173.57879955 314.345183 -178.62951666 314.36913029 -183.68065643 314.37950897 C-185.60882256 314.38690631 -187.53697481 314.40135144 -189.46503448 314.42292023 C-192.1635156 314.45191007 -194.86095882 314.45595787 -197.55957031 314.45410156 C-198.35870346 314.46848267 -199.15783661 314.48286377 -199.98118591 314.49768066 C-203.51769437 314.47131422 -205.59494627 314.29363647 -208.49627686 312.19036865 C-210.70241357 308.97684313 -210.54332875 306.80330124 -210 303 C-207.78136971 300.09282927 -206.48055071 299.16018357 -203 298 C-200.2530385 297.89843711 -197.53137 297.85316384 -194.78417969 297.85473633 C-193.94642502 297.85137772 -193.10867035 297.8480191 -192.24552917 297.84455872 C-189.47096276 297.8350463 -186.69645671 297.83310525 -183.921875 297.83203125 C-181.99237035 297.82881815 -180.06286595 297.82545404 -178.13336182 297.82194519 C-174.08483313 297.81595269 -170.03632578 297.81410534 -165.98779297 297.81469727 C-160.80835775 297.81479873 -155.6290601 297.80116334 -150.44965744 297.78392506 C-146.46215185 297.77278604 -142.47467928 297.77077867 -138.48715973 297.77130699 C-136.57825498 297.7701291 -134.66934931 297.76571804 -132.7604599 297.75797462 C-130.08467599 297.74813932 -127.40918746 297.75106707 -124.73339844 297.75708008 C-123.94976425 297.75146057 -123.16613007 297.74584106 -122.35874939 297.74005127 C-117.11580155 297.76987757 -111.47058461 297.96149073 -107.2578125 301.4375 C-102.47855189 308.02958359 -102.74857401 313.15522206 -102.70483398 321.06591797 C-102.68767308 323.22819182 -102.64379458 325.38891507 -102.59960938 327.55078125 C-102.58947724 328.93488462 -102.58096277 330.31900097 -102.57421875 331.703125 C-102.55234497 333.58499512 -102.55234497 333.58499512 -102.5300293 335.50488281 C-103.18956636 340.40978283 -105.36459783 343.47010764 -108.9375 346.8125 C-114.99734037 350.301499 -122.308315 349 -129 349 C-129 382.99 -129 416.98 -129 452 C-101.28 452 -73.56 452 -45 452 C-44.74064591 424.14830491 -44.74064591 424.14830491 -44.62304688 396.296875 C-44.60640336 384.92047485 -44.57497843 373.54562831 -44.44116211 362.16992188 C-44.34372602 353.88071023 -44.30066452 345.5931873 -44.31963962 337.3033967 C-44.32785133 332.92375926 -44.31106126 328.54781981 -44.22885323 324.16886902 C-43.84429824 302.56354585 -45.18913159 288.00175032 -59.12171745 270.43992615 C-62.11782079 266.54792871 -64.63078774 262.37501713 -67.1875 258.1875 C-68.16021629 256.64422685 -69.13515345 255.10234902 -70.11328125 253.5625 C-72.54331213 249.72310052 -74.96963301 245.88139303 -77.39038086 242.03613281 C-78.37908206 240.47203061 -79.37338649 238.91145613 -80.37329102 237.35449219 C-83.12529545 233.05578598 -85.74062309 228.71981749 -88.234375 224.265625 C-95.28739828 211.94778478 -101.35555728 204.89881479 -114.37158203 199.18994141 C-119.44302212 196.89399129 -124.3257347 194.21765035 -129.25 191.625 C-131.40582877 190.50960213 -133.56207834 189.39501721 -135.71875 188.28125 C-141.44079385 185.30857844 -147.10295912 182.23725391 -152.75 179.125 C-161.87135469 174.10205789 -171.09901262 169.30243349 -180.36001587 164.54437256 C-190.53356535 159.31454355 -200.60475557 153.91606977 -210.62109375 148.390625 C-211.76553955 147.76897461 -211.76553955 147.76897461 -212.93310547 147.13476562 C-214.71362081 146.15722779 -216.47068682 145.13719707 -218.22265625 144.109375 C-221.71453184 142.71458925 -223.35981248 143.14509699 -227 144 C-230.05802408 145.28450709 -230.05802408 145.28450709 -233.15625 146.95703125 C-233.73111145 147.25565567 -234.3059729 147.55428009 -234.89825439 147.86195374 C-236.7699401 148.83724131 -238.63495497 149.82458129 -240.5 150.8125 C-241.81515036 151.50134735 -243.13058355 152.18965499 -244.44628906 152.87744141 C-252.79417932 157.25314707 -261.07659415 161.74334444 -269.328125 166.2980957 C-277.63699437 170.85936911 -286.0640467 175.18027079 -294.5 179.5 C-305.90067954 185.33860031 -317.22830051 191.27736741 -328.42578125 197.5 C-331.24418985 199.06157433 -334.07351322 200.54795604 -336.98046875 201.9375 C-344.86801021 205.78768973 -348.60557204 209.48126356 -353 217 C-353.88252646 218.40321023 -354.77107347 219.80264348 -355.6640625 221.19921875 C-358.27133993 225.27912907 -360.84895336 229.37681107 -363.41943359 233.47998047 C-365.93636779 237.49292374 -368.46860093 241.49617186 -371 245.5 C-374.01500193 250.27137581 -377.02832142 255.04378478 -380.03515625 259.8203125 C-380.54240234 260.62533203 -381.04964844 261.43035156 -381.57226562 262.25976562 C-382.5079967 263.74491678 -383.44300279 265.23052524 -384.37695312 266.71679688 C-384.82103516 267.42126953 -385.26511719 268.12574219 -385.72265625 268.8515625 C-386.40116638 269.96028214 -386.40116638 269.96028214 -387.09338379 271.09140015 C-388.55568873 273.32218992 -390.04981885 275.37338897 -391.68579102 277.46951294 C-400.37022132 289.02261386 -401.51278029 298.226073 -401.15234375 312.390625 C-401.14408451 314.39457734 -401.14130605 316.39855892 -401.14369202 318.40252686 C-401.13808187 323.62288306 -401.0706644 328.84039905 -400.98571777 334.05999756 C-400.85886281 342.45249723 -400.82353408 350.84569154 -400.79663277 359.23900604 C-400.77763471 362.15841426 -400.72922016 365.07620788 -400.67649841 367.99517822 C-400.65983978 369.77965657 -400.64385735 371.5641414 -400.62866211 373.34863281 C-400.60635025 374.15486588 -400.58403839 374.96109894 -400.56105042 375.79176331 C-400.55097305 379.59115872 -400.84517556 381.75537437 -402.89820862 384.99920654 C-405.14906611 387.14190299 -405.94722452 387.68462452 -409 387.625 C-409.66 387.63789063 -410.32 387.65078125 -411 387.6640625 C-414.12974437 386.62488957 -415.19909443 384.70439546 -417 382 C-417.51898193 378.93107605 -417.51898193 378.93107605 -417.54589844 375.46557617 C-417.56561707 374.16460495 -417.58533569 372.86363373 -417.60565186 371.52323914 C-417.60731477 370.11314944 -417.60854577 368.70305918 -417.609375 367.29296875 C-417.62436324 365.84278013 -417.64109175 364.39260854 -417.65948486 362.94245911 C-417.70309929 359.13668008 -417.72314404 355.33113129 -417.73822021 351.52514648 C-417.75781288 347.63706888 -417.79978036 343.74923915 -417.83984375 339.86132812 C-417.91508163 332.24095215 -417.96541157 324.62068042 -418 317 C-418.53698517 317.2821788 -419.07397034 317.5643576 -419.62722778 317.85508728 C-420.69371048 318.40429588 -420.69371048 318.40429588 -421.78173828 318.96459961 C-422.83471603 319.51161781 -422.83471603 319.51161781 -423.90896606 320.06968689 C-429.71273424 322.65181697 -436.95224281 321.88654599 -442.9140625 320.15234375 C-448.91792107 317.47690829 -452.76694387 313.7025861 -456 308 C-457.06453682 304.80638954 -457.27088184 302.29731291 -457.375 298.9375 C-457.42398437 297.87402344 -457.47296875 296.81054688 -457.5234375 295.71484375 C-456.22873036 286.52628782 -449.99674231 278.67484617 -444.9375 271.125 C-440.03708316 263.71926003 -435.2719472 256.26801269 -430.75 248.625 C-426.26508439 241.05237817 -421.59044547 233.63692804 -416.77734375 226.26953125 C-413.82678757 221.74995372 -410.94017535 217.19122865 -408.0625 212.625 C-407.31963745 211.44744141 -407.31963745 211.44744141 -406.56176758 210.24609375 C-403.97520023 206.14311829 -401.39539259 202.03597492 -398.8203125 197.92578125 C-396.32231803 193.94175076 -393.80745714 189.96894386 -391.27636719 186.00585938 C-390.1759074 184.27644514 -389.09041208 182.5375253 -388.0078125 180.796875 C-380.98173682 169.98254654 -368.98393886 165.18179331 -357.875 159.375 C-356.3464585 158.57122127 -354.81814032 157.76701773 -353.29003906 156.96240234 C-343.86998713 152.00698448 -334.42873363 147.09219229 -324.98193359 142.18798828 C-318.77558136 138.95595477 -312.62958856 135.62498248 -306.5 132.25 C-296.91991901 126.97657699 -287.21943942 121.95808898 -277.48953247 116.96914673 C-268.90979349 112.56772715 -260.38671423 108.08650367 -251.9375 103.4375 C-250.19155718 102.48279684 -248.44547068 101.5283564 -246.69921875 100.57421875 C-244.42167926 99.32954365 -242.14653479 98.08196357 -239.88134766 96.81494141 C-238.01410208 95.77370763 -236.13492066 94.75877529 -234.25 93.75 C-233.26515625 93.20859375 -232.2803125 92.6671875 -231.265625 92.109375 C-224.53275354 89.82213159 -219.36582732 90.10694212 -212.85943604 93.1550293 C-209.61498474 94.77934925 -206.43192997 96.50720099 -203.25 98.25 C-201.86616482 98.98840005 -200.48138674 99.72503553 -199.09570312 100.45996094 C-195.67149429 102.28274625 -192.26076088 104.12900662 -188.85571289 105.98730469 C-186.2036818 107.43456491 -183.54663554 108.87255902 -180.890625 110.3125 C-178.22858175 111.7603193 -175.56894535 113.21203123 -172.91455078 114.67382812 C-162.70431681 120.29612701 -152.34822156 125.63753625 -142 131 C-142.00444122 130.43196152 -142.00888245 129.86392303 -142.01345825 129.27867126 C-142.05818912 123.29119418 -142.08806957 117.30376561 -142.10986328 111.31616211 C-142.1198342 109.09055651 -142.13341579 106.86496372 -142.15087891 104.6394043 C-142.41047654 70.67028988 -136.03481753 42.87278184 -112.1875 17.75 C-82.70728687 -10.6264298 -36.7782596 -17.78920074 0 0 Z M-99 28 C-99.68578125 28.59167969 -100.3715625 29.18335937 -101.078125 29.79296875 C-116.05229545 43.61754738 -124.1666926 64.07484326 -126 84 C-126 85.98 -126 87.96 -126 90 C-71.22 90 -16.44 90 40 90 C37.20714492 63.46787676 30.23116059 42.44794556 9.4921875 24.90234375 C-23.53833674 -0.31061127 -67.49455366 0.02533644 -99 28 Z M-126 106 C-126 117.22 -126 128.44 -126 140 C-115.51321558 145.91562198 -104.95525002 151.61443353 -94.25 157.125 C-78.8071102 165.096041 -78.8071102 165.096041 -72.625 168.5625 C-71.62726563 169.12066406 -70.62953125 169.67882812 -69.6015625 170.25390625 C-64.30214314 173.81072375 -61.70235638 177.543036 -59.02148438 183.23925781 C-57.01869 186.27580132 -55.51750059 188.50055715 -51.96975708 189.66819763 C-45.57983393 190.7309659 -39.10406505 190.37407678 -32.65625 190.171875 C-30.56023019 190.14947442 -28.46414726 190.13240187 -26.36804199 190.12042236 C-20.86886036 190.07474927 -15.37352367 189.95701657 -9.87585449 189.82397461 C-3.27026843 189.67922736 3.33660855 189.62446563 9.94332886 189.55453491 C19.9648877 189.43842416 29.97802285 189.20846948 40 189 C40 161.61 40 134.22 40 106 C-14.78 106 -69.56 106 -126 106 Z M-229.328125 109.640625 C-230.97530518 110.49515259 -230.97530518 110.49515259 -232.65576172 111.36694336 C-233.85395469 111.99441213 -235.05203117 112.62210339 -236.25 113.25 C-237.48578226 113.89407209 -238.72162272 114.53803251 -239.95751953 115.18188477 C-248.1960212 119.48390031 -256.36679309 123.90236558 -264.50683594 128.38769531 C-272.72449166 132.89568341 -281.04989165 137.18559295 -289.38574219 141.46899414 C-298.14887695 145.97461109 -306.8330799 150.601488 -315.45947266 155.36450195 C-322.84617722 159.4204915 -330.32291118 163.28679651 -337.82077026 167.13165283 C-339.85819034 168.17886005 -341.89262566 169.23163108 -343.92602539 170.28662109 C-345.23322075 170.96454701 -346.54043075 171.6424447 -347.84765625 172.3203125 C-348.79198265 172.81022171 -348.79198265 172.81022171 -349.75538635 173.31002808 C-353.20623489 175.09404422 -356.67711946 176.8205377 -360.18359375 178.4921875 C-369.63276954 183.12560007 -374.59323349 188.7306227 -379.72216797 197.77490234 C-381.60010683 201.04497013 -383.60839009 204.23020229 -385.60620117 207.42797852 C-387.27749564 210.10656735 -388.93265652 212.79463715 -390.5859375 215.484375 C-393.96356197 220.96066114 -397.41074655 226.3907194 -400.875 231.8125 C-405.79445547 239.514394 -410.66576171 247.24433353 -415.5 255 C-420.52810509 263.06374394 -425.5862915 271.10727778 -430.6875 279.125 C-431.26371094 280.03121094 -431.83992188 280.93742188 -432.43359375 281.87109375 C-432.975 282.72058594 -433.51640625 283.57007813 -434.07421875 284.4453125 C-434.83001221 285.63133057 -434.83001221 285.63133057 -435.60107422 286.84130859 C-436.82291447 288.72673817 -438.08295867 290.57605296 -439.36328125 292.421875 C-441.38120488 295.60046591 -441.64303008 297.30257702 -441 301 C-439.56338689 303.52006844 -439.56338689 303.52006844 -437 305 C-433.54271642 305.75011367 -433.54271642 305.75011367 -430 305 C-425.7300917 301.34701027 -422.8909468 297.08241364 -419.9375 292.375 C-419.46562256 291.63427246 -418.99374512 290.89354492 -418.50756836 290.13037109 C-416.99849734 287.75766163 -415.49883085 285.37918863 -414 283 C-413.01339281 281.44247265 -412.02641534 279.88517978 -411.0390625 278.328125 C-408.52490474 274.35857636 -406.01930883 270.38369471 -403.51611328 266.40722656 C-401.01473282 262.43563053 -398.50707491 258.46800284 -396 254.5 C-394.99996938 252.91668601 -393.99996939 251.33335267 -393 249.75 C-391 246.58333333 -389 243.41666667 -387 240.25 C-386.50459717 239.4655249 -386.00919434 238.6810498 -385.4987793 237.87280273 C-384.50316699 236.29659228 -383.50723826 234.72058165 -382.51098633 233.14477539 C-379.94116423 229.07908041 -377.37767591 225.0095898 -374.82421875 220.93359375 C-371.90391847 216.275471 -368.95872157 211.63378887 -366 207 C-365.33097656 205.94296875 -364.66195312 204.8859375 -363.97265625 203.796875 C-363.40417969 202.93578125 -362.83570313 202.0746875 -362.25 201.1875 C-361.57710937 200.15689453 -361.57710937 200.15689453 -360.890625 199.10546875 C-354.74769369 192.26447706 -346.46617161 188.44353623 -338.375 184.375 C-335.93537577 183.13304778 -333.49881579 181.88514621 -331.0625 180.63671875 C-330.15242691 180.17145531 -330.15242691 180.17145531 -329.22396851 179.6967926 C-323.88461421 176.95971828 -318.6236463 174.09359259 -313.375 171.1875 C-304.17444476 166.10984322 -294.85261961 161.28913807 -285.5 156.5 C-275.98199629 151.62586317 -266.4977587 146.71272184 -257.125 141.5625 C-256.26173096 141.09038086 -255.39846191 140.61826172 -254.5090332 140.13183594 C-251.12492808 138.27822572 -247.74454757 136.41971976 -244.38330078 134.52490234 C-241.8265828 133.08392945 -239.25820139 131.66583288 -236.6875 130.25 C-235.94064941 129.81888916 -235.19379883 129.38777832 -234.42431641 128.94360352 C-229.24428274 126.12201146 -224.88161896 124.88767789 -219 126 C-215.42136487 127.26530185 -212.15097126 128.95359459 -208.8125 130.75 C-207.85545166 131.24661133 -206.89840332 131.74322266 -205.91235352 132.25488281 C-198.46759823 136.14270623 -191.0989435 140.1781108 -183.74536133 144.23535156 C-176.06660539 148.46139794 -168.29564921 152.4957841 -160.5 156.5 C-151.0649824 161.34775827 -141.69715426 166.29369729 -132.4152832 171.43041992 C-127.15879838 174.32374206 -121.86027202 177.11406451 -116.51171875 179.83203125 C-115.86413605 180.16218231 -115.21655334 180.49233337 -114.54934692 180.83248901 C-111.36627071 182.45449818 -108.1788869 184.06664898 -104.98242188 185.66210938 C-94.22390198 191.127604 -86.3159137 196.22035071 -80.1875 206.75 C-79.16060874 208.44298288 -78.13325175 210.13568333 -77.10546875 211.828125 C-76.33468994 213.11686523 -76.33468994 213.11686523 -75.54833984 214.43164062 C-73.09801013 218.49620521 -70.54646966 222.49525289 -68 226.5 C-66.99946675 228.08299642 -65.99946773 229.66633062 -65 231.25 C-64.505 232.03375 -64.01 232.8175 -63.5 233.625 C-47 259.75 -47 259.75 -45.4987793 262.12719727 C-44.50316699 263.70340772 -43.50723826 265.27941835 -42.51098633 266.85522461 C-39.94116423 270.92091959 -37.37767591 274.9904102 -34.82421875 279.06640625 C-26.83123267 292.72975564 -26.83123267 292.72975564 -17 305 C-11.41397203 305.57597903 -11.41397203 305.57597903 -6.4375 303.4375 C-4.81553323 300.68720852 -4.80624066 299.21109216 -5.33764648 296.10766602 C-6.77104566 291.54646619 -9.67700759 287.69353656 -12.3125 283.75 C-13.598094 281.78023355 -14.88324277 279.81017645 -16.16796875 277.83984375 C-17.13742432 276.36620361 -17.13742432 276.36620361 -18.12646484 274.86279297 C-20.84351313 270.71109786 -23.48632356 266.51426466 -26.125 262.3125 C-27.10647179 260.75632177 -28.08824198 259.2003317 -29.0703125 257.64453125 C-29.55274414 256.87963379 -30.03517578 256.11473633 -30.53222656 255.32666016 C-33.01983357 251.38339755 -35.51006414 247.44179232 -38 243.5 C-39.00001224 241.9166744 -40.00001225 240.33334107 -41 238.75 C-41.495 237.96625 -41.99 237.1825 -42.5 236.375 C-47 229.25 -47 229.25 -48.5012207 226.87280273 C-49.49683301 225.29659228 -50.49276174 223.72058165 -51.48901367 222.14477539 C-54.05883577 218.07908041 -56.62232409 214.0095898 -59.17578125 209.93359375 C-61.6748272 205.94679044 -64.19097777 201.97139442 -66.72363281 198.00585938 C-67.8240926 196.27644514 -68.90958792 194.5375253 -69.9921875 192.796875 C-76.42158417 182.90093728 -86.40090951 178.58591216 -96.6875 173.375 C-99.11517672 172.13388809 -101.54032694 170.88789688 -103.96484375 169.640625 C-104.5680545 169.33065582 -105.17126526 169.02068665 -105.79275513 168.70132446 C-111.163116 165.93354204 -116.46270052 163.0474164 -121.75 160.125 C-131.25046239 154.88525976 -140.87586929 149.91023997 -150.52868652 144.95953369 C-159.60615183 140.30128135 -168.60635645 135.53370175 -177.53686523 130.59790039 C-187.14240566 125.31767752 -196.90041783 120.33313896 -206.65820312 115.34179688 C-207.30643539 115.00954605 -207.95466766 114.67729523 -208.62254333 114.3349762 C-210.39280591 113.42801401 -212.16425923 112.52337707 -213.93579102 111.61889648 C-215.91843271 110.57141843 -217.87108734 109.4641639 -219.78100586 108.28930664 C-223.69248648 106.01661117 -225.52289695 107.6611061 -229.328125 109.640625 Z M-43 205 C-41.52592646 208.68518385 -40.26141378 211.38161366 -38.1640625 214.6328125 C-37.60058105 215.51155029 -37.03709961 216.39028809 -36.45654297 217.2956543 C-35.5499292 218.69618042 -35.5499292 218.69618042 -34.625 220.125 C-33.3486478 222.11308192 -32.07261143 224.10136664 -30.796875 226.08984375 C-30.15685547 227.08483887 -29.51683594 228.07983398 -28.85742188 229.10498047 C-26.17513159 233.28565846 -23.52305953 237.48508699 -20.875 241.6875 C-19.89326517 243.2435123 -18.91149441 244.79950193 -17.9296875 246.35546875 C-17.20604004 247.50281494 -17.20604004 247.50281494 -16.46777344 248.67333984 C-14.98184484 251.02877889 -13.49500518 253.38364014 -12.0078125 255.73828125 C-11.51321533 256.52525391 -11.01861816 257.31222656 -10.5090332 258.12304688 C-9.50627113 259.70254721 -8.48918855 261.2730501 -7.45776367 262.83398438 C-4.28278131 267.68728013 -1.80194356 272.44752809 0.26879883 277.87182617 C2.34293611 281.88863967 2.34293611 281.88863967 9 289 C19.23 289 29.46 289 40 289 C40 261.28 40 233.56 40 205 C12.61 205 -14.78 205 -43 205 Z M10 305 C8.35 307.64 6.7 310.28 5 313 C-0.61158039 318.37776454 -5.00829025 320.288981 -12.75 320.375 C-13.89984375 320.40335937 -15.0496875 320.43171875 -16.234375 320.4609375 C-20 320 -20 320 -29 316 C-29 339.76 -29 363.52 -29 388 C-6.23 388 16.54 388 40 388 C40 360.61 40 333.22 40 305 C30.1 305 20.2 305 10 305 Z M-287 349 C-283.4680589 353.42022476 -283.4680589 353.42022476 -279.5 357.125 C-275.92949958 360.17591268 -272.45121006 363.31551362 -269 366.5 C-265.70006344 369.53925384 -262.39049633 372.56156985 -259 375.5 C-255.12260956 378.86255022 -251.34637117 382.33209141 -247.5690918 385.8059082 C-239.79031717 392.95718439 -231.90681848 399.9908155 -224 407 C-218.97567555 404.38540009 -215.23163956 400.63815675 -211.1875 396.75 C-206.49814236 392.27155127 -201.76822966 387.8778739 -196.8684082 383.62988281 C-194.19933175 381.30154694 -191.60156295 378.90361794 -189 376.5 C-185.70047223 373.46031004 -182.39048393 370.43841941 -179 367.5 C-175.53283878 364.49172777 -172.13557728 361.41185698 -168.75 358.3125 C-167.98816406 357.61640625 -167.98816406 357.61640625 -167.2109375 356.90625 C-164.40329369 354.32886269 -161.69738704 351.69738704 -159 349 C-201.24 349 -243.48 349 -287 349 Z M-301 359 C-301 397.94 -301 436.88 -301 477 C-294.58530681 472.29396468 -294.58530681 472.29396468 -289 467.0625 C-285.9024878 463.88110933 -282.69694997 460.94057236 -279.33203125 458.046875 C-276.33729877 455.41833259 -273.42025929 452.71071714 -270.5 450 C-266.4171984 446.21346531 -262.30229393 442.48232181 -258.08984375 438.83984375 C-255.3562948 436.43329879 -252.67884932 433.96697933 -250 431.5 C-245.39570322 427.26001992 -240.74157308 423.08612033 -236 419 C-237.60482008 414.74417967 -240.82163155 412.14113833 -244.125 409.1875 C-244.71466553 408.6519751 -245.30433105 408.1164502 -245.91186523 407.56469727 C-249.53980558 404.27919387 -253.20780167 401.04124549 -256.91015625 397.83984375 C-259.64370559 395.43329844 -262.32114006 392.96696804 -265 390.5 C-268.30026876 387.46109823 -271.60949347 384.438439 -275 381.5 C-278.36775833 378.58034257 -281.65769688 375.5801237 -284.9375 372.5625 C-288.67272236 369.12925677 -292.4128436 365.70247804 -296.1875 362.3125 C-296.90292969 361.66925781 -297.61835938 361.02601563 -298.35546875 360.36328125 C-299.77229086 358.89363271 -299.77229086 358.89363271 -301 359 Z M-152.5625 365.0625 C-156.9647939 369.18598564 -161.3867363 373.26119971 -165.953125 377.203125 C-168.63067903 379.55364953 -171.25284815 381.96314604 -173.875 384.375 C-179.21633741 389.28795947 -184.59795461 394.15379208 -190 399 C-191.66692647 400.49971128 -193.33359149 401.99971321 -195 403.5 C-200 408 -205 412.5 -210 417 C-208.62647072 420.11836333 -207.08161027 422.11865428 -204.5859375 424.42578125 C-203.90660156 425.05806641 -203.22726563 425.69035156 -202.52734375 426.34179688 C-201.46193359 427.31729492 -201.46193359 427.31729492 -200.375 428.3125 C-199.34439453 429.2705957 -199.34439453 429.2705957 -198.29296875 430.24804688 C-194.20800926 434.03027484 -190.0525945 437.72256022 -185.85302734 441.37670898 C-183.23733572 443.66810999 -180.68107699 446.01717829 -178.125 448.375 C-173.59019374 452.54805533 -169.03207112 456.69298446 -164.44140625 460.8046875 C-162.75390719 462.32208665 -161.07471556 463.84875716 -159.40234375 465.3828125 C-158.54769531 466.16398437 -157.69304687 466.94515625 -156.8125 467.75 C-156.05582031 468.44609375 -155.29914063 469.1421875 -154.51953125 469.859375 C-151.49659384 472.42770012 -148.22780944 474.69442183 -145 477 C-145 438.06 -145 399.12 -145 359 C-147.50373001 359 -150.69530059 363.3006568 -152.5625 365.0625 Z M-29 404 C-29 431.72 -29 459.44 -29 488 C-6.23 488 16.54 488 40 488 C40 460.28 40 432.56 40 404 C17.23 404 -5.54 404 -29 404 Z M-224 429 C-224.61875 429.63615234 -224.61875 429.63615234 -225.25 430.28515625 C-228.91217538 434.00455312 -232.68015929 437.5113046 -236.6328125 440.91796875 C-239.63721842 443.56045779 -242.56752389 446.27821314 -245.5 449 C-249.58282308 452.78651253 -253.69770509 456.51767734 -257.91015625 460.16015625 C-260.64370718 462.56670295 -263.32107396 465.03310211 -266 467.5 C-271.33921597 472.41400543 -276.76042052 477.21843003 -282.265625 481.9453125 C-283.00296875 482.58210938 -283.7403125 483.21890625 -284.5 483.875 C-285.1703125 484.44992187 -285.840625 485.02484375 -286.53125 485.6171875 C-287.25828125 486.30167969 -287.25828125 486.30167969 -288 487 C-288 487.33 -288 487.66 -288 488 C-245.1 488 -202.2 488 -158 488 C-159.65 486.35 -161.3 484.7 -163 483 C-163.57363281 482.41476562 -164.14726562 481.82953125 -164.73828125 481.2265625 C-168.25645213 477.64728196 -171.89893212 474.29198862 -175.69921875 471.015625 C-178.5077302 468.55519731 -181.25461879 466.03025008 -184 463.5 C-187.30013347 460.46095466 -190.6094976 457.43843541 -194 454.5 C-197.3905189 451.56155029 -200.69932966 448.5384771 -204 445.5 C-213.5028077 436.61855085 -213.5028077 436.61855085 -224 429 Z M-401 468 C-401 474.6 -401 481.2 -401 488 C-373.28 488 -345.56 488 -317 488 C-317 481.4 -317 474.8 -317 468 C-344.72 468 -372.44 468 -401 468 Z M-129 468 C-129 474.6 -129 481.2 -129 488 C-101.28 488 -73.56 488 -45 488 C-45 481.4 -45 474.8 -45 468 C-72.72 468 -100.44 468 -129 468 Z " fill="#000000" transform="translate(457,9)"/>
<path d="M0 0 C10.22600527 8.63495007 16.33761349 19.50405468 19.0859375 32.55859375 C19.1684375 33.69296875 19.2509375 34.82734375 19.3359375 35.99609375 C19.39910156 36.68445313 19.46226562 37.3728125 19.52734375 38.08203125 C20.14156933 50.00989577 16.50668967 62.47945746 9.3359375 71.99609375 C8.74941406 72.7746875 8.16289062 73.55328125 7.55859375 74.35546875 C-1.4461189 85.33053774 -13.74525718 91.05264354 -27.6640625 92.99609375 C-42.89233751 94.06780541 -56.5491307 89.59421564 -68.1640625 79.62109375 C-78.99854087 69.14184417 -84.5979537 56.16333336 -84.9765625 41.18359375 C-84.70215149 25.25060474 -78.97578009 13.04734416 -67.6640625 1.99609375 C-48.91911855 -15.71512168 -20.01703659 -15.05680318 0 0 Z M-62.34765625 20.06640625 C-68.26959148 28.74722525 -70.01200971 38.31964864 -68.203125 48.62109375 C-65.52103534 58.71837248 -59.63997374 66.74317402 -50.72265625 72.1796875 C-41.37665034 77.17275915 -32.53315526 78.2102379 -22.2890625 75.49609375 C-13.95515583 72.76001998 -6.50469398 67.57377284 -1.69140625 60.10546875 C3.97201285 48.47715577 4.64624805 39.26774573 0.66015625 27.18359375 C-3.01027212 18.34858034 -9.69901294 11.95100256 -18.1953125 7.7421875 C-34.8155348 0.88873377 -51.22427792 6.4273865 -62.34765625 20.06640625 Z " fill="#000000" transform="translate(266.6640625,197.00390625)"/>
</svg>
