<?xml version="1.0" encoding="UTF-8"?>
<svg version="1.1" xmlns="http://www.w3.org/2000/svg" width="512" height="512">
<path d="M0 0 C4.36294452 1.65872823 8.47482356 3.74632969 12.625 5.875 C14.82398776 6.97961972 17.0244629 8.08128446 19.2265625 9.1796875 C20.19158691 9.67194824 21.15661133 10.16420898 22.15087891 10.67138672 C27.87800016 13.612235 27.87800016 13.612235 34.02026367 13.04956055 C35.57837769 12.22645386 35.57837769 12.22645386 37.16796875 11.38671875 C38.30814453 10.79826172 39.44832031 10.20980469 40.62304688 9.60351562 C41.81154654 8.96549274 42.99969422 8.32681376 44.1875 7.6875 C45.38638441 7.05866464 46.58624724 6.43169092 47.78710938 5.80664062 C49.9858771 4.66048774 52.18000659 3.5053626 54.36791992 2.33862305 C58.83339727 0.06757098 63.02582982 -0.84193153 68 0 C71 2.0625 71 2.0625 73 5 C73.63253531 8.93577525 73.59359483 11.02824033 71.50390625 14.44921875 C68.19128197 17.82385784 64.65982347 19.41811915 60.375 21.3125 C59.59898437 21.67150391 58.82296875 22.03050781 58.0234375 22.40039062 C52.31915179 25 52.31915179 25 50 25 C53.16176922 28.49829416 56.69414731 30.7512701 60.75 33.0625 C69.12827039 37.96587373 77.07035308 43.4080178 85 49 C85.61262695 49.42958008 86.22525391 49.85916016 86.85644531 50.30175781 C103.79957349 62.19215408 120.02168724 75.03629772 135.6875 88.5625 C136.23196777 89.03147705 136.77643555 89.5004541 137.33740234 89.98364258 C148.75133623 99.92132109 159.58657061 110.42379358 170.26806641 121.13769531 C172.38981009 123.26484784 174.51691491 125.38653561 176.64453125 127.5078125 C178.0211544 128.88509583 179.39746766 130.26268899 180.7734375 131.640625 C181.39648773 132.261651 182.01953796 132.882677 182.66146851 133.52252197 C186.97037628 137.85413608 191.01901712 142.3666774 195 147 C195.9733268 148.11773775 196.94717715 149.23502013 197.921875 150.3515625 C204.35643252 157.78019465 210.55903127 165.35121288 216.55957031 173.13427734 C218.06195385 175.08024598 219.5738294 177.0186123 221.0859375 178.95703125 C244.7348441 209.41072932 264.91359374 242.19804662 282 276.75 C282.41548096 277.56428467 282.83096191 278.37856934 283.2590332 279.2175293 C285.74782093 284.41234962 287.04386524 289.22036925 286 295 C283.32252786 298.3265563 281.71028182 298.89853117 277.5 299.5 C273.34689495 298.90669928 272.02524142 297.84441551 269 295 C267.39428711 292.36206055 267.39428711 292.36206055 266.02734375 289.38671875 C265.52009766 288.30326172 265.01285156 287.21980469 264.49023438 286.10351562 C263.72163086 284.41258789 263.72163086 284.41258789 262.9375 282.6875 C261.90728554 280.46115639 260.87479088 278.23586627 259.83984375 276.01171875 C259.16489868 274.53384888 259.16489868 274.53384888 258.47631836 273.02612305 C256.80661955 269.60361326 254.88933638 266.30633867 253 263 C252.67 328.67 252.34 394.34 252 462 C253.98 462.66 255.96 463.32 258 464 C262.95809445 467.77718229 267.86820381 472.69270861 269 479 C269.71678331 487.11144654 270.44173181 495.4149256 265 502 C259.82544369 507.39659884 255.26377926 511.68695161 247.55409592 512.25299966 C246.20418948 512.26459159 244.85416205 512.26526817 243.50422955 512.25726891 C242.75459593 512.26077498 242.00496231 512.26428105 241.23261252 512.26789337 C238.71251183 512.27722135 236.19264152 512.27228048 233.67253113 512.26742554 C231.85075371 512.27116109 230.0289779 512.27576223 228.20720464 512.28115618 C223.19443235 512.29341329 218.18172667 512.29312253 213.16894281 512.29076743 C207.76527204 512.29035995 202.36162281 512.30139183 196.95796204 512.31088257 C186.3687019 512.32750834 175.77946404 512.33299282 165.19019195 512.33410732 C156.58434972 512.33505704 147.97851485 512.3391635 139.37267494 512.34550858 C114.9835497 512.36312518 90.59444208 512.37234677 66.20531043 512.37084763 C64.88998719 512.37076772 63.57466394 512.3706878 62.21948242 512.37060547 C60.90255668 512.37052371 59.58563095 512.37044195 58.22879837 512.37035771 C36.88201735 512.36954466 15.53531667 512.388686 -5.81144551 512.4168822 C-27.72032789 512.44559298 -49.62917585 512.4594235 -71.53807753 512.45769465 C-83.8422113 512.45703013 -96.14627111 512.46254957 -108.45038795 512.48405075 C-118.92582571 512.50223876 -129.401156 512.50662945 -139.87660269 512.4930319 C-145.22238217 512.48649029 -150.56795535 512.48642817 -155.91371536 512.5037384 C-160.80719612 512.51942129 -165.70030617 512.51665445 -170.59377762 512.49917014 C-172.36428532 512.49608969 -174.13482036 512.49977181 -175.90529583 512.51089029 C-193.7979186 512.61581508 -193.7979186 512.61581508 -201.4609375 505.81640625 C-202.40839844 504.70072266 -202.40839844 504.70072266 -203.375 503.5625 C-204.34566406 502.45068359 -204.34566406 502.45068359 -205.3359375 501.31640625 C-210.19079805 494.55834919 -209.67018129 486.96582572 -209 479 C-207.41201298 472.88577452 -203.05584288 467.69696021 -198 464 C-196.02 463.34 -194.04 462.68 -192 462 C-192.33 396.33 -192.66 330.66 -193 263 C-201.59498389 279.45148017 -201.59498389 279.45148017 -210 296 C-214.42786423 299.32089817 -215.66506882 299.74876227 -221 299 C-223.9375 297 -223.9375 297 -226 294 C-226.99124726 286.42037658 -224.17705703 281.11417265 -220.8125 274.4375 C-220.27367187 273.3441333 -219.73484375 272.2507666 -219.1796875 271.12426758 C-213.54744499 259.83620649 -207.36990947 248.8841425 -201 238 C-200.02472474 236.30860231 -199.04946391 234.6171963 -198.07421875 232.92578125 C-187.07938207 214.05168408 -174.32487919 196.29000328 -161 179 C-160.54318848 178.40429199 -160.08637695 177.80858398 -159.61572266 177.19482422 C-150.64991818 165.52751892 -141.13879981 154.35397185 -131.23046875 143.4765625 C-129.98325631 142.09174168 -128.74245058 140.70082991 -127.52655029 139.28843689 C-123.25762587 134.33441531 -118.79010336 129.64355853 -114.16015625 125.02734375 C-113.43436874 124.30059952 -112.70858124 123.57385529 -111.96080017 122.8250885 C-110.43676444 121.30037704 -108.91148431 119.7769085 -107.38500977 118.25463867 C-105.06867537 115.94366109 -102.75772922 113.62739229 -100.44726562 111.31054688 C-98.95604966 109.8199918 -97.46452347 108.329747 -95.97265625 106.83984375 C-95.29219742 106.15736069 -94.61173859 105.47487762 -93.91065979 104.77171326 C-89.43384785 100.31636363 -84.79451395 96.11007285 -80 92 C-78.89397196 91.03840333 -77.78840687 90.07627354 -76.68359375 89.11328125 C-68.29283575 81.85554444 -59.75073046 74.81947761 -51 68 C-50.29762207 67.45037598 -49.59524414 66.90075195 -48.87158203 66.33447266 C-30.09023408 51.71662069 -10.12100249 38.6878483 10 26 C9.16807129 25.63032104 9.16807129 25.63032104 8.31933594 25.25317383 C5.7898727 24.11988755 3.27008845 22.96647374 0.75 21.8125 C-0.12269531 21.42513672 -0.99539062 21.03777344 -1.89453125 20.63867188 C-6.66315674 18.43636774 -10.23786447 16.68427915 -13 12 C-13.7066341 7.6031656 -13.51930235 5.76272533 -11 2.0625 C-7.18752105 -0.55857928 -4.43808926 -0.78962836 0 0 Z M20.9375 40.875 C19.85057861 41.5251709 19.85057861 41.5251709 18.74169922 42.18847656 C0.19265456 53.45270857 -17.76590741 65.82123119 -35 79 C-35.64211426 79.49048828 -36.28422852 79.98097656 -36.94580078 80.48632812 C-48.56977895 89.40684387 -59.73208217 98.82254523 -70.51953125 108.73828125 C-72.64870089 110.6796816 -74.80918211 112.56663929 -77 114.4375 C-80.85381381 117.77694441 -84.41889675 121.38675 -87.99511719 125.01660156 C-90.48941952 127.53527251 -93.01250368 129.93598618 -95.75 132.1875 C-98.9018859 134.80162337 -101.47020044 137.74743325 -104.1171875 140.86328125 C-106.15639232 143.17748257 -108.30243458 145.33595677 -110.5 147.5 C-114.54835275 151.50752902 -118.30633858 155.66677464 -122 160 C-122.93955821 161.08771142 -123.87971321 162.17490749 -124.8203125 163.26171875 C-139.08146022 179.76759286 -152.23560456 197.07157559 -164.75 214.9375 C-165.33410645 215.7713623 -165.91821289 216.60522461 -166.52001953 217.46435547 C-168.7825567 220.71683764 -168.7825567 220.71683764 -171 224 C-171.7742707 225.01212822 -171.7742707 225.01212822 -172.56418324 226.04470348 C-174.5818535 230.19761078 -174.40582126 233.81156956 -174.36076355 238.3709259 C-174.36332682 239.31849862 -174.3658901 240.26607134 -174.36853105 241.24235839 C-174.3734747 244.4193134 -174.35696614 247.5957938 -174.34057617 250.77270508 C-174.33973003 253.0492756 -174.34020479 255.32584695 -174.34190369 257.60241699 C-174.34276555 263.78587953 -174.32510867 269.969168 -174.30418181 276.15259004 C-174.28544698 282.61349245 -174.28366709 289.07439871 -174.28010559 295.5353241 C-174.27183623 306.38059872 -174.25308878 317.22580186 -174.22631836 328.07104492 C-174.1987752 339.2409636 -174.17757729 350.41086483 -174.16479492 361.58081055 C-174.16399093 362.27651376 -174.16318694 362.97221697 -174.16235858 363.6890021 C-174.15541991 369.74075699 -174.14896157 375.79251238 -174.14255047 381.84426785 C-174.11432884 407.8962387 -174.05456543 433.94804017 -174 460 C-132.09 460 -90.18 460 -47 460 C-46.82972981 429.12704452 -46.82972981 429.12704452 -46.70214844 398.25390625 C-46.65673828 392.23242187 -46.65673828 392.23242187 -46.63043213 389.39819336 C-46.6159822 387.45226968 -46.6090529 385.50627997 -46.60845947 383.56030273 C-46.59006582 361.28154789 -42.90149915 342.47192092 -28 325 C-27.3915625 324.19433594 -26.783125 323.38867188 -26.15625 322.55859375 C-15.05221616 309.38261156 3.77394691 300.74619573 20.73828125 299.12890625 C44.21178453 297.79103819 64.3203602 303.69076712 82.62109375 318.8125 C95.21273404 330.39101981 105.18619933 348.57672429 106.10452461 365.98096657 C106.16300318 368.44762946 106.18916906 370.91281956 106.20532227 373.38012695 C106.22037135 374.8083857 106.22037135 374.8083857 106.23572445 376.26549816 C106.2670417 379.33973466 106.29185269 382.41398408 106.31640625 385.48828125 C106.33481594 387.3894492 106.35365295 389.29061306 106.3729248 391.19177246 C106.44129544 398.23196658 106.50139753 405.27223904 106.5625 412.3125 C106.706875 428.049375 106.85125 443.78625 107 460 C148.91 460 190.82 460 234 460 C234.29143589 419.3096671 234.29143589 419.3096671 234.48828125 378.61914062 C234.50791569 373.12279985 234.52806166 367.62646171 234.54931641 362.13012695 C234.55195389 361.4413292 234.55459138 360.75253145 234.55730879 360.04286104 C234.60070482 348.94837769 234.6794877 337.85441699 234.77152796 326.76024269 C234.8653172 315.3594667 234.91989724 303.95911303 234.94088495 292.55794007 C234.95388821 286.16017591 234.9843072 279.76359334 235.05730057 273.36620903 C235.12554813 267.33548545 235.14604189 261.30642176 235.13107681 255.27534866 C235.13381153 253.0707412 235.15348468 250.86607403 235.19205475 248.66180229 C235.43552081 234.02057815 233.47541082 225.27859259 224 214 C222.83939799 212.37463757 221.69046626 210.74068873 220.56640625 209.08984375 C219.56881 207.70305582 218.56756245 206.31888645 217.5625 204.9375 C217.01883789 204.18782959 216.47517578 203.43815918 215.91503906 202.66577148 C210.78639814 195.63517244 205.45958221 188.77571235 200 182 C199.25363281 181.07058594 198.50726563 180.14117187 197.73828125 179.18359375 C186.31240442 165.09099522 174.48125127 151.23497112 161.50390625 138.5390625 C159.92765338 136.92596216 158.49852278 135.23854492 157.0625 133.5 C154.38733705 130.31796406 151.43338727 127.70157543 148.26953125 125.015625 C145.56864895 122.61690682 143.03388599 120.0716987 140.5 117.5 C136.16263941 113.11627807 131.70100926 108.98898032 127 105 C125.96143394 104.09858363 124.92375043 103.19614991 123.88671875 102.29296875 C98.93980705 80.63031496 72.05338767 61.4145804 44 44 C43.31341309 43.57187012 42.62682617 43.14374023 41.91943359 42.70263672 C33.54472379 37.51027232 29.78978845 35.51318774 20.9375 40.875 Z M-15.2265625 336.60546875 C-27.55792255 352.97800484 -29.45196061 367.71678483 -29.29296875 387.63671875 C-29.28854993 389.49206268 -29.28549431 391.34741036 -29.28381348 393.20275879 C-29.26817711 400.03106343 -29.22629341 406.85928766 -29.1875 413.6875 C-29.125625 428.970625 -29.06375 444.25375 -29 460 C9.94 460 48.88 460 89 460 C89.103125 444.82 89.20625 429.64 89.3125 414 C89.38078003 406.85730469 89.38078003 406.85730469 89.45043945 399.5703125 C89.46717975 395.23560466 89.46717975 395.23560466 89.47721863 390.90087891 C89.484808 388.99652229 89.50220555 387.09218698 89.52787781 385.18798828 C89.75124444 367.71990883 87.7188583 353.45916248 77 339 C75.9171875 337.453125 75.9171875 337.453125 74.8125 335.875 C64.10928742 323.76808741 48.83914835 317.40374689 33.0703125 315.6796875 C14.98395757 314.94446982 -3.45855666 322.83483736 -15.2265625 336.60546875 Z M-191 483 C-191.83345815 486.54295504 -191.83345815 486.54295504 -191 490 C-189.47808539 492.32053427 -189.47808539 492.32053427 -187 494 C-183.62083962 494.60160854 -183.62083962 494.60160854 -179.74104309 494.50336456 C-179.00487192 494.50917833 -178.26870075 494.51499209 -177.51022136 494.52098203 C-175.02967888 494.5356446 -172.55011625 494.52166832 -170.06958008 494.50793457 C-168.2788101 494.51254103 -166.4880439 494.51889222 -164.69728565 494.52684355 C-159.76566019 494.5435951 -154.83434297 494.53526412 -149.90271616 494.52289867 C-144.58839193 494.51387427 -139.27412192 494.52780491 -133.95980835 494.53881836 C-123.54484331 494.55663612 -113.12999336 494.5527491 -102.71502376 494.5411678 C-94.25309092 494.53214654 -85.79119041 494.5309038 -77.32925415 494.53526306 C-75.52503926 494.53618246 -75.52503926 494.53618246 -73.68437558 494.53712043 C-71.24114663 494.53839929 -68.79791769 494.53969614 -66.35468876 494.5410108 C-43.42646325 494.55242614 -20.49830163 494.53928793 2.4299134 494.51780933 C22.11769563 494.4999375 41.80538353 494.50304134 61.49316406 494.52148438 C84.33746679 494.54287424 107.18171347 494.55132741 130.02602482 494.53903532 C132.46043459 494.53776108 134.89484436 494.5365036 137.32925415 494.53526306 C138.52713521 494.53464596 139.72501626 494.53402886 140.95919675 494.53339306 C149.41424825 494.5299345 157.86926429 494.53577938 166.3243103 494.54518127 C176.62349777 494.55638172 186.92256324 494.55340243 197.22173667 494.5320583 C202.47992021 494.52152154 207.73790012 494.51747067 212.99608231 494.53065491 C217.80490741 494.54253038 222.61333916 494.53609669 227.42212832 494.5147447 C229.16634436 494.51025799 230.9105933 494.51259093 232.65478837 494.52224785 C235.0173525 494.53433008 237.37855148 494.52202186 239.74104309 494.50336456 C241.05574491 494.50271515 242.37044672 494.50206574 243.72498798 494.50139666 C247.05655152 494.25576373 247.05655152 494.25576373 249.41462231 492.18338346 C251.26169316 489.97126054 251.26169316 489.97126054 251.625 486.5625 C250.93204817 482.61267456 249.88243766 481.44913473 246.77045047 479.02979799 C243.75269441 477.2744938 241.00504874 477.37294245 237.56300354 477.3707943 C236.83187737 477.36352709 236.1007512 477.35625989 235.34746969 477.34877247 C232.8959166 477.33051494 230.44592659 477.34787975 227.99438477 477.36508179 C226.21981029 477.35932086 224.44524178 477.35137994 222.67068577 477.34144557 C217.79298673 477.32054503 212.91577592 477.33090201 208.03807497 477.34637666 C202.77826893 477.35767309 197.51854781 477.34023593 192.25875854 477.32647705 C181.95433443 477.3042219 171.65009222 477.30905601 161.34566092 477.32354026 C152.97246032 477.33482352 144.59931076 477.33636734 136.22610474 477.33092117 C135.03524468 477.33015501 133.84438462 477.32938884 132.6174379 477.32859946 C130.19837147 477.32700086 127.77930507 477.3253798 125.36023867 477.3237365 C102.66656071 477.30947232 79.97298367 477.32588225 57.27932227 477.35273834 C37.79912002 477.37507769 18.31906674 477.37119775 -1.16113281 477.34814453 C-23.77255361 477.32139837 -46.38388591 477.31084568 -68.99532032 477.32620585 C-71.40558178 477.32779863 -73.81584325 477.32937048 -76.22610474 477.33092117 C-78.00503456 477.33207824 -78.00503456 477.33207824 -79.81990236 477.33325868 C-88.18487795 477.33757923 -96.54979749 477.33028148 -104.9147644 477.31852341 C-115.10627489 477.30451305 -125.29759278 477.30826761 -135.48908114 477.33492713 C-140.69085845 477.34808493 -145.89231444 477.35318414 -151.09408951 477.33668137 C-155.85367723 477.3218096 -160.61264502 477.32992418 -165.37217629 477.35656913 C-167.09617757 477.36216587 -168.82023095 477.35928697 -170.54419887 477.34719019 C-172.88454921 477.3320249 -175.22276532 477.34753294 -177.56300354 477.3707943 C-178.86371072 477.37160606 -180.1644179 477.37241782 -181.50454044 477.37325418 C-186.1404965 478.20449426 -187.75803962 479.62066555 -191 483 Z " fill="#000000" transform="translate(226,0)"/>
<path d="M0 0 C15.60137671 10.6759834 24.87791206 30.00722143 28.51171875 48.109375 C29.18195638 52.07718175 29.76360446 55.98127574 30 60 C30.05285156 60.85722656 30.10570312 61.71445312 30.16015625 62.59765625 C30.32804117 67.55391099 30.34508185 71.03545855 27 75 C23.24952518 77.50031654 21.44143734 77.53603554 17 77 C14.02182422 74.9201447 12.31067618 73.19869226 11.38476562 69.6262207 C10.9718605 66.73251311 10.68594129 63.8498745 10.4375 60.9375 C8.40184826 42.19491148 2.42393228 28.15778332 -11.1796875 14.87109375 C-13.47455978 12.51220143 -13.94701523 11.47686289 -14.3125 8.1875 C-13.92653707 4.25067812 -12.76603321 2.76603321 -10 0 C-6.24958853 -1.25013716 -3.65628307 -1.41312254 0 0 Z " fill="#000000" transform="translate(423,205)"/>
<path d="M0 0 C2.9033447 2.60556576 3.87407924 4.13654335 4.4375 8 C3.66599295 13.29033407 1.3876259 15.7350435 -2.6875 18.9375 C-15.7350973 29.99071318 -19.31787038 47.83395821 -20.69848633 63.99194336 C-21.17770175 68.67834778 -21.49013038 71.32352274 -24.37890625 75.15625 C-27.87628781 77.61640514 -29.80742804 77.67380621 -34 77 C-37.38939556 74.86320715 -38.72582557 73.8225233 -40 70 C-41.8218154 48.43478976 -33.81691348 25.64339584 -20.0546875 9.23046875 C-9.42026008 -2.31374809 -9.42026008 -2.31374809 0 0 Z " fill="#000000" transform="translate(99,205)"/>
<path d="M0 0 C2.96326994 2.10548127 3.83222327 3.47429959 4.9375 6.9375 C5.01397707 10.68487632 4.10957829 11.94764557 2 15 C0.63983755 16.34943138 -0.75896611 17.66066882 -2.1875 18.9375 C-14.72709384 31.27286593 -19.14853378 47.35788314 -20.14208984 64.51635742 C-20.50831345 69.52648522 -21.2413746 72.34815373 -25 76 C-28.13871188 77.56935594 -30.53855822 77.35201103 -34 77 C-37.46624155 74.35141022 -38.84792762 72.88642191 -39.59375 68.5390625 C-39.01738224 44.47570842 -32.4014939 22.27493758 -15 5 C-9.7898631 0.18893741 -7.22162012 -1.61863899 0 0 Z " fill="#000000" transform="translate(141,205)"/>
<path d="M0 0 C2.93632257 2.07340329 5.45921372 4.46416652 8 7 C8.58910156 7.5775 9.17820312 8.155 9.78515625 8.75 C23.91339072 23.68280363 29.84056542 44.3132573 30.4375 64.4375 C30.49744141 66.41556641 30.49744141 66.41556641 30.55859375 68.43359375 C29.86336886 72.87233727 28.52343492 74.29989313 25 77 C20.69725091 77.69151325 18.79054688 77.51557405 15.125 75.125 C11.8291958 71.8291958 11.81849648 69.45918589 11.45629883 64.88110352 C9.84183085 45.26866112 4.14703155 28.92163749 -10.7421875 15.47265625 C-13.1690771 12.81483425 -13.83902101 11.55303634 -14 8 C-12.0776699 1.69902913 -12.0776699 1.69902913 -8.6875 -0.5 C-5.20738118 -1.14746397 -3.39886551 -1.13295517 0 0 Z " fill="#000000" transform="translate(380,205)"/>
<path d="M0 0 C15.41961907 16.42326291 21.94465321 46.79002385 21.36328125 68.66796875 C20.84218726 72.01305597 19.54884294 73.8259869 17 76 C13.86128812 77.56935594 11.46144178 77.35201103 8 77 C4.97825206 74.91974623 3.30215494 73.18870801 2.38500977 69.58056641 C1.96944662 66.59779865 1.68464163 63.62636944 1.4375 60.625 C-0.24063849 44.55577132 -3.65993246 28.93861818 -12.375 15.0625 C-14.35010007 11.34019601 -14.61590975 9.15739079 -14 5 C-10.20713399 -1.01627021 -6.78649926 -1.66685947 0 0 Z " fill="#000000" transform="translate(338,205)"/>
<path d="M0 0 C3.05780763 2.66578101 3.91500225 4.16823631 4.328125 8.2109375 C3.94582305 12.62561476 2.43216282 15.71188738 0.3125 19.5 C-7.60236896 34.55414715 -11.50728116 50.3463133 -12.375 67.3125 C-12.66812917 70.97661463 -12.98675305 71.98012957 -15.125 75.1875 C-18.79347009 77.50023114 -20.73294881 77.68577608 -25 77 C-27.75329021 75.20437595 -29.52627461 73.94745078 -31 71 C-32.87337438 51.14943681 -26.58810272 29.78092321 -17.9375 12.125 C-17.62143799 11.47700439 -17.30537598 10.82900879 -16.97973633 10.16137695 C-12.89491741 2.26503769 -9.00368238 -2.17330264 0 0 Z " fill="#000000" transform="translate(184,205)"/>
<path d="M0 0 C4.97698097 4.43996568 5.73322514 10.70225691 7.125 16.9375 C7.38434326 18.06325439 7.64368652 19.18900879 7.91088867 20.34887695 C10.73367917 32.84285581 12.38251738 45.19458667 13 58 C13.05414063 59.11246094 13.10828125 60.22492188 13.1640625 61.37109375 C13.19242187 62.42425781 13.22078125 63.47742188 13.25 64.5625 C13.27578125 65.49191406 13.3015625 66.42132813 13.328125 67.37890625 C12.92643361 70.58765534 11.90030224 72.40262427 10 75 C6.24952518 77.50031654 4.44143734 77.53603554 0 77 C-3.29286836 74.41694984 -4.80279399 72.82964872 -5.77954102 68.72045898 C-5.85358154 67.49141846 -5.92762207 66.26237793 -6.00390625 64.99609375 C-6.05252808 64.32425049 -6.1011499 63.65240723 -6.15124512 62.96020508 C-6.25377641 61.52724157 -6.34668127 60.09356166 -6.43069458 58.65939331 C-6.65221085 54.92521054 -6.95063468 51.19738032 -7.25 47.46875 C-7.30785172 46.73458359 -7.36570343 46.00041718 -7.42530823 45.2440033 C-8.28762726 34.8398652 -10.53082107 24.77016338 -13.09765625 14.671875 C-13.95908375 11.16649902 -14.47625461 8.57190956 -14 5 C-10.14396435 -0.98350359 -6.82101863 -1.67533791 0 0 Z " fill="#000000" transform="translate(295,205)"/>
<path d="M0 0 C2.5 1.9375 2.5 1.9375 4 5 C4.56954903 12.00545306 2.06622616 19.34890836 0.51806641 26.13720703 C-1.52048185 35.14125805 -2.84429304 44.03559456 -3.38671875 53.25 C-3.45810059 54.36947021 -3.52948242 55.48894043 -3.60302734 56.64233398 C-3.74056842 58.88803677 -3.85745205 61.13511906 -3.95166016 63.38305664 C-4.43149549 71.2250237 -4.43149549 71.2250237 -7.35546875 75.2109375 C-10.87458727 77.59167056 -12.82969662 77.67022733 -17 77 C-20.38939556 74.86320715 -21.72582557 73.8225233 -23 70 C-24.40903148 52.0102725 -23.63636704 15.74261485 -11.59204102 1.31323242 C-7.87062936 -1.75646138 -4.42548275 -1.08696067 0 0 Z " fill="#000000" transform="translate(227,205)"/>
<path d="M0 0 C2.71228867 2.65318141 3.88882687 4.30752991 4.49447632 8.07997131 C4.49020126 9.80394386 4.49020126 9.80394386 4.48583984 11.56274414 C4.4919931 12.87082535 4.49814636 14.17890656 4.50448608 15.52662659 C4.4906903 16.94614366 4.47615634 18.36565372 4.4609375 19.78515625 C4.45855134 21.24816221 4.45764812 22.71117126 4.4581604 24.17417908 C4.45503785 27.23488652 4.43851401 30.29512372 4.41162109 33.35571289 C4.37761168 37.27545064 4.36999371 41.19467303 4.37151146 45.11454105 C4.37096723 48.13346764 4.35999211 51.15228198 4.34550858 54.17117119 C4.33915306 55.61643055 4.3352046 57.0617026 4.33372116 58.50697517 C4.3293768 60.52691356 4.31027757 62.54680389 4.29052734 64.56665039 C4.28290375 65.71516983 4.27528015 66.86368927 4.26742554 68.04701233 C4.00581372 70.93580331 3.56902719 72.59007305 2 75 C-1.22794238 77.30567313 -4.11566819 77.32369432 -8 77 C-10.53189209 76.15603597 -11.63407274 75.56204123 -13.09121704 73.32395935 C-14.27100043 70.30699186 -14.26902182 67.8065273 -14.29052734 64.56665039 C-14.3096669 62.60925682 -14.3096669 62.60925682 -14.32919312 60.61231995 C-14.3322505 59.19076689 -14.33447841 57.76921184 -14.3359375 56.34765625 C-14.34236682 54.88561371 -14.34909528 53.42357245 -14.35610962 51.96153259 C-14.36807457 48.89921079 -14.37179119 45.83700173 -14.37060547 42.7746582 C-14.37040217 38.85594096 -14.39771824 34.93794805 -14.43214989 31.0194025 C-14.4544156 28.00044959 -14.45844315 24.98167119 -14.45738602 21.96264458 C-14.45974194 20.51817767 -14.46856513 19.07370596 -14.48405075 17.62932014 C-14.50370279 15.60722355 -14.4953522 13.58491386 -14.48583984 11.56274414 C-14.48868988 10.41342911 -14.49153992 9.26411407 -14.49447632 8.07997131 C-13.89082999 4.32000684 -12.67392392 2.6679659 -10 0 C-6.16652698 -1.27782434 -3.91272241 -0.96101954 0 0 Z " fill="#000000" transform="translate(261,205)"/>
<path d="M0 0 C3.98820814 3.31354824 5.84920481 6.27136528 7.4921875 11.1484375 C7.88664062 12.31890625 8.28109375 13.489375 8.6875 14.6953125 C9.079375 15.90960938 9.47125 17.12390625 9.875 18.375 C10.29007812 19.5815625 10.70515625 20.788125 11.1328125 22.03125 C11.51953125 23.20429688 11.90625 24.37734375 12.3046875 25.5859375 C12.65515137 26.6486084 13.00561523 27.7112793 13.36669922 28.80615234 C14.10488065 32.52893163 13.80914448 35.30636931 13 39 C10.89451873 41.96326994 9.52570041 42.83222327 6.0625 43.9375 C2.31339817 44.01401228 0.89651146 43.3485228 -2 41 C-5.50705767 35.74759833 -7.21549471 30.01417599 -9.1875 24.0625 C-9.55552734 22.99064453 -9.92355469 21.91878906 -10.30273438 20.81445312 C-10.82383789 19.25307617 -10.82383789 19.25307617 -11.35546875 17.66015625 C-11.67153076 16.71793213 -11.98759277 15.77570801 -12.31323242 14.80493164 C-13.06687678 11.72685841 -13.24612477 9.15755411 -13 6 C-9.27891473 0.41837209 -6.70473214 -0.68183717 0 0 Z " fill="#000000" transform="translate(311,119)"/>
<path d="M0 0 C2.69990662 1.79993774 4.5418865 3.083773 6 6 C5.61055455 13.53691492 3.59320749 20.19143119 1.1875 27.3125 C0.84396484 28.38306641 0.50042969 29.45363281 0.14648438 30.55664062 C-0.19705078 31.58595703 -0.54058594 32.61527344 -0.89453125 33.67578125 C-1.20237549 34.60302002 -1.51021973 35.53025879 -1.82739258 36.4855957 C-3.15799506 39.33878641 -4.60064553 40.97818134 -7 43 C-10.768956 44.22900739 -12.50664753 44.1802634 -16.25 42.8125 C-20.22311631 40.19385516 -20.22311631 40.19385516 -21 37 C-20.54910291 29.50273067 -18.17797186 22.75533394 -15.75 15.6875 C-15.17572266 13.91922852 -15.17572266 13.91922852 -14.58984375 12.11523438 C-14.01169922 10.42430664 -14.01169922 10.42430664 -13.421875 8.69921875 C-13.07737305 7.67658936 -12.73287109 6.65395996 -12.37792969 5.6003418 C-9.69447692 0.53629938 -5.49724577 -0.80168168 0 0 Z " fill="#000000" transform="translate(208,119)"/>
<path d="M0 0 C0.639375 -0.01289063 1.27875 -0.02578125 1.9375 -0.0390625 C5.51713707 1.11347216 6.80844058 2.54557804 9 5.625 C9.71783339 9.63803045 9.65225801 13.55920468 9.5625 17.625 C9.57345703 18.70523438 9.58441406 19.78546875 9.59570312 20.8984375 C9.55256732 25.55710476 9.51772539 28.71842507 7.1796875 32.8125 C4.11923699 35.35739075 1.94657903 35.625 -2 35.625 C-5.57387602 34.03661066 -6.81089572 32.90865642 -9 29.625 C-9.49013484 25.6828318 -9.41651039 21.71936806 -9.4375 17.75 C-9.47037109 16.66074219 -9.50324219 15.57148438 -9.53710938 14.44921875 C-9.59089133 6.46015344 -9.59089133 6.46015344 -6.72265625 2.40625 C-2.95365994 -0.0595496 -2.95365994 -0.0595496 0 0 Z " fill="#000000" transform="translate(256,144.375)"/>
<path d="M0 0 C2.72223283 2.24584208 3.85822515 4.0785071 4.39672852 7.57861328 C4.5758718 10.72895754 4.5945029 13.84489092 4.5625 17 C4.58634766 18.08023438 4.61019531 19.16046875 4.63476562 20.2734375 C4.62021919 28.12851252 4.62021919 28.12851252 1.71484375 32.2109375 C-2.03900597 34.68469746 -2.03900597 34.68469746 -5 34.625 C-5.639375 34.63789062 -6.27875 34.65078125 -6.9375 34.6640625 C-10.51713707 33.51152784 -11.80844058 32.07942196 -14 29 C-14.71783339 24.98696955 -14.65225801 21.06579532 -14.5625 17 C-14.57345703 15.91976562 -14.58441406 14.83953125 -14.59570312 13.7265625 C-14.52326001 5.90270649 -14.52326001 5.90270649 -12.15234375 1.8125 C-8.1202235 -1.58296968 -4.94600234 -1.21480759 0 0 Z " fill="#000000" transform="translate(261,60)"/>
</svg>
