<?xml version="1.0" encoding="UTF-8"?>
<svg version="1.1" xmlns="http://www.w3.org/2000/svg" width="512" height="512">
<path d="M0 0 C1.65047671 0.2814108 3.30102721 0.56238911 4.9516449 0.8429718 C9.40064662 1.60066017 13.84851645 2.36480159 18.29614305 3.13051558 C22.02094246 3.77116159 25.74629165 4.4085777 29.47164285 5.04600585 C38.26298038 6.55029598 47.05340947 8.05981097 55.84326172 9.57275391 C64.88983538 11.12980206 73.93780029 12.67855897 82.98650706 14.22315824 C90.77955744 15.553688 98.57176227 16.88908855 106.3633045 18.22842181 C111.00644374 19.02652655 115.64986394 19.8228869 120.29408646 20.61466599 C124.66014167 21.35926334 129.02510186 22.10998248 133.38931465 22.86530113 C134.98440867 23.14034621 136.579865 23.41330023 138.17571449 23.68392754 C163.17512154 27.92745958 163.17512154 27.92745958 170.28271484 35.27197266 C174.21576506 40.99544126 176.40829552 46.04606151 176.40576267 53.029109 C176.40775372 54.23685362 176.40974477 55.44459824 176.41179615 56.68894118 C176.40894294 58.03605111 176.40599734 59.38316084 176.40296936 60.73027039 C176.4034052 62.15591587 176.40428034 63.58156128 176.40555853 65.00720626 C176.40780101 68.93398136 176.40378555 72.86072933 176.39878047 76.78750098 C176.39447264 81.01857162 176.39592263 85.24964067 176.39668274 89.48071289 C176.39720776 96.8143977 176.39406321 104.14807363 176.3884449 111.48175621 C176.38032699 122.08510473 176.37771438 132.68844895 176.37645691 143.29180024 C176.37426685 160.49393371 176.36760801 177.69606246 176.3581543 194.89819336 C176.34897899 211.61108374 176.34189874 228.32397284 176.33764648 245.03686523 C176.3372524 246.58145319 176.3372524 246.58145319 176.33685035 248.15724494 C176.33554534 253.32293761 176.33428163 258.4886303 176.33303845 263.65432298 C176.32266727 306.52687615 176.3050502 349.39942416 176.28271484 392.27197266 C177.53568359 392.22556641 178.78865234 392.17916016 180.07958984 392.13134766 C181.73060765 392.09382452 183.38165127 392.05742494 185.03271484 392.02197266 C185.85771484 391.98845703 186.68271484 391.95494141 187.53271484 391.92041016 C193.64516282 391.82182229 193.64516282 391.82182229 196.86083984 394.09228516 C198.28271484 396.27197266 198.28271484 396.27197266 198.28271484 399.39697266 C197.28271484 402.27197266 197.28271484 402.27197266 195.6368084 403.43575543 C192.5385409 404.5363169 189.90754334 404.52407015 186.61721802 404.52644825 C185.94520505 404.52965473 185.27319208 404.53286121 184.58081508 404.53616485 C182.31876466 404.54449621 180.05697685 404.53852972 177.79492188 404.53266907 C176.1608977 404.53568832 174.52687494 404.53957666 172.89285469 404.54426163 C168.39456709 404.55457944 163.89635884 404.55235023 159.39806461 404.54808104 C154.5500152 404.54562069 149.70198523 404.55461931 144.85394287 404.56211853 C135.35341942 404.57488641 125.85292421 404.57665666 116.35239363 404.57431827 C108.63322096 404.57253744 100.91405689 404.57427969 93.19488525 404.57854271 C92.09753905 404.5791379 91.00019285 404.57973309 89.86959374 404.58034631 C87.6405708 404.58155802 85.41154786 404.58277216 83.18252492 404.58398869 C62.26585382 404.59487208 41.34919884 404.59269784 20.43252683 404.58660384 C1.28161173 404.58143281 -17.86925253 404.59269363 -37.02015758 404.61170206 C-56.66896397 404.63105571 -76.31774628 404.63934089 -95.96656227 404.63557881 C-107.00407204 404.63366315 -118.04153851 404.63618981 -129.07904053 404.65029335 C-138.47423995 404.66217658 -147.86936943 404.66364646 -157.26456976 404.65150318 C-162.0609697 404.64559319 -166.85724153 404.64457331 -171.65363312 404.65650558 C-176.04050123 404.66729257 -180.42713315 404.66434748 -184.81398988 404.6502439 C-186.40477873 404.64757704 -187.99558568 404.65002524 -189.58635688 404.65797976 C-191.74178965 404.66801352 -193.89638981 404.65972704 -196.05178833 404.64670277 C-197.25105516 404.64675778 -198.450322 404.6468128 -199.68593025 404.64686948 C-202.99951977 404.23706785 -204.40904472 403.65663496 -206.71728516 401.27197266 C-207.15478516 398.27197266 -207.15478516 398.27197266 -206.71728516 395.27197266 C-205.72728516 394.28197266 -204.73728516 393.29197266 -203.71728516 392.27197266 C-197.77728516 392.27197266 -191.83728516 392.27197266 -185.71728516 392.27197266 C-185.71728516 342.77197266 -185.71728516 293.27197266 -185.71728516 242.27197266 C-186.37728516 242.60197266 -187.03728516 242.93197266 -187.71728516 243.27197266 C-196.48401928 244.11931499 -203.06036167 242.63937861 -209.96728516 237.14697266 C-215.79298282 231.65384435 -217.90641756 226.10467055 -218.15478516 218.14697266 C-217.64129446 205.47017115 -209.05241253 198.54814507 -200.65478516 190.08447266 C-200.06528076 189.49013428 -199.47577637 188.8957959 -198.8684082 188.28344727 C-198.29131104 187.70860596 -197.71421387 187.13376465 -197.11962891 186.54150391 C-196.60907959 186.03208252 -196.09853027 185.52266113 -195.57250977 184.99780273 C-193.71728516 183.27197266 -193.71728516 183.27197266 -190.54394531 181.14111328 C-188.653584 179.56816332 -187.83040887 178.69460202 -187.18977356 176.30119324 C-187.00973292 173.88004773 -187.01729196 171.5229852 -187.08837891 169.09619141 C-187.08653091 168.21220169 -187.08468292 167.32821198 -187.08277893 166.41743469 C-187.0785354 163.59716698 -187.11262473 160.77940298 -187.15478516 157.95947266 C-187.1917115 155.15041582 -187.21928134 152.34295927 -187.21607971 149.53364563 C-187.21432676 147.7893559 -187.2350907 146.04484397 -187.28233337 144.30119324 C-187.28023289 138.20249512 -185.75667185 133.91348379 -181.71728516 129.27197266 C-176.45540379 125.37637802 -171.1707513 124.31056243 -164.71728516 125.27197266 C-159.28492884 127.08275809 -155.81064452 130.55507996 -152.71728516 135.27197266 C-151.75517404 137.63143564 -151.23000809 139.75963026 -150.71728516 142.27197266 C-144.96846523 137.24986586 -139.45668082 132.0737813 -134.09228516 126.64697266 C-130.74352022 123.25969403 -127.41957629 119.91309685 -123.77978516 116.83447266 C-119.87455534 113.52622065 -116.31471194 109.90664184 -112.71728516 106.27197266 C-107.88127249 101.39063234 -102.99861314 96.67514072 -97.71728516 92.27197266 C-97.17716797 91.79244141 -96.63705078 91.31291016 -96.08056641 90.81884766 C-90.51076498 85.93650283 -85.7646117 84.71821062 -78.47509766 84.91259766 C-69.10366483 86.1338042 -61.12825484 95.86100297 -54.71728516 102.27197266 C-54.71141891 101.26465591 -54.70555267 100.25733917 -54.69950867 99.21949768 C-54.64215817 89.70080142 -54.56933254 80.18233092 -54.48157024 70.66386509 C-54.43694819 65.7709628 -54.39767422 60.87814222 -54.37084961 55.98510742 C-54.34473499 51.25816504 -54.30427533 46.53153844 -54.25409889 41.8047924 C-54.23748519 40.00643801 -54.22593683 38.20802906 -54.21967125 36.40960884 C-54.13486159 14.2933494 -54.13486159 14.2933494 -46.71728516 5.27197266 C-33.09875314 -7.61981636 -16.70345959 -2.88707759 0 0 Z M-37.16650391 12.70166016 C-41.82176382 18.06387931 -41.88432842 22.50213143 -41.94189453 29.31396484 C-41.95328461 30.23950165 -41.96467468 31.16503845 -41.97640991 32.11862183 C-42.08693208 41.78846111 -42.1344639 51.45905689 -42.17724609 61.12939453 C-42.19953584 65.71766477 -42.2413287 70.30512353 -42.30029297 74.89306641 C-42.37136219 80.43388002 -42.40807499 85.97392888 -42.42036438 91.51517487 C-42.43076639 93.62512773 -42.4531939 95.7350574 -42.48796082 97.84474945 C-42.53417294 100.80154013 -42.53616685 103.75533049 -42.52783203 106.71240234 C-42.55142792 107.58019318 -42.5750238 108.44798401 -42.59933472 109.34207153 C-42.5327212 114.23552869 -41.80561926 116.70850096 -38.31213379 120.23760986 C-37.13250868 121.27076338 -35.93587229 122.28507501 -34.71728516 123.27197266 C-33.56486328 124.31611328 -33.56486328 124.31611328 -32.38916016 125.38134766 C-31.75494141 125.92275391 -31.12072266 126.46416016 -30.46728516 127.02197266 C-26.78715316 130.17216564 -26.78715316 130.17216564 -25.6159668 131.84521484 C-22.57763824 134.12835643 -19.19557745 133.69246717 -15.54150391 133.67822266 C-14.73872513 133.68905884 -13.93594635 133.69989502 -13.10884094 133.71105957 C-10.54074075 133.74534309 -7.97308412 133.76091173 -5.40478516 133.77197266 C-2.03326718 133.7865831 1.33726676 133.82037877 4.70849609 133.86572266 C5.47744705 133.86270142 6.24639801 133.85968018 7.03865051 133.85656738 C11.82281848 133.92277466 15.21432954 134.49945425 19.28271484 137.27197266 C23.35013428 141.86539855 23.75008187 145.63028758 23.43505859 151.52978516 C23.40567791 153.14171757 23.37907525 154.75370256 23.35498047 156.36572266 C23.29754936 158.87607302 23.2210555 161.38031633 23.09448242 163.88818359 C22.40072932 174.64047758 22.40072932 174.64047758 27.07006836 183.89135742 C29.75685019 186.48821031 32.6765468 188.69073065 35.67460632 190.911026 C38.40955998 193.22562479 40.26727557 196.05137681 42.34521484 198.95947266 C46.47872909 203.51523657 49.88645985 204.62072379 56.05224609 205.10400391 C61.0459869 205.29979246 65.99964745 205.21334362 70.99365234 205.08447266 C77.82661685 205.03700778 77.82661685 205.03700778 80.94677734 206.95947266 C86.2361514 212.19577607 86.67687345 216.36611407 86.73219299 223.63710022 C86.73859161 225.08853819 86.73730421 226.54002816 86.72875977 227.99145508 C86.72025194 230.19984239 86.74903074 232.40563751 86.78076172 234.61376953 C86.78237418 236.02978439 86.78179533 237.44580378 86.77880859 238.86181641 C86.78066162 240.13919678 86.78251465 241.41657715 86.78442383 242.73266602 C86.18315584 246.97431176 85.06896684 249.03358227 82.28271484 252.27197266 C76.28040741 256.20713636 70.35646099 255.76224829 63.3972168 255.71801758 C61.35346685 255.70950702 59.31251759 255.73830917 57.26904297 255.77001953 C44.64814491 255.76378083 44.64814491 255.76378083 39.28271484 251.27197266 C37.35739777 248.35745759 36.50191457 245.58819591 35.28271484 242.27197266 C30.33271484 242.27197266 25.38271484 242.27197266 20.28271484 242.27197266 C20.28271484 258.11197266 20.28271484 273.95197266 20.28271484 290.27197266 C25.80892578 290.30935547 31.33513672 290.34673828 37.02880859 290.38525391 C40.54251087 290.41555168 44.05616361 290.44671134 47.56982422 290.48095703 C53.13937805 290.53515887 58.70883388 290.58627349 64.27856445 290.6184082 C68.77209661 290.64453423 73.26529723 290.6850016 77.75862312 290.73515892 C79.46766072 290.751765 81.17675558 290.76331807 82.88586235 290.76958656 C103.26406899 290.85184852 103.26406899 290.85184852 110.22021484 296.77197266 C115.28020153 302.90528985 115.43073388 307.90790211 115.48803711 315.64233398 C115.49793671 316.47211761 115.5078363 317.30190125 115.51803589 318.15682983 C115.54952763 320.88919254 115.57435942 323.62157262 115.59912109 326.35400391 C115.61970127 328.25258323 115.64069802 330.15115809 115.66209412 332.04972839 C115.71720492 337.03913748 115.76666256 342.02858716 115.81494141 347.01806641 C115.8740846 353.0086993 115.94025195 358.99925824 116.00524139 364.98983002 C116.10311257 374.08383227 116.19206326 383.17788266 116.28271484 392.27197266 C132.45271484 392.27197266 148.62271484 392.27197266 165.28271484 392.27197266 C165.32791709 349.20453299 165.36372841 306.13709901 165.3848455 263.06964033 C165.38734695 257.98644964 165.38993559 252.90325899 165.39257812 247.82006836 C165.39310275 246.80808612 165.39362737 245.79610389 165.39416789 244.75345553 C165.4028732 228.36229921 165.41864388 211.97115691 165.43702044 195.58000892 C165.45571595 178.76426146 165.46683083 161.94852135 165.47089183 145.13276392 C165.47363761 134.75450317 165.48231356 124.37628203 165.49854778 113.99803347 C165.50911035 106.88365893 165.51231712 99.76930489 165.5097176 92.65492307 C165.50843518 88.54881341 165.51041694 84.44277302 165.52112579 80.33667564 C165.53086004 76.57682997 165.53134861 72.81710014 165.52451263 69.05724914 C165.52326783 67.05423496 165.53189206 65.05122214 165.54087746 63.04822773 C165.56380212 53.21801627 165.56380212 53.21801627 162.04052734 44.19775391 C157.69228012 39.90151921 153.10801768 38.51580052 147.22924805 37.45849609 C146.37490079 37.29639019 145.52055353 37.13428429 144.64031696 36.96726608 C141.5240563 36.38469783 138.40417395 35.82601607 135.28271484 35.27197266 C134.03439754 35.04994675 132.78608025 34.82792084 131.49993515 34.59916687 C121.53328003 32.83328144 111.5575879 31.1204472 101.58056045 29.41431141 C98.99126064 28.97134719 96.40209919 28.52758304 93.81298256 28.0835495 C84.76032963 26.531037 75.70718838 24.98141007 66.65356445 23.43457031 C58.23974175 21.99696294 49.82704706 20.55288208 41.41483611 19.10587621 C34.15564332 17.85749697 26.89569184 16.61359946 19.63513452 15.3731811 C15.31377764 14.63482833 10.9927461 13.89468826 6.67247581 13.15000153 C2.62252743 12.45206654 -1.42833783 11.75972331 -5.47997093 11.07163811 C-6.96256086 10.81888339 -8.44481595 10.56415523 -9.92669678 10.30727577 C-11.95418432 9.95613816 -13.98277719 9.6122478 -16.01179504 9.27008057 C-17.71087116 8.97921255 -17.71087116 8.97921255 -19.44427204 8.68246841 C-26.28861886 7.82406204 -31.96337207 7.56865139 -37.16650391 12.70166016 Z M-94.02978516 104.58447266 C-95.13954712 105.67683228 -95.13954712 105.67683228 -96.27172852 106.79125977 C-98.43984659 108.93294025 -100.58099621 111.09860251 -102.71728516 113.27197266 C-103.80459195 114.3617478 -104.89299146 115.45043476 -105.98291016 116.53759766 C-107.79020933 118.34489683 -109.59265054 120.15707296 -111.38916016 121.97509766 C-113.37881142 123.9380422 -115.40037373 125.77715708 -117.52978516 127.58447266 C-121.47130064 130.94085595 -125.07866032 134.59515705 -128.71728516 138.27197266 C-135.99815057 145.62893805 -135.99815057 145.62893805 -139.65478516 148.70947266 C-143.74349666 152.16235862 -147.45463213 155.97274463 -151.21728516 159.77197266 C-155.5405717 164.13728386 -159.86405347 168.37811226 -164.56494141 172.33837891 C-168.35021474 175.73894206 -171.88533781 179.40065644 -175.4440918 183.03588867 C-179.04475152 186.68999047 -182.7758793 190.10897609 -186.65576172 193.46386719 C-190.2387723 196.60642715 -193.6767298 199.88683578 -197.09228516 203.20947266 C-197.80255859 203.87398438 -198.51283203 204.53849609 -199.24462891 205.22314453 C-203.82909378 209.7075689 -205.92308424 212.85106018 -206.71728516 219.27197266 C-205.1776003 224.94956055 -202.73841838 228.20350235 -197.71728516 231.27197266 C-193.18948919 232.19700624 -189.99931177 231.98301263 -185.92822266 229.72509766 C-181.79262391 226.78709392 -178.36162883 223.08942428 -174.84228516 219.45947266 C-170.93766705 215.45328934 -167.05102062 211.49905947 -162.80322266 207.85400391 C-158.02313261 203.74200422 -153.6378737 199.26351768 -149.21728516 194.77197266 C-144.20808046 189.68236339 -139.17705735 184.74192665 -133.75830078 180.09033203 C-129.73231621 176.50354578 -125.99807017 172.61344443 -122.21728516 168.77197266 C-117.12203649 163.5949383 -112.00402144 158.55787181 -106.49023438 153.82666016 C-103.1698758 150.91505958 -100.16964765 147.68767774 -97.11181641 144.50634766 C-91.76359783 139.51584028 -87.10638867 137.93407279 -79.85119629 138.0581665 C-73.1038085 138.73421763 -68.3316141 141.92842731 -63.74853516 146.78759766 C-63.223927 147.32165222 -62.69931885 147.85570679 -62.15881348 148.40594482 C-60.49927528 150.09974549 -58.85782766 151.80978651 -57.21728516 153.52197266 C-55.57341181 155.2162924 -53.92587513 156.9069162 -52.27575684 158.59515381 C-51.25614208 159.64056623 -50.24054301 160.68991923 -49.23010254 161.74420166 C-46.60288994 164.46126498 -43.90259238 167.0070105 -41.03173828 169.46630859 C-36.20180771 173.64317129 -31.7198411 178.15613064 -27.2265625 182.68753052 C-25.68035776 184.24670992 -24.13086619 185.80255886 -22.58056641 187.35766602 C-18.7338429 191.21763069 -14.892638 195.08307168 -11.05126953 198.94836426 C-7.7930282 202.22646708 -4.53265526 205.50242258 -1.26953125 208.77566528 C0.24347536 210.29506731 1.75339454 211.81748968 3.26318359 213.34008789 C14.09257968 225.43166797 14.09257968 225.43166797 28.22021484 231.70947266 C32.49776614 231.53191392 35.01687942 230.08211011 38.28271484 227.27197266 C41.16137748 223.81757749 41.64101764 220.90574181 41.77880859 216.43212891 C40.2511411 209.78015945 34.20523056 204.92448113 29.53271484 200.33447266 C28.85466797 199.65707031 28.17662109 198.97966797 27.47802734 198.28173828 C24.23647981 195.06792261 20.95554671 191.95334453 17.48583984 188.98681641 C11.42235624 183.75145433 5.89586907 177.94101575 0.2734375 172.2421875 C-6.51693298 165.32290701 -6.51693298 165.32290701 -13.68603516 158.80322266 C-19.91488725 153.48154697 -25.54768961 147.49561851 -31.29931641 141.66943359 C-38.30510637 134.52214405 -38.30510637 134.52214405 -45.70166016 127.78759766 C-51.45014855 122.8832513 -56.66190453 117.39483541 -61.96728516 112.02197266 C-64.09455784 109.86799781 -66.22520772 107.71744496 -68.35791016 105.56884766 C-69.07675385 104.83755646 -69.07675385 104.83755646 -69.81011963 104.0914917 C-74.83737882 98.92048732 -74.83737882 98.92048732 -81.44775391 96.62744141 C-87.14582087 96.86337802 -90.25066887 100.70104494 -94.02978516 104.58447266 Z M-174.71728516 139.27197266 C-175.75676266 142.39040516 -175.83223354 144.54672852 -175.81494141 147.81494141 C-175.81171875 148.88808594 -175.80849609 149.96123047 -175.80517578 151.06689453 C-175.79679687 152.18644531 -175.78841797 153.30599609 -175.77978516 154.45947266 C-175.77527344 155.590625 -175.77076172 156.72177734 -175.76611328 157.88720703 C-175.75432014 160.68218192 -175.73786166 163.47705086 -175.71728516 166.27197266 C-173.02129007 164.30886944 -170.36259827 162.3027723 -167.71728516 160.27197266 C-166.90130859 159.65451172 -166.08533203 159.03705078 -165.24462891 158.40087891 C-162.9431272 155.19290338 -163.17396645 152.00187837 -163.27978516 148.20947266 C-163.27269531 147.48953125 -163.26560547 146.76958984 -163.25830078 146.02783203 C-163.29479984 143.00402514 -163.33558927 140.82222371 -165.08837891 138.29541016 C-168.73739572 136.00274252 -171.34072361 137.02093162 -174.71728516 139.27197266 Z M-10.71728516 145.27197266 C-6.95388141 149.82934344 -3.05401217 154.0143594 1.34521484 157.95947266 C1.84859375 158.41902344 2.35197266 158.87857422 2.87060547 159.35205078 C5.91687803 162.11458256 9.0460063 164.73605605 12.28271484 167.27197266 C12.31159298 163.79282325 12.32947171 160.31370435 12.34521484 156.83447266 C12.35359375 155.84125 12.36197266 154.84802734 12.37060547 153.82470703 C12.37382812 152.88046875 12.37705078 151.93623047 12.38037109 150.96337891 C12.38560791 150.08883057 12.39084473 149.21428223 12.39624023 148.31323242 C12.51056293 146.2775706 12.51056293 146.2775706 11.28271484 145.27197266 C9.64798603 145.18496923 8.00957429 145.16496203 6.37255859 145.17431641 C4.88852539 145.17915039 4.88852539 145.17915039 3.37451172 145.18408203 C1.81313477 145.19665039 1.81313477 145.19665039 0.22021484 145.20947266 C-1.34696289 145.21624023 -1.34696289 145.21624023 -2.94580078 145.22314453 C-5.53635175 145.23497353 -8.12679074 145.25145576 -10.71728516 145.27197266 Z M-99.24853516 162.86572266 C-101.25234636 164.81880446 -103.28402238 166.63895745 -105.40478516 168.45947266 C-110.24853 172.66220001 -114.7210974 177.20361495 -119.21728516 181.77197266 C-124.22648985 186.86158192 -129.25751297 191.80201866 -134.67626953 196.45361328 C-138.7022541 200.04039953 -142.43650014 203.93050088 -146.21728516 207.77197266 C-155.17094006 216.86934594 -155.17094006 216.86934594 -159.68603516 220.74072266 C-160.58366546 221.53503409 -160.58366546 221.53503409 -161.4994297 222.34539223 C-163.04926444 223.69168432 -164.63992394 224.99175701 -166.25855064 226.25450706 C-171.67120914 230.89001603 -174.35258758 234.24898576 -174.91983032 241.47280884 C-174.98488507 244.28995554 -174.92454348 247.09464773 -174.85253906 249.91113281 C-174.84971346 251.46923642 -174.85131117 253.02735331 -174.85696411 254.58544922 C-174.85981775 258.78838857 -174.80129448 262.98843757 -174.73122454 267.19070864 C-174.66844209 271.59210583 -174.66281636 275.99357934 -174.65097046 280.39535522 C-174.61996693 288.71840936 -174.53801474 297.04014008 -174.43747556 305.36261308 C-174.32545557 314.84252534 -174.27065799 324.32250293 -174.22052121 333.80291295 C-174.11617145 353.29350085 -173.93288648 372.78227601 -173.71728516 392.27197266 C-155.89728516 392.27197266 -138.07728516 392.27197266 -119.71728516 392.27197266 C-119.67861328 384.39837891 -119.67861328 384.39837891 -119.63916016 376.36572266 C-119.61397772 373.02973709 -119.58763421 369.69384094 -119.55712891 366.35791016 C-119.50887614 361.06917035 -119.46480071 355.78063765 -119.44628906 350.49169922 C-119.43108545 346.22502367 -119.3965749 341.95889188 -119.34897614 337.69245911 C-119.33420036 336.06912476 -119.32624633 334.44571277 -119.32540131 332.8223114 C-119.30886729 316.97801548 -119.30886729 316.97801548 -114.71728516 310.27197266 C-108.43792058 304.15361743 -102.36235843 303.95464188 -94.01025391 303.93603516 C-92.97089188 303.92937836 -91.93152985 303.92272156 -90.860672 303.91586304 C-88.66437546 303.90575168 -86.4680483 303.90104555 -84.27172852 303.90136719 C-80.92688823 303.89700151 -77.58337589 303.86068523 -74.23876953 303.82275391 C-72.10010214 303.81688381 -69.96142852 303.81291571 -67.82275391 303.81103516 C-66.82978806 303.79666412 -65.8368222 303.78229309 -64.81376648 303.76748657 C-57.32116267 303.81631238 -51.73096629 305.25829153 -46.34228516 310.64697266 C-43.11701586 315.85702305 -42.46137584 320.59123644 -42.3984375 326.65429688 C-42.38336906 327.72362709 -42.38336906 327.72362709 -42.36799622 328.81455994 C-42.33730504 331.15191908 -42.3201687 333.48916443 -42.30322266 335.82666016 C-42.28449965 337.45477264 -42.26492539 339.08287553 -42.24453735 340.71096802 C-42.1933297 344.98191664 -42.15364337 349.25289669 -42.11639404 353.52398682 C-42.06922214 358.65617073 -42.00767323 363.78820013 -41.94854736 368.92025757 C-41.86047372 376.70409983 -41.79061044 384.48791456 -41.71728516 392.27197266 C-25.21728516 392.27197266 -8.71728516 392.27197266 8.28271484 392.27197266 C8.62203385 371.78267323 8.89803294 351.29566688 9.05989742 330.80426598 C9.13706993 321.28856822 9.24216852 311.77474674 9.41430664 302.26025391 C9.56436853 293.9619731 9.66071452 285.66505145 9.69404227 277.36545146 C9.71351112 272.97470296 9.75885221 268.58784053 9.8686657 264.19834518 C11.20210818 245.35125802 11.20210818 245.35125802 5.23121643 228.31254578 C2.22513322 225.18082126 -1.11585098 222.80464738 -4.798769 220.53024292 C-7.76229643 218.58659578 -9.97307898 216.22390474 -12.42407227 213.6628418 C-13.29805161 212.78555923 -14.17203094 211.90827667 -15.07249451 211.00440979 C-16.39520103 209.66925575 -16.39520103 209.66925575 -17.74462891 208.30712891 C-18.71263131 207.33469275 -19.68094699 206.36256835 -20.64955139 205.39073181 C-23.65422751 202.3748875 -26.65482078 199.35500296 -29.65478516 196.33447266 C-33.16530477 192.8001025 -36.67761477 189.26754537 -40.19415474 185.73916435 C-41.5764468 184.35050977 -42.95562565 182.95875841 -44.33470154 181.56690979 C-48.76295812 177.12148304 -53.25295352 172.83710678 -58.01423645 168.75016785 C-60.15500545 166.89204458 -62.16055697 164.92624665 -64.14697266 162.90478516 C-64.87916016 162.16486328 -65.61134766 161.42494141 -66.36572266 160.66259766 C-67.10048828 159.91494141 -67.83525391 159.16728516 -68.59228516 158.39697266 C-70.08736676 156.87646449 -71.58465159 155.35811854 -73.08447266 153.84228516 C-74.0606958 152.84865967 -74.0606958 152.84865967 -75.05664062 151.83496094 C-77.17439051 149.84174795 -78.47203422 149.31868712 -81.34228516 148.77197266 C-88.76777432 149.87204512 -94.22066302 157.68314677 -99.24853516 162.86572266 Z M53.28271484 216.27197266 C53.16299316 216.94671631 53.04327148 217.62145996 52.91992188 218.31665039 C52.75347168 219.20811768 52.58702148 220.09958496 52.41552734 221.01806641 C52.25455566 221.89906006 52.09358398 222.78005371 51.92773438 223.68774414 C51.29996704 226.20285287 50.4526464 228.10250219 49.15771484 230.33447266 C46.84132842 234.5539126 46.65082692 238.53799261 47.28271484 243.27197266 C49.05721078 245.04646859 51.63288745 244.40227338 54.03271484 244.40478516 C55.78068359 244.40671875 55.78068359 244.40671875 57.56396484 244.40869141 C59.40474609 244.40289062 59.40474609 244.40289062 61.28271484 244.39697266 C62.50990234 244.40083984 63.73708984 244.40470703 65.00146484 244.40869141 C66.16677734 244.40740234 67.33208984 244.40611328 68.53271484 244.40478516 C69.61037109 244.40365723 70.68802734 244.4025293 71.79833984 244.40136719 C74.22491481 244.55289636 74.22491481 244.55289636 75.28271484 243.27197266 C75.3824327 241.35738984 75.41352073 239.43914948 75.41552734 237.52197266 C75.41681641 236.35666016 75.41810547 235.19134766 75.41943359 233.99072266 C75.41363281 232.14994141 75.41363281 232.14994141 75.40771484 230.27197266 C75.41158203 229.04478516 75.41544922 227.81759766 75.41943359 226.55322266 C75.41814453 225.38791016 75.41685547 224.22259766 75.41552734 223.02197266 C75.41439941 221.94431641 75.41327148 220.86666016 75.41210938 219.75634766 C75.56363855 217.32977269 75.56363855 217.32977269 74.28271484 216.27197266 C72.7209874 216.18511663 71.1554214 216.16495046 69.59130859 216.17431641 C68.64707031 216.17753906 67.70283203 216.18076172 66.72998047 216.18408203 C65.24014648 216.19665039 65.24014648 216.19665039 63.72021484 216.20947266 C62.723125 216.21398437 61.72603516 216.21849609 60.69873047 216.22314453 C58.22666636 216.23497259 55.75471966 216.25145416 53.28271484 216.27197266 Z M20.28271484 302.27197266 C20.28271484 331.97197266 20.28271484 361.67197266 20.28271484 392.27197266 C48.00271484 392.27197266 75.72271484 392.27197266 104.28271484 392.27197266 C104.42814954 377.28666818 104.42814954 377.28666818 104.52685547 362.30126953 C104.55674304 356.18898819 104.59209611 350.07708141 104.65991211 343.96508789 C104.71424647 339.03729334 104.74413853 334.10990044 104.75710106 329.18182945 C104.76633836 327.3019141 104.78437693 325.4220207 104.81136513 323.54227638 C104.84767499 320.90847941 104.85265948 318.27634105 104.8503418 315.64233398 C104.86831818 314.86549759 104.88629456 314.08866119 104.90481567 313.2882843 C104.86866158 309.49011773 104.39818865 307.44053122 102.23596191 304.28430176 C98.57289747 301.78830633 95.7453182 301.59766003 91.46313477 301.7043457 C90.67946942 301.70374303 89.89580408 301.70314035 89.0883913 301.70251942 C86.56258904 301.70623864 84.03865379 301.74424732 81.51318359 301.78369141 C79.94959399 301.79104697 78.38599208 301.79614531 76.8223877 301.7989502 C71.03814177 301.82511685 65.25415978 301.89492352 59.47021484 301.95947266 C46.53833984 302.06259766 33.60646484 302.16572266 20.28271484 302.27197266 Z M-106.33013916 317.40518188 C-108.46915897 320.28382801 -108.07616664 322.76859289 -108.05786133 326.3137207 C-108.05829941 327.02616943 -108.05873749 327.73861816 -108.05918884 328.47265625 C-108.05709946 330.8266138 -108.0337623 333.17985834 -108.01025391 335.53369141 C-108.00465846 337.16607779 -108.00038812 338.79846921 -107.99739075 340.43086243 C-107.98593786 344.72671423 -107.95646703 349.02226161 -107.92327881 353.31799316 C-107.88719102 358.47247273 -107.87341887 363.62705409 -107.85591888 368.78162384 C-107.82682975 376.61195182 -107.76934616 384.44161188 -107.71728516 392.27197266 C-89.89728516 392.27197266 -72.07728516 392.27197266 -53.71728516 392.27197266 C-53.60091629 379.59720355 -53.60091629 379.59720355 -53.52197266 366.92236328 C-53.49807292 361.75170447 -53.46981789 356.58132933 -53.41552734 351.41088867 C-53.37202488 347.24171531 -53.34813875 343.0728462 -53.33777618 338.90346336 C-53.33039265 337.31383666 -53.31597412 335.72422636 -53.29436493 334.13472939 C-53.26527107 331.90578016 -53.26133144 329.67808356 -53.26318359 327.44897461 C-53.24985992 325.5470208 -53.24985992 325.5470208 -53.23626709 323.60664368 C-53.80753992 319.64627901 -54.83735303 318.01231522 -57.71728516 315.27197266 C-61.66899403 313.69129511 -66.03805878 314.10989311 -70.24462891 314.10400391 C-71.07056046 314.10067551 -71.896492 314.09734711 -72.74745178 314.09391785 C-74.49154098 314.08886311 -76.23563981 314.08650907 -77.97973633 314.08666992 C-80.64176416 314.08448335 -83.30337746 314.0663122 -85.96533203 314.04736328 C-87.66259624 314.04442904 -89.35986242 314.04244445 -91.05712891 314.04150391 C-91.84997787 314.03431839 -92.64282684 314.02713287 -93.45970154 314.01972961 C-98.49264467 314.04044466 -102.18588939 314.49338573 -106.33013916 317.40518188 Z " fill="#000000" transform="translate(276.71728515625,57.72802734375)"/>
<path d="M0 0 C1.26328125 -0.020625 2.5265625 -0.04125 3.828125 -0.0625 C15.61204121 -0.11201225 15.61204121 -0.11201225 21.25 3.25 C27.15017272 9.61597583 26.50087442 15.43462887 26.54516602 23.68823242 C26.56230297 25.91193377 26.60617649 28.13411801 26.65039062 30.35742188 C26.66052486 31.78384328 26.66903868 33.21027729 26.67578125 34.63671875 C26.69036377 35.92795654 26.70494629 37.21919434 26.7199707 38.54956055 C26.12091586 43.26637832 25.06029096 45.40662984 22.25 49.25 C16.18847416 53.40191174 9.50405732 52.73777815 2.45507812 52.69604492 C0.255562 52.68752155 -1.94136394 52.71635511 -4.140625 52.74804688 C-5.55208256 52.749659 -6.96354468 52.74908114 -8.375 52.74609375 C-9.64601563 52.74794678 -10.91703125 52.7497998 -12.2265625 52.75170898 C-17.15282181 52.05024953 -20.25315985 49.90168568 -23.5625 46.25 C-26.96195482 40.52460242 -25.97280778 33.42416093 -26 27 C-26.020625 25.79730469 -26.04125 24.59460938 -26.0625 23.35546875 C-26.09211129 16.61149713 -25.8263823 11.30932308 -22.75 5.25 C-15.55982033 -0.59202099 -8.86708698 0.03575438 0 0 Z M-13.75 13.25 C-13.84971786 15.16458282 -13.88080589 17.08282317 -13.8828125 19 C-13.88410156 20.1653125 -13.88539063 21.330625 -13.88671875 22.53125 C-13.88285156 23.7584375 -13.87898438 24.985625 -13.875 26.25 C-13.87886719 27.4771875 -13.88273437 28.704375 -13.88671875 29.96875 C-13.88542969 31.1340625 -13.88414062 32.299375 -13.8828125 33.5 C-13.88168457 34.57765625 -13.88055664 35.6553125 -13.87939453 36.765625 C-14.03092371 39.19219997 -14.03092371 39.19219997 -12.75 40.25 C-10.75035018 40.33758003 -8.7476389 40.35696576 -6.74609375 40.34765625 C-4.92368164 40.34282227 -4.92368164 40.34282227 -3.06445312 40.33789062 C-1.78505859 40.32951172 -0.50566406 40.32113281 0.8125 40.3125 C2.73739258 40.30573242 2.73739258 40.30573242 4.70117188 40.29882812 C7.88416022 40.28699545 11.06705762 40.27051068 14.25 40.25 C14.27886338 35.77084672 14.29675187 31.29171709 14.3125 26.8125 C14.32087891 25.53310547 14.32925781 24.25371094 14.33789062 22.93554688 C14.34111328 21.72060547 14.34433594 20.50566406 14.34765625 19.25390625 C14.35289307 18.12799072 14.35812988 17.0020752 14.36352539 15.84204102 C14.54545448 13.32029129 14.54545448 13.32029129 13.25 12.25 C11.33541718 12.15028214 9.41717683 12.11919411 7.5 12.1171875 C5.75203125 12.11525391 5.75203125 12.11525391 3.96875 12.11328125 C2.12796875 12.11908203 2.12796875 12.11908203 0.25 12.125 C-0.9771875 12.12113281 -2.204375 12.11726562 -3.46875 12.11328125 C-4.6340625 12.11457031 -5.799375 12.11585938 -7 12.1171875 C-8.07765625 12.11831543 -9.1553125 12.11944336 -10.265625 12.12060547 C-12.69219997 11.96907629 -12.69219997 11.96907629 -13.75 13.25 Z " fill="#000000" transform="translate(337.75,190.75)"/>
<path d="M0 0 C2.0807324 -0.00968346 4.16046699 -0.04070928 6.2409668 -0.07226562 C7.57494534 -0.07879869 8.90893091 -0.08404797 10.24291992 -0.08789062 C11.44924072 -0.09723633 12.65556152 -0.10658203 13.8984375 -0.11621094 C19.58724675 0.4823953 23.62269445 2.89867085 27.28588867 7.24023438 C29.05741191 12.55480408 28.51149157 18.2977105 28.52612305 23.86376953 C28.53582396 26.10031391 28.56685639 28.33593699 28.59838867 30.57226562 C28.60491983 32.00064561 28.61016986 33.42903213 28.61401367 34.85742188 C28.62803223 36.80044189 28.62803223 36.80044189 28.64233398 38.78271484 C28.12808653 43.77091514 26.43939751 46.22739735 22.72338867 49.49023438 C17.36098585 53.34016461 11.58600567 52.4632283 5.2199707 52.48046875 C3.05795247 52.49013572 0.89690091 52.52113931 -1.26489258 52.55273438 C-2.64900154 52.55926867 -4.03311728 52.56451747 -5.41723633 52.56835938 C-7.29910645 52.58237793 -7.29910645 52.58237793 -9.21899414 52.59667969 C-13.06884786 52.204057 -15.43667802 51.26764772 -18.71411133 49.24023438 C-24.44605348 41.95911867 -23.92473489 35.42868598 -23.96411133 26.49023438 C-23.98473633 25.33523438 -24.00536133 24.18023437 -24.02661133 22.99023438 C-24.05695402 16.34518553 -23.67214836 11.23378083 -20.71411133 5.24023438 C-14.53364925 -0.78571616 -8.1849363 0.02306428 0 0 Z M-11.71411133 13.24023438 C-11.81382918 15.15481719 -11.84491721 17.07305755 -11.84692383 18.99023438 C-11.84821289 20.15554688 -11.84950195 21.32085937 -11.85083008 22.52148438 C-11.84696289 23.74867188 -11.8430957 24.97585938 -11.83911133 26.24023438 C-11.84297852 27.46742188 -11.8468457 28.69460938 -11.85083008 29.95898438 C-11.84954102 31.12429688 -11.84825195 32.28960937 -11.84692383 33.49023438 C-11.8457959 34.56789063 -11.84466797 35.64554687 -11.84350586 36.75585938 C-11.99503504 39.18243434 -11.99503504 39.18243434 -10.71411133 40.24023438 C-6.40828307 40.52129922 -2.09052186 40.47204182 2.22338867 40.49023438 C3.44219727 40.51085937 4.66100586 40.53148437 5.91674805 40.55273438 C7.65988281 40.56046875 7.65988281 40.56046875 9.43823242 40.56835938 C11.04686157 40.58237793 11.04686157 40.58237793 12.68798828 40.59667969 C13.54529541 40.47905273 14.40260254 40.36142578 15.28588867 40.24023438 C17.4582623 36.98167394 17.54191518 36.01381094 17.55151367 32.24023438 C17.5540918 31.27085937 17.55666992 30.30148437 17.55932617 29.30273438 C17.5515918 28.29210937 17.54385742 27.28148437 17.53588867 26.24023438 C17.54362305 25.22960937 17.55135742 24.21898437 17.55932617 23.17773438 C17.55545898 21.72367187 17.55545898 21.72367187 17.55151367 20.24023438 C17.54925781 19.35335938 17.54700195 18.46648437 17.54467773 17.55273438 C17.43418229 14.96572492 17.43418229 14.96572492 15.28588867 12.24023438 C12.5883925 11.80635368 12.5883925 11.80635368 9.43823242 11.91210938 C8.27614258 11.91726563 7.11405273 11.92242187 5.91674805 11.92773438 C4.69793945 11.94835937 3.47913086 11.96898437 2.22338867 11.99023438 C1.00071289 11.99539063 -0.22196289 12.00054687 -1.48168945 12.00585938 C-6.96780326 11.52699751 -6.96780326 11.52699751 -11.71411133 13.24023438 Z " fill="#000000" transform="translate(398.714111328125,261.759765625)"/>
<path d="M0 0 C1.88138672 -0.02416992 1.88138672 -0.02416992 3.80078125 -0.04882812 C10.29516994 -0.05226431 15.47039047 -0.04192938 21.125 3.3125 C27.02517272 9.67847583 26.37587442 15.49712887 26.42016602 23.75073242 C26.43730297 25.97443377 26.48117649 28.19661801 26.52539062 30.41992188 C26.53552486 31.84634328 26.54403868 33.27277729 26.55078125 34.69921875 C26.56536377 35.99045654 26.57994629 37.28169434 26.5949707 38.61206055 C25.99591586 43.32887832 24.93529096 45.46912984 22.125 49.3125 C16.06347416 53.46441174 9.37905732 52.80027815 2.33007812 52.75854492 C0.130562 52.75002155 -2.06636394 52.77885511 -4.265625 52.81054688 C-5.67708256 52.812159 -7.08854468 52.81158114 -8.5 52.80859375 C-9.77101563 52.81044678 -11.04203125 52.8122998 -12.3515625 52.81420898 C-17.26048211 52.11521856 -20.33619246 49.9574322 -23.6875 46.375 C-27.05800049 40.52097283 -26.09616037 32.96246569 -26.125 26.4375 C-26.145625 25.27863281 -26.16625 24.11976563 -26.1875 22.92578125 C-26.22194567 15.39079022 -25.87481024 10.01226597 -21 4 C-14.7716245 -0.9460629 -7.56076232 -0.01930736 0 0 Z M-13.875 13.3125 C-13.97471786 15.22708282 -14.00580589 17.14532317 -14.0078125 19.0625 C-14.00910156 20.2278125 -14.01039063 21.393125 -14.01171875 22.59375 C-14.00785156 23.8209375 -14.00398438 25.048125 -14 26.3125 C-14.00386719 27.5396875 -14.00773437 28.766875 -14.01171875 30.03125 C-14.01042969 31.1965625 -14.00914062 32.361875 -14.0078125 33.5625 C-14.00668457 34.64015625 -14.00555664 35.7178125 -14.00439453 36.828125 C-14.15592371 39.25469997 -14.15592371 39.25469997 -12.875 40.3125 C-10.87535018 40.40008003 -8.8726389 40.41946576 -6.87109375 40.41015625 C-5.04868164 40.40532227 -5.04868164 40.40532227 -3.18945312 40.40039062 C-1.91005859 40.39201172 -0.63066406 40.38363281 0.6875 40.375 C2.61239258 40.36823242 2.61239258 40.36823242 4.57617188 40.36132812 C7.75916022 40.34949545 10.94205762 40.33301068 14.125 40.3125 C15.65739831 35.71530508 15.30942938 31.12723965 15.3125 26.3125 C15.33086914 24.7965625 15.33086914 24.7965625 15.34960938 23.25 C15.35154297 22.280625 15.35347656 21.31125 15.35546875 20.3125 C15.35957764 19.425625 15.36368652 18.53875 15.36791992 17.625 C15.2771874 15.03731367 15.2771874 15.03731367 13.125 12.3125 C10.42750382 11.8786193 10.42750382 11.8786193 7.27734375 11.984375 C6.11525391 11.98953125 4.95316406 11.9946875 3.75585938 12 C2.53705078 12.020625 1.31824219 12.04125 0.0625 12.0625 C-1.16017578 12.06765625 -2.38285156 12.0728125 -3.64257812 12.078125 C-9.12869193 11.59926314 -9.12869193 11.59926314 -13.875 13.3125 Z " fill="#000000" transform="translate(400.875,190.6875)"/>
<path d="M0 0 C1.03769531 -0.01611328 2.07539063 -0.03222656 3.14453125 -0.04882812 C9.51734238 -0.05284629 15.34822146 0.41700619 21.125 3.3125 C27.17265672 9.51134814 26.34382316 15.63728413 26.36523438 23.80566406 C26.37490306 26.04009755 26.40590702 28.27359642 26.4375 30.5078125 C26.44403409 31.93749456 26.44928296 33.36718318 26.453125 34.796875 C26.4624707 36.09334961 26.47181641 37.38982422 26.48144531 38.72558594 C25.94477331 44.12612361 24.52857651 47.1009174 20.41210938 50.65429688 C16.51638749 52.61951843 13.88215059 52.82879845 9.53125 52.84375 C8.82150024 52.8475769 8.11175049 52.85140381 7.38049316 52.85534668 C5.88792492 52.85805462 4.39530832 52.85077191 2.90283203 52.83398438 C0.63074987 52.81255423 -1.63817129 52.83381947 -3.91015625 52.859375 C-5.36719441 52.85673152 -6.82423062 52.85160611 -8.28125 52.84375 C-10.25061523 52.83698242 -10.25061523 52.83698242 -12.25976562 52.83007812 C-17.24015237 52.11705679 -20.34004006 50.0062489 -23.6875 46.3125 C-27.09599852 40.57187091 -26.09783823 33.44073523 -26.125 27 C-26.145625 25.78892578 -26.16625 24.57785156 -26.1875 23.33007812 C-26.22126288 15.6194797 -25.87279846 10.27387654 -21.125 4 C-14.9815207 -0.60760948 -7.3314394 -0.0226 0 0 Z M-13.875 14.3125 C-14.18633586 16.89994439 -14.18633586 16.89994439 -14.140625 19.90625 C-14.14320313 21.01871094 -14.14578125 22.13117188 -14.1484375 23.27734375 C-14.14070313 24.44394531 -14.13296875 25.61054688 -14.125 26.8125 C-14.13273437 27.97910156 -14.14046875 29.14570313 -14.1484375 30.34765625 C-14.14585937 31.46011719 -14.14328125 32.57257813 -14.140625 33.71875 C-14.13836914 34.74291016 -14.13611328 35.76707031 -14.13378906 36.82226562 C-14.12133072 39.48632203 -14.12133072 39.48632203 -11.875 41.3125 C-9.38477066 41.60709094 -9.38477066 41.60709094 -6.5 41.54296875 C-4.89898437 41.54006836 -4.89898437 41.54006836 -3.265625 41.53710938 C-2.14671875 41.52486328 -1.0278125 41.51261719 0.125 41.5 C1.24390625 41.49935547 2.3628125 41.49871094 3.515625 41.49804688 C8.99166655 41.72792792 8.99166655 41.72792792 14.125 40.3125 C14.15386338 35.83334672 14.17175187 31.35421709 14.1875 26.875 C14.19587891 25.59560547 14.20425781 24.31621094 14.21289062 22.99804688 C14.21611328 21.78310547 14.21933594 20.56816406 14.22265625 19.31640625 C14.22789307 18.19049072 14.23312988 17.0645752 14.23852539 15.90454102 C14.42045448 13.38279129 14.42045448 13.38279129 13.125 12.3125 C8.98537717 12.05948761 4.83394004 12.12727451 0.6875 12.125 C-1.06916992 12.10663086 -1.06916992 12.10663086 -2.86132812 12.08789062 C-3.97830078 12.08595703 -5.09527344 12.08402344 -6.24609375 12.08203125 C-7.27661865 12.07792236 -8.30714355 12.07381348 -9.36889648 12.06958008 C-12.04747404 12.06124932 -12.04747404 12.06124932 -13.875 14.3125 Z " fill="#000000" transform="translate(337.875,119.6875)"/>
<path d="M0 0 C1.04671875 -0.020625 2.0934375 -0.04125 3.171875 -0.0625 C9.59710507 -0.09462615 15.42194814 0.33437735 21.25 3.25 C27.35079458 9.35079458 26.50018191 16.27049948 26.54516602 24.33642578 C26.55666543 25.77174758 26.57708536 27.2070273 26.60668945 28.64208984 C26.91811045 43.74687831 26.91811045 43.74687831 22.25 49.25 C18.18386683 52.32690086 14.66772512 52.6926117 9.71875 52.6484375 C8.64844543 52.65274277 8.64844543 52.65274277 7.55651855 52.65713501 C6.0537842 52.65916884 4.55102297 52.65368669 3.04833984 52.64111328 C0.75688101 52.62504824 -1.53281434 52.64098337 -3.82421875 52.66015625 C-5.28906637 52.6581737 -6.75391289 52.65432976 -8.21875 52.6484375 C-8.89909302 52.65451019 -9.57943604 52.66058289 -10.28039551 52.6668396 C-14.61233761 52.60324612 -17.28562288 51.85451934 -20.75 49.25 C-26.46591606 42.89898215 -25.99589943 37.29046271 -26.04516602 29.07299805 C-26.06229014 27.08684092 -26.10617576 25.10097313 -26.15039062 23.11523438 C-26.19945958 15.68317432 -25.92111779 10.49903728 -21.75 4.25 C-15.47342472 -0.73907266 -7.62591583 0.03701901 0 0 Z M-13.75 13.25 C-13.80783842 17.54161047 -13.8435412 21.83312145 -13.875 26.125 C-13.89175781 27.34832031 -13.90851563 28.57164062 -13.92578125 29.83203125 C-13.93222656 30.99863281 -13.93867188 32.16523438 -13.9453125 33.3671875 C-13.95578613 34.44597168 -13.96625977 35.52475586 -13.97705078 36.63623047 C-14.01839977 39.41044022 -14.01839977 39.41044022 -11.75 41.25 C-9.25977066 41.54459094 -9.25977066 41.54459094 -6.375 41.48046875 C-4.77398437 41.47756836 -4.77398437 41.47756836 -3.140625 41.47460938 C-2.02171875 41.46236328 -0.9028125 41.45011719 0.25 41.4375 C1.36890625 41.43685547 2.4878125 41.43621094 3.640625 41.43554688 C9.11666655 41.66542792 9.11666655 41.66542792 14.25 40.25 C14.27886338 35.77084672 14.29675187 31.29171709 14.3125 26.8125 C14.32087891 25.53310547 14.32925781 24.25371094 14.33789062 22.93554688 C14.34111328 21.72060547 14.34433594 20.50566406 14.34765625 19.25390625 C14.35289307 18.12799072 14.35812988 17.0020752 14.36352539 15.84204102 C14.54545448 13.32029129 14.54545448 13.32029129 13.25 12.25 C11.42014378 12.15037763 9.58647122 12.11919548 7.75390625 12.1171875 C6.08038086 12.11525391 6.08038086 12.11525391 4.37304688 12.11328125 C3.19806641 12.11714844 2.02308594 12.12101563 0.8125 12.125 C-0.35861328 12.12113281 -1.52972656 12.11726562 -2.73632812 12.11328125 C-4.41178711 12.11521484 -4.41178711 12.11521484 -6.12109375 12.1171875 C-7.6668811 12.11887939 -7.6668811 12.11887939 -9.24389648 12.12060547 C-11.74809675 12.08217368 -11.74809675 12.08217368 -13.75 13.25 Z " fill="#000000" transform="translate(274.75,119.75)"/>
<path d="M0 0 C1.04671875 -0.020625 2.0934375 -0.04125 3.171875 -0.0625 C9.58925706 -0.09458691 15.43402937 0.32050356 21.25 3.25 C25.76436042 7.87721943 26.4216414 11.20415131 26.48828125 17.453125 C26.496353 18.16853455 26.50442474 18.88394409 26.51274109 19.62103271 C26.52657958 21.13746724 26.5373028 22.65393288 26.54516602 24.17041016 C26.56233257 26.47749894 26.60621124 28.78313682 26.65039062 31.08984375 C26.66052212 32.56509365 26.6690368 34.04035572 26.67578125 35.515625 C26.69328934 36.2002179 26.71079742 36.88481079 26.72883606 37.59014893 C26.70636443 42.61188062 25.47257601 45.43784024 22.25 49.25 C16.70456393 53.74153618 9.87176944 52.73463053 3.10327148 52.69604492 C0.82248597 52.68753725 -1.45578982 52.71631465 -3.73632812 52.74804688 C-5.19791592 52.74965932 -6.65950812 52.74908052 -8.12109375 52.74609375 C-10.1000061 52.74887329 -10.1000061 52.74887329 -12.11889648 52.75170898 C-17.10093498 52.06334153 -20.16337661 49.94604569 -23.5625 46.3125 C-26.93300049 40.45847283 -25.97116037 32.89996569 -26 26.375 C-26.020625 25.21613281 -26.04125 24.05726563 -26.0625 22.86328125 C-26.09497364 15.75967229 -25.98674198 10.19422657 -21.3203125 4.5078125 C-14.76574281 -0.62955294 -7.99169863 0.03879465 0 0 Z M-13.75 14.25 C-14.06133586 16.83744439 -14.06133586 16.83744439 -14.015625 19.84375 C-14.01820313 20.95621094 -14.02078125 22.06867188 -14.0234375 23.21484375 C-14.01570313 24.38144531 -14.00796875 25.54804688 -14 26.75 C-14.00773437 27.91660156 -14.01546875 29.08320313 -14.0234375 30.28515625 C-14.02085937 31.39761719 -14.01828125 32.51007813 -14.015625 33.65625 C-14.01336914 34.68041016 -14.01111328 35.70457031 -14.00878906 36.75976562 C-13.99633072 39.42382203 -13.99633072 39.42382203 -11.75 41.25 C-7.78951178 41.70655797 -3.7962619 41.57402042 0.1875 41.5625 C1.85329102 41.58666992 1.85329102 41.58666992 3.55273438 41.61132812 C4.61685547 41.61197266 5.68097656 41.61261719 6.77734375 41.61328125 C7.75437256 41.61626221 8.73140137 41.61924316 9.73803711 41.62231445 C12.25538871 41.42935248 12.25538871 41.42935248 14.06933594 40.0534668 C15.66568472 37.61504073 15.6226004 35.93479441 15.61328125 33.03125 C15.61263672 32.01675781 15.61199219 31.00226563 15.61132812 29.95703125 C15.59521484 28.89871094 15.57910156 27.84039062 15.5625 26.75 C15.56572266 25.69167969 15.56894531 24.63335937 15.57226562 23.54296875 C15.70474104 17.5489222 15.70474104 17.5489222 13.25 12.25 C10.6678472 11.79997955 10.6678472 11.79997955 7.65625 11.88671875 C5.98755859 11.88768555 5.98755859 11.88768555 4.28515625 11.88867188 C3.11855469 11.90478516 1.95195312 11.92089844 0.75 11.9375 C-0.41660156 11.93427734 -1.58320313 11.93105469 -2.78515625 11.92773438 C-8.84261289 11.52465868 -8.84261289 11.52465868 -13.75 14.25 Z " fill="#000000" transform="translate(400.75,119.75)"/>
<path d="M0 0 C6.11950028 6.81455464 8.52772459 13.87015391 8.34765625 22.93359375 C7.61072232 31.60673927 3.58135657 37.59877163 -2.85546875 43.32421875 C-10.39979629 48.27646269 -18.33031717 49.41538122 -27.19140625 47.93359375 C-34.36096035 45.9714 -40.15687021 41.36839948 -44.2734375 35.19921875 C-47.86274904 28.35749855 -49.07538466 21.16902766 -47.171875 13.609375 C-44.35532048 5.08958974 -40.86454901 -0.31775385 -32.85546875 -4.55078125 C-21.70813998 -9.59362046 -9.31522116 -8.41311553 0 0 Z M-32.46484375 10.09375 C-35.85360343 14.91987685 -36.60669831 18.50218963 -35.85546875 24.32421875 C-33.85250207 29.999291 -30.24196696 33.63096964 -24.85546875 36.32421875 C-19.90064781 36.86782321 -15.98421023 36.88858949 -11.48046875 34.63671875 C-8.01038327 31.57973869 -4.21376638 28.20822096 -3.6171875 23.40625 C-3.42207784 17.44000207 -4.2657123 14.14204977 -7.85546875 9.32421875 C-11.7899167 5.84726475 -15.39584681 4.51033029 -20.55078125 4.171875 C-25.50594816 4.49941993 -29.14006434 6.43810662 -32.46484375 10.09375 Z " fill="#000000" transform="translate(216.85546875,268.67578125)"/>
<path d="M0 0 C1.5625 1.4375 1.5625 1.4375 2.5 4.875 C2.5625 8.4375 2.5625 8.4375 1.47265625 10.12890625 C-1.31973175 12.0418919 -3.58445633 11.9072924 -6.9375 11.9375 C-8.65453125 11.98390625 -8.65453125 11.98390625 -10.40625 12.03125 C-13.4375 11.4375 -13.4375 11.4375 -15.37890625 9.07421875 C-16.4375 6.4375 -16.4375 6.4375 -15.875 3.75 C-12.35601862 -1.91097004 -5.91664276 -1.3653791 0 0 Z " fill="#000000" transform="translate(211.4375,407.5625)"/>
</svg>
