<?xml version="1.0" encoding="UTF-8"?>
<svg version="1.1" xmlns="http://www.w3.org/2000/svg" width="512" height="512">
<path d="M0 0 C2.95703125 2.4453125 2.95703125 2.4453125 5 5 C4.9263784 8.75470151 4.67158839 10.32841161 2 13 C-2.31020258 13.44897944 -5.31647163 12.96134724 -9.375 11.5 C-16.69382046 9.07933423 -24.39166722 9.76168795 -32 10 C-31.46632813 10.268125 -30.93265625 10.53625 -30.3828125 10.8125 C-11.36523007 20.81482709 0.62813613 36.41509091 7.0546875 56.65234375 C8.54195273 61.9192293 9.20483139 66.84527988 9.5625 72.3125 C9.68818359 74.19388672 9.68818359 74.19388672 9.81640625 76.11328125 C9.87699219 77.06589844 9.93757813 78.01851563 10 79 C17.16733489 63.53215474 20.32652002 49.44563056 15 33 C14.28778028 31.54341175 13.54137985 30.10264105 12.75 28.6875 C11.10152491 25.66213766 11.00266074 24.83503396 11.0625 21.125 C12 18 12 18 15 16 C17.9375 16.0625 17.9375 16.0625 21 17 C24.32489413 20.530293 26.02530767 24.0373518 27.6875 28.5625 C28.10386719 29.67753906 28.52023437 30.79257813 28.94921875 31.94140625 C31.03720097 38.01906453 31.18328962 43.35022535 31.1875 49.75 C31.19974609 50.71421875 31.21199219 51.6784375 31.22460938 52.671875 C31.23643439 58.47401767 30.66717019 63.43837295 29 69 C29.65484375 68.67386719 30.3096875 68.34773438 30.984375 68.01171875 C45.16539707 61.2216531 61.09367299 57.88001011 76.5 62.625 C91.27709143 68.41712864 101.96795638 78.09723882 108.6171875 92.50390625 C113.95881004 106.64814345 117.39072108 125.3268608 112 140 C110.86328125 141.83203125 110.86328125 141.83203125 109 143 C105.546875 143.015625 105.546875 143.015625 102 142 C99.953125 139.734375 99.953125 139.734375 98.25 136.75 C91.44860897 125.73384735 82.82122007 113.27374002 70 109 C70.88751953 110.30710938 70.88751953 110.30710938 71.79296875 111.640625 C85.39688454 132.00619931 91.25147785 154.54839821 86.8125 178.875 C84.2725529 189.94444388 79.90184861 203.39876759 70 210 C64.55555556 209.55555556 64.55555556 209.55555556 62 207 C61.37744141 204.77612305 61.37744141 204.77612305 60.8515625 202.01171875 C60.55318481 200.49481445 60.55318481 200.49481445 60.2487793 198.94726562 C60.04293213 197.87154297 59.83708496 196.79582031 59.625 195.6875 C57.88416049 186.92538292 55.95218223 178.44423072 53 170 C52.5978125 171.76150391 52.5978125 171.76150391 52.1875 173.55859375 C47.7315296 192.21199239 40.14928681 213.24714976 24 225 C20.75 225 20.75 225 18 224 C15.63922877 220.45884315 15.871676 219.48581656 16.3125 215.375 C16.46138672 213.90160156 16.46138672 213.90160156 16.61328125 212.3984375 C16.8210984 210.57216561 17.03155752 208.74613792 17.25830078 206.92211914 C20.3853124 180.90436095 15.96416347 155.41507906 5.13671875 131.66015625 C4 129 4 129 4 127 C-20.98522013 138.92188169 -40.61705921 154.73600354 -57 177 C-58 178 -58 178 -61.375 178.3125 C-65 178 -65 178 -67 176.375 C-68.37076764 173.11942687 -67.88144557 171.41045297 -67 168 C-51.92889779 144.12191626 -28.7663119 127.57636831 -4 115 C-4.33 114.01 -4.66 113.02 -5 112 C-8.19849499 110.5661919 -11.60440761 109.84381487 -15 109 C-16.11375 108.67 -17.2275 108.34 -18.375 108 C-24.20737344 108 -28.80098661 110.52398531 -34 113 C-35.62808594 113.72896484 -35.62808594 113.72896484 -37.2890625 114.47265625 C-51.40517841 121.07640243 -63.69683049 130.337842 -75 141 C-76.22314431 142.02804153 -77.45184283 143.0495327 -78.6875 144.0625 C-111.35462199 171.88758654 -129.03114141 218.9278382 -140 259 C-138.97003906 258.97679687 -137.94007813 258.95359375 -136.87890625 258.9296875 C-126.42647695 258.7713361 -116.34745341 259.54954345 -106 261 C-105.82460693 260.31711914 -105.64921387 259.63423828 -105.46850586 258.93066406 C-99.72107579 236.70056525 -92.90394689 215.73695021 -83 195 C-82.67169189 194.27683594 -82.34338379 193.55367187 -82.00512695 192.80859375 C-81 191 -81 191 -79 190 C-74.94857881 189.74139865 -73.45662331 189.69558446 -70 192 C-69.36257185 197.96405547 -70.43645683 201.70671359 -73.3125 206.9375 C-77.68798968 215.53350571 -80.73214337 224.48955177 -83.75 233.625 C-83.9818399 234.32084198 -84.21367981 235.01668396 -84.45254517 235.73361206 C-87.66520545 245.40345355 -90.48031991 255.12620412 -93 265 C-91.84628906 265.11601562 -90.69257813 265.23203125 -89.50390625 265.3515625 C-58.77140479 269.24789631 -27.29369342 290.12126185 -8.61376953 314.09130859 C-1.08947441 323.97594545 -1.08947441 323.97594545 -2 331 C-3.625 333 -3.625 333 -6 334 C-9.78861144 333.84192873 -11.45436088 333.58031525 -14.08984375 330.77734375 C-15.00443359 329.37162109 -15.00443359 329.37162109 -15.9375 327.9375 C-19.33971021 322.94372554 -22.87711249 318.41236684 -27 314 C-27.68835938 313.25878906 -28.37671875 312.51757812 -29.0859375 311.75390625 C-42.07097224 298.24491396 -59.41219534 289.09001804 -77 283 C-78.08909668 282.61932373 -78.08909668 282.61932373 -79.20019531 282.23095703 C-98.1281392 275.75476463 -118.01561965 272.52954003 -138 272 C-138.93328125 271.96003906 -139.8665625 271.92007812 -140.828125 271.87890625 C-178.26569646 270.96970809 -220.71385906 280.60303117 -250 305 C-250.84433594 305.69480469 -251.68867188 306.38960938 -252.55859375 307.10546875 C-259.76936879 313.30651578 -266.3784185 320.37237866 -271.1875 328.625 C-273 331 -273 331 -275.9375 332.1875 C-279 332 -279 332 -281.9375 329.9375 C-284 327 -284 327 -283.9375 324.23828125 C-282.77090042 320.20865186 -280.6894854 317.43010488 -278.0625 314.25 C-277.56524414 313.63729248 -277.06798828 313.02458496 -276.55566406 312.39331055 C-256.57258864 288.11952709 -228.28868536 272.69879628 -198 265 C-197.34 265 -196.68 265 -196 265 C-200.51952444 223.7765818 -209.64413495 185.26822283 -241.80859375 156.70703125 C-243.81371246 155.14511168 -245.68474939 154.02841428 -248 153 C-261.65606564 173.09702177 -269.70070115 193.39427817 -270.55859375 217.96875 C-271.03779265 221.2595318 -271.62634319 222.6981049 -274 225 C-277.4375 225.5625 -277.4375 225.5625 -281 225 C-291.62757052 213.86148859 -294.23368587 195.66566689 -295 181 C-295.53109375 182.134375 -296.0621875 183.26875 -296.609375 184.4375 C-297.32286397 185.95835806 -298.03640862 187.47918999 -298.75 189 C-299.09804688 189.74378906 -299.44609375 190.48757812 -299.8046875 191.25390625 C-300.86229938 193.50622785 -301.93063604 195.75323828 -303 198 C-303.53089233 199.14142456 -303.53089233 199.14142456 -304.07250977 200.3059082 C-306.72385902 205.86546978 -306.72385902 205.86546978 -309.4375 207.1875 C-313.00296274 206.92661248 -314.29964546 206.4233951 -317 204 C-324.31131467 190.58751929 -324.56839496 174.55091623 -321 160 C-317.22586264 147.99397059 -311.62523117 138.13559988 -303 129 C-311.27179071 132.21162077 -316.951932 137.28524723 -323.21484375 143.35546875 C-326 146 -326 146 -329 148 C-331.69580917 147.79781431 -333.43440689 147.39391896 -335.66015625 145.84375 C-338.74400486 141.6000866 -336.71399468 134.88059377 -336 130 C-332.79548446 114.57207468 -326.30818034 101.77299039 -313 93 C-302.61685314 86.60715706 -291.23812998 85.78806809 -279.5 88.1875 C-272.43697675 89.924309 -266.99027988 93.00648008 -261 97 C-260.87044922 95.58460938 -260.87044922 95.58460938 -260.73828125 94.140625 C-259.2224902 80.28991046 -255.37731795 68.93427975 -245 59 C-239.75288547 55.84374075 -239.75288547 55.84374075 -235.6875 56.6875 C-233 58 -233 58 -232 60 C-231.671875 62.85546875 -231.671875 62.85546875 -232 66 C-233.828125 68.23828125 -233.828125 68.23828125 -236.25 70.3125 C-241.75709614 75.43860207 -244.39773607 80.71201209 -246 88 C-246.06926968 90.75970408 -246.0941736 93.49196042 -246.0625 96.25 C-246.05798828 96.99507813 -246.05347656 97.74015625 -246.04882812 98.5078125 C-246.03709246 100.3385764 -246.0191585 102.16929873 -246 104 C-243.93557246 100.90335869 -242.50425025 97.81175409 -240.9375 94.4375 C-234.39202219 80.97594715 -222.99221359 70.4807046 -209 65 C-208.01 65 -207.02 65 -206 65 C-206 64.34 -206 63.68 -206 63 C-207.12019531 62.96261719 -208.24039063 62.92523438 -209.39453125 62.88671875 C-210.8672209 62.82105743 -212.33987566 62.75461014 -213.8125 62.6875 C-214.55048828 62.66494141 -215.28847656 62.64238281 -216.04882812 62.61914062 C-221.48900098 62.34836279 -221.48900098 62.34836279 -223.98828125 60.64453125 C-225.59741681 58.02890936 -225.37348991 55.98791927 -225 53 C-223.8984375 51.33984375 -223.8984375 51.33984375 -222 50 C-207.73515462 47.97000277 -192.85875734 52.00173741 -181 60 C-178.21061697 62.30909191 -178.03904606 62.68763151 -177.5625 66.5 C-178 70 -178 70 -179.5234375 71.6171875 C-182.88321084 73.49314927 -186.3113631 74.03076049 -190.0625 74.625 C-195.59640954 75.52726434 -195.59640954 75.52726434 -201 77 C-200.00742188 77.02578125 -199.01484375 77.0515625 -197.9921875 77.078125 C-177.69860964 77.83011159 -162.01490857 84.31672023 -148 99 C-144.83531312 102.78852659 -143 105.368323 -143 110.375 C-144 113 -144 113 -147 115 C-149.63671875 115.01171875 -149.63671875 115.01171875 -152.6875 114.6875 C-153.76386719 114.57921875 -154.84023437 114.4709375 -155.94921875 114.359375 C-158.3060228 114.08174892 -160.6512895 113.77373645 -163 113.4375 C-168.30469551 112.71821925 -173.65905907 112.91988589 -179 113 C-178.03513672 113.53173828 -178.03513672 113.53173828 -177.05078125 114.07421875 C-163.81370163 121.87295467 -154.22484951 132.51740681 -147 146 C-146.59910156 146.70769531 -146.19820312 147.41539062 -145.78515625 148.14453125 C-144.45338291 151.2917568 -145.16558909 153.78155792 -146 157 C-147.75 158.5 -147.75 158.5 -150 159 C-154.74389314 158.5510244 -158.26724422 156.22713755 -162.25 153.8125 C-174.06879042 146.91293385 -188.11542274 141 -202 141 C-201.31035156 141.59425781 -200.62070313 142.18851563 -199.91015625 142.80078125 C-193.20429344 148.71555462 -187.44926083 154.87559602 -182 162 C-181.01773438 163.24136719 -181.01773438 163.24136719 -180.015625 164.5078125 C-168.73920547 179.25736924 -149.82128841 208.4450817 -152.35571289 227.70288086 C-153.12372127 230.44111158 -153.54266787 231.52560072 -156 233 C-159.5 233.0625 -159.5 233.0625 -163 232 C-166.00002884 227.15379956 -167.43756809 221.71416752 -169.125 216.3125 C-178.68143832 186.82635126 -197.05934665 156.41897795 -225 141 C-229.60066478 139.9070967 -233.49171338 140.82784548 -238 142 C-237.16597656 142.76183594 -236.33195312 143.52367187 -235.47265625 144.30859375 C-232.52059558 147.01153166 -229.5862511 149.73299884 -226.65820312 152.46191406 C-225.27685049 153.74320405 -223.88222349 155.01016448 -222.484375 156.2734375 C-194.98825445 182.08814061 -184.71412997 225.76683888 -183 262 C-182.16976318 261.86368164 -182.16976318 261.86368164 -181.32275391 261.72460938 C-178.7580808 261.30828367 -176.19162561 260.90410701 -173.625 260.5 C-172.75488281 260.35691406 -171.88476562 260.21382813 -170.98828125 260.06640625 C-164.94435724 259.12624029 -159.11299899 258.82228697 -153 259 C-152.89429688 257.89269531 -152.78859375 256.78539062 -152.6796875 255.64453125 C-148.73742315 224.52246856 -131.49882313 189.01195045 -113 164 C-112.319375 163.04996094 -111.63875 162.09992188 -110.9375 161.12109375 C-96.64638589 141.54737139 -80.24149911 125.10357208 -60.125 111.5625 C-59.53114502 111.16160156 -58.93729004 110.76070313 -58.32543945 110.34765625 C-54.04171798 107.52560799 -49.62006366 105.22879994 -45 103 C-48.0698023 99.9301977 -57.44925412 101.69427448 -61.87780762 101.68157959 C-78.17338122 101.69356657 -92.89571841 104.28558994 -108.09277344 110.24462891 C-111.55635817 111.5371927 -113.71610716 112.05441826 -117.3828125 111.3515625 C-120 110 -120 110 -122 107 C-121.93732425 101.40618967 -119.24262624 98.43316636 -115.5 94.625 C-114.95609619 94.05700684 -114.41219238 93.48901367 -113.85180664 92.90380859 C-101.30763547 79.93725613 -83.99374999 65.47599206 -65.0625 64.875 C-64.051875 64.91625 -63.04125 64.9575 -62 65 C-62 64.34 -62 63.68 -62 63 C-63.13953125 62.8659375 -64.2790625 62.731875 -65.453125 62.59375 C-68.39583897 62.2268796 -71.31358326 61.7936696 -74.234375 61.28125 C-83.68923866 59.63669889 -92.88804026 58.58398407 -102.50097656 58.5546875 C-108.40236774 58.42989192 -108.40236774 58.42989192 -111.546875 56.16796875 C-113 54 -113 54 -113.3125 50.75 C-109.80392861 40.72551031 -98.00855428 35.53958502 -89 31 C-70.83101768 22.88756139 -52.0022507 23.73057697 -33 28 C-31.33418734 28.33757528 -29.66787736 28.67277835 -28 29 C-36.76614984 22.83828598 -45.57939281 18.28954928 -55.75 14.89453125 C-58 14 -58 14 -60 12 C-60.57023385 5.7274276 -60.57023385 5.7274276 -58.71582031 3.36181641 C-56.87477775 1.9006133 -55.48347454 1.29492854 -53.234375 0.6484375 C-52.50863281 0.43703125 -51.78289062 0.225625 -51.03515625 0.0078125 C-49.90400391 -0.30542969 -49.90400391 -0.30542969 -48.75 -0.625 C-48.01136719 -0.8415625 -47.27273438 -1.058125 -46.51171875 -1.28125 C-31.56138829 -5.55277299 -14.59530364 -5.86838821 0 0 Z M-88 45 C-88 45.33 -88 45.66 -88 46 C-86.89096313 46.18792114 -86.89096313 46.18792114 -85.75952148 46.37963867 C-61.04280156 50.61926274 -38.94745746 56.13191859 -19 72 C-17.948125 72.78375 -16.89625 73.5675 -15.8125 74.375 C-11.72084271 78.19388014 -8.395069 82.56228291 -5 87 C-1.6874853 82.03122795 -3.1283562 76.71695788 -4 71 C-6.43607889 60.8849768 -11.40892519 53.17311844 -20 47.25 C-40.095529 35.29830226 -67.25265218 33.9114481 -88 45 Z M25 87 C24.34 87.99 23.68 88.98 23 90 C24.29808594 89.84144531 25.59617187 89.68289062 26.93359375 89.51953125 C40.87573406 87.98614094 53.6296933 88.72686189 67 93 C68.36511719 93.41572266 68.36511719 93.41572266 69.7578125 93.83984375 C81.82728937 98.05057764 91.47195699 106.77893318 100 116 C102.32859478 111.34281043 98.6053563 102.8244115 97 98 C92.63229204 88.1050156 85.43065816 80.4682673 75.58984375 75.96484375 C57.69526124 69.29823458 39.69943669 75.88322172 25 87 Z M-92 91 C-91.02546875 90.855625 -90.0509375 90.71125 -89.046875 90.5625 C-69.63473571 87.92720898 -49.81408833 87.61944862 -30.5625 91.44140625 C-27.4862742 91.92375306 -25.84157139 92.11738875 -23 91 C-43.28149532 75.38135313 -72.20783919 69.29459698 -92 91 Z M-228.3125 101.3125 C-232.66828798 107.8545954 -232.66828798 107.8545954 -233.60546875 115.27734375 C-233.40566406 115.84582031 -233.20585937 116.41429687 -233 117 C-232.45214844 116.56429687 -231.90429688 116.12859375 -231.33984375 115.6796875 C-215.32017235 103.64539776 -195.6369784 99.73882411 -175.9375 99.9375 C-175.07189453 99.94201172 -174.20628906 99.94652344 -173.31445312 99.95117188 C-171.20960461 99.96280087 -169.10479242 99.98072927 -167 100 C-170.75672162 96.66937157 -174.20212143 94.94237514 -178.9375 93.3125 C-180.12214844 92.89613281 -181.30679688 92.47976562 -182.52734375 92.05078125 C-198.66117527 87.16889072 -216.11636174 89.11636174 -228.3125 101.3125 Z M-316 113 C-317.65391531 115.64914924 -318.81327398 118.08263186 -320 121 C-319.67 121.66 -319.34 122.32 -319 123 C-318.41734375 122.61328125 -317.8346875 122.2265625 -317.234375 121.828125 C-299.43229531 110.5198857 -281.89337354 110.75877315 -262 115 C-268.99313065 105.80827145 -277.23243572 101.28745437 -288.66015625 99.609375 C-299.42671576 98.92775109 -309.57016278 104.44474437 -316 113 Z M17 105 C17 105.66 17 106.32 17 107 C18.71334323 108.04198001 20.4740346 109.0062566 22.25 109.9375 C29.48622764 114.0420112 35.13396195 119.14230624 41 125 C41.73089844 125.71929687 42.46179688 126.43859375 43.21484375 127.1796875 C58.35042218 143.06455199 64.76344316 164.52117242 71 185 C77.66370873 172.54442068 76.55756263 155.0179657 72.97485352 141.74145508 C68.34967631 126.60259154 59.22571529 112.57645172 45 105 C36.61992049 101.38506374 25.49222395 101.76486707 17 105 Z M-216 126 C-215.02728149 126.10489746 -215.02728149 126.10489746 -214.03491211 126.21191406 C-202.34268587 127.49966346 -190.98508279 128.81821147 -179.73046875 132.328125 C-176.93282284 133.27413264 -176.93282284 133.27413264 -174 132 C-184.48201441 123.43159585 -204.11511264 114.11511264 -216 126 Z M18 126 C18.67049179 130.23846593 20.11461784 133.85470656 21.75 137.8125 C28.47897696 155.08150177 30.71770137 173.62676584 32 192 C38.46841401 185.53158599 39.52527793 172.88361461 39.5625 164.1875 C39.29581475 148.7259219 32.48726684 138.12290181 21.69921875 127.3984375 C20.10940084 125.78818055 20.10940084 125.78818055 18 126 Z M-297 141 C-304.51146971 150.68783116 -310.22816813 162.88739013 -310.0625 175.3125 C-310.05347656 176.19550781 -310.04445313 177.07851562 -310.03515625 177.98828125 C-310.02355469 178.65214844 -310.01195312 179.31601563 -310 180 C-307.4727419 176.78066199 -305.40141166 173.39182896 -303.3125 169.875 C-293.39433156 153.51451672 -281.41869083 141.9330419 -263.78515625 134.26171875 C-260.87663814 133.03470658 -260.87663814 133.03470658 -258 131 C-272.45106276 122.93429055 -286.71830896 129.79927513 -297 141 Z M-264 150 C-272.94934603 157.66342058 -279.97083954 164.00218615 -282 176 C-282.22400499 180.67975642 -282.18209254 185.31954738 -282 190 C-281.34 190 -280.68 190 -280 190 C-279.68289063 188.92105469 -279.36578125 187.84210938 -279.0390625 186.73046875 C-276.03042266 176.93086744 -272.26007946 168.06258071 -267.25244141 159.1081543 C-266.62088135 157.97373901 -266.62088135 157.97373901 -265.9765625 156.81640625 C-265.40542725 155.81782593 -265.40542725 155.81782593 -264.82275391 154.79907227 C-263.79205304 152.87500648 -263.79205304 152.87500648 -264 150 Z " fill="#000000" transform="translate(396,56)"/>
<path d="M0 0 C0.94875 0.36738281 1.8975 0.73476563 2.875 1.11328125 C11.22434856 4.79873589 17.16071417 10.32170448 23.58691406 16.61816406 C34.32411726 27.11791702 45.44163591 34.89339862 60.8125 35.4375 C77.62267253 34.96397401 88.32156519 26.9766511 99.6640625 15.265625 C112.83601047 2.49015707 126.97269648 -3.41709611 145.05712891 -3.36865234 C163.99026001 -2.88779851 176.29529472 6.72624099 189.42578125 19.328125 C200.94162305 30.12767042 211.5760876 35.63323907 227.3515625 35.296875 C243.20839992 34.00659701 253.12852778 25.15055343 263.765625 14.1640625 C276.26317694 2.05979017 290.40166274 -3.37747805 307.5534668 -3.30273438 C325.14628967 -2.88482502 338.41697805 5.09447913 350.4375 17.5 C361.19690528 28.48711757 371.56482617 34.0457268 386.7421875 35.41015625 C390 36 390 36 391.91796875 37.33984375 C393.7951486 40.21999334 393.41365789 42.69073691 393 46 C390.67523158 48.47041656 389.37309408 48.97355648 385.96875 49.21484375 C366.0523367 47.62242782 353.37037891 39.10205138 339.3515625 25.4140625 C327.40677883 14.01689069 316.81553339 10.46908923 300.78515625 10.7265625 C286.77983177 11.2783619 278.29255709 19.82343013 268.51635742 28.86791992 C254.64152764 41.67087444 241.08909699 49.52431862 221.7824707 49.046875 C201.55563184 47.95839166 188.53494444 37.22631717 174.6640625 23.7265625 C163.49352325 13.20125296 152.51320869 10.49452925 137.71875 10.72265625 C124.82082186 11.23218525 114.93597963 19.72783397 106.125 28.4375 C100.17638761 34.15520636 94.33760819 39.11330546 87 43 C86.26910156 43.40476562 85.53820312 43.80953125 84.78515625 44.2265625 C72.1619747 50.57239337 56.02718224 50.38381642 42.6875 46.375 C29.79081079 41.47356286 20.52380714 32.30807073 10.8203125 22.8828125 C0.14600824 12.91717574 -11.09292132 10.41340445 -25.1484375 10.66015625 C-38.15944943 11.26713532 -47.05031868 19.23475766 -56.05639648 27.77758789 C-62.30050575 33.69142745 -68.3868075 38.86678473 -76 43 C-76.73347656 43.40734375 -77.46695313 43.8146875 -78.22265625 44.234375 C-86.58241892 48.42184233 -96.85856595 50.24223854 -106 48 C-108 45 -108 45 -107.8125 41.4375 C-107 38 -107 38 -104 36 C-101.80113925 35.64388631 -99.58992576 35.36145177 -97.375 35.125 C-82.56624365 33.17085483 -73.08293736 24.84363987 -62.625 14.6953125 C-45.93048761 -1.1754575 -22.2279756 -8.84375249 0 0 Z " fill="#000000" transform="translate(113,397)"/>
<path d="M0 0 C15.74799583 10.0185979 32.78846929 13.25025687 51.19921875 9.30859375 C60.15204181 6.61393252 67.99328614 1.66346089 75.57421875 -3.69140625 C91.81897147 -14.74298835 111.64787385 -17.84483284 130.82421875 -14.44140625 C142.68064941 -12.08774114 151.9869712 -7.00471888 162.10644531 -0.65844727 C177.3448089 8.81304515 193.85965606 13.28374597 211.72265625 9.68359375 C221.77855594 7.01977926 230.00854808 2.32386822 238.44921875 -3.62890625 C254.73665098 -14.64191094 274.54482023 -17.8340891 293.76171875 -14.44140625 C306.04179842 -12.02551092 315.60546757 -6.64640176 326 0 C335.82062586 6.2477094 345.41056388 10.20002281 357.13671875 10.74609375 C363.30029556 11.14684647 363.30029556 11.14684647 366.07421875 13.62109375 C367.76171875 16.37109375 367.76171875 16.37109375 367.76171875 18.99609375 C366.69171099 21.53736218 365.90772233 22.66975757 363.76171875 24.37109375 C347.08115804 27.43119661 330.09111604 18.99154532 316.63671875 10.171875 C300.48785845 0.05689593 283.46003437 -4.62597409 264.57421875 -0.56640625 C255.63538037 2.04535311 247.23395139 6.40904142 239.76171875 11.93359375 C224.63900154 22.89386926 205.25861616 26.30102127 186.9765625 23.8671875 C173.55786228 21.47830394 162.72138509 16.14868546 151.375 8.83203125 C136.25876864 -0.66125414 119.16298325 -4.42504503 101.57421875 -0.56640625 C91.47632276 2.3840078 82.63118523 7.58202995 74.18359375 13.73828125 C58.24889621 24.48135152 37.55292055 26.55992371 19.01171875 23.18359375 C8.35188628 20.7675142 -0.01848896 16.69273375 -8.9609375 10.5 C-12.67934939 8.08458345 -16.4754941 6.00220003 -20.42578125 3.99609375 C-21.06676758 3.66246826 -21.70775391 3.32884277 -22.36816406 2.98510742 C-35.9635887 -3.76576002 -52.89766319 -3.60489859 -67.11328125 1.1171875 C-74.07373434 3.9100693 -80.23751094 7.6952894 -86.48022461 11.80151367 C-98.70917034 19.8256831 -115.15014612 27.30250286 -130.23828125 24.37109375 C-132.4765625 23.06640625 -132.4765625 23.06640625 -134.23828125 21.37109375 C-134.73828125 17.87109375 -134.73828125 17.87109375 -134.23828125 14.37109375 C-130.90725628 10.76036439 -126.92225424 10.82253845 -122.30078125 10.49609375 C-109.53287816 9.26835835 -99.79248048 4.4912401 -89.23828125 -2.62890625 C-59.96315979 -21.42944297 -28.68298813 -18.33807777 0 0 Z " fill="#000000" transform="translate(139.23828125,479.62890625)"/>
<path d="M0 0 C7.88894214 5.72048081 13.56033869 13.84325879 15.37890625 23.4921875 C16.46476619 34.02905059 14.70288547 43.04222568 8.62890625 51.8046875 C2.12761096 59.73270096 -6.38539769 64.6590996 -16.640625 65.83984375 C-28.11617826 66.17865983 -36.90197132 62.95925601 -45.62109375 55.4921875 C-52.24130123 49.02825101 -55.70155302 39.44658522 -55.99609375 30.2421875 C-54.86377278 18.91897784 -51.31354222 10.2479592 -42.9375 2.28515625 C-30.14792246 -7.61436498 -13.86291805 -7.97479339 0 0 Z M-39.24609375 17.48828125 C-42.84220755 22.72920846 -43.41893048 28.30383847 -42.62109375 34.4921875 C-40.72999518 41.63766753 -36.71010874 46.39882733 -30.62109375 50.4921875 C-24.50329705 53.46625506 -17.52130864 53.76657382 -11.05078125 51.65234375 C-4.62285143 48.41658925 0.09089845 43.35621089 2.37890625 36.4921875 C3.06200475 29.3586875 3.35295211 23.12348691 -1.0625 17.20703125 C-6.4476973 11.28196454 -11.17608181 7.52125589 -19.37109375 7.1171875 C-28.05460197 7.34943586 -33.88352492 10.74783015 -39.24609375 17.48828125 Z " fill="#000000" transform="translate(82.62109375,38.5078125)"/>
<path d="M0 0 C5.1347507 1.74059346 7.85165903 4.68253932 10.6875 9.25 C11.33596 12.68683798 11.34702249 14.15079585 9.5625 17.125 C6.58829585 18.90952249 5.12433798 18.89846 1.6875 18.25 C-2.87996068 15.41415903 -5.82190654 12.6972507 -7.5625 7.5625 C-7.3125 4.25 -7.3125 4.25 -5.8125 1.75 C-3.3125 0.25 -3.3125 0.25 0 0 Z " fill="#000000" transform="translate(96.3125,94.75)"/>
<path d="M0 0 C1.40765625 0.00580078 1.40765625 0.00580078 2.84375 0.01171875 C5.58305875 0.32190518 7.23850551 0.74487314 9.5 2.3125 C10.5 5.6875 10.5 5.6875 10.5 9.3125 C8.31794671 12.31817144 7.09704877 13.20997647 3.40625 13.84375 C2.2821875 13.8334375 1.158125 13.823125 0 13.8125 C-1.1240625 13.8228125 -2.248125 13.833125 -3.40625 13.84375 C-7.08619222 13.21184073 -8.30395776 12.28899842 -10.5 9.3125 C-10.5 6.25 -10.5 6.25 -9.5 3.3125 C-6.42946861 0.33966733 -4.21030605 -0.07518404 0 0 Z " fill="#000000" transform="translate(12.5,61.6875)"/>
<path d="M0 0 C5.24391017 1.57317305 7.89323715 4.52384213 10.75 9.125 C11.39846 12.56183798 11.40952249 14.02579585 9.625 17 C6.7083362 18.74999828 5.10889159 18.70634662 1.75 18.125 C-2.00021929 15.64047972 -4.75868581 12.86197129 -7.25 9.125 C-7.0625 5.5625 -7.0625 5.5625 -6.25 2.125 C-3.25 0.125 -3.25 0.125 0 0 Z " fill="#000000" transform="translate(25.25,23.875)"/>
<path d="M0 0 C3.375 1 3.375 1 5.375 4 C5.7109375 6.99609375 5.7109375 6.99609375 5.75 10.4375 C5.77835938 11.57058594 5.80671875 12.70367187 5.8359375 13.87109375 C5.375 17 5.375 17 3.54296875 19.41015625 C1.375 21 1.375 21 -1.6875 21 C-5.10451864 19.83675961 -5.82168367 19.0562018 -7.625 16 C-8.46481796 10.92326262 -8.29769071 6.39919668 -6.0625 1.75 C-3.625 0 -3.625 0 0 0 Z " fill="#000000" transform="translate(63.625,8)"/>
<path d="M0 0 C1.03125 -0.00773437 2.0625 -0.01546875 3.125 -0.0234375 C6.34665272 0.42304155 7.73845224 1.06011385 10 3.375 C10.5 6.875 10.5 6.875 10 10.375 C7.6627816 12.81922358 6.24783552 13.34344042 2.87109375 13.7734375 C1.73800781 13.76570313 0.60492188 13.75796875 -0.5625 13.75 C-1.69816406 13.75773437 -2.83382812 13.76546875 -4.00390625 13.7734375 C-7 13.375 -7 13.375 -8.875 12.0703125 C-10.79544135 9.17631407 -10.41820526 6.72064209 -10 3.375 C-6.90307349 0.19753876 -4.33012714 -0.03247595 0 0 Z " fill="#000000" transform="translate(113,61.625)"/>
<path d="M0 0 C3.5 0.5 3.5 0.5 5.1953125 1.59375 C7.18633519 4.50278914 6.89674287 7.02114106 6.875 10.5 C6.88273437 11.7375 6.89046875 12.975 6.8984375 14.25 C6.5 17.5 6.5 17.5 5.1640625 19.41796875 C2.58134717 21.09733999 0.49921737 20.81241848 -2.5 20.5 C-5.5 18.5 -5.5 18.5 -6.5 15.5 C-6.90484293 10.90658988 -6.92905953 6.7619398 -5.4375 2.375 C-3.5 0.5 -3.5 0.5 0 0 Z " fill="#000000" transform="translate(62.5,108.5)"/>
<path d="M0 0 C1.875 1.0625 1.875 1.0625 3 3 C3.6875 6.1875 3.6875 6.1875 3 10 C-0.19763164 14.61880125 -3.23440102 17.65266905 -8.8125 18.75 C-12 18 -12 18 -13.9375 16.3125 C-15.2150699 13.53190669 -15.37099305 12.03946111 -15 9 C-13.2421875 6.54296875 -13.2421875 6.54296875 -10.875 4.1875 C-10.10929687 3.39730469 -9.34359375 2.60710938 -8.5546875 1.79296875 C-5.43515165 -0.39643026 -3.73542397 -0.43579946 0 0 Z " fill="#000000" transform="translate(104,24)"/>
<path d="M0 0 C2.6875 0.6875 2.6875 0.6875 4.5625 1.75 C6.48093702 5.05397487 6.36620674 6.92376265 5.6875 10.6875 C2.48986836 15.30630125 -0.54690102 18.34016905 -6.125 19.4375 C-9.3125 18.6875 -9.3125 18.6875 -11.3125 17.0625 C-12.7699162 13.60113653 -12.61568237 12.25410437 -11.3125 8.6875 C-8.13921749 4.52162676 -5.23483389 1.08647496 0 0 Z " fill="#000000" transform="translate(30.3125,94.3125)"/>
</svg>
