<?xml version="1.0" encoding="UTF-8"?>
<svg version="1.1" xmlns="http://www.w3.org/2000/svg" width="512" height="512">
<path d="M0 0 C6.68922139 4.75936317 9.97705909 13.89639832 13.5390625 21.02734375 C14.03538177 22.01569717 14.53170105 23.0040506 15.0430603 24.02235413 C16.08542467 26.10136978 17.12572658 28.18142064 18.1640625 30.26245117 C19.74527909 33.42804873 21.33709485 36.58816033 22.9296875 39.74804688 C23.94596118 41.77832126 24.96160728 43.80890993 25.9765625 45.83984375 C26.4484903 46.77448959 26.92041809 47.70913544 27.40664673 48.67210388 C30.13480213 54.16667777 32.3715576 59.61899271 34.125 65.5 C38.02577807 61.82827117 41.0033936 57.98719053 44 53.5625 C52.16419987 41.82026671 52.16419987 41.82026671 59.125 39.5 C61.54296875 39.2265625 61.54296875 39.2265625 64.3125 39.125 C65.21355469 39.07601562 66.11460937 39.02703125 67.04296875 38.9765625 C73.14266453 40.01250576 77.54413949 43.39919594 81.2578125 48.2578125 C82.26975453 49.70346778 83.26657336 51.15979766 84.25 52.625 C85.36718428 54.23137734 86.48572198 55.83681408 87.60546875 57.44140625 C88.46470947 58.68494873 88.46470947 58.68494873 89.34130859 59.95361328 C92.87861413 65.00344858 96.59471828 69.92331138 100.27978516 74.86572266 C103.07413431 78.63689773 105.81757408 82.43781751 108.47265625 86.30859375 C108.95871338 87.01685303 109.44477051 87.7251123 109.94555664 88.45483398 C112.37176719 92.66190618 112.45039403 96.70043807 112.125 101.5 C110.47791386 106.27654982 108.31724192 109.63501288 105.125 113.5 C106.12080078 114.7684375 106.12080078 114.7684375 107.13671875 116.0625 C121.49959406 134.46892255 121.49959406 134.46892255 121.41796875 143.30078125 C120.79062734 148.01002411 118.45309349 152.17190651 115.125 155.5 C115.48563377 158.73897098 116.87553374 160.84653792 118.77734375 163.43359375 C119.57108398 164.5309082 119.57108398 164.5309082 120.38085938 165.65039062 C120.93580078 166.40513672 121.49074219 167.15988281 122.0625 167.9375 C131.46099027 180.74363002 131.46099027 180.74363002 130.125 189.5 C128.57211588 193.78381827 126.62772393 197.51211214 123.125 200.5 C122.465 200.5 121.805 200.5 121.125 200.5 C121.65609375 201.35980469 122.1871875 202.21960938 122.734375 203.10546875 C132.15721923 218.69368531 135.89984666 234.35157738 132.46484375 252.5390625 C127.47469044 272.02442304 113.17720888 287.39780788 96.20361328 297.54174805 C93.21593629 299.26852127 90.17948276 300.89507426 87.125 302.5 C86.0421875 303.07492187 84.959375 303.64984375 83.84375 304.2421875 C43.71890131 324.21258237 -3.59848849 329.70625554 -47.6875 333.75 C-48.59322754 333.83326538 -49.49895508 333.91653076 -50.43212891 334.00231934 C-74.64592581 336.19505481 -98.76399339 336.70674677 -123.0625 336.6875 C-123.81731281 336.68723312 -124.57212563 336.68696625 -125.34981155 336.68669128 C-147.57896353 336.67682676 -169.72304597 336.60227481 -191.875 334.5 C-192.60261536 334.4321228 -193.33023071 334.36424561 -194.07989502 334.29431152 C-210.72478854 332.73561877 -227.33291644 330.86445997 -243.875 328.4375 C-245.45861328 328.21247803 -245.45861328 328.21247803 -247.07421875 327.98291016 C-256.06084074 326.58362472 -256.06084074 326.58362472 -259.875 323.5 C-261.875 320.5 -261.875 320.5 -261.6875 317 C-260.65652734 312.558887 -260.65652734 312.558887 -257.875 310.5 C-250.20033391 309.29095459 -242.07522113 311.06141175 -234.5 312.3125 C-198.65167534 317.8873671 -162.55394811 319.91051367 -126.31158066 319.81785583 C-124.07829367 319.8123856 -121.84501738 319.81003889 -119.61172485 319.8079834 C-83.48465412 319.75631558 -47.63298216 317.85029765 -11.875 312.5 C-10.67101562 312.32243164 -9.46703125 312.14486328 -8.2265625 311.96191406 C29.85380993 306.21914822 80.05311034 298.186066 106.3046875 267.1015625 C114.60821779 255.23428531 117.32774726 243.81873978 116.125 229.5 C113.44198222 216.21421316 103.49590228 204.40601093 92.4609375 196.9609375 C90.52862699 195.68355042 88.58833598 194.42952272 86.6171875 193.21289062 C77.78906034 187.66725566 72.91716195 181.16102913 68.3125 171.875 C67.5541687 170.37549805 67.5541687 170.37549805 66.78051758 168.84570312 C65.73602128 166.7700994 64.69853768 164.6909524 63.66796875 162.60839844 C62.16638352 159.58336945 60.63252709 156.57655259 59.09375 153.5703125 C58.16460448 151.71457274 57.23743263 149.85784312 56.3125 148 C55.87381592 147.14712402 55.43513184 146.29424805 54.9831543 145.41552734 C52.52542428 140.36293858 51.56394718 137.14605085 53.125 131.5 C54.80184402 128.85235155 55.97638861 128.54522955 59 127.625 C62.96809581 127.46627617 64.02143161 128.01522699 67.125 130.5 C69.03333706 133.44992218 70.48033547 136.58807909 71.9609375 139.76953125 C72.86976187 141.6464988 73.778617 143.52345146 74.6875 145.40039062 C76.09603937 148.35405648 77.49896434 151.31031286 78.89941406 154.26782227 C80.26046378 157.12932647 81.64120531 159.98071333 83.0234375 162.83203125 C83.4309726 163.7103511 83.83850769 164.58867096 84.25839233 165.49360657 C88.15563003 173.51199355 93.48324209 177.70041724 101 182.3125 C106.06094306 185.43594306 106.06094306 185.43594306 107.125 186.5 C109.12458364 186.54080783 111.12545254 186.54254356 113.125 186.5 C111.53741663 181.52557211 108.58723247 177.88387075 105.4375 173.8125 C104.35485338 172.38197593 103.2728204 170.95098724 102.19140625 169.51953125 C100.40442453 167.16818173 98.60199206 164.83427442 96.77734375 162.51171875 C91.7200092 155.8343756 91.7200092 155.8343756 91.375 151.125 C92.125 147.5 92.125 147.5 94.1875 145.0625 C97.55379968 143.27191506 100.34365556 142.79657603 104.125 142.5 C102.80541161 139.72414196 101.33480937 137.24310149 99.55078125 134.7421875 C99.05094727 134.03892334 98.55111328 133.33565918 98.03613281 132.61108398 C97.50858398 131.87317627 96.98103516 131.13526855 96.4375 130.375 C95.90092773 129.61453369 95.36435547 128.85406738 94.81152344 128.07055664 C92.51441381 124.81908727 90.20166757 121.59988471 87.77734375 118.44140625 C82.72173214 111.78710021 82.72173214 111.78710021 82.5 107.0625 C83.14767878 103.37073094 83.30339953 102.6743291 86.125 100.5 C88.38671875 99.76953125 88.38671875 99.76953125 90.8125 99.3125 C92.02486328 99.07466797 92.02486328 99.07466797 93.26171875 98.83203125 C94.18404297 98.66767578 94.18404297 98.66767578 95.125 98.5 C92.05149869 92.82758213 88.48678643 87.72409947 84.625 82.5625 C84.01640137 81.74289795 83.40780273 80.9232959 82.78076172 80.07885742 C80.90009883 77.54910971 79.01350424 75.02389802 77.125 72.5 C76.22249512 71.2924707 76.22249512 71.2924707 75.30175781 70.06054688 C71.91743877 65.53437172 68.52488184 61.01449511 65.125 56.5 C61.87444939 57.87468028 60.27110188 59.26745694 58.28515625 62.16796875 C57.77919922 62.89693359 57.27324219 63.62589844 56.75195312 64.37695312 C56.23568359 65.13943359 55.71941406 65.90191406 55.1875 66.6875 C54.15767301 68.18107297 53.12772635 69.67456343 52.09765625 71.16796875 C51.60281738 71.89161621 51.10797852 72.61526367 50.59814453 73.36083984 C48.48021352 76.4362975 46.3052739 79.46849578 44.125 82.5 C44.53395508 83.30836304 44.53395508 83.30836304 44.95117188 84.13305664 C46.19029102 86.60255754 47.40768825 89.08218162 48.625 91.5625 C49.05425781 92.41005859 49.48351562 93.25761719 49.92578125 94.13085938 C52.33306038 99.07915537 53.88658598 102.86713766 53.125 108.5 C50.67901113 111.88121991 49.23203441 113.26936783 45.125 114.125 C41.07897534 113.28207819 39.83309979 111.59523101 37.125 108.5 C35.76276295 106.11560531 34.55912089 103.81941667 33.41015625 101.33984375 C32.91178001 100.2991851 32.91178001 100.2991851 32.40333557 99.23750305 C31.32198418 96.97518292 30.25496861 94.70639873 29.1875 92.4375 C28.05200815 90.05484676 26.91262512 87.67408081 25.77294922 85.29342651 C25.00355866 83.68584789 24.23533358 82.07771096 23.46826172 80.46902466 C19.98924098 73.18100863 16.38707816 65.96033898 12.75 58.75 C7.07455231 47.46790283 1.57615966 36.10960209 -3.82177734 24.69238281 C-4.74192026 22.77701809 -5.70533296 20.88256183 -6.67578125 18.9921875 C-7.875 16.5 -7.875 16.5 -7.875 14.5 C-8.865 14.5 -9.855 14.5 -10.875 14.5 C-11.22026733 15.68057983 -11.22026733 15.68057983 -11.57250977 16.88500977 C-13.26055425 21.57008469 -15.46355996 25.903398 -17.71484375 30.33984375 C-18.19643448 31.29782364 -18.67802521 32.25580353 -19.17420959 33.24281311 C-20.71650056 36.30964293 -22.2640764 39.37376254 -23.8125 42.4375 C-30.32184822 55.33563354 -36.75726013 68.25718202 -42.96063232 81.30566406 C-47.05286932 89.90506373 -51.28221609 98.4304989 -55.5625 106.9375 C-56.26387091 108.3351866 -56.96504204 109.73297347 -57.66601562 111.13085938 C-59.04731595 113.88503795 -60.42997098 116.6385302 -61.81347656 119.39160156 C-63.22595831 122.20393407 -64.63375242 125.01855088 -66.03808594 127.83496094 C-66.39264359 128.54572281 -66.74720123 129.25648468 -67.11250305 129.98878479 C-67.77998194 131.32743517 -68.44685431 132.66638824 -69.11296082 134.00572205 C-77.80181047 151.42681047 -77.80181047 151.42681047 -80.875 154.5 C-83.89882688 155.48070061 -85.49585839 155.61462421 -88.5625 154.6875 C-90.875 153.5 -90.875 153.5 -92.875 151.5 C-94.40735221 143.54243015 -90.93398757 138.14489034 -86.8984375 131.63085938 C-86.4859375 130.92380859 -86.0734375 130.21675781 -85.6484375 129.48828125 C-85.06715088 128.55302612 -85.06715088 128.55302612 -84.47412109 127.59887695 C-83.19034977 123.10149223 -86.41086769 118.17409095 -88.39697266 114.16894531 C-88.89734039 113.15479553 -89.39770813 112.14064575 -89.91323853 111.09576416 C-90.44976044 110.01744324 -90.98628235 108.93912231 -91.5390625 107.828125 C-92.09113373 106.70935974 -92.64320496 105.59059448 -93.21200562 104.43792725 C-95.27079168 100.26602802 -97.33635914 96.09750595 -99.40252686 91.92926025 C-101.43150496 87.83516308 -103.45463937 83.73821255 -105.4765625 79.640625 C-106.28741806 78.01099823 -106.28741806 78.01099823 -107.11465454 76.34844971 C-107.60871796 75.34690857 -108.10278137 74.34536743 -108.61181641 73.31347656 C-109.04990631 72.43000549 -109.48799622 71.54653442 -109.93936157 70.6362915 C-110.875 68.5 -110.875 68.5 -110.875 66.5 C-114.23182336 67.248647 -114.23182336 67.248647 -115.81689453 70.89550781 C-116.55677579 72.4100733 -117.2863478 73.92970071 -118.0078125 75.453125 C-118.40394745 76.264328 -118.8000824 77.07553101 -119.20822144 77.91131592 C-120.90180426 81.37985391 -122.57230733 84.85933757 -124.24316406 88.33886719 C-131.49099273 103.37968979 -139.25007964 116.34482012 -150.875 128.5 C-151.54789063 129.24765625 -152.22078125 129.9953125 -152.9140625 130.765625 C-161.43488864 139.89280207 -172.02868071 146.37349413 -183.1875 151.8125 C-183.78884766 152.11357666 -184.39019531 152.41465332 -185.00976562 152.72485352 C-198.08871127 158.78936463 -212.55798284 161.20270331 -226.72836304 163.09790039 C-265.81093399 168.36131698 -314.42709989 175.01605477 -344.875 202.5 C-345.59300781 203.13679687 -346.31101562 203.77359375 -347.05078125 204.4296875 C-352.1202136 209.18407038 -355.73893811 214.30603352 -358.875 220.5 C-359.21660156 221.17289063 -359.55820312 221.84578125 -359.91015625 222.5390625 C-363.5635487 231.34118942 -363.31045187 243.3811444 -360.3125 252.375 C-351.52889388 272.7257494 -334.24830545 284.20282571 -314.40771484 292.51025391 C-307.45171159 295.22855323 -300.32446715 297.47368105 -293.2109375 299.73828125 C-281.79938045 303.42155614 -281.79938045 303.42155614 -279.375 306.25 C-278.62431525 309.62808137 -279.02565192 312.16327541 -279.875 315.5 C-282.05355238 318.09750476 -283.38505717 318.44793523 -286.7421875 318.8046875 C-292.5323277 318.69890754 -297.9479335 316.52992304 -303.375 314.6875 C-304.56029297 314.28732666 -305.74558594 313.88715332 -306.96679688 313.47485352 C-322.74533618 307.98964187 -339.07075877 301.50020724 -351.875 290.5 C-352.72835938 289.79359375 -353.58171875 289.0871875 -354.4609375 288.359375 C-366.88650466 277.68756657 -377.27657376 263.5739165 -379.17651367 246.84521484 C-379.3110446 244.11829032 -379.34280928 241.4174998 -379.3125 238.6875 C-379.30492676 237.72481201 -379.29735352 236.76212402 -379.28955078 235.77026367 C-379.11386598 228.14592815 -377.99572665 221.51429782 -374.875 214.5 C-374.47410156 213.58605469 -374.07320313 212.67210937 -373.66015625 211.73046875 C-361.6736113 187.44468637 -336.68787044 173.33728313 -312 164.6875 C-308.64213353 163.56472605 -305.26595697 162.51809166 -301.875 161.5 C-300.90836426 161.20786621 -299.94172852 160.91573242 -298.94580078 160.61474609 C-289.53271899 157.80475909 -280.1450535 155.00257029 -270.453125 153.3359375 C-257.77660561 151.58523904 -257.77660561 151.58523904 -248.4375 143.6875 C-246.84098593 140.89445709 -246.84098593 140.89445709 -245.875 138.5 C-246.9479641 136.28439881 -248.00191839 134.32231425 -249.4375 132.3125 C-251.38996859 128.49245276 -252.18641194 124.79206894 -251.875 120.5 C-249.85951837 114.71674515 -246.71335483 110.03509268 -243.1875 105.0625 C-242.42083008 103.96518555 -242.42083008 103.96518555 -241.63867188 102.84570312 C-240.38974351 101.05985228 -239.13315617 99.27936179 -237.875 97.5 C-238.9970068 95.2072035 -240.15374897 93.0497132 -241.5 90.875 C-243.7017592 85.47068196 -243.96684203 80.13586106 -241.71484375 74.69921875 C-239.41405037 70.69847613 -236.7967122 67.02607064 -234.0625 63.3125 C-233.49644043 62.53874023 -232.93038086 61.76498047 -232.34716797 60.96777344 C-231.1447003 59.32513732 -229.94055655 57.68372703 -228.73486328 56.04345703 C-226.85780787 53.4764889 -225.0031802 50.89451418 -223.15234375 48.30859375 C-221.93519176 46.62218221 -220.71775189 44.9359784 -219.5 43.25 C-218.94207764 42.46471924 -218.38415527 41.67943848 -217.80932617 40.87036133 C-213.98053791 35.60868925 -209.80243661 30.46371831 -203.875 27.5 C-198.59684999 27.01801325 -193.63252734 26.77631227 -188.6875 28.8125 C-180.74742599 36.39968184 -174.54978926 45.55938889 -168.27099609 54.52001953 C-166.74213324 56.68844866 -165.19455653 58.842746 -163.64453125 60.99609375 C-162.5545935 62.51816186 -161.46474832 64.04029626 -160.375 65.5625 C-159.85832764 66.27680176 -159.34165527 66.99110352 -158.80932617 67.72705078 C-154.54660405 73.7131823 -151.68256015 78.88241366 -152.875 86.5 C-153.74133135 88.65994829 -154.74075032 90.62553102 -155.90234375 92.640625 C-156.95792292 94.65851932 -157.62279302 96.23013714 -157.875 98.5 C-156.92517664 100.26673036 -156.92517664 100.26673036 -155.4375 101.75 C-154.591875 102.6575 -153.74625 103.565 -152.875 104.5 C-146.60387544 94.85211607 -141.5086872 84.90387392 -136.625 74.5 C-135.25243644 71.57963845 -133.87087297 68.66376658 -132.484375 65.75 C-132.18013611 65.09475342 -131.87589722 64.43950684 -131.56243896 63.7644043 C-128.50820966 57.3452327 -125.60424865 53.13892104 -118.875 50.5 C-113.59872113 49.22978472 -108.83196593 49.22072221 -103.875 51.5 C-97.71914814 55.6692869 -95.22138852 60.89088923 -92.0390625 67.48828125 C-91.25273941 69.07578438 -91.25273941 69.07578438 -90.45053101 70.69535828 C-88.78704195 74.06137078 -87.14333817 77.43661112 -85.5 80.8125 C-84.37238776 83.10285108 -83.2434954 85.39257238 -82.11328125 87.68164062 C-79.35231754 93.28055044 -76.60751424 98.88715545 -73.875 104.5 C-68.50367747 94.39657936 -63.17134551 84.29994916 -58.3125 73.9375 C-53.05364855 62.84927379 -47.58989096 51.87227608 -42.0730896 40.91073608 C-37.43758092 31.69855506 -32.83569612 22.48150029 -28.6496582 13.05322266 C-26.15404194 7.582704 -23.22910897 3.18150641 -18.25 -0.375 C-12.33735381 -2.34588206 -5.73138466 -2.8217977 0 0 Z M-198.875 43.5 C-205.71061931 52.33819845 -212.47933279 61.22160305 -219.0625 70.25 C-219.61446045 70.99942871 -220.1664209 71.74885742 -220.73510742 72.52099609 C-223.30123989 76.06395598 -225.52304925 79.28655841 -226.875 83.5 C-226.24851563 83.60957031 -225.62203125 83.71914062 -224.9765625 83.83203125 C-224.15929687 83.99058594 -223.34203125 84.14914063 -222.5 84.3125 C-221.68789062 84.46332031 -220.87578125 84.61414063 -220.0390625 84.76953125 C-217.875 85.5 -217.875 85.5 -215.875 88.5 C-215.0221602 93.40691883 -215.95718944 96.07454741 -218.7265625 100.0234375 C-219.96763701 101.65350552 -221.22610221 103.27045268 -222.5 104.875 C-223.74419012 106.48543397 -224.98638989 108.09740767 -226.2265625 109.7109375 C-226.8340332 110.4956543 -227.44150391 111.28037109 -228.06738281 112.08886719 C-230.83674834 115.7828507 -233.37054804 119.62315016 -235.875 123.5 C-233.96543043 125.40956957 -230.59809527 125.28646449 -228.00390625 125.70703125 C-225.875 126.5 -225.875 126.5 -224.58984375 128.40625 C-223.50315635 131.58911584 -223.89627492 133.25797317 -224.875 136.5 C-226.35181137 138.96271592 -227.93245423 141.30541218 -229.59765625 143.64453125 C-230.96950731 145.26184184 -230.96950731 145.26184184 -230.875 146.5 C-205.05369499 145.60186765 -182.66247712 136.33861464 -163.875 118.5 C-164.66295357 117.28924208 -165.45579435 116.08166604 -166.25 114.875 C-166.78625 114.05902344 -167.3225 113.24304688 -167.875 112.40234375 C-169.36985465 110.23305273 -170.8931109 108.14947477 -172.5 106.06640625 C-172.9532666 105.46715332 -173.4065332 104.86790039 -173.87353516 104.25048828 C-174.77447433 103.0638309 -175.69040126 101.8883693 -176.62255859 100.72607422 C-180.02584408 96.19487245 -180.46706932 93.14559028 -179.875 87.5 C-177.5419957 84.60707467 -175.8050506 84.48717594 -172.125 83.8125 C-170.51625 83.6578125 -170.51625 83.6578125 -168.875 83.5 C-170.45949787 78.45308085 -173.51591027 74.83220657 -176.75 70.75 C-182.08818216 63.92073067 -187.15683461 56.9577438 -192.00341797 49.77050781 C-192.46893066 49.09342773 -192.93444336 48.41634766 -193.4140625 47.71875 C-193.81834473 47.11998047 -194.22262695 46.52121094 -194.63916016 45.90429688 C-195.92741426 44.20293959 -195.92741426 44.20293959 -198.875 43.5 Z " fill="#000000" transform="translate(378.875,88.5)"/>
<path d="M0 0 C0.30078125 2.05859375 0.30078125 2.05859375 0.3125 4.4375 C0.32925781 5.21996094 0.34601563 6.00242187 0.36328125 6.80859375 C0 9 0 9 -1.14453125 10.72265625 C-5.40673638 13.65684799 -11.41059806 13.18852831 -16.4140625 13.39453125 C-17.89367027 13.46050036 -19.37324257 13.52726843 -20.8527832 13.59472656 C-21.62917145 13.62957153 -22.40555969 13.6644165 -23.20547485 13.70031738 C-65.91074434 15.68037074 -110.71095838 19.89612898 -150.5 36.5 C-151.33039795 36.84329346 -152.1607959 37.18658691 -153.01635742 37.5402832 C-160.24438211 40.72640298 -167.73209493 45.14589185 -172 52 C-172 56.03209819 -171.55600682 58.25865758 -169.125 61.5 C-168.11236337 62.36837834 -167.06544929 63.19729725 -166 64 C-165.32710937 64.52207031 -164.65421875 65.04414063 -163.9609375 65.58203125 C-137.42902156 84.23860071 -98.97343519 88.28462869 -67.6875 92.1875 C-65.8614624 92.41977295 -65.8614624 92.41977295 -63.99853516 92.65673828 C-40.69665302 95.40888192 -17.34384528 96.33719776 6.10449219 96.26074219 C9.99950711 96.25000136 13.89406111 96.26073747 17.7890625 96.2734375 C41.16367209 96.28709063 64.48713082 95.13859924 87.6875 92.1875 C88.35803406 92.10385193 89.02856812 92.02020386 89.71942139 91.934021 C144.66429691 86.2502429 144.66429691 86.2502429 191 59.625 C192.4549323 55.80580271 192.27805639 53.90143529 191 50 C173.32419299 26.52099129 123.98896691 22.27601897 97.81933594 18.52734375 C79.06707665 15.93817985 60.33846099 14.52453831 41.43505859 13.73364258 C40.66904327 13.69878754 39.90302795 13.6639325 39.11380005 13.62802124 C37.68707479 13.56341134 36.26003861 13.50517181 34.83273315 13.45498657 C22.89863696 12.89863696 22.89863696 12.89863696 19 9 C18.69921875 6.94140625 18.69921875 6.94140625 18.6875 4.5625 C18.67074219 3.78003906 18.65398437 2.99757813 18.63671875 2.19140625 C19 0 19 0 20.14453125 -1.72265625 C24.60850852 -4.79575218 30.43955492 -4.0747507 35.6328125 -3.80078125 C36.36974838 -3.76604706 37.10668427 -3.73131287 37.86595154 -3.69552612 C40.28620727 -3.57704204 42.7055459 -3.44631969 45.125 -3.3125 C45.96134979 -3.26743317 46.79769958 -3.22236633 47.65939331 -3.17593384 C171.63240542 3.63774011 171.63240542 3.63774011 203.375 38.5 C208.2716671 44.66163943 209.57060743 50.29610177 209.34765625 58.0703125 C208.83356124 62.40257381 207.45823982 65.43710812 205 69 C204.45085937 69.85464844 204.45085937 69.85464844 203.890625 70.7265625 C184.5456799 96.87806236 134.92520084 102.62690296 105.78897095 107.00064087 C90.25920872 109.2807855 74.65256261 110.84730349 59 112 C57.71939697 112.09643799 56.43879395 112.19287598 55.11938477 112.29223633 C40.37044282 113.30473614 25.58873003 113.20029252 10.8125 113.1875 C10.12265518 113.18723312 9.43281036 113.18696625 8.72206116 113.18669128 C-11.57831811 113.17682966 -31.78359774 113.08286816 -52 111 C-53.36050766 110.86435371 -54.7210223 110.72877744 -56.08154297 110.59326172 C-153.71852509 100.71992938 -153.71852509 100.71992938 -182 73 C-188.15669679 65.2727173 -190.04936641 58.89057999 -189 49 C-185.0861542 36.57397836 -175.08682693 29.79286707 -164 24 C-120.04379254 2.08481069 -66.5546595 -1.41078384 -18.1875 -3.8125 C-17.22811523 -3.86559326 -16.26873047 -3.91868652 -15.28027344 -3.97338867 C-9.51707076 -4.20747275 -4.33082513 -4.33082513 0 0 Z " fill="#000000" transform="translate(246,272)"/>
<path d="M0 0 C2.1334108 3.35250269 2.5616783 4.85394414 1.75 8.75 C0.0625 11.6875 0.0625 11.6875 -3.25 13.75 C-6.40518657 13.85178021 -9.38480861 13.52425999 -12.51953125 13.15234375 C-16.44234583 12.72925485 -20.31009834 12.61268929 -24.25 12.625 C-24.91974854 12.6245166 -25.58949707 12.6240332 -26.27954102 12.62353516 C-31.75861837 12.65934179 -37.14512502 13.14164642 -42.578125 13.82421875 C-45.83184348 13.73383768 -46.9890481 13.05253262 -49.25 10.75 C-50.3034289 6.95765594 -50.57520706 4.66464485 -49.25 0.9375 C-40.9016755 -8.19347992 -9.52611924 -6.59500563 0 0 Z " fill="#000000" transform="translate(272.25,333.25)"/>
<path d="M0 0 C1.1240625 -0.00773437 2.248125 -0.01546875 3.40625 -0.0234375 C18.60165545 0.01206578 18.60165545 0.01206578 24.5625 3.9375 C26.62040534 7.24804337 26.54592458 9.42852791 26 13.25 C24.06131995 15.97851266 22.72894453 17.00701849 19.5625 18.0625 C17 18.25 17 18.25 14.66943359 17.77001953 C11.95182214 17.2406147 9.49219215 17.12068135 6.7265625 17.1171875 C5.7365625 17.11589844 4.7465625 17.11460937 3.7265625 17.11328125 C2.70304687 17.11714844 1.67953125 17.12101562 0.625 17.125 C-0.39078125 17.12113281 -1.4065625 17.11726563 -2.453125 17.11328125 C-6.70151179 17.11879864 -10.85174307 17.13562641 -15.0546875 17.796875 C-18.50444684 18.32760721 -20.03091518 18.06444072 -23 16.25 C-25.41957143 13.34651429 -26.02693963 11.92349069 -25.875 8.125 C-24.95618362 5.10603189 -24.37096828 4.20796976 -22 2.25 C-15.10701971 -0.50644612 -7.28246113 -0.05010868 0 0 Z " fill="#000000" transform="translate(374,313.75)"/>
<path d="M0 0 C1.51142987 3.64117197 2.25797987 5.94462782 1.3125 9.8125 C0 12 0 12 -3 14 C-5.57421875 13.9765625 -5.57421875 13.9765625 -8.6875 13.625 C-13.80079224 13.14722853 -18.86563501 12.8768549 -24 12.875 C-24.6703125 12.87282471 -25.340625 12.87064941 -26.03125 12.8684082 C-30.4715028 12.89148979 -34.78226329 13.2898448 -39.1875 13.8125 C-44.5527666 14.27846608 -44.5527666 14.27846608 -48.3125 11.9375 C-50.30224479 8.47387017 -50.81627653 6.91812733 -50 3 C-47.983347 -0.16902615 -46.19504262 -1.62557918 -42.59375 -2.75390625 C-30.60827239 -5.10819649 -10.69669356 -6.90185771 0 0 Z " fill="#000000" transform="translate(206,307)"/>
<path d="M0 0 C2.9375 1.5 2.9375 1.5 5 4 C5.71221426 6.82569562 5.71221426 9.17430438 5 12 C2.277607 15.2998703 0.67804009 15.91673192 -3.5625 16.4375 C-8.66119501 15.78857518 -8.66119501 15.78857518 -11 13 C-12.10373378 9.02655839 -12.41543583 6.91000228 -10.6875 3.125 C-7.62789962 -0.72783011 -4.73873054 -0.40158733 0 0 Z " fill="#000000" transform="translate(377,223)"/>
<path d="M0 0 C2.4375 1.0625 2.4375 1.0625 4 3 C5 6.375 5 6.375 5 10 C3.23358828 12.80189446 1.96950178 14.51524911 -1 16 C-4.65546065 16.40616229 -6.58917682 16.21434253 -9.875 14.5 C-12.4599138 11.45892495 -12.69344392 9.79963955 -12.41015625 5.90625 C-12 4 -12 4 -10.5 1.5 C-6.95898567 -0.6246086 -4.02831533 -0.66173558 0 0 Z " fill="#000000" transform="translate(406,249)"/>
<path d="M0 0 C2.73183507 0.08798181 4.60363525 0.30468363 7.1875 1.25 C9.22363538 4.17141163 9.06441503 6.66347906 9.05859375 10.15625 C8.52686252 12.80053502 7.74417803 13.68428993 5.625 15.3125 C1.27169578 16.54278163 -1.37019732 16.42614586 -5.375 14.3125 C-7.80020546 11.88729454 -8.06064441 10.69182259 -8.375 7.3125 C-6.85241442 2.27625539 -5.39054842 0.0268632 0 0 Z " fill="#000000" transform="translate(243.375,227.6875)"/>
</svg>
