<?xml version="1.0" encoding="UTF-8"?>
<svg version="1.1" xmlns="http://www.w3.org/2000/svg" width="512" height="512">
<path d="M0 0 C4.66079101 3.17878834 8.01747846 7.3775191 11.54296875 11.734375 C12.60257812 13.00474609 12.60257812 13.00474609 13.68359375 14.30078125 C15.99615529 17.09166038 18.27210794 19.90946789 20.54296875 22.734375 C21.46870045 23.87894633 22.39448404 25.02347569 23.3203125 26.16796875 C31.35926756 36.13477566 39.13270162 46.29598751 46.87792969 56.49169922 C53.42707478 65.10374833 60.18681494 73.52248331 67.04150391 81.89208984 C68.38971664 83.54633591 69.72545628 85.20940048 71.0546875 86.87890625 C72.5045193 88.68803319 73.97481123 90.48102738 75.46875 92.25390625 C76.8565585 93.91352659 78.1883256 95.62157637 79.4609375 97.37109375 C82.11295101 100.63866165 84.31557609 103.30936015 88.61572266 104.12988281 C91.81237958 104.41358191 94.95229668 104.51472417 98.15991211 104.39892578 C102.21171378 104.30060009 103.96616197 104.30965752 107.328125 106.78515625 C109.82970998 110.11619093 111.80409001 113.48869939 113.73046875 117.171875 C122.14910469 132.66123923 133.72567604 150.85617986 148.54296875 160.734375 C149.54748042 164.03491334 149.89495371 165.89841072 148.54296875 169.109375 C146.54296875 170.734375 146.54296875 170.734375 143.44140625 171.1640625 C138.2538832 170.59229142 135.34110106 168.47448552 131.16796875 165.484375 C130.39283936 164.94804443 129.61770996 164.41171387 128.8190918 163.85913086 C126.38210308 162.16682553 123.96212004 160.45205511 121.54296875 158.734375 C119.97467281 157.63569817 118.40567705 156.53801952 116.8359375 155.44140625 C112.7232366 152.55996333 108.62881054 149.65374236 104.54296875 146.734375 C103.53242432 146.01290283 103.53242432 146.01290283 102.50146484 145.27685547 C100.84835476 144.09641794 99.19562105 142.91545336 97.54296875 141.734375 C98.20296875 142.394375 98.86296875 143.054375 99.54296875 143.734375 C99.8731254 146.83784754 100.04828169 148.89218676 98.41796875 151.609375 C95.5704186 153.31790509 93.80469536 153.25625126 90.54296875 152.734375 C88.56139877 151.11783107 87.16764044 149.66937723 85.54296875 147.734375 C84.9809375 147.1259375 84.41890625 146.5175 83.83984375 145.890625 C79.27612228 140.91876584 75.09127074 135.69239762 70.95361328 130.36791992 C67.98728555 126.55500528 64.96841994 122.79374169 61.89916992 119.06323242 C53.78668715 109.19483303 46.12399601 99.01449186 38.54296875 88.734375 C37.97545898 87.96834961 37.40794922 87.20232422 36.82324219 86.41308594 C24.30025572 69.47800793 12.99477823 51.92873194 2.61230469 33.60595703 C1.29123412 31.29378192 -0.07303769 29.00937096 -1.45703125 26.734375 C-4.30954721 28.49697552 -4.30954721 28.49697552 -6.45703125 31.734375 C-6.21612203 40.03034674 -2.90914182 48.56814386 -0.45703125 56.421875 C-0.26239288 57.04733215 -0.06775452 57.67278931 0.13278198 58.31719971 C11.06334121 94.56555211 11.06334121 94.56555211 34.04296875 123.484375 C36.54296875 125.734375 36.54296875 125.734375 37.10546875 128.859375 C36.54296875 131.734375 36.54296875 131.734375 35.48046875 133.609375 C32.07618248 135.58605735 28.29940136 135.11599546 24.52709961 134.29638672 C22.33966488 133.67184596 20.19372887 132.97545213 18.04296875 132.234375 C16.86927734 131.83387939 16.86927734 131.83387939 15.671875 131.42529297 C4.51505931 127.46751658 -5.46321502 122.11685076 -14.50390625 114.3984375 C-16.55862286 112.58187268 -16.55862286 112.58187268 -19.45703125 110.734375 C-19.86953125 111.40082031 -20.28203125 112.06726563 -20.70703125 112.75390625 C-25.01590129 119.63078589 -29.61064731 126.22637371 -34.45703125 132.734375 C-33.46703125 133.064375 -32.47703125 133.394375 -31.45703125 133.734375 C-30.57850715 139.97684558 -30.49772259 145.43989328 -31.33203125 151.671875 C-31.42572998 152.45312744 -31.51942871 153.23437988 -31.6159668 154.03930664 C-32.01614848 157.37046463 -32.45125897 160.69362949 -32.921875 164.015625 C-33.03660156 164.8921875 -33.15132812 165.76875 -33.26953125 166.671875 C-33.37910156 167.40277344 -33.48867188 168.13367188 -33.6015625 168.88671875 C-33.60656353 170.82302758 -33.60656353 170.82302758 -32.28125 172.42578125 C-29.93739614 174.10713252 -28.33546515 174.53245501 -25.45703125 174.734375 C-19.48593197 172.80480755 -14.53323094 169.37450994 -10.22265625 164.87109375 C-7.39604155 163.0513042 -5.77069807 163.19585501 -2.45703125 163.734375 C0.420914 165.41004847 2.91865387 167.49044816 5.48046875 169.609375 C6.99338212 170.81071451 8.50905772 172.00858283 10.02734375 173.203125 C10.78466797 173.80125 11.54199219 174.399375 12.32226562 175.015625 C23.06146453 183.32740604 34.52653236 189.65903021 46.87890625 195.2421875 C49.54296875 196.734375 49.54296875 196.734375 50.60546875 199.671875 C50.53154584 203.29409735 50.1243167 204.24452711 47.54296875 206.734375 C44.52333069 207.31632996 44.52333069 207.31632996 40.76196289 207.42651367 C40.07498322 207.45119217 39.38800354 207.47587067 38.6802063 207.501297 C36.39612075 207.57523187 34.11311844 207.61699315 31.828125 207.65234375 C30.64351087 207.67492469 30.64351087 207.67492469 29.43496513 207.69796181 C25.22708678 207.7757115 21.01974019 207.82769131 16.8112793 207.86010742 C13.38282695 207.89066132 9.96041436 207.96595884 6.53393555 208.08569336 C-16.60207949 208.87715962 -33.00398252 206.7390842 -52.52809143 193.69075012 C-56.41293874 191.09587993 -60.40520966 188.69451448 -64.40281677 186.27857971 C-80.79187195 176.21543663 -96.16131826 164.58151205 -110.45703125 151.734375 C-111.03211426 151.22100586 -111.60719727 150.70763672 -112.19970703 150.17871094 C-118.6833665 144.37271701 -125.00332375 138.54227623 -130.45703125 131.734375 C-131.60751953 130.34025391 -131.60751953 130.34025391 -132.78125 128.91796875 C-139.76762609 120.28169355 -148.03503858 109.74247471 -150.45703125 98.734375 C-151.11703125 98.734375 -151.77703125 98.734375 -152.45703125 98.734375 C-145.53332662 123.76623022 -132.49345867 144.55321261 -114.4609375 163.19140625 C-112.35954625 165.85808403 -111.69453667 167.38102469 -111.45703125 170.734375 C-112.43433344 173.44075029 -112.8621557 174.43693722 -115.45703125 175.734375 C-118.01510887 175.64527342 -120.53329135 175.50143254 -123.08203125 175.296875 C-123.7884375 175.24466797 -124.49484375 175.19246094 -125.22265625 175.13867188 C-126.96783112 175.00896293 -128.7124885 174.87232546 -130.45703125 174.734375 C-122.95265746 184.60855104 -113.70521749 188.8727397 -101.64453125 190.984375 C-93.34028314 192.74508583 -87.28377096 195.6313962 -82.39453125 202.734375 C-80.49763326 206.16716963 -79.7210744 208.77860695 -80.45703125 212.734375 C-81.55004883 214.37695312 -81.55004883 214.37695312 -83.45703125 215.734375 C-86.6081543 216.11914062 -86.6081543 216.11914062 -90.46875 216.140625 C-91.15580521 216.15146118 -91.84286041 216.16229736 -92.55073547 216.17346191 C-94.74876225 216.20771194 -96.94627297 216.22329822 -99.14453125 216.234375 C-111.63459935 216.12210301 -111.63459935 216.12210301 -123.45703125 219.734375 C-126.39453125 220.421875 -126.39453125 220.421875 -129.45703125 220.734375 C-130.07707031 220.79882812 -130.69710937 220.86328125 -131.3359375 220.9296875 C-151.58523095 222.04843299 -172.68075339 208.6951208 -187.33203125 195.734375 C-191.28218462 192.08406825 -191.28218462 192.08406825 -192.45703125 189.734375 C-199.93619476 188.74819423 -199.93619476 188.74819423 -206.765625 191.26953125 C-208.18720061 192.66423398 -209.59403841 194.07406709 -210.98828125 195.49609375 C-220.61809262 204.22691956 -233.17597015 207.10162712 -245.83203125 206.609375 C-252.88875833 205.99543252 -260.04380701 204.8761567 -266.45703125 201.734375 C-268.22230812 199.46334388 -268.45477815 198.19626017 -268.46875 195.33203125 C-267.01245896 191.5929056 -264.31901793 189.61113933 -261.26953125 187.171875 C-259.99200824 186.11349759 -258.71466981 185.05489735 -257.4375 183.99609375 C-256.77927246 183.45774902 -256.12104492 182.9194043 -255.44287109 182.36474609 C-252.28993567 179.77619154 -249.18291492 177.13490532 -246.08203125 174.484375 C-245.20067505 173.73269043 -245.20067505 173.73269043 -244.30151367 172.96582031 C-240.48591937 169.68710716 -236.87103163 166.27963375 -233.37963867 162.65405273 C-231.55239898 160.82959741 -229.66490762 159.16036766 -227.6953125 157.4921875 C-223.52789665 153.87137306 -219.75735041 149.97927917 -216.01953125 145.921875 C-215.36484863 145.21538818 -214.71016602 144.50890137 -214.03564453 143.78100586 C-212.7449793 142.38605897 -211.45616428 140.98939733 -210.16943359 139.59082031 C-208.77115473 138.07492176 -207.36005203 136.57086049 -205.9453125 135.0703125 C-193.91289182 122.12600782 -182.95448903 107.27404399 -174.09033203 91.99780273 C-168.72773288 82.7663228 -162.76949052 72.85935871 -152.45703125 68.734375 C-142.74506226 67.61988676 -134.29035496 71.17807186 -126.28515625 76.484375 C-121.05896013 80.64223268 -116.76746479 85.65690107 -112.45703125 90.734375 C-112.03035156 90.198125 -111.60367188 89.661875 -111.1640625 89.109375 C-107.95879638 85.09122696 -104.74633975 81.08092667 -101.48828125 77.10546875 C-91.31362313 64.68109809 -81.39506393 52.06294253 -72.140625 38.93359375 C-70.37544903 36.62780704 -68.674924 34.61438565 -66.45703125 32.734375 C-62.99475024 32.92322669 -60.17626973 33.44667961 -56.95703125 34.734375 C-54.4479183 34.99269097 -54.4479183 34.99269097 -52.875 33.484375 C-51.67110623 32.26689327 -50.4943264 31.02224588 -49.33984375 29.7578125 C-47.50244936 27.78318533 -45.58787393 26.08704947 -43.51953125 24.359375 C-37.53091894 19.18003463 -32.54473711 13.21646454 -27.76953125 6.921875 C-20.11254755 -3.04435776 -11.42212125 -6.15170222 0 0 Z " fill="#000000" transform="translate(315.45703125,147.265625)"/>
</svg>
