<?xml version="1.0" encoding="UTF-8"?>
<svg version="1.1" xmlns="http://www.w3.org/2000/svg" width="512" height="512">
<path d="M0 0 C0.91899582 -0.00671722 1.83799164 -0.01343445 2.78483582 -0.02035522 C5.82877989 -0.03938354 8.87250403 -0.04326189 11.91650391 -0.04541016 C14.03016247 -0.05183484 16.14382013 -0.05856295 18.25747681 -0.06558228 C22.69104067 -0.07756722 27.12452654 -0.08126186 31.55810547 -0.08007812 C37.24009657 -0.0798749 42.92158772 -0.10717601 48.60346031 -0.14162254 C52.97006529 -0.16385722 57.33654931 -0.16791671 61.70320511 -0.16685867 C63.79798734 -0.16921985 65.89277266 -0.17807231 67.98749924 -0.19352341 C70.9178037 -0.21311321 73.8470219 -0.20737269 76.77734375 -0.1953125 C78.07578972 -0.21217102 78.07578972 -0.21217102 79.40046692 -0.22937012 C83.36955195 -0.18784712 85.50586885 -0.01832435 88.97061157 2.07089233 C92.76546936 6.18487769 93.46853087 9.35290727 93.33236694 14.83041382 C92.77003021 19.23197234 90.94018755 22.96446433 89.03759766 26.93505859 C88.42279793 28.27161751 88.42279793 28.27161751 87.795578 29.63517761 C86.48976267 32.4654735 85.16106539 35.28426365 83.83056641 38.10302734 C82.52594646 40.90734381 81.22612921 43.71385298 79.92648315 46.52047729 C79.09146943 48.32218348 78.25436927 50.12292432 77.41506958 51.92263794 C74.44133121 58.31219663 71.62621311 64.74167252 69.01806641 71.29052734 C70.0416626 71.30510986 71.06525879 71.31969238 72.11987305 71.3347168 C75.94264451 71.3929924 79.76484485 71.47022156 83.5871582 71.55297852 C85.236803 71.58609094 86.88655737 71.61416491 88.53637695 71.63696289 C90.91746408 71.67076268 93.29755947 71.72308739 95.67822266 71.77880859 C96.77240257 71.78839348 96.77240257 71.78839348 97.88868713 71.798172 C103.9733484 71.97018166 108.70228249 73.33101788 113.45556641 77.35302734 C115.81349018 81.78592405 115.98697527 85.39642868 115.01806641 90.29052734 C113.89663887 92.06505108 113.89663887 92.06505108 112.32302856 93.75773621 C111.68341312 94.44811163 111.04379768 95.13848705 110.38479996 95.84978294 C105.11896238 101.28029014 99.80113998 106.65505169 94.45117188 112.00268555 C93.07876069 113.37809282 91.70655345 114.75370361 90.33453369 116.12950134 C86.62641315 119.84641498 82.91509327 123.56011774 79.20289373 127.27295709 C76.88241441 129.59414896 74.5626493 131.91605215 72.24313736 134.23821068 C64.1480147 142.34256741 56.05033048 150.4443544 47.95019531 158.54370117 C40.40258328 166.09071119 32.86058057 173.64329493 25.32115638 181.19848377 C18.84048023 187.69222705 12.35596311 194.1821177 5.86843026 200.66901082 C1.9966863 204.54049978 -1.87348782 208.41352684 -5.73981094 212.29043007 C-9.37154594 215.93183342 -13.00803378 219.56842172 -16.64824677 223.20134926 C-17.98310066 224.53515613 -19.31624744 225.87067397 -20.6475563 227.20801926 C-22.46472434 229.03289247 -24.28794728 230.85149508 -26.11282349 232.6686554 C-26.6382172 233.19919267 -27.16361092 233.72972995 -27.70492566 234.27634412 C-32.00487303 238.53620629 -35.70664624 241.7120087 -41.91943359 241.79052734 C-45.3419847 241.66811121 -47.6900558 241.32098392 -50.48193359 239.29052734 C-53.37653505 235.8170056 -54.4931726 232.71908267 -54.98193359 228.29052734 C-54.48396367 225.4676074 -53.92603937 223.169039 -53.0065918 220.50170898 C-52.77382443 219.77318505 -52.54105707 219.04466112 -52.30123615 218.29406071 C-51.54767202 215.95266477 -50.76559165 213.62200212 -49.98193359 211.29052734 C-49.47928029 209.74688261 -48.97833506 208.20268063 -48.47909546 206.65792847 C-46.87864887 201.73231621 -45.23438029 196.82183054 -43.58740234 191.91162109 C-42.98893669 190.11996669 -42.39074142 188.32822195 -41.7928009 186.53639221 C-40.23869017 181.88159867 -38.68097652 177.22801911 -37.12243652 172.57470703 C-35.52454026 167.80169041 -33.93015499 163.0275013 -32.33544922 158.25341797 C-29.22099153 148.93132184 -26.10271565 139.61050799 -22.98193359 130.29052734 C-23.64725098 130.31147461 -24.31256836 130.33242188 -24.99804688 130.35400391 C-28.03418661 130.43753343 -31.07008402 130.48930338 -34.10693359 130.54052734 C-35.15365234 130.57404297 -36.20037109 130.60755859 -37.27880859 130.64208984 C-43.51399065 130.7210162 -47.29297462 130.56439815 -51.98193359 126.29052734 C-54.36883966 122.71016824 -54.72122921 120.57396105 -54.98193359 116.29052734 C-54.34223796 113.57045715 -53.6352884 111.17575813 -52.67724609 108.57568359 C-52.40913116 107.81151627 -52.14101624 107.04734894 -51.86477661 106.26002502 C-50.922379 103.59649701 -49.95383386 100.94342713 -48.98193359 98.29052734 C-48.61660522 97.28318542 -48.25127686 96.27584351 -47.87487793 95.23797607 C-44.9056874 87.05430575 -41.88486967 78.89010655 -38.85693359 70.72802734 C-37.2115907 66.28673203 -35.5681096 61.84474776 -33.92531395 57.40250969 C-33.23184973 55.52742535 -32.53808299 53.65245289 -31.84431458 51.77748108 C-29.22070507 44.67703866 -26.62691998 37.5671182 -24.07958984 30.43896484 C-23.79950073 29.65741531 -23.51941162 28.87586578 -23.23083496 28.07063293 C-21.98870273 24.60296693 -20.75420383 21.13297539 -19.53417969 17.6574707 C-15.47613074 6.30627941 -13.07715633 -0.0136289 0 0 Z M5.01806641 25.29052734 C-1.61374785 43.34095817 -1.61374785 43.34095817 -8.24365234 61.39208984 C-10.75784126 68.23834969 -13.27306404 75.08422074 -15.79380798 81.92807007 C-16.83188313 84.74673257 -17.86885524 87.56580002 -18.90560913 90.38494873 C-19.59700661 92.26355459 -20.29006843 94.14154764 -20.9831543 96.01953125 C-21.38751709 97.11958496 -21.79187988 98.21963867 -22.20849609 99.35302734 C-22.72790771 100.76261719 -22.72790771 100.76261719 -23.2578125 102.20068359 C-24.03650004 104.07938489 -24.03650004 104.07938489 -23.98193359 105.29052734 C-22.93066284 105.3045459 -22.93066284 105.3045459 -21.8581543 105.31884766 C-18.66954334 105.37267278 -15.48238026 105.4562967 -12.29443359 105.54052734 C-11.19164062 105.55470703 -10.08884766 105.56888672 -8.95263672 105.58349609 C-0.74880404 105.83134602 -0.74880404 105.83134602 3.20166016 108.19677734 C6.31489155 111.78536235 7.10762941 113.99118191 6.77758789 118.77929688 C6.03492937 124.14308547 4.25737679 129.12040125 2.49072266 134.22021484 C2.14174423 135.25058868 1.79276581 136.28096252 1.43321228 137.34255981 C0.32287559 140.61938858 -0.79723314 143.89274417 -1.91943359 147.16552734 C-3.03756974 150.43132512 -4.1532799 153.69784977 -5.2613678 156.96707153 C-5.94877679 158.99488602 -6.64182352 161.02080156 -7.34153748 163.04440308 C-9.38611701 169.07208793 -10.87012549 175.02615775 -11.98193359 181.29052734 C-6.809934 176.9625629 -1.97088345 172.42292845 2.78930664 167.64868164 C3.53160019 166.90814041 4.27389374 166.16759918 5.03868103 165.40461731 C7.47051451 162.97715514 9.89870775 160.54608964 12.32666016 158.11474609 C14.0204481 156.42163211 15.71438444 154.72866657 17.40846252 153.0358429 C20.9462178 149.49955781 24.48216785 145.96148017 28.0168457 142.42211914 C32.55885959 137.87438213 37.10538304 133.33118406 41.65324306 128.78929424 C45.14558647 125.30055245 48.63555941 121.80944724 52.12480354 118.31760597 C53.80149898 116.64024151 55.4789429 114.96362492 57.1571331 113.28775597 C59.49137162 110.95604022 61.82240921 108.62117231 64.15258789 106.28540039 C64.8522467 105.58776581 65.55190552 104.89013123 66.27276611 104.1713562 C67.2168055 103.22308708 67.2168055 103.22308708 68.17991638 102.25566101 C68.73127479 101.70392558 69.28263319 101.15219015 69.85069942 100.58373547 C71.12974432 99.45717119 71.12974432 99.45717119 71.01806641 98.29052734 C70.29216309 98.27594482 69.56625977 98.2613623 68.81835938 98.24633789 C65.50940909 98.17157876 62.20143688 98.07500944 58.89306641 97.97802734 C57.75095703 97.95546875 56.60884766 97.93291016 55.43212891 97.90966797 C48.67593667 97.69362694 43.23233072 97.50479166 38.20556641 92.47802734 C36.29071079 88.95066174 35.48671345 86.25280862 36.56835938 82.25830078 C40.18422479 72.30413047 44.6879322 62.73139672 49.08056641 53.10302734 C50.30862619 50.40690319 51.53542417 47.71022947 52.75914001 45.01213074 C53.51557624 43.34467742 54.2744967 41.67834789 55.03639221 40.01338196 C55.38362839 39.24866074 55.73086456 38.48393951 56.08862305 37.69604492 C56.38966446 37.03639236 56.69070587 36.37673981 57.00086975 35.69709778 C58.44851606 32.27213292 59.71246951 28.77211906 61.01806641 25.29052734 C42.53806641 25.29052734 24.05806641 25.29052734 5.01806641 25.29052734 Z " fill="#000000" transform="translate(223.98193359375,270.70947265625)"/>
<path d="M0 0 C0.94617188 0.90492188 1.89234375 1.80984375 2.8671875 2.7421875 C3.54523438 3.37898438 4.22328125 4.01578125 4.921875 4.671875 C41.37458022 39.78070169 61.19659155 92.56370558 62.2421875 142.4921875 C62.26837158 143.23122314 62.29455566 143.97025879 62.3215332 144.73168945 C62.33758042 149.89235578 61.15490099 152.79929233 57.8671875 156.7421875 C52.94529509 159.83043372 49.55252614 159.9679503 44.078125 158.87109375 C40.58907704 157.08958339 38.52069702 155.25589522 36.8671875 151.7421875 C36.07231033 147.38474846 35.78980233 143.03031977 35.55239868 138.61535645 C33.20639564 96.82954753 17.77306913 57.33518284 -11.1328125 26.7421875 C-12.28345277 25.39210292 -13.4294821 24.03807161 -14.5703125 22.6796875 C-41.81961407 -8.26861428 -84.71249132 -26.42538561 -125.1328125 -30.2578125 C-130.71326402 -30.58612381 -136.29454225 -30.5989534 -141.8828125 -30.5703125 C-142.99766525 -30.56757828 -142.99766525 -30.56757828 -144.13504028 -30.56478882 C-155.70284308 -30.51715788 -166.83964418 -29.88943154 -178.1328125 -27.2578125 C-178.88949219 -27.09152344 -179.64617187 -26.92523438 -180.42578125 -26.75390625 C-212.77342464 -19.53583706 -240.78906438 -3.47841906 -265.1328125 18.7421875 C-265.95136719 19.48855469 -266.76992188 20.23492187 -267.61328125 21.00390625 C-282.70496657 35.45452883 -294.58210211 53.77671186 -303.1328125 72.7421875 C-303.47054687 73.48533203 -303.80828125 74.22847656 -304.15625 74.99414062 C-313.3377816 95.54903562 -318.37153693 117.48962372 -319.32421875 139.96875 C-319.35668701 140.64728027 -319.38915527 141.32581055 -319.42260742 142.02490234 C-319.50172856 143.85171658 -319.54906603 145.67983172 -319.59375 147.5078125 C-320.25133873 151.45334488 -321.65021336 153.63557158 -324.1328125 156.7421875 C-328.25129334 159.32633234 -331.11378528 160.03893836 -335.8203125 159.1796875 C-339.54220444 158.15252141 -341.80759401 156.93936293 -344.1328125 153.7421875 C-352.95811848 127.26626957 -338.82090699 85.48780558 -327.24804688 61.46948242 C-325.60663539 58.19192039 -323.87788043 54.96541153 -322.1328125 51.7421875 C-321.61098389 50.7529126 -321.61098389 50.7529126 -321.07861328 49.74365234 C-307.16106884 23.37993773 -287.05830267 0.45840773 -263.1328125 -17.2578125 C-262.30523437 -17.88042969 -261.47765625 -18.50304687 -260.625 -19.14453125 C-185.83684722 -73.52439149 -80.49503691 -68.26786862 0 0 Z " fill="#000000" transform="translate(396.1328125,170.2578125)"/>
<path d="M0 0 C0.78761719 0.56589844 1.57523438 1.13179687 2.38671875 1.71484375 C15.60429995 11.69903318 27.15310311 24.0173702 36 38 C36.69351562 39.07121094 37.38703125 40.14242187 38.1015625 41.24609375 C50.24486818 61.14892488 56.99481248 84.78465524 57.375 108.0625 C57.41238281 108.93455078 57.44976562 109.80660156 57.48828125 110.70507812 C57.54677557 114.99791144 57.45113534 118.05807595 54.75 121.5234375 C50.97322445 124.92468139 48.03172119 125.87053891 43 126 C38.78358375 124.89405475 36.70460369 123.81795858 33.86328125 120.51953125 C31.39875313 115.86431146 31.26013498 111.87988393 31 106.6875 C28.69084532 74.54821692 15.12216635 47.58805579 -9 26 C-33.37902047 6.81395966 -63.33698145 -2.81140593 -94.32519531 0.7734375 C-124.9557384 4.70743519 -152.43932151 19.7427711 -171.60546875 44.2265625 C-185.45835973 63.44417029 -193.38759563 85.49048615 -194.4375 109.125 C-194.76559647 114.95645042 -195.14444878 118.53567753 -199 123 C-203.87680963 126.1555827 -207.32609051 126.22347284 -212.7890625 125.12890625 C-216.12290041 123.42664626 -218.28237889 121.27867509 -220 118 C-220.70066489 114.60415546 -220.66316579 111.33119218 -220.5625 107.875 C-220.54662842 106.90941162 -220.53075684 105.94382324 -220.5144043 104.94897461 C-219.39440597 68.73372513 -202.0415001 36.41525383 -177 11 C-128.94973914 -33.08280813 -52.9416822 -39.28955425 0 0 Z " fill="#000000" transform="translate(336,213)"/>
<path d="M0 0 C8.04123611 4.02061806 14.09130005 11.85087419 19.86328125 18.578125 C22.80021216 21.90700464 25.83859156 25.13696603 28.875 28.375 C47.48871947 48.24836861 47.48871947 48.24836861 47.3203125 56.48828125 C46.7582354 60.89578827 44.68258883 63.67796592 41.25 66.375 C36.69513424 67.64024049 32.72083029 67.87261001 28.51953125 65.7421875 C25.9281716 63.95033261 23.82935602 62.06062482 21.625 59.8125 C20.91601562 59.09707031 20.20703125 58.38164062 19.4765625 57.64453125 C17.49274271 55.52616217 15.574748 53.38123314 13.671875 51.19140625 C10.08931973 47.07180485 6.37614547 43.09078867 2.625 39.125 C-6.28698253 29.64740483 -6.28698253 29.64740483 -10.3125 25.25 C-11.32763672 24.14398438 -11.32763672 24.14398438 -12.36328125 23.015625 C-15.69442307 18.91331192 -16.55196029 15.54531595 -16.45703125 10.32421875 C-15.66087987 6.27541474 -13.13756796 3.56501906 -10 1 C-6.38069302 -0.20643566 -3.80768995 -0.32268559 0 0 Z " fill="#000000" transform="translate(51,81)"/>
<path d="M0 0 C4.33729795 2.25205855 7.13397371 4.4386024 9 9 C9.68352277 15.15170497 8.84872839 18.1152131 5 23 C2.72014222 25.61438465 0.33864513 28.12214221 -2.0625 30.625 C-3.41328735 32.0489795 -4.763544 33.47346261 -6.11328125 34.8984375 C-6.77537598 35.59549805 -7.4374707 36.29255859 -8.11962891 37.01074219 C-10.69147733 39.73151873 -13.2257033 42.48516141 -15.75 45.25 C-16.61496094 46.19359375 -17.47992188 47.1371875 -18.37109375 48.109375 C-20.22903729 50.15228468 -22.0745459 52.20292255 -23.91015625 54.265625 C-24.39581055 54.80670898 -24.88146484 55.34779297 -25.38183594 55.90527344 C-26.72406712 57.40142601 -28.05954314 58.90363101 -29.39453125 60.40625 C-32.55774843 63.55523981 -35.71005572 66.42751393 -40.125 67.53125 C-45.13776522 67.44770391 -48.07501674 66.36427137 -52 63 C-53.73064209 60.16696261 -54.31696772 57.93283977 -54.375 54.625 C-54.40335937 53.89539063 -54.43171875 53.16578125 -54.4609375 52.4140625 C-53.25584324 46.10263663 -47.73275177 41.36684687 -43.4375 36.875 C-42.1792411 35.54339042 -40.92143371 34.21135406 -39.6640625 32.87890625 C-39.04305664 32.22293457 -38.42205078 31.56696289 -37.78222656 30.89111328 C-35.26647982 28.22166475 -32.78611537 25.52094368 -30.3125 22.8125 C-29.43980469 21.85988281 -28.56710937 20.90726563 -27.66796875 19.92578125 C-25.78951302 17.86580564 -23.91729626 15.8011816 -22.05078125 13.73046875 C-21.31637817 12.91968872 -21.31637817 12.91968872 -20.56713867 12.0925293 C-19.21135193 10.59535697 -17.85944824 9.09467088 -16.5078125 7.59375 C-11.18680666 2.0904044 -7.79862106 -0.64988509 0 0 Z " fill="#000000" transform="translate(468,81)"/>
<path d="M0 0 C3.59298876 1.37603825 4.65363879 2.41308108 6.60464478 5.71911621 C8.09767708 9.22966708 8.37986159 11.57641528 8.38818359 15.36914062 C8.39764008 16.61062866 8.40709656 17.8521167 8.4168396 19.13122559 C8.41146936 20.47290367 8.40531628 21.81457881 8.3984375 23.15625 C8.40046096 24.54577792 8.40337467 25.9353048 8.40713501 27.3248291 C8.41154559 30.22983969 8.40516856 33.1345726 8.39111328 36.03955078 C8.37402173 39.75177365 8.38386978 43.46334571 8.40183067 47.17554474 C8.41270305 50.0427129 8.40920645 52.90972833 8.4014473 55.77690125 C8.39945481 57.14515766 8.40187096 58.51342821 8.40888596 59.88166809 C8.41655657 61.79806226 8.40278057 63.71450545 8.38818359 65.63085938 C8.38579681 66.71862671 8.38341003 67.80639404 8.38095093 68.92712402 C7.82309932 73.4269393 6.30380746 76.81472049 2.9375 79.875 C-1.41393427 81.54150674 -5.40697793 81.80708056 -10 81 C-13.11886578 79.30904867 -15.39018854 77.21962291 -17 74 C-17.11733162 71.90822591 -17.1697988 69.81270857 -17.19287109 67.71777344 C-17.20104858 67.07362991 -17.20922607 66.42948639 -17.21765137 65.76582336 C-17.24249777 63.63035001 -17.25902122 61.4949432 -17.2734375 59.359375 C-17.27876118 58.62951637 -17.28408485 57.89965775 -17.28956985 57.14768219 C-17.316301 53.28287303 -17.33567402 49.41809613 -17.35009766 45.55322266 C-17.36342724 42.35794382 -17.39126008 39.16330509 -17.43212891 35.96826172 C-17.48150716 32.10794227 -17.5062251 28.24820265 -17.51332474 24.38758087 C-17.52002852 22.91878177 -17.53522817 21.44999516 -17.55921555 19.98137665 C-17.75843086 7.04399395 -17.75843086 7.04399395 -14.59228516 3.11425781 C-9.91093383 -0.70383434 -5.8805722 -0.50086893 0 0 Z " fill="#000000" transform="translate(266,0)"/>
</svg>
