<?xml version="1.0" encoding="UTF-8"?>
<svg version="1.1" xmlns="http://www.w3.org/2000/svg" width="512" height="512">
<path d="M0 0 C1.10988281 -0.02578125 2.21976563 -0.0515625 3.36328125 -0.078125 C10.51676163 0.62797647 14.80065125 4.85739783 19.75 9.625 C20.39976807 10.24060791 21.04953613 10.85621582 21.71899414 11.49047852 C26.64442666 16.18110992 31.4563203 20.98188036 36.23754883 25.81884766 C40.22085397 29.83403924 44.36181913 33.60476331 48.6875 37.25 C49.0175 37.58 49.3475 37.91 49.6875 38.25 C49.81705078 37.18072266 49.81705078 37.18072266 49.94921875 36.08984375 C50.85342484 29.92631052 51.88085397 24.5433149 56.6875 20.25 C61.49506854 17.33061415 65.61299049 16.79502901 71.12109375 16.81640625 C71.91725601 16.8111644 72.71341827 16.80592255 73.53370667 16.80052185 C75.2103662 16.79412509 76.88707075 16.79540815 78.5637207 16.80395508 C81.11426536 16.81246419 83.66256682 16.78367541 86.21289062 16.75195312 C87.84895767 16.7503407 89.48502864 16.75091943 91.12109375 16.75390625 C92.25266151 16.73705528 92.25266151 16.73705528 93.40708923 16.71986389 C98.92131587 16.79162229 102.14321614 18.09633614 106.6875 21.25 C110.66582421 26.37994437 111.80479088 30.06443663 111.89282227 36.46557617 C111.91276749 37.7466777 111.93271271 39.02777924 111.95326233 40.34770203 C111.9702454 41.74612304 111.98712425 43.14454531 112.00390625 44.54296875 C112.02448166 45.9735829 112.04547829 47.40419105 112.06687927 48.83479309 C112.12203933 52.59780006 112.17147529 56.36086135 112.21972656 60.1239624 C112.26998593 63.96485216 112.32564883 67.80566316 112.38085938 71.64648438 C112.48836673 79.18092287 112.58982811 86.71542691 112.6875 94.25 C113.28502579 94.16081802 113.88255157 94.07163605 114.4981842 93.97975159 C118.83937958 93.40057163 122.05959007 92.97812481 126.18359375 94.71484375 C128.41008259 95.39323971 128.41008259 95.39323971 130.6875 95.25 C134.30838978 93.00381563 136.94047173 89.9856428 139.75 86.8125 C141.25932404 85.18657582 142.77102188 83.56285178 144.28515625 81.94140625 C145.02137207 81.14105957 145.75758789 80.34071289 146.51611328 79.51611328 C149.10772445 76.8114433 151.87015203 74.39765783 154.72045898 71.97241211 C158.2175902 68.9101978 161.43414354 65.56689858 164.6875 62.25 C169.20725312 57.64197045 173.79682227 53.23982203 178.6875 49.02734375 C182.17721278 45.92613415 185.4196662 42.58165868 188.6875 39.25 C192.5815218 35.27992309 196.47441027 31.37911619 200.69140625 27.75 C204.89619611 24.12918022 208.75066633 20.21794174 212.625 16.25 C228.51923154 0.16767105 228.51923154 0.16767105 238.9375 -0.0625 C240.03578125 -0.09988281 241.1340625 -0.13726562 242.265625 -0.17578125 C249.95152418 0.78056922 254.96424654 6.0238737 260.3125 11.1875 C261.00400146 11.84484131 261.69550293 12.50218262 262.40795898 13.17944336 C267.47338408 18.01697374 272.43303542 22.95672577 277.35668945 27.93798828 C280.9807271 31.59144275 284.69795286 35.00269419 288.6875 38.25 C288.81705078 37.18072266 288.81705078 37.18072266 288.94921875 36.08984375 C289.85342484 29.92631052 290.88085397 24.5433149 295.6875 20.25 C300.49506854 17.33061415 304.61299049 16.79502901 310.12109375 16.81640625 C311.31533714 16.80854347 311.31533714 16.80854347 312.53370667 16.80052185 C314.2103662 16.79412509 315.88707075 16.79540815 317.5637207 16.80395508 C320.11426536 16.81246419 322.66256682 16.78367541 325.21289062 16.75195312 C326.84895767 16.7503407 328.48502864 16.75091943 330.12109375 16.75390625 C331.25266151 16.73705528 331.25266151 16.73705528 332.40708923 16.71986389 C337.92131587 16.79162229 341.14321614 18.09633614 345.6875 21.25 C349.78935487 26.53923391 350.81505226 30.18320175 350.73413086 36.78173828 C350.72135661 38.14754955 350.70891604 39.51336398 350.69676208 40.87918091 C350.68884581 41.6023563 350.68092953 42.32553169 350.67277336 43.07062149 C350.63055092 47.72012053 350.64250155 52.36987927 350.64266109 57.01953316 C350.63966806 61.09894846 350.61907597 65.17683284 350.56079102 69.25585938 C350.5053669 73.20879039 350.49924168 77.15916176 350.52548409 81.11236191 C350.52671256 82.61220193 350.51040073 84.1121706 350.47556877 85.6116066 C350.2075136 94.38495759 350.2075136 94.38495759 353.87626648 102.12649536 C356.37751397 104.39091754 358.91655531 106.3317196 361.6875 108.25 C362.80253638 109.238103 363.89917184 110.24791071 364.96484375 111.2890625 C366.75026839 113.02467353 368.54204119 114.75377616 370.33984375 116.4765625 C375.56447295 122.6487534 376.1781103 128.42433532 375.97265625 136.22265625 C375.37787074 142.53715992 372.4311825 146.24422367 367.6875 150.25 C363.4141956 153.12068808 360.20697907 154.34570809 355.03417969 154.29370117 C354.22100281 154.28739182 353.40782593 154.28108246 352.57000732 154.27458191 C351.94877991 154.26646988 351.32755249 154.25835785 350.6875 154.25 C350.69026538 154.83438308 350.69303076 155.41876616 350.69587994 156.02085781 C350.76226066 170.26924053 350.81183922 184.51759994 350.84293652 198.7661047 C350.85837637 205.65670783 350.87941038 212.54720746 350.91381836 219.43774414 C350.94702161 226.09021834 350.96436476 232.74261346 350.97213173 239.39517403 C350.97766532 241.93043266 350.98847106 244.46568557 351.00469017 247.00089836 C351.02653689 250.55793739 351.02946382 254.1145353 351.02807617 257.67163086 C351.04425491 259.23609703 351.04425491 259.23609703 351.0607605 260.83216858 C351.02399144 269.56973684 349.61414926 277.13132045 343.4921875 283.6796875 C335.51184171 290.62362475 327.36712549 291.40527379 317.19384766 291.36352539 C316.25662872 291.36367142 315.31940979 291.36381744 314.35379028 291.3639679 C311.26969045 291.3632737 308.18565173 291.35550444 305.1015625 291.34765625 C302.95779453 291.34579032 300.81402612 291.34436724 298.67025757 291.34336853 C293.03801285 291.33955716 287.40579407 291.32973866 281.77355957 291.31866455 C276.02222037 291.30842074 270.27087696 291.30386455 264.51953125 291.29882812 C253.24217613 291.28811515 241.96484022 291.27105531 230.6875 291.25 C230.69638245 292.15709213 230.70526489 293.06418427 230.7144165 293.99876404 C230.7947888 302.57542031 230.8555791 311.15194886 230.89474869 319.72889614 C230.91556369 324.13770642 230.94376894 328.54620376 230.98925781 332.95483398 C231.0329343 337.21479909 231.05668283 341.47446445 231.06700897 345.73463631 C231.07436144 347.35444922 231.08871867 348.97424698 231.11042023 350.5939312 C231.23739512 360.46942952 231.21908114 368.94018668 224.50390625 376.80859375 C223.76011719 377.42863281 223.01632812 378.04867188 222.25 378.6875 C221.50878906 379.32558594 220.76757812 379.96367187 220.00390625 380.62109375 C215.1799057 384.01335046 210.86347279 384.54288595 205.07878113 384.51742554 C204.32061279 384.52195665 203.56244445 384.52648776 202.78130132 384.53115618 C200.24500777 384.54379963 197.70892897 384.54217986 195.17260742 384.54052734 C193.35235824 384.54651265 191.53211159 384.55331821 189.71186829 384.56088257 C184.7696225 384.57855008 179.82744597 384.58323828 174.88517165 384.58451414 C171.79636334 384.58593594 168.70757263 384.59020609 165.61876869 384.59550858 C154.83982857 384.61401173 144.0609379 384.62217888 133.28198242 384.62060547 C123.23961727 384.61940417 113.19746708 384.64050346 103.15515631 384.6720928 C94.52908925 384.69825872 85.90309238 384.70897262 77.27698594 384.70769465 C72.12689903 384.70718509 66.97700313 384.7128652 61.8269558 384.73405075 C56.98170493 384.75343825 52.13682719 384.75355404 47.29156303 384.73901749 C45.51626286 384.73692889 43.7409393 384.74163332 41.96567917 384.7537384 C39.53574044 384.76923047 37.10708198 384.75985767 34.6771698 384.74447632 C33.98016675 384.75476344 33.28316369 384.76505057 32.56503934 384.77564943 C26.06996348 384.68523933 21.01773906 382.31762481 16.2265625 378.06640625 C15.59492188 377.32261719 14.96328125 376.57882812 14.3125 375.8125 C13.66539062 375.07128906 13.01828125 374.33007812 12.3515625 373.56640625 C8.93116681 368.80515122 8.3999876 364.54336691 8.46044922 358.79760742 C8.46015717 358.0653595 8.45986511 357.33311157 8.45956421 356.57867432 C8.4609518 354.17081641 8.47648582 351.76327225 8.4921875 349.35546875 C8.49591967 347.68109811 8.49876568 346.00672529 8.50076294 344.33235168 C8.50838337 339.93468144 8.52801816 335.53714421 8.5501709 331.13952637 C8.57066362 326.64837442 8.57977198 322.15720089 8.58984375 317.66601562 C8.6112656 308.86061618 8.64538228 300.05532466 8.6875 291.25 C6.91010437 291.25666183 6.91010437 291.25666183 5.09680176 291.26345825 C-6.08496473 291.30404979 -17.26671621 291.33400625 -28.44853973 291.35362434 C-34.19684425 291.36404932 -39.94508916 291.37818514 -45.69335938 291.40087891 C-51.24358199 291.42265299 -56.79374736 291.4345783 -62.3440094 291.43975449 C-64.45863241 291.44344203 -66.57325239 291.45064287 -68.68785095 291.46146011 C-71.65590113 291.4760356 -74.62371651 291.4779754 -77.59179688 291.47705078 C-78.46070557 291.48424133 -79.32961426 291.49143188 -80.22485352 291.49884033 C-88.90234501 291.46970189 -96.46789215 289.8501337 -103.3125 284.25 C-110.88524227 276.27516522 -111.61203356 268.48467007 -111.53955078 257.89868164 C-111.53984283 256.77599884 -111.54013489 255.65331604 -111.54043579 254.49661255 C-111.53904706 250.80104737 -111.52350709 247.10568603 -111.5078125 243.41015625 C-111.50408076 240.8418336 -111.50123455 238.27350952 -111.49923706 235.70518494 C-111.49239177 229.64570771 -111.4766431 223.58631408 -111.45653808 217.52686828 C-111.43413726 210.62479191 -111.42317516 203.72271197 -111.41314721 196.82060826 C-111.39227557 182.63036657 -111.35712579 168.44018587 -111.3125 154.25 C-111.92865173 154.25983414 -112.54480347 154.26966827 -113.17962646 154.27980042 C-114.39347015 154.29127357 -114.39347015 154.29127357 -115.63183594 154.30297852 C-116.43361267 154.31281265 -117.2353894 154.32264679 -118.0614624 154.33277893 C-123.39755082 154.13655134 -128.3753464 151.27581052 -132.01953125 147.46484375 C-135.6559447 142.52896267 -136.51858057 138.57213371 -136.6875 132.5625 C-136.73648438 131.38300781 -136.78546875 130.20351562 -136.8359375 128.98828125 C-135.64821775 120.50583501 -129.41772607 114.92708192 -123.5 109.1875 C-122.82646484 108.51912109 -122.15292969 107.85074219 -121.45898438 107.16210938 C-118.16136153 103.91497645 -114.80592114 100.77605105 -111.30078125 97.75390625 C-107.0952006 94.11860872 -103.20336084 90.21685421 -99.3125 86.25 C-94.78271287 81.63174047 -90.18290516 77.2180272 -85.28125 72.99609375 C-81.97511899 70.06387042 -78.90332335 66.90589331 -75.8125 63.75 C-72.09659976 59.95587028 -68.36937536 56.24863434 -64.34375 52.78125 C-60.1201119 49.13933509 -56.21591837 45.22965701 -52.3125 41.25 C-48.41590585 37.2773005 -44.52006295 33.37427341 -40.30078125 29.7421875 C-36.14320661 26.16174386 -32.33041998 22.29906403 -28.5 18.375 C-10.48491112 0.14511988 -10.48491112 0.14511988 0 0 Z M-4.4296875 20.85546875 C-5.03031006 21.42064209 -5.63093262 21.98581543 -6.24975586 22.56811523 C-6.88921143 23.18501221 -7.52866699 23.80190918 -8.1875 24.4375 C-9.18245483 25.3812146 -9.18245483 25.3812146 -10.19750977 26.34399414 C-15.18080283 31.0944841 -20.05235803 35.95326195 -24.89257812 40.84887695 C-27.57479276 43.5522277 -30.27897808 46.16682986 -33.1875 48.625 C-37.96852263 52.67361065 -42.30037141 57.1880354 -46.68310547 61.65771484 C-49.78743775 64.80469581 -52.93114293 67.83320856 -56.28125 70.71875 C-60.5048881 74.36066491 -64.40908163 78.27034299 -68.3125 82.25 C-72.83225312 86.85802955 -77.42182227 91.26017797 -82.3125 95.47265625 C-85.80221278 98.57386585 -89.0446662 101.91834132 -92.3125 105.25 C-96.88327177 109.91004466 -101.52099903 114.38718018 -106.46484375 118.65136719 C-108.9825282 120.82972313 -111.41028087 123.06916621 -113.8125 125.375 C-114.6684375 126.18195313 -115.524375 126.98890625 -116.40625 127.8203125 C-118.55112899 130.10747579 -118.55112899 130.10747579 -118.59375 133.0546875 C-118.5009375 133.77914062 -118.408125 134.50359375 -118.3125 135.25 C-115.38178642 136.71535679 -112.4199449 136.42313476 -109.20535278 136.4442749 C-108.09455457 136.45719838 -108.09455457 136.45719838 -106.96131599 136.47038293 C-104.46658547 136.49790271 -101.97185212 136.51808049 -99.47705078 136.53808594 C-97.69329047 136.55580328 -95.90953297 136.57380524 -94.1257782 136.59207153 C-77.8140967 136.75132628 -61.5015658 136.83548124 -45.18927193 136.90206528 C-33.13489351 136.9522605 -21.0818796 137.03810701 -9.02812016 137.17068648 C-0.54985883 137.26078956 7.92802909 137.30853045 16.40674794 137.32564378 C21.46826119 137.33709009 26.52803064 137.36726021 31.58901596 137.44359589 C36.35850032 137.51475819 41.12538806 137.53319184 45.89533043 137.51247787 C47.63842665 137.51389876 49.38163099 137.53392607 51.12425041 137.57471848 C59.13726423 137.75253569 65.67026043 137.85034333 71.9896661 132.4356482 C74.36054457 130.15632948 76.5313339 127.73161483 78.6875 125.25 C80.13684533 123.80985369 81.59530973 122.37870021 83.0703125 120.96484375 C84.32037531 119.70837693 85.56786715 118.44934586 86.8125 117.1875 C87.45703125 116.53845703 88.1015625 115.88941406 88.765625 115.22070312 C89.93627094 114.04148551 91.10586999 112.86122667 92.27392578 111.67944336 C93.40804804 110.53258916 94.546994 109.390506 95.6875 108.25 C92.85847124 105.39153993 90.02349221 102.53905016 87.1875 99.6875 C86.39601562 98.88763672 85.60453125 98.08777344 84.7890625 97.26367188 C80.54475242 93.00196709 76.22681628 88.92713946 71.66601562 85.00805664 C67.24815717 81.08246449 63.18212491 76.78095688 59.04296875 72.56640625 C55.05211298 68.5317751 50.97097991 64.71028262 46.66992188 61.00976562 C42.47509393 57.28608091 38.61333073 53.21344461 34.6875 49.2109375 C30.81778376 45.29587302 26.8442393 41.605199 22.67382812 38.01367188 C19.27542119 34.99620731 16.11713974 31.74466305 12.9375 28.5 C11.65346124 27.19033172 10.36707737 25.88295769 9.078125 24.578125 C8.52157227 24.0099707 7.96501953 23.44181641 7.39160156 22.85644531 C3.22409816 18.92776732 0.29873293 16.36066593 -4.4296875 20.85546875 Z M231.875 23.375 C231.30821533 23.90762451 230.74143066 24.44024902 230.1574707 24.98901367 C225.23922956 29.64318818 220.44554698 34.42487905 215.7097168 39.26416016 C212.82593799 42.19400021 209.88482594 44.98415111 206.76953125 47.66796875 C202.53098292 51.32911081 198.60763531 55.25329954 194.6875 59.25 C190.16774688 63.85802955 185.57817773 68.26017797 180.6875 72.47265625 C177.19778722 75.57386585 173.9553338 78.91834132 170.6875 82.25 C166.12856214 86.89797961 161.50009409 91.34875244 156.56640625 95.59814453 C153.82037333 98.01234135 151.24834753 100.57976371 148.6875 103.1875 C148.19894531 103.68056641 147.71039063 104.17363281 147.20703125 104.68164062 C146.03146475 105.86873229 144.85911174 107.05900498 143.6875 108.25 C144.41364502 108.97469482 145.13979004 109.69938965 145.88793945 110.44604492 C148.4294608 112.99155575 150.95714453 115.54975483 153.48046875 118.11328125 C155.27851191 119.92982007 157.0766928 121.74622257 158.875 123.5625 C159.78958984 124.49384766 160.70417969 125.42519531 161.64648438 126.38476562 C162.51982422 127.26455078 163.39316406 128.14433594 164.29296875 129.05078125 C165.08856201 129.85684814 165.88415527 130.66291504 166.70385742 131.4934082 C168.49544889 133.47098716 168.49544889 133.47098716 170.6875 133.25 C170.71328125 132.52554688 170.7390625 131.80109375 170.765625 131.0546875 C171.11740422 125.05845085 171.51083835 120.87819264 175.6875 116.25 C183.32383324 110.23841851 191.10475128 111.03840637 200.4375 111 C202.29375 110.9690625 202.29375 110.9690625 204.1875 110.9375 C219.93589245 110.87048556 219.93589245 110.87048556 225.29980469 115.70239258 C229.27295263 120.31233464 229.87024204 123.40737489 230.25 129.375 C230.33378906 130.65632813 230.41757812 131.93765625 230.50390625 133.2578125 C230.56449219 134.24523437 230.62507813 135.23265625 230.6875 136.25 C247.09858686 136.27332895 263.50966837 136.29097916 279.92076778 136.30181217 C287.54020173 136.30697514 295.15962539 136.31401784 302.77905273 136.32543945 C309.41778827 136.33538628 316.05651637 136.34185342 322.69525915 136.34408849 C326.21254336 136.34539561 329.72980626 136.34848147 333.24708366 136.35573006 C337.16724938 136.36374389 341.08739399 136.36399114 345.00756836 136.36352539 C346.76946503 136.3689183 346.76946503 136.3689183 348.56695557 136.37442017 C349.62851364 136.3730455 350.69007172 136.37167084 351.78379822 136.37025452 C353.17616652 136.37163721 353.17616652 136.37163721 354.59666348 136.37304783 C356.67596136 136.48298643 356.67596136 136.48298643 357.6875 135.25 C358.02015874 132.31213052 358.06041755 130.78508511 356.34570312 128.32470703 C355.72630859 127.72513184 355.10691406 127.12555664 354.46875 126.5078125 C353.78296875 125.83363281 353.0971875 125.15945312 352.390625 124.46484375 C351.66359375 123.77519531 350.9365625 123.08554688 350.1875 122.375 C349.49140625 121.69308594 348.7953125 121.01117188 348.078125 120.30859375 C344.69002635 117.01460895 341.23439945 113.82842892 337.65625 110.7421875 C332.74034143 106.4872922 328.23725664 101.84955657 323.6875 97.2109375 C319.81210953 93.29013229 315.83253915 89.59324905 311.65625 85.99609375 C307.69077543 82.47909547 304.03890606 78.64038303 300.33203125 74.85546875 C297.22125402 71.70556225 294.07390621 68.6711404 290.71875 65.78125 C285.77522778 61.51860087 281.2553451 56.86799832 276.6875 52.2109375 C273.45008298 48.935582 270.18599173 45.76360403 266.6953125 42.7578125 C262.43355382 39.08732859 258.49965502 35.13801542 254.5625 31.125 C247.9516328 24.32239666 247.9516328 24.32239666 240.6875 18.25 C236.47747341 18.25 234.75942838 20.61098909 231.875 23.375 Z M68.6875 35.25 C66.5696255 48.2159937 66.5696255 48.2159937 70.56982422 60.20654297 C77.18190762 68.08038173 84.87623421 74.96324052 93.6875 80.25 C93.6875 65.4 93.6875 50.55 93.6875 35.25 C85.4375 35.25 77.1875 35.25 68.6875 35.25 Z M307.6875 35.25 C305.41003566 48.4099859 305.41003566 48.4099859 309.79833984 60.43505859 C312.47352492 63.70872361 315.4233065 66.66831506 318.5 69.5625 C319.01338928 70.04543518 319.52677856 70.52837036 320.0557251 71.02593994 C325.77207833 76.59501091 325.77207833 76.59501091 332.6875 80.25 C332.6875 65.4 332.6875 50.55 332.6875 35.25 C324.4375 35.25 316.1875 35.25 307.6875 35.25 Z M115.390625 114.19140625 C114.58109375 115.05636719 113.7715625 115.92132813 112.9375 116.8125 C110.02615475 119.89758682 107.10846535 122.79286631 103.890625 125.55859375 C99.43299447 129.4094621 95.31313915 133.54921259 91.1875 137.75 C86.4941805 142.52880802 81.74758022 147.12155094 76.66992188 151.49023438 C73.18478173 154.58394006 69.94942574 157.92436478 66.6875 161.25 C62.15771287 165.86825953 57.55790516 170.2819728 52.65625 174.50390625 C49.35011899 177.43612958 46.27832335 180.59410669 43.1875 183.75 C39.47159976 187.54412972 35.74437536 191.25136566 31.71875 194.71875 C27.4951119 198.36066491 23.59091837 202.27034299 19.6875 206.25 C15.09307928 210.9341555 10.44067605 215.44454946 5.44921875 219.70703125 C2.95508534 221.86543777 2.95508534 221.86543777 0.6875 224.25 C0.92955349 227.56818985 0.92955349 227.56818985 2.6875 230.25 C5.69170445 230.35245275 8.67306564 230.38884759 11.67784119 230.38371277 C13.110333 230.3871111 13.110333 230.3871111 14.57176405 230.39057809 C17.79777334 230.39694925 21.02374095 230.39608674 24.24975586 230.39526367 C26.55204829 230.39825322 28.85434021 230.40165526 31.15663147 230.40544128 C37.42923644 230.41430613 43.7018278 230.41662043 49.97443843 230.41725707 C55.20094688 230.41820404 60.42745212 230.42187986 65.65395933 230.42542917 C77.27394644 230.43311674 88.89392686 230.43609693 100.51391631 230.43542381 C101.21178242 230.43538386 101.90964854 230.4353439 102.62866211 230.43530273 C103.32737584 230.43526185 104.02608958 230.43522097 104.74597646 230.43517885 C116.07393038 230.43477226 127.40185108 230.44434404 138.72979539 230.4584411 C150.34862711 230.47278659 161.96744108 230.47952893 173.58628184 230.47884732 C180.11445606 230.47859163 186.64259271 230.48148217 193.1707592 230.49202538 C199.30774331 230.50166552 205.44465362 230.50181378 211.58164024 230.49450874 C213.83999488 230.49345781 216.09835402 230.49585567 218.3567009 230.5018692 C221.42794745 230.50952054 224.4989347 230.5049902 227.57017517 230.49723816 C228.92613632 230.5049535 228.92613632 230.5049535 230.30949062 230.51282471 C234.98053343 230.71312159 234.98053343 230.71312159 238.6875 228.25 C238.76794867 225.43429638 238.12569936 223.78065182 236.3359375 221.61328125 C233.96639956 219.20587398 231.49907881 216.94809821 228.93798828 214.74511719 C223.23636602 209.8285312 217.95676473 204.58311756 212.6875 199.2109375 C209.44752463 195.93299366 206.18052931 192.75864439 202.6875 189.75 C197.75287869 185.49967188 193.24496611 180.85741662 188.6875 176.2109375 C185.44752463 172.93299366 182.18052931 169.75864439 178.6875 166.75 C173.75287869 162.49967188 169.24496611 157.85741662 164.6875 153.2109375 C161.44752463 149.93299366 158.18052931 146.75864439 154.6875 143.75 C149.75287869 139.49967188 145.24496611 134.85741662 140.6875 130.2109375 C136.74100388 126.21819338 132.70050179 122.42638782 128.42480469 118.78686523 C126.82108398 117.36817189 125.38532292 115.88702117 123.9375 114.3125 C120.72029849 111.36339862 118.71596654 111.3807009 115.390625 114.19140625 Z M188.6875 128.25 C186.57342952 143.19874626 186.57342952 143.19874626 191.74609375 156.6796875 C194.86769203 159.73362512 198.28688944 162.35361015 201.84082031 164.88378906 C204.33751615 166.73089508 206.43344848 168.87116891 208.5625 171.125 C209.58628787 172.18424373 210.62089418 173.2338844 211.6875 174.25 C212.0175 174.25 212.3475 174.25 212.6875 174.25 C212.6875 159.07 212.6875 143.89 212.6875 128.25 C204.7675 128.25 196.8475 128.25 188.6875 128.25 Z M-93.3125 154.25 C-93.374375 172.626875 -93.43625 191.00375 -93.5 209.9375 C-93.52731201 215.73916748 -93.55462402 221.54083496 -93.58276367 227.51831055 C-93.59279723 232.7207386 -93.59279723 232.7207386 -93.59883118 237.923172 C-93.60343668 240.23963652 -93.61398535 242.55609386 -93.62922668 244.87251282 C-93.65116401 248.3821766 -93.65421874 251.89140104 -93.65307617 255.40112305 C-93.6638705 256.4323891 -93.67466482 257.46365515 -93.68578625 258.52617168 C-93.74746983 265.44458712 -93.74746983 265.44458712 -90.3125 271.25 C-85.93200175 273.94190933 -81.0948233 273.51863152 -76.1159668 273.47705078 C-75.19840103 273.47734283 -74.28083527 273.47763489 -73.33546448 273.47793579 C-70.31078547 273.47654547 -67.28635458 273.46099816 -64.26171875 273.4453125 C-62.16136306 273.44158132 -60.06100563 273.43873484 -57.96064758 273.43673706 C-52.4384987 273.42910892 -46.91645538 273.40946739 -41.39434814 273.3873291 C-35.75705391 273.36685307 -30.11974259 273.35773158 -24.48242188 273.34765625 C-13.42572746 273.32622078 -2.36913903 273.29104523 8.6875 273.25 C8.6875 265 8.6875 256.75 8.6875 248.25 C6.7075 248.04375 4.7275 247.8375 2.6875 247.625 C-3.66203681 246.62316884 -8.03639045 245.15649425 -12.3125 240.25 C-16.2293474 234.41378578 -17.51335689 228.16821092 -16.3125 221.25 C-13.54500712 212.84549397 -8.12171275 207.37998303 -1.54931641 201.73583984 C3.42378112 197.44558639 8.089511 192.93779347 12.6875 188.25 C17.20050503 183.64885034 21.7823304 179.25132276 26.66552734 175.04492188 C30.26276024 171.85162844 33.62075546 168.42072724 37 165 C37.70189453 164.29359375 38.40378906 163.5871875 39.12695312 162.859375 C40.42085821 161.55683565 41.71372315 160.25326148 43.00512695 158.94824219 C44.56120889 157.37748236 46.12406189 155.81343811 47.6875 154.25 C1.1575 154.25 -45.3725 154.25 -93.3125 154.25 Z M230.6875 154.25 C230.6875 166.79 230.6875 179.33 230.6875 192.25 C236.1655113 197.7280113 241.22942958 202.75387382 247.00390625 207.73828125 C251.84120292 212.08174717 255.12001628 217.12719659 256.01171875 223.60546875 C256.32029568 230.46864527 254.8805621 236.57259702 250.296875 241.8515625 C244.33578489 247.2165436 238.56384916 247.37485009 230.6875 248.25 C230.6875 256.5 230.6875 264.75 230.6875 273.25 C242.83994687 273.31779559 254.99226798 273.3728277 267.14486122 273.40543652 C272.78788915 273.42108764 278.43078091 273.44231608 284.07373047 273.47631836 C289.52020988 273.50893115 294.96655837 273.52685718 300.4131279 273.53463173 C302.49034053 273.54017176 304.56754606 273.55099007 306.64470291 273.56719017 C309.55577288 273.5889897 312.46630285 273.59196584 315.37744141 273.59057617 C316.66353806 273.60675491 316.66353806 273.60675491 317.97561646 273.6232605 C322.92597915 273.59771519 326.46247535 273.12200579 330.6875 270.25 C332.56409166 267.27702717 332.93582016 265.0007927 332.92800903 261.51702881 C332.93075836 260.5691449 332.93350769 259.62126099 332.93634033 258.64465332 C332.92914978 257.61175171 332.92195923 256.5788501 332.91455078 255.51464844 C332.91484283 254.42166443 332.91513489 253.32868042 332.91543579 252.20257568 C332.9140419 248.58809484 332.89847766 244.97381986 332.8828125 241.359375 C332.87908259 238.8540254 332.87623551 236.34867434 332.87423706 233.84332275 C332.86737972 227.92187288 332.85161502 222.0004891 332.83153808 216.07907319 C332.80305583 207.49201583 332.79258476 198.9049333 332.77992249 190.31784058 C332.7605246 178.29516583 332.72220307 166.27268421 332.6875 154.25 C299.0275 154.25 265.3675 154.25 230.6875 154.25 Z M26.6875 248.25 C26.605 266.9775 26.5225 285.705 26.4375 305 C26.40108398 310.91518555 26.36466797 316.83037109 26.32714844 322.92480469 C26.31377144 328.22304832 26.31377144 328.22304832 26.3057251 333.52130127 C26.29957917 335.8828228 26.28550341 338.2443317 26.26519775 340.60577393 C26.23598871 344.18108966 26.23187354 347.75563781 26.23339844 351.33105469 C26.21180979 352.91145601 26.21180979 352.91145601 26.189785 354.52378464 C26.16088426 360.02870531 26.16088426 360.02870531 28.42358398 364.90405273 C30.99424981 366.43236943 32.38986345 366.73678721 35.36425781 366.70410156 C36.28491028 366.70379944 37.20556274 366.70349731 38.15411377 366.70318604 C39.13966248 366.68254089 40.12521118 366.66189575 41.140625 366.640625 C42.66366241 366.63213531 42.66366241 366.63213531 44.21746826 366.62347412 C47.45796001 366.60109753 50.6973429 366.55089755 53.9375 366.5 C56.13540069 366.47993671 58.33331872 366.46168565 60.53125 366.4453125 C65.9170445 366.40122871 71.30219303 366.33430373 76.6875 366.25 C76.69114563 365.55001892 76.69479126 364.85003784 76.69854736 364.12884521 C76.73666498 357.48062091 76.79378203 350.83284986 76.87140274 344.18496323 C76.91064607 340.76847368 76.94294604 337.35223293 76.95849609 333.93554688 C76.97676083 329.99316434 77.02681207 326.05147071 77.078125 322.109375 C77.07935364 320.90263123 77.08058228 319.69588745 77.08184814 318.45257568 C77.29821003 305.7212588 80.76848853 294.77727622 89.46484375 285.31640625 C99.45172533 275.81967837 110.86984612 273.75725501 124.125 273.97265625 C135.17341591 274.42847144 144.86082209 280.00439924 152.4375 287.875 C158.49259809 295.16928096 161.74976772 304.62759323 161.89282227 314.02832031 C161.91276749 315.1892218 161.93271271 316.35012329 161.95326233 317.54620361 C161.97833107 319.4182547 161.97833107 319.4182547 162.00390625 321.328125 C162.02468735 322.60983582 162.04546844 323.89154663 162.06687927 325.21209717 C162.12194747 328.61176272 162.17142364 332.01148738 162.21972656 335.41125488 C162.27005332 338.88359814 162.32568093 342.35585605 162.38085938 345.828125 C162.48825422 352.63534261 162.58974027 359.44263739 162.6875 366.25 C169.1652286 366.35140493 175.64275261 366.42146717 182.12109375 366.46972656 C184.3249476 366.48984419 186.52874807 366.51714172 188.73242188 366.55175781 C191.89987356 366.60026833 195.06661968 366.62296736 198.234375 366.640625 C199.71269806 366.67159271 199.71269806 366.67159271 201.22088623 366.70318604 C202.1415387 366.70348816 203.06219116 366.70379028 204.01074219 366.70410156 C204.8190448 366.71298401 205.62734741 366.72186646 206.46014404 366.73101807 C209.8272711 366.00385592 210.78312558 365.16132812 212.6875 362.25 C213.27058824 358.61135762 213.19183729 355.00857097 213.14160156 351.33105469 C213.14232477 349.63534773 213.14232477 349.63534773 213.14306259 347.90538406 C213.14007557 344.24389477 213.1096083 340.58321869 213.078125 336.921875 C213.07224432 334.66227612 213.06816333 332.40267182 213.06591797 330.14306641 C213.04494111 321.76196121 212.98909629 313.38097263 212.9375 305 C212.855 286.2725 212.7725 267.545 212.6875 248.25 C151.3075 248.25 89.9275 248.25 26.6875 248.25 Z M98.94140625 301.11328125 C94.48202569 308.712288 94.27950223 315.43177006 94.39453125 324.0625 C94.39877609 325.27196289 94.40302094 326.48142578 94.40739441 327.72753906 C94.42410962 331.56859134 94.46174985 335.40910784 94.5 339.25 C94.51505603 341.86327364 94.52874283 344.47655555 94.54101562 347.08984375 C94.57143033 353.4769321 94.63016872 359.86287038 94.6875 366.25 C111.1875 366.25 127.6875 366.25 144.6875 366.25 C144.75649631 358.56329994 144.81619553 350.87768133 144.85229492 343.19091797 C144.86734933 340.57792513 144.8877973 337.96495742 144.91381836 335.35205078 C144.95034778 331.58880395 144.9672604 327.82589225 144.98046875 324.0625 C144.99595261 322.90073242 145.01143646 321.73896484 145.02738953 320.54199219 C145.02935542 310.99385559 143.38779626 304.1174332 136.69140625 297.015625 C130.79196071 291.81767298 124.43028715 290.50863552 116.68359375 290.8046875 C109.31831122 291.89939703 103.69453638 295.48046733 98.94140625 301.11328125 Z " fill="#000000" transform="translate(136.3125,63.75)"/>
</svg>
