<?xml version="1.0" encoding="UTF-8"?>
<svg version="1.1" xmlns="http://www.w3.org/2000/svg" width="512" height="512">
<path d="M0 0 C1.48886719 0.40025391 1.48886719 0.40025391 3.0078125 0.80859375 C16.75474131 4.93267239 28.97751967 11.90079703 40 21 C40.77601563 21.61230469 41.55203125 22.22460938 42.3515625 22.85546875 C59.77279811 37.29108624 72.79715187 60.51133281 75.25 83.046875 C74.91520013 85.66249897 73.99917635 86.32226787 72 88 C70.06594849 88.78700256 70.06594849 88.78700256 67.84033203 89.37524414 C66.9977182 89.60334778 66.15510437 89.83145142 65.28695679 90.06646729 C64.36983917 90.30363464 63.45272156 90.540802 62.5078125 90.78515625 C61.06482285 91.17148224 61.06482285 91.17148224 59.59268188 91.56561279 C56.4392646 92.40755454 53.28227313 93.23514658 50.125 94.0625 C47.95449759 94.63860715 45.78425153 95.21568093 43.61425781 95.79370117 C39.20972537 96.96614611 34.80395864 98.13379338 30.39746094 99.29882812 C24.49890918 100.86228899 18.61090516 102.46211032 12.7265625 104.078125 C11.01546855 104.54681665 9.30436847 105.01548596 7.59326172 105.48413086 C5.18724167 106.14336657 2.7815805 106.80377249 0.37701416 107.46829224 C-1.81512478 108.07335187 -4.00888256 108.67215296 -6.203125 109.26953125 C-7.42676758 109.60573486 -8.65041016 109.94193848 -9.91113281 110.28833008 C-13 111 -13 111 -17 111 C-11.7345771 131.81480839 -6.26085413 152.56875034 -0.6640625 173.296875 C-0.01398528 175.70749432 0.63599897 178.11813871 1.28588867 180.52880859 C2.85619141 186.35282748 4.42762664 192.17653982 6 198 C6.79937327 198.00146656 7.59874655 198.00293312 8.42234325 198.00444412 C27.86852353 198.04148796 47.31452381 198.10047043 66.76056194 198.18390274 C76.16451493 198.22372032 85.5683839 198.25609898 94.97241211 198.27099609 C103.16850979 198.28399854 111.36442282 198.3109271 119.56041652 198.35461307 C123.90059416 198.37725966 128.24054379 198.39290877 132.58078575 198.39188385 C136.66601436 198.39113912 140.75073834 198.40901425 144.83583641 198.44116783 C146.33500365 198.44968625 147.83422737 198.45140357 149.33340836 198.44580269 C151.38108319 198.43917167 153.42879238 198.45942816 155.47636414 198.48101807 C157.19504715 198.48654882 157.19504715 198.48654882 158.94845104 198.49219131 C163.89477484 199.31530974 166.83654958 202.41177337 169.69140625 206.36328125 C170.15498535 206.99516357 170.61856445 207.6270459 171.09619141 208.27807617 C171.82201416 209.28511597 171.82201416 209.28511597 172.5625 210.3125 C176.64148549 215.86441719 180.79533224 221.32852823 185.125 226.6875 C188.84170114 231.2962575 192.52364151 235.92540421 196.125 240.625 C196.89875977 241.60339844 197.67251953 242.58179688 198.46972656 243.58984375 C200.19651332 245.83133324 201.51859508 247.92336025 202.92089844 250.42016602 C206.83358543 256.9528192 206.83358543 256.9528192 213.20526123 260.72155762 C219.47934572 261.79958547 225.78863865 261.52447102 232.125 261.3125 C234.05464423 261.29548517 235.98434992 261.28436474 237.9140625 261.27929688 C242.61283641 261.25422912 247.30359444 261.14916797 252 261 C251.99555878 260.05532364 251.99111755 259.11064728 251.98654175 258.13734436 C251.94588828 249.20746371 251.91596422 240.27760199 251.89637566 231.34764957 C251.88596624 226.75736172 251.87185927 222.16714895 251.84912109 217.5769043 C251.82729095 213.14189866 251.81541002 208.70696496 251.81024551 204.27190971 C251.80656795 202.58514716 251.79938684 200.89838826 251.78853989 199.21165657 C251.63924265 175.01968978 251.63924265 175.01968978 260.7890625 165.05078125 C266.76929216 159.36837179 272.77674754 156.94323732 281 156.625 C290.33727503 157.01405313 296.06667426 160.14605407 302.828125 166.58203125 C307.1224865 171.36298407 309.77174131 176.91850768 310.25 183.375 C309.97973872 187.2937886 309.6929595 189.13330118 307 192 C303.5 192.5 303.5 192.5 300 192 C297.1944954 189.86781651 296.58797006 188.10600745 296.0625 184.6875 C295.1861943 180.34130642 293.98916228 177.39310313 291 174 C286.24595156 171.11028428 282.51219234 170.55441626 277.14453125 171.44140625 C273.64257229 172.35357407 271.62901562 173.4961756 269 176 C264.96715576 186.74480483 264.96715576 186.74480483 265 206 C284.47 206 303.94 206 324 206 C324 198.08 324 190.16 324 182 C327.0915358 171.69488065 329.72316703 165.1753911 339.00390625 159.96484375 C346.50134553 156.3408369 354.55224156 155.83317616 362.5625 158 C370.27469952 160.92108088 376.51031736 167.18095905 380.19140625 174.4921875 C381.71130216 179.20606755 381.87635222 184.13624515 381 189 C379.65625 190.828125 379.65625 190.828125 378 192 C372.86558761 192.64180155 372.86558761 192.64180155 370.3984375 190.8125 C368.60512731 188.4882097 368.22905453 186.48837536 367.625 183.625 C366.38915055 178.77765266 365.18463753 176.01683171 361 173 C356.20592313 170.65622909 352.06174235 170.62595417 347 172 C342.42087833 174.24636157 340.49779367 176.31836383 338.60188866 181.03489876 C337.59969312 184.30695859 337.56072199 187.56660675 337.56762695 190.95483398 C337.5574353 191.71663467 337.54724365 192.47843536 337.53674316 193.26332092 C337.50677671 195.75765493 337.49737259 198.2516039 337.48828125 200.74609375 C337.47142239 202.48488118 337.45327052 204.22365652 337.43388367 205.9624176 C337.38650853 210.52106953 337.35661859 215.07967239 337.33044434 219.63848877 C337.30057561 224.29750251 337.25406703 228.95634741 337.20898438 233.61523438 C337.12309344 242.74340103 337.05568515 251.87160257 337 261 C337.82725586 260.97905273 338.65451172 260.95810547 339.50683594 260.93652344 C343.2544337 260.85338381 347.00183749 260.80134469 350.75 260.75 C352.05195313 260.71648437 353.35390625 260.68296875 354.6953125 260.6484375 C355.94570313 260.63554687 357.19609375 260.62265625 358.484375 260.609375 C359.63647461 260.58842773 360.78857422 260.56748047 361.97558594 260.54589844 C365 261 365 261 367.41113281 262.79785156 C369 265 369 265 368.9375 268.625 C368 272 368 272 365 274 C362.08911133 274.22705078 362.08911133 274.22705078 358.58203125 274.1953125 C357.32841797 274.18886719 356.07480469 274.18242187 354.78320312 274.17578125 C353.47287109 274.15902344 352.16253906 274.14226562 350.8125 274.125 C349.47722013 274.11496639 348.14193311 274.1058412 346.80664062 274.09765625 C343.53757985 274.07405292 340.26887972 274.04112594 337 274 C337.00444122 274.56962967 337.00888245 275.13925934 337.01345825 275.72615051 C337.05765436 281.64691666 337.0878509 287.56763606 337.10986328 293.48852539 C337.11993006 295.69915673 337.13358448 297.90977472 337.15087891 300.12036133 C337.17509738 303.29511811 337.18647627 306.46969906 337.1953125 309.64453125 C337.20563507 310.63524124 337.21595764 311.62595123 337.22659302 312.64668274 C337.22674408 313.56741074 337.22689514 314.48813873 337.22705078 315.43676758 C337.231492 316.2472908 337.23593323 317.05781403 337.24050903 317.89289856 C337 320 337 320 335 323 C332.1875 324 332.1875 324 329 324 C327.35 322.35 325.7 320.7 324 319 C324 313.06 324 307.12 324 301 C304.53 301 285.06 301 265 301 C265 307.6 265 314.2 265 321 C261 324 261 324 257.9375 324 C255 323 255 323 253.3347168 321.06958008 C251.41437437 316.65317888 251.62828389 312.65025519 251.70703125 307.88671875 C251.71127609 306.91716751 251.71552094 305.94761627 251.71989441 304.94868469 C251.736646 301.861337 251.77429211 298.77464938 251.8125 295.6875 C251.82755137 293.59050424 251.84123898 291.49349822 251.85351562 289.39648438 C251.88653808 284.26406977 251.93829653 279.13214669 252 274 C250.9231338 274.00227832 250.9231338 274.00227832 249.82451272 274.00460267 C207.30379328 274.09405631 164.78308405 274.16271653 122.26228942 274.20426132 C117.16021102 274.20926433 112.05813281 274.2144416 106.95605469 274.21972656 C105.94029491 274.2207758 104.92453513 274.22182505 103.87799475 274.22290608 C87.41689106 274.24032565 70.95584307 274.27187187 54.49477246 274.30861118 C37.61237136 274.34597745 20.7299995 274.36822671 3.84755874 274.37635398 C-6.57529081 274.38185072 -16.99798292 274.39923037 -27.42078403 274.43166587 C-34.56178146 274.45276053 -41.70269715 274.45921153 -48.84372351 274.45400551 C-52.96776979 274.45143583 -57.09154039 274.455458 -61.21553802 274.4768219 C-64.98828994 274.49622412 -68.76057964 274.49731173 -72.5333524 274.48359558 C-74.5505348 274.4810934 -76.56771142 274.49840215 -78.58481574 274.51632524 C-79.77713443 274.50836104 -80.96945312 274.50039685 -82.19790268 274.49219131 C-83.7448833 274.49446964 -83.7448833 274.49446964 -85.32311606 274.49679399 C-88.7245586 273.86553158 -89.91137178 272.71084778 -92 270 C-92.44345531 266.89581284 -92.65555165 264.9807522 -90.88134766 262.32641602 C-88.07721445 260.34940385 -85.85594899 260.73240668 -82.4609375 260.83984375 C-81.15769531 260.84951172 -79.85445312 260.85917969 -78.51171875 260.86914062 C-76.44978482 260.89576356 -74.39213408 260.9368347 -72.33154297 261.0168457 C-63.74423878 261.40049409 -63.74423878 261.40049409 -56.19042969 257.90478516 C-53.90384634 255.37748403 -51.92955761 252.80631014 -50 250 C-49.1646875 248.9996875 -48.329375 247.999375 -47.46875 246.96875 C-46.8190625 246.1540625 -46.169375 245.339375 -45.5 244.5 C-41.18250335 239.16214258 -36.64075322 234.05765303 -32 229 C-36.74136442 222.22662226 -42.23900195 216.33846511 -47.88671875 210.328125 C-50.77765031 207.25065399 -53.57914361 204.10830877 -56.3359375 200.91015625 C-58.31540126 198.63795489 -60.3458317 196.41540128 -62.375 194.1875 C-66.27594191 189.87142407 -69.94459038 185.40669396 -73.5859375 180.87109375 C-75.33910668 178.7860139 -77.09688686 176.81091312 -78.9765625 174.84765625 C-79.47881348 174.32026855 -79.98106445 173.79288086 -80.49853516 173.24951172 C-81.47447321 172.23421876 -82.46068386 171.2286669 -83.45849609 170.23486328 C-85.6835581 167.91672259 -87.00721487 165.98048479 -88.125 162.95703125 C-88 160 -88 160 -86.05859375 157.35668945 C-81.9338399 154.17850866 -79.00804889 154.27436305 -73.9375 154.3359375 C-73.06859131 154.33115387 -72.19968262 154.32637024 -71.30444336 154.32144165 C-69.47214949 154.31804775 -67.63979465 154.32721456 -65.80761719 154.34814453 C-63.00838781 154.37491977 -60.21316767 154.34838197 -57.4140625 154.31640625 C-55.63019951 154.31971044 -53.84633901 154.32611687 -52.0625 154.3359375 C-51.22904053 154.32581635 -50.39558105 154.31569519 -49.53686523 154.30526733 C-45.26582174 154.39109403 -43.53462757 154.5687076 -40.10620117 157.33447266 C-39.41115479 158.21409668 -38.7161084 159.0937207 -38 160 C-37.50153564 160.57363281 -37.00307129 161.14726562 -36.48950195 161.73828125 C-36.07659912 162.25777344 -35.66369629 162.77726563 -35.23828125 163.3125 C-34.76406738 163.90667725 -34.28985352 164.50085449 -33.80126953 165.11303711 C-33.30997559 165.73573486 -32.81868164 166.35843262 -32.3125 167 C-31.79284668 167.65427979 -31.27319336 168.30855957 -30.73779297 168.98266602 C-23.68759267 177.88303325 -16.78401666 186.89513553 -10 196 C-11.4242897 188.03580339 -13.44604756 180.24884636 -15.54498672 172.44107246 C-16.14468699 170.20972395 -16.7403084 167.97732045 -17.33493042 165.74461365 C-18.80964226 160.21032159 -20.29056785 154.67769764 -21.77246094 149.14532471 C-23.03118728 144.44564429 -24.28699469 139.74520483 -25.53860092 135.04362297 C-26.12510227 132.84530562 -26.7159505 130.64818601 -27.30691528 128.45106506 C-27.66463579 127.10879472 -28.02214073 125.7664669 -28.37939453 124.42407227 C-28.69313019 123.25288345 -29.00686584 122.08169464 -29.33010864 120.87501526 C-30 118 -30 118 -30 115 C-31.67461304 115.48545288 -31.67461304 115.48545288 -33.38305664 115.98071289 C-48.42373489 120.31973942 -63.51088441 124.48763184 -78.61899376 128.58473778 C-82.43977546 129.62100296 -86.25906753 130.66219824 -90.07543945 131.71459961 C-93.83149951 132.75026333 -97.59062856 133.77396464 -101.35225105 134.78923225 C-102.76911182 135.17378319 -104.18484928 135.56249978 -105.59936333 135.95559502 C-107.56367789 136.50061941 -109.53262278 137.02887131 -111.50170898 137.55639648 C-113.17208473 138.01223366 -113.17208473 138.01223366 -114.87620544 138.47727966 C-118.26119685 139.04370739 -120.68622326 138.84646676 -124 138 C-130.87880397 131.66222556 -131.04077702 117.37774564 -131.39453125 108.73828125 C-131.69506704 95.02536153 -131.45828396 82.04152223 -127 69 C-126.79101074 68.37174316 -126.58202148 67.74348633 -126.36669922 67.09619141 C-120.89182158 50.96683278 -112.06571016 37.90731554 -100 26 C-99.11441406 25.10410156 -98.22882813 24.20820312 -97.31640625 23.28515625 C-72.26454488 -0.87332522 -33.28405102 -9.3992858 0 0 Z M-33 10 C-29.70823382 13.42892311 -26.3668425 16.30578124 -22.5 19.0625 C0.55235366 36.13201648 19.06377822 58.11877258 24 87 C35.76863385 84.33343613 47.39655743 81.3113918 59 78 C60.33275452 73.73297976 59.17311913 70.93123486 57.5 66.9375 C57.22518799 66.27137695 56.95037598 65.60525391 56.66723633 64.91894531 C47.12498092 42.53806789 29.05092758 25.70832048 6.8984375 16.09375 C-3.58396445 12.13812662 -13.70199107 9.81440753 -24.875 9.9375 C-26.050625 9.94426758 -26.050625 9.94426758 -27.25 9.95117188 C-29.16670014 9.96285907 -31.08336048 9.98079092 -33 10 Z M-51 16 C-64.66166481 42.01529788 -78.58123386 73.27856652 -70.0625 103.125 C-69.16602403 105.85619919 -68.28408237 108.43183525 -67 111 C-57.92372246 109.56890555 -49.12345104 107.27747558 -40.26953125 104.8671875 C-38.78320209 104.46608936 -37.29676516 104.06539037 -35.81022644 103.66506958 C-31.9344163 102.62019354 -28.06007538 101.56997105 -24.18603516 100.51855469 C-20.21801069 99.44267395 -16.24859331 98.37195779 -12.27929688 97.30078125 C-4.51817378 95.20551808 3.24140191 93.10459374 11 91 C11.01369629 89.74227783 11.02739258 88.48455566 11.04150391 87.1887207 C11.04920807 86.48125198 11.05691223 85.77378326 11.06484985 85.0448761 C10.44498116 65.49888474 -7.70222566 48.32563272 -20.95898438 35.83691406 C-34.67711187 22.89152384 -34.67711187 22.89152384 -51 16 Z M-94 38 C-110.20990644 55.40279502 -118.1742798 77.24087546 -118.1875 100.8125 C-118.19974609 101.95009766 -118.21199219 103.08769531 -118.22460938 104.25976562 C-118.23599454 110.83659656 -117.70876874 116.64446094 -116 123 C-111.94094683 124.6427334 -108.39790948 123.28347682 -104.390625 122.12890625 C-103.66381531 121.9277269 -102.93700562 121.72654755 -102.18817139 121.51927185 C-99.8727916 120.8761229 -97.56147634 120.2195243 -95.25 119.5625 C-93.67863456 119.12345629 -92.10702234 118.68529477 -90.53515625 118.24804688 C-86.68716829 117.17557141 -82.84276923 116.09102001 -79 115 C-79.27714844 114.13117188 -79.55429688 113.26234375 -79.83984375 112.3671875 C-80.38318359 110.63855469 -80.38318359 110.63855469 -80.9375 108.875 C-81.29714844 107.73804688 -81.65679687 106.60109375 -82.02734375 105.4296875 C-89.57060142 78.8313733 -80.94490947 48.45735462 -69.1015625 24.40625 C-67.86125065 22.13798442 -67.86125065 22.13798442 -68 20 C-76.46690049 20 -88.06954471 32.14866769 -94 38 Z M-66 168 C-64.30712308 172.33333903 -61.10229423 175.2685488 -57.9375 178.5625 C-53.98380215 182.74135025 -50.14762637 186.93241668 -46.5625 191.4375 C-42.38078094 196.6685065 -37.85926068 201.52092342 -33.22290039 206.34741211 C-32.6633667 206.93530518 -32.10383301 207.52319824 -31.52734375 208.12890625 C-30.69802464 208.98213943 -30.69802464 208.98213943 -29.8519516 209.85260963 C-28 212 -28 212 -26.53127289 214.52562523 C-23.73013476 219.04585275 -21.61297341 221.60056058 -16.33627319 222.90729141 C-11.62798146 223.36491351 -6.92398025 223.23810986 -2.20117188 223.13525391 C-0.38720863 223.13243074 1.42676604 223.13402125 3.24072266 223.13967896 C8.15019174 223.1425419 13.05720502 223.08386078 17.96610451 223.01393938 C23.1015837 222.95131652 28.23712271 222.94554359 33.3729248 222.9336853 C43.09134137 222.90263563 52.80862957 222.82061874 62.52654982 222.72019041 C73.59287043 222.60831614 84.65924568 222.55340906 95.72599125 222.50323606 C118.48461912 222.39878217 141.24224627 222.22295314 164 222 C163.57847656 221.44570312 163.15695312 220.89140625 162.72265625 220.3203125 C162.17480469 219.59585938 161.62695312 218.87140625 161.0625 218.125 C160.51722656 217.40570313 159.97195313 216.68640625 159.41015625 215.9453125 C158 214 158 214 157 212 C156.12332074 211.99945523 155.24664148 211.99891047 154.34339619 211.99834919 C133.01954431 211.98338701 111.69590165 211.94096296 90.37216663 211.86790943 C80.06018009 211.83324475 69.74832742 211.80790197 59.4362793 211.80444336 C50.44910199 211.80140552 41.46216303 211.78093937 32.47507781 211.73947543 C27.71567268 211.71812733 22.95660655 211.7055541 18.19715309 211.71384621 C13.71789261 211.72137492 9.23931967 211.70561198 4.76018524 211.67193985 C3.11588505 211.66369228 1.47151667 211.66397349 -0.17277718 211.67340279 C-2.41829898 211.68500555 -4.66156018 211.66594078 -6.90690613 211.63923645 C-8.16330997 211.63647107 -9.4197138 211.63370569 -10.71419048 211.63085651 C-16.97223779 210.42934745 -20.22045758 204.63612148 -23.9375 199.8125 C-24.62996826 198.92304688 -24.62996826 198.92304688 -25.33642578 198.015625 C-26.89437977 196.01305531 -28.44729252 194.00663982 -30 192 C-31.84094936 189.62647417 -33.68285336 187.25369554 -35.52563477 184.8815918 C-36.73193036 183.32813786 -37.93690902 181.77366013 -39.14038086 180.21801758 C-40.24721912 178.79052294 -41.36228769 177.36936133 -42.48657227 175.95556641 C-44 174 -44 174 -45.21459961 172.14990234 C-46.8191289 169.83433297 -48.17534108 168.19233909 -50.98046875 167.53808594 C-53.28943129 167.40947267 -55.505351 167.47415539 -57.8125 167.625 C-58.99489258 167.66560547 -58.99489258 167.66560547 -60.20117188 167.70703125 C-62.13530157 167.77736324 -64.06801304 167.88497542 -66 168 Z M265 219 C265 223.62 265 228.24 265 233 C284.47 233 303.94 233 324 233 C324 228.38 324 223.76 324 219 C304.53 219 285.06 219 265 219 Z M-30.76076365 247.20265746 C-32.73720451 250.06921414 -34.99303727 252.66271403 -37.25 255.3125 C-39.74009511 257.85489676 -39.74009511 257.85489676 -41 261 C36.55 261 114.1 261 194 261 C190.05489111 255.08233666 186.16872565 249.52591209 181.6875 244.0625 C180.62730216 242.76302582 179.568631 241.46230413 178.51171875 240.16015625 C178.05240967 239.59949463 177.59310059 239.03883301 177.11987305 238.46118164 C176 237 176 237 175 235 C149.78286575 234.67257838 124.56605122 234.42589554 99.34721756 234.27462959 C87.63684168 234.20251828 75.92778845 234.10425621 64.21826172 233.94384766 C54.0089947 233.80405811 43.80068568 233.71392789 33.5904882 233.68276107 C28.18644047 233.66454816 22.78513263 233.62193103 17.38196564 233.51977921 C12.28882196 233.42427475 7.19952775 233.39552579 2.10557365 233.41649246 C0.24305932 233.41266118 -1.6195923 233.38507604 -3.48132896 233.33112335 C-17.05085017 232.95738755 -23.16203506 235.84280216 -30.76076365 247.20265746 Z M265 246 C265 250.95 265 255.9 265 261 C284.47 261 303.94 261 324 261 C324 256.05 324 251.1 324 246 C304.53 246 285.06 246 265 246 Z M265 274 C265 278.62 265 283.24 265 288 C284.47 288 303.94 288 324 288 C324 283.38 324 278.76 324 274 C304.53 274 285.06 274 265 274 Z " fill="#000000" transform="translate(131,33)"/>
<path d="M0 0 C2.17607934 1.43923104 2.17607934 1.43923104 4.33984375 1.1171875 C6.71160743 0.07661134 8.77409406 -1.20601058 10.94140625 -2.625 C25.33412179 -11.39950641 42.51810479 -10.93117339 58.52539062 -7.24072266 C66.14165702 -5.2398098 73.33073106 -2.65472114 80.10546875 1.4296875 C84.42517039 3.03240365 87.88312309 1.43014972 91.98046875 -0.2734375 C93.30207565 -0.88784836 94.62233994 -1.50515359 95.94140625 -2.125 C112.68625257 -9.61140205 129.88583186 -11.41169031 147.66015625 -6.1953125 C151.16331457 -4.81051701 154.23585253 -3.16463437 157.49243164 -1.29980469 C163.54936672 2.40064211 163.54936672 2.40064211 170.3828125 2.5703125 C173.18591194 0.96740215 175.70806666 -0.85014719 178.31640625 -2.75 C193.57496158 -9.7353186 211.31188585 -11.14574309 227.31640625 -5.75 C230.93598225 -4.14793337 234.43435464 -2.33358665 237.86230469 -0.35546875 C240.87642348 1.32784128 242.9210438 2.261496 246.40625 2.16015625 C249.56164482 1.17330123 252.36367395 -0.07483513 255.31640625 -1.5625 C268.52968205 -7.77258999 283.44143736 -12.1659375 297.81640625 -7.1875 C299.66388603 -6.40770142 301.49588046 -5.59080509 303.31640625 -4.75 C305.33726643 -3.84830522 307.36124172 -2.95401931 309.38671875 -2.06274414 C310.75697947 -1.45582862 312.12321235 -0.83970083 313.484375 -0.21264648 C320.75539542 3.07745361 329.45860602 6.33002503 337.3515625 3.52734375 C340.87280603 1.85153035 343.83865258 -0.13301158 346.87890625 -2.5625 C349.73860601 -4.69415693 350.27002451 -4.75 354.12890625 -4.75 C357.31640625 -3.75 357.31640625 -3.75 359.31640625 -0.75 C359.2192933 3.62008261 357.98029586 6.54912011 355.02734375 9.80078125 C347.99874016 15.75423315 338.18132412 18.83695287 329.0390625 18.5546875 C317.54944967 17.26890586 307.74846286 13.39910774 297.64453125 7.95703125 C289.65408299 3.85864406 280.20191924 4.05043964 271.69140625 6.6875 C267.86058287 8.09076953 264.21180089 9.76444027 260.55078125 11.5546875 C259.70854004 11.96533447 258.86629883 12.37598145 257.99853516 12.79907227 C256.32013818 13.62833562 254.65006909 14.47471716 252.98974609 15.33959961 C249.42971339 17.1247872 247.07566875 18.26449666 243.04296875 18.1875 C240.22992789 17.22026532 238.0432181 16.07901121 235.56640625 14.4375 C221.7244125 5.79661468 207.92121661 3.55815693 192.06640625 7.12890625 C185.23841041 9.17019251 177.74310333 12.24652049 172.35546875 16.96875 C169.18779081 18.95916832 166.99254896 18.69605916 163.31640625 18.25 C160.56287667 17.0943736 158.09595412 15.57831227 155.56640625 14 C154.14627939 13.16794902 152.72309116 12.34110086 151.296875 11.51953125 C150.26892822 10.92712646 150.26892822 10.92712646 149.22021484 10.32275391 C138.14787875 4.08373816 125.88630621 3.67512004 113.56640625 6.125 C106.58776632 8.08834995 100.10397891 11.58520649 93.70019531 14.93310547 C87.18255925 18.24039978 87.18255925 18.24039978 83.14453125 18.28515625 C79.5625528 16.97407298 76.27634841 15.26608637 72.94140625 13.4375 C58.31311273 5.86210352 42.32429789 2.6997289 25.94921875 5.91015625 C19.55216493 7.95685907 14.98476627 11.49973892 10.31640625 16.25 C8.31640625 18.25 8.31640625 18.25 5.57421875 18.60546875 C1.56027663 18.16749665 -0.4781414 16.82036306 -3.80859375 14.5625 C-15.04849358 7.24823506 -28.28987622 1.29623859 -41.984375 3.64453125 C-48.38153819 5.18661569 -52.35329758 8.18557787 -57.3359375 12.375 C-64.85903122 18.38346088 -73.3690206 17.9726824 -82.68359375 17.25 C-89.29068922 16.09759963 -94.89400462 12.94770253 -99.68359375 8.25 C-101.56214775 5.25977006 -101.68674255 4.31087689 -101.49609375 0.625 C-100.68359375 -2.75 -100.68359375 -2.75 -97.68359375 -4.75 C-94.56349495 -5.18209098 -93.19049796 -5.10172945 -90.578125 -3.2890625 C-89.89105469 -2.65742188 -89.20398438 -2.02578125 -88.49609375 -1.375 C-83.07831381 3.05446188 -78.10901432 4.59404946 -71.12109375 4.05078125 C-67.79690814 3.47568609 -67.79690814 3.47568609 -64.68359375 2.25 C-63.98349106 0.93391549 -63.31905731 -0.4015163 -62.68359375 -1.75 C-45.95537991 -17.09044722 -17.42316091 -11.36182837 0 0 Z " fill="#000000" transform="translate(139.68359375,413.75)"/>
<path d="M0 0 C2.17607934 1.43923104 2.17607934 1.43923104 4.33984375 1.1171875 C7.55480865 -0.2933307 10.37136066 -2.248126 13.29296875 -4.1796875 C21.27352587 -8.32462802 29.04212138 -9.27729743 37.94140625 -9.1875 C39.51583496 -9.17722778 39.51583496 -9.17722778 41.12207031 -9.16674805 C54.67518151 -8.889497 68.60634156 -5.77024011 80.26953125 1.4609375 C84.44751439 3.07153406 87.99424443 1.38524554 91.9453125 -0.2734375 C93.25756721 -0.88837487 94.56872321 -1.50566101 95.87890625 -2.125 C111.24524666 -9.02729238 128.76977476 -11.75740947 145.26171875 -6.9453125 C150.6700966 -4.82899073 155.81216742 -2.19966866 160.9453125 0.5078125 C164.18463262 2.29197831 164.18463262 2.29197831 167.31640625 3.25 C169.73834242 2.17441239 169.73834242 2.17441239 172.31640625 0.5625 C189.66887624 -9.26524581 207.17546221 -10.77350502 226.31640625 -5.75 C231.39165759 -3.97595852 236.35268477 -2.12148802 240.77734375 0.96875 C244.17253374 2.6820151 245.68095644 2.28101536 249.31640625 1.25 C251.93028477 0.22943054 254.46253558 -0.93709248 257.00390625 -2.125 C269.89466165 -7.89091279 283.85952691 -12.06400001 297.81640625 -7.1875 C299.66346257 -6.40669892 301.49545271 -5.5898783 303.31640625 -4.75 C305.35369914 -3.84864908 307.39433812 -2.95518937 309.43554688 -2.06274414 C310.81811783 -1.45430521 312.19728469 -0.8380486 313.57226562 -0.21264648 C321.07384974 3.1647593 329.25424933 6.33070321 337.421875 3.52734375 C340.9075358 1.86204739 343.93132377 -0.17067721 347.00390625 -2.5 C349.20105745 -4.11290872 350.27466161 -4.74126275 353.00390625 -5.3125 C356.22197131 -4.52972742 357.44946823 -3.47860172 359.31640625 -0.75 C359.41145514 3.62224906 357.96276317 6.56337105 355.03125 9.80078125 C347.6756176 16.01704463 337.92957616 18.78717583 328.44921875 18.5546875 C316.97520877 17.43876134 306.9891014 13.01379636 296.80078125 7.95703125 C288.82690652 4.05054778 280.1541556 4.0615411 271.69140625 6.6875 C267.86058287 8.09076953 264.21180089 9.76444027 260.55078125 11.5546875 C259.70854004 11.96533447 258.86629883 12.37598145 257.99853516 12.79907227 C256.32013818 13.62833562 254.65006909 14.47471716 252.98974609 15.33959961 C249.42971339 17.1247872 247.07566875 18.26449666 243.04296875 18.1875 C240.22992789 17.22026532 238.0432181 16.07901121 235.56640625 14.4375 C222.17063866 6.08767177 208.43848469 3.53273968 192.953125 7.00390625 C185.67441726 9.04810267 179.5667729 12.02677929 173.31640625 16.25 C169.52251052 18.77926382 167.82823822 18.71737952 163.31640625 18.25 C160.49857566 17.08152727 157.96545938 15.54630112 155.37890625 13.9375 C142.23029534 5.94120607 128.88696214 2.99852967 113.62890625 6.125 C106.62024064 8.07775924 100.12640526 11.57331039 93.70043945 14.93310547 C87.16530463 18.24897103 87.16530463 18.24897103 83.09375 18.25390625 C79.80412031 17.06482773 76.83134307 15.60281054 73.75390625 13.9375 C59.05514897 6.23617928 42.34593608 2.66477583 25.87109375 5.93359375 C19.43654257 8.09338043 14.19586347 11.55641053 10.00390625 16.93359375 C8.31640625 18.25 8.31640625 18.25 5.49609375 18.6640625 C1.6137383 18.15849778 -0.35058366 16.84977583 -3.55859375 14.625 C-14.94597463 7.1736487 -28.70260941 1.38473691 -42.53515625 3.734375 C-48.13563278 5.22122718 -52.09676316 7.42598151 -56.046875 11.73828125 C-62.31248002 17.52536751 -70.89230474 17.87387362 -78.98828125 17.63671875 C-87.13414461 16.78424468 -93.94208503 14.13872689 -99.68359375 8.25 C-101.84013672 5.43711786 -101.68427436 4.26315837 -101.49609375 0.625 C-100.68359375 -2.75 -100.68359375 -2.75 -97.68359375 -4.75 C-92.37359409 -4.75 -89.59373912 -2.31746302 -85.62109375 0.8125 C-81.73575849 3.69516809 -78.34550692 4.46802598 -73.62109375 4 C-67.27277649 2.93792411 -64.19507331 0.87151565 -59.68359375 -3.75 C-43.58798575 -17.09757737 -16.01072309 -10.44076266 0 0 Z " fill="#000000" transform="translate(139.68359375,363.75)"/>
<path d="M0 0 C3.41566534 -0.3514059 5.79573905 -2.02261742 8.625 -3.875 C22.97482254 -12.6105854 40.20352511 -12.25706729 56.15722656 -8.49072266 C63.78681072 -6.46886538 70.99638249 -3.91553835 77.7890625 0.1796875 C82.10876414 1.78240365 85.56671684 0.18014972 89.6640625 -1.5234375 C90.98563985 -2.13791193 92.30590486 -2.75521493 93.625 -3.375 C110.87724659 -11.08036283 129.23695983 -13.17821239 147.28515625 -6.6015625 C150.55480591 -5.28068228 153.53150458 -3.60213191 156.57788086 -1.8371582 C159.34939834 -0.25693013 161.95447447 1.0313118 165 2 C168.00088008 1.15252924 169.77980958 -0.17564729 172.23046875 -2.08984375 C175.71794864 -4.49517191 179.15487858 -5.61129362 183.1875 -6.8125 C183.85313965 -7.01842773 184.5187793 -7.22435547 185.20458984 -7.43652344 C201.59822886 -12.30446798 218.54248911 -10.80713809 233.5625 -2.75 C234.21702148 -2.37230469 234.87154297 -1.99460937 235.54589844 -1.60546875 C238.56001723 0.07784128 240.60463755 1.011496 244.08984375 0.91015625 C247.24523857 -0.07669877 250.0472677 -1.32483513 253 -2.8125 C266.2132758 -9.02258999 281.12503111 -13.4159375 295.5 -8.4375 C297.34747978 -7.65770142 299.17947421 -6.84080509 301 -6 C303.02086018 -5.09830522 305.04483547 -4.20401931 307.0703125 -3.31274414 C308.44057322 -2.70582862 309.8068061 -2.08970083 311.16796875 -1.46264648 C318.43898917 1.82745361 327.14219977 5.08002503 335.03515625 2.27734375 C338.55639978 0.60153035 341.52224633 -1.38301158 344.5625 -3.8125 C347.42219976 -5.94415693 347.95361826 -6 351.8125 -6 C355 -5 355 -5 357 -2 C356.78684753 2.90250675 355.49614637 5.59125729 352 9 C342.27400669 15.68910152 332.02584842 18.40077925 320.44140625 16.37890625 C311.33104057 14.4753491 303.49923143 11.10806917 295.328125 6.70703125 C286.57023493 2.21501486 276.89286788 3.09406819 267.6875 6 C261.30743546 8.2045074 255.32545201 11.17764915 249.45385742 14.49609375 C246.42686854 16.13689875 244.32593036 17.006883 240.85546875 16.93359375 C237.73212078 15.91241705 235.54556757 14.59446492 232.875 12.6875 C225.34930945 7.69429659 217.04606982 4.68272225 208 4 C206.0509375 3.8453125 206.0509375 3.8453125 204.0625 3.6875 C192.50816978 3.86525893 178.80038782 7.84250599 170.140625 15.68359375 C166.91178344 17.66921347 164.72996506 17.45689118 161 17 C158.42333574 15.67047533 156.19134829 14.35923013 153.8125 12.75 C141.18679551 4.80128751 128.74491113 1.71086548 113.88769531 4.37939453 C105.14990683 6.38887634 97.17258522 10.08095009 89.40185547 14.49609375 C86.4721568 16.0984036 84.36956836 17.00433653 81.00390625 16.96484375 C77.28587061 15.77062424 73.9761682 14.0477456 70.5625 12.1875 C55.59838607 4.48272694 39.4354304 1.29691936 22.71875 4.66015625 C15.89773482 7.09172185 11.03044062 11.96955938 6 17 C0.52419388 16.76047507 -2.97170037 15.13347745 -7.5625 12.25 C-19.45929526 5.12215802 -33.15680138 -0.41148111 -47.1875 2.9375 C-52.14913667 4.66643336 -55.67386503 7.77988034 -59.65234375 11.125 C-67.12438941 17.09269038 -75.73890464 16.88107673 -85 16 C-91.9089951 14.29565903 -98.98833015 10.76458731 -103.5 5.125 C-104.2714375 1.84639064 -103.78095801 -0.75602058 -103 -4 C-100 -6 -100 -6 -96.75 -6 C-93.07960283 -5.02122742 -92.21812093 -4.52898014 -89.625 -2.0625 C-85.76418643 1.50595798 -82.2388556 2.74568662 -77 3 C-73.52243456 2.75089073 -70.21171247 2.39639673 -67 1 C-65.92497317 -0.90511759 -65.92497317 -0.90511759 -65 -3 C-47.27566619 -18.93242314 -18.12265154 -12.0817677 0 0 Z " fill="#000000" transform="translate(142,465)"/>
<path d="M0 0 C7.66696321 5.58009749 13.04501151 11.52996403 15 21 C15.86138556 30.59119686 13.91627175 38.62471969 7.77734375 46.14453125 C0.9822264 53.23833507 -6.2551759 55.62017738 -16 56 C-24.40140188 55.61648379 -30.93226251 52.13878968 -36.7890625 46.1796875 C-41.5882646 40.34026425 -43.57738729 33.94438533 -44.375 26.5 C-43.25314861 16.02938707 -39.30475446 8.30973066 -31.1953125 1.546875 C-22.37227668 -4.67006839 -9.45593092 -5.15185202 0 0 Z M-28.5 17.0625 C-30.78999024 21.80605121 -30.78156627 26.8695204 -30 32 C-28.36547907 35.49726521 -28.36547907 35.49726521 -26 38 C-25.55785156 38.51949219 -25.11570312 39.03898437 -24.66015625 39.57421875 C-21.41759941 42.35900286 -17.14330017 42.62735562 -13 43 C-7.79636476 42.30618197 -4.68197429 40.51495422 -1.2265625 36.69921875 C1.62002892 32.75569242 2.22673137 28.67234538 1.875 23.9375 C1.0771085 19.24988747 -0.80151017 15.79673534 -4.5390625 12.7421875 C-12.99975439 7.21762613 -22.32499264 9.49811598 -28.5 17.0625 Z " fill="#000000" transform="translate(320,75)"/>
<path d="M0 0 C5.42754783 3.97239633 11.11957162 8.82765348 14 15 C13.85548129 18.75748654 13.67448252 20.32551748 11 23 C8.00864179 23.68551959 6.86365638 23.8690438 4 23 C-1.38728368 19.11056324 -6.11325495 14.39044053 -10 9 C-10.4375 5.875 -10.4375 5.875 -10 3 C-7.04664854 -0.8930542 -4.59313656 -1.40660641 0 0 Z " fill="#000000" transform="translate(336,122)"/>
<path d="M0 0 C3.60373439 0.54456431 5.07266588 2.09741059 7.69921875 4.5859375 C8.53582031 5.36324219 9.37242187 6.14054687 10.234375 6.94140625 C16.51157083 13.3614976 16.51157083 13.3614976 17.07421875 18.0234375 C16.63671875 21.3984375 16.63671875 21.3984375 15.51171875 23.3359375 C12.73245814 24.91085185 10.79472453 24.72194053 7.63671875 24.3984375 C5.00390625 22.60546875 5.00390625 22.60546875 2.51171875 20.2109375 C1.68414062 19.43363281 0.8565625 18.65632813 0.00390625 17.85546875 C-2.97121455 14.76743083 -5.73787562 11.86998015 -7.42578125 7.8984375 C-7.36328125 5.3984375 -7.36328125 5.3984375 -5.23828125 2.5859375 C-2.36328125 0.3984375 -2.36328125 0.3984375 0 0 Z " fill="#000000" transform="translate(268.36328125,56.6015625)"/>
<path d="M0 0 C2.375 1.625 2.375 1.625 4 4 C4.30038096 8.40558743 2.60798131 10.76730879 -0.125 14 C-1.3967356 15.35235688 -2.68863885 16.68603177 -4 18 C-4.59683594 18.6084375 -5.19367188 19.216875 -5.80859375 19.84375 C-8.67072607 22.54652083 -10.30122053 23.8790574 -14.25 24.5625 C-17 24 -17 24 -18.875 22.9375 C-20.70504931 19.78574841 -20.44190377 17.59046817 -20 14 C-18.21186676 11.33832811 -15.9870011 9.27770986 -13.625 7.125 C-12.72007812 6.25488281 -12.72007812 6.25488281 -11.796875 5.3671875 C-5.46923669 -0.65109961 -5.46923669 -0.65109961 0 0 Z " fill="#000000" transform="translate(346,57)"/>
<path d="M0 0 C2 2 2 2 2.5625 5.125 C1.75715822 10.67291007 -1.15020165 13.1345838 -5 17 C-5.50144531 17.60714844 -6.00289063 18.21429688 -6.51953125 18.83984375 C-8.43201395 21.07897639 -10.15529685 22.77592798 -13.046875 23.54296875 C-15.1875 23.6875 -15.1875 23.6875 -19 23 C-21.125 20.875 -21.125 20.875 -22 18 C-20.88366061 12.77350195 -18.28840434 9.75564827 -14.5 6.1875 C-14.00113281 5.69830078 -13.50226563 5.20910156 -12.98828125 4.70507812 C-8.49168363 0.34711555 -6.30880803 -0.33797186 0 0 Z " fill="#000000" transform="translate(283,122)"/>
<path d="M0 0 C2.21490209 1.60419184 2.91065679 2.49254182 3.38818359 5.20483398 C3.39156738 6.04344971 3.39495117 6.88206543 3.3984375 7.74609375 C3.40230469 8.66583984 3.40617187 9.58558594 3.41015625 10.53320312 C3.39855469 11.49162109 3.38695312 12.45003906 3.375 13.4375 C3.38660156 14.39205078 3.39820313 15.34660156 3.41015625 16.33007812 C3.40628906 17.25111328 3.40242188 18.17214844 3.3984375 19.12109375 C3.39505371 19.9608374 3.39166992 20.80058105 3.38818359 21.66577148 C2.90894777 24.54751595 2.03531355 25.9209762 0 28 C-3.5 28.5625 -3.5 28.5625 -7 28 C-10.95270694 23.56458922 -10.44738927 18.48114713 -10.375 12.875 C-10.38660156 11.96878906 -10.39820313 11.06257813 -10.41015625 10.12890625 C-10.40628906 9.25878906 -10.40242188 8.38867188 -10.3984375 7.4921875 C-10.39505371 6.70183105 -10.39166992 5.91147461 -10.38818359 5.09716797 C-9.32536975 -0.64470054 -5.04724916 -0.5407767 0 0 Z " fill="#000000" transform="translate(309,42)"/>
<path d="M0 0 C2.21490209 1.60419184 2.91065679 2.49254182 3.38818359 5.20483398 C3.39156738 6.04344971 3.39495117 6.88206543 3.3984375 7.74609375 C3.40230469 8.66583984 3.40617187 9.58558594 3.41015625 10.53320312 C3.39855469 11.49162109 3.38695312 12.45003906 3.375 13.4375 C3.38660156 14.39205078 3.39820313 15.34660156 3.41015625 16.33007812 C3.40628906 17.25111328 3.40242188 18.17214844 3.3984375 19.12109375 C3.39505371 19.9608374 3.39166992 20.80058105 3.38818359 21.66577148 C2.91125782 24.53362517 2.01143695 25.92092442 0 28 C-4.08165827 28.51020728 -5.52957297 28.31361802 -9 26 C-10.43879164 21.68362508 -10.22452634 17.52157417 -10.25 13 C-10.270625 12.08476562 -10.29125 11.16953125 -10.3125 10.2265625 C-10.31765625 9.34742188 -10.3228125 8.46828125 -10.328125 7.5625 C-10.3374707 6.75941406 -10.34681641 5.95632812 -10.35644531 5.12890625 C-9.38807618 -0.6547779 -5.03854206 -0.53984379 0 0 Z " fill="#000000" transform="translate(309,133)"/>
<path d="M0 0 C0.92103516 -0.00386719 1.84207031 -0.00773437 2.79101562 -0.01171875 C3.74556641 -0.00011719 4.70011719 0.01148437 5.68359375 0.0234375 C7.1212207 0.00603516 7.1212207 0.00603516 8.58789062 -0.01171875 C9.50763672 -0.00785156 10.42738281 -0.00398438 11.375 0 C12.21361572 0.00338379 13.05223145 0.00676758 13.91625977 0.01025391 C16.62903032 0.48786493 17.5135521 1.18595507 19.12109375 3.3984375 C19.55859375 6.8984375 19.55859375 6.8984375 19.12109375 10.3984375 C17.3247112 12.51699736 15.84261637 13.29807892 13.09204102 13.68066406 C10.61528894 13.8035593 8.16305219 13.80727393 5.68359375 13.7734375 C4.41418945 13.79083984 4.41418945 13.79083984 3.11914062 13.80859375 C-1.61166592 13.786366 -5.15365833 13.65802943 -8.87890625 10.3984375 C-9.44140625 6.8984375 -9.44140625 6.8984375 -8.87890625 3.3984375 C-6.02353746 0.60310115 -3.93803501 0.01586851 0 0 Z " fill="#000000" transform="translate(345.87890625,94.6015625)"/>
<path d="M0 0 C0.92103516 -0.00386719 1.84207031 -0.00773437 2.79101562 -0.01171875 C3.74556641 -0.00011719 4.70011719 0.01148437 5.68359375 0.0234375 C7.1212207 0.00603516 7.1212207 0.00603516 8.58789062 -0.01171875 C9.50763672 -0.00785156 10.42738281 -0.00398438 11.375 0 C12.21361572 0.00338379 13.05223145 0.00676758 13.91625977 0.01025391 C16.62903032 0.48786493 17.5135521 1.18595507 19.12109375 3.3984375 C19.55859375 6.8984375 19.55859375 6.8984375 19.12109375 10.3984375 C17.3247112 12.51699736 15.84261637 13.29807892 13.09204102 13.68066406 C10.61528894 13.8035593 8.16305219 13.80727393 5.68359375 13.7734375 C4.41418945 13.79083984 4.41418945 13.79083984 3.11914062 13.80859375 C-1.61166592 13.786366 -5.15365833 13.65802943 -8.87890625 10.3984375 C-9.44140625 6.8984375 -9.44140625 6.8984375 -8.87890625 3.3984375 C-6.02353746 0.60310115 -3.93803501 0.01586851 0 0 Z " fill="#000000" transform="translate(254.87890625,94.6015625)"/>
</svg>
