<?xml version="1.0" encoding="UTF-8"?>
<!DOCTYPE svg PUBLIC "-//W3C//DTD SVG 1.1//EN" "http://www.w3.org/Graphics/SVG/1.1/DTD/svg11.dtd">
<svg xmlns="http://www.w3.org/2000/svg" version="1.1" width="512px" height="512px" style="shape-rendering:geometricPrecision; text-rendering:geometricPrecision; image-rendering:optimizeQuality; fill-rule:evenodd; clip-rule:evenodd" xmlns:xlink="http://www.w3.org/1999/xlink">
<g><path style="opacity:0.935" fill="#000000" d="M 253.5,12.5 C 256.425,12.4598 259.091,13.2932 261.5,15C 289.611,38.1436 317.445,61.6436 345,85.5C 346.966,101.455 348.632,117.455 350,133.5C 368.333,148.833 386.667,164.167 405,179.5C 407.163,197.455 408.996,215.455 410.5,233.5C 409.871,239.631 406.538,242.131 400.5,241C 398.714,240.215 397.214,239.049 396,237.5C 394.393,220.826 392.727,204.159 391,187.5C 378,176.5 365,165.5 352,154.5C 361.219,264.13 370.386,373.796 379.5,483.5C 391.833,483.5 404.167,483.5 416.5,483.5C 415.165,462.812 413.498,442.146 411.5,421.5C 412.659,412.107 417.159,410.107 425,415.5C 428.067,440.061 430.567,464.728 432.5,489.5C 432.819,494.044 430.819,496.877 426.5,498C 307.833,498.667 189.167,498.667 70.5,498C 67.7683,497.602 65.935,496.102 65,493.5C 75.7823,419.135 87.1156,344.802 99,270.5C 99.3194,267.027 100.819,264.194 103.5,262C 119.833,249.833 136.167,237.667 152.5,225.5C 157.03,178.833 161.53,132.166 166,85.5C 195.065,60.9256 224.231,36.5923 253.5,12.5 Z M 247.5,36.5 C 248.662,52.6615 248.828,68.9948 248,85.5C 224.415,100.375 200.915,115.375 177.5,130.5C 177.277,118.164 178.11,105.83 180,93.5C 202.398,74.2598 224.898,55.2598 247.5,36.5 Z M 262.5,36.5 C 285.752,54.9117 308.585,73.9117 331,93.5C 342.829,223.447 353.996,353.447 364.5,483.5C 330.5,483.5 296.5,483.5 262.5,483.5C 262.5,334.5 262.5,185.5 262.5,36.5 Z M 246.5,103.5 C 247.832,112.475 248.498,121.809 248.5,131.5C 248.333,140.833 248.167,150.167 248,159.5C 222,176.167 196,192.833 170,209.5C 171.059,189.456 172.893,169.456 175.5,149.5C 199.402,134.392 223.069,119.058 246.5,103.5 Z M 247.5,177.5 C 248.662,195.995 248.829,214.662 248,233.5C 219.967,251.697 191.801,269.697 163.5,287.5C 164.528,267.99 166.028,248.323 168,228.5C 194.819,211.85 221.319,194.85 247.5,177.5 Z M 150.5,245.5 C 151.147,246.274 151.48,247.274 151.5,248.5C 144.337,326.795 137.67,405.128 131.5,483.5C 114.497,483.667 97.4967,483.5 80.5,483C 91.7548,413.221 102.921,343.388 114,273.5C 126.325,264.268 138.492,254.934 150.5,245.5 Z M 247.5,251.5 C 248.662,269.995 248.829,288.662 248,307.5C 217.667,327.167 187.333,346.833 157,366.5C 157.524,346.403 159.191,326.403 162,306.5C 190.82,288.516 219.32,270.183 247.5,251.5 Z M 247.5,325.5 C 248.828,344.338 248.828,363.338 247.5,382.5C 215.167,403.167 182.833,423.833 150.5,444.5C 150.835,424.804 152.335,405.137 155,385.5C 185.983,365.601 216.817,345.601 247.5,325.5 Z M 246.5,400.5 C 248.492,427.813 249.158,455.48 248.5,483.5C 214.5,483.5 180.5,483.5 146.5,483.5C 146.285,476.74 146.952,470.074 148.5,463.5C 181.571,442.974 214.238,421.974 246.5,400.5 Z"/></g>
<g><path style="opacity:0.906" fill="#000000" d="M 403.5,275.5 C 405.857,275.337 408.19,275.503 410.5,276C 412.333,276.5 413.5,277.667 414,279.5C 414.861,287.001 415.694,294.501 416.5,302C 415.424,308.41 411.757,310.743 405.5,309C 403.667,308.5 402.5,307.333 402,305.5C 401.057,298.178 400.223,290.845 399.5,283.5C 399.782,280.269 401.115,277.602 403.5,275.5 Z"/></g>
<g><path style="opacity:0.904" fill="#000000" d="M 409.5,343.5 C 414.439,342.352 417.939,344.019 420,348.5C 420.774,356.01 421.607,363.51 422.5,371C 421.424,377.41 417.757,379.743 411.5,378C 409.667,377.5 408.5,376.333 408,374.5C 406.548,365.537 405.882,356.537 406,347.5C 407.376,346.295 408.542,344.962 409.5,343.5 Z"/></g>
</svg>
