<?xml version="1.0" encoding="UTF-8"?>
<svg version="1.1" xmlns="http://www.w3.org/2000/svg" width="512" height="512">
<path d="M0 0 C3.31874486 0.86919508 4.85780408 3.05608449 7.1328125 5.55859375 C8.30070312 6.79996094 8.30070312 6.79996094 9.4921875 8.06640625 C14.41328927 13.45388695 19.14126159 18.94207035 23.7265625 24.6171875 C26.43867107 27.93247606 29.21394039 31.18722759 32.0078125 34.43359375 C39.25879311 42.86367993 46.50363575 51.2963849 53.5078125 59.93359375 C57.67437673 65.05592899 61.99482531 70.03276753 66.33325195 75.0090332 C70.25770347 79.52074738 74.06708033 84.1118493 77.83203125 88.7578125 C81.01316454 92.63026168 84.28034805 96.42588158 87.54882812 100.22460938 C92.32255481 105.77278095 97.05212257 111.35733729 101.77392578 116.94970703 C103.59991023 119.11162538 105.42791575 121.27182955 107.25610352 123.43188477 C108.17213129 124.51425629 109.08798486 125.59677528 110.00366211 126.67944336 C112.31738038 129.41496107 114.63325145 132.14860586 116.953125 134.87890625 C121.18360874 139.86173722 125.3913493 144.8556209 129.5078125 149.93359375 C133.67437673 155.05592899 137.99482531 160.03276753 142.33325195 165.0090332 C146.25770347 169.52074738 150.06708033 174.1118493 153.83203125 178.7578125 C157.01316454 182.63026168 160.28034805 186.42588158 163.54882812 190.22460938 C168.32255481 195.77278095 173.05212257 201.35733729 177.77392578 206.94970703 C179.59991023 209.11162538 181.42791575 211.27182955 183.25610352 213.43188477 C184.17213129 214.51425629 185.08798486 215.59677528 186.00366211 216.67944336 C188.31738038 219.41496107 190.63325145 222.14860586 192.953125 224.87890625 C198.75523825 231.71161169 204.506232 238.57988925 210.1328125 245.55859375 C211.06867188 246.67234375 211.06867188 246.67234375 212.0234375 247.80859375 C214.48517431 250.84550272 215.98719227 252.8834454 216.8203125 256.74609375 C215.88172787 260.58575814 214.1939807 262.12357359 211.1328125 264.55859375 C208.62420502 265.73450351 207.56864887 265.66945108 204.890625 264.98828125 C201.00894718 262.97596669 198.76496351 260.08493638 196.0078125 256.74609375 C195.24984375 255.84987305 195.24984375 255.84987305 194.4765625 254.93554688 C192.68721999 252.81670349 190.9106136 250.68713014 189.1328125 248.55859375 C185.5028125 244.26859375 181.8728125 239.97859375 178.1328125 235.55859375 C177.8028125 279.44859375 177.4728125 323.33859375 177.1328125 368.55859375 C195.2828125 368.55859375 213.4328125 368.55859375 232.1328125 368.55859375 C232.25158849 360.12980193 232.25158849 360.12980193 229.3125 358.05078125 C228.17167969 357.74527344 228.17167969 357.74527344 227.0078125 357.43359375 C220.16276721 355.01769541 216.05120376 350.7301165 212.7578125 344.30859375 C208.0139652 333.99588223 210.11577256 322.45244454 211.8203125 311.55859375 C211.99965332 310.39158936 212.17899414 309.22458496 212.36376953 308.0222168 C219.47904591 263.35815755 219.47904591 263.35815755 231.1328125 252.55859375 C234.88535432 250.31303691 237.76267347 250.17524822 242.1328125 250.55859375 C251.15972296 255.03038632 254.55270957 265.7958288 257.6875 274.83984375 C261.89924442 287.94304862 264.01724917 301.77490281 265.9453125 315.37109375 C266.0693042 316.23492676 266.1932959 317.09875977 266.32104492 317.98876953 C267.7089683 328.57462581 268.7173598 339.14212589 262.24609375 348.19921875 C257.8874993 353.40214825 254.38644286 356.13927608 248.02685547 358.35473633 C245.91905539 359.39910098 245.91905539 359.39910098 245.5234375 361.71655273 C245.47703125 362.52938721 245.430625 363.34222168 245.3828125 364.1796875 C245.32609375 364.99751709 245.269375 365.81534668 245.2109375 366.65795898 C245.18515625 367.28516846 245.159375 367.91237793 245.1328125 368.55859375 C246.20241211 368.53764648 247.27201172 368.51669922 248.37402344 368.49511719 C252.34719423 368.42264749 256.32030675 368.37676912 260.29394531 368.33886719 C262.01279529 368.31876747 263.73157702 368.29148286 265.45019531 368.25683594 C267.92269739 368.20824341 270.3942946 368.1856094 272.8671875 368.16796875 C274.01740387 368.13700104 274.01740387 368.13700104 275.19085693 368.10540771 C278.77014218 368.10390671 280.73125218 368.25146248 283.61621094 370.45800781 C285.25712041 372.73076781 285.67609485 373.78852361 285.6328125 376.55859375 C285.643125 377.21859375 285.6534375 377.87859375 285.6640625 378.55859375 C284.86013407 381.58514785 283.62014577 382.65326288 281.1328125 384.55859375 C278.22210769 384.95050429 275.69064236 385.09615316 272.78063965 385.06195831 C271.92628232 385.06777208 271.07192499 385.07358584 270.19167805 385.07957578 C267.30914385 385.09425347 264.42745083 385.08025441 261.54492188 385.06652832 C259.46541659 385.07113416 257.38591455 385.07748493 255.30641937 385.0854373 C249.57669806 385.10219722 243.84724187 385.093854 238.11751938 385.08149242 C231.9442944 385.07247146 225.77111619 385.08639695 219.59790039 385.09741211 C208.19842565 385.11420261 196.79905947 385.11270276 185.39958739 385.10176624 C174.86949121 385.0917131 164.33942617 385.08907296 153.80932617 385.09385681 C153.11146285 385.09416235 152.41359953 385.09446789 151.69458884 385.09478269 C148.8618976 385.096028 146.02920638 385.09730159 143.19651517 385.09862175 C116.6112331 385.11086407 90.02600513 385.09975389 63.44073141 385.07823416 C39.80941695 385.05925102 16.1781887 385.06094951 -7.453125 385.08007812 C-33.98906528 385.10148601 -60.52495774 385.10999593 -87.06090546 385.09762907 C-89.88850402 385.09634616 -92.71610259 385.0950948 -95.54370117 385.09385681 C-96.23995332 385.0935405 -96.93620547 385.09322419 -97.65355617 385.0928983 C-108.17831161 385.088344 -118.70303254 385.0936777 -129.2277832 385.10377502 C-141.1921606 385.11519612 -153.15643613 385.11200065 -165.12080956 385.09065205 C-171.22959552 385.08011246 -177.33820615 385.07606927 -183.44699097 385.08924866 C-189.03297384 385.10111819 -194.61861793 385.09470014 -200.20456982 385.07333845 C-202.23142249 385.06884923 -204.25830346 385.07119018 -206.28513813 385.0808416 C-209.02884401 385.09291014 -211.77137155 385.08062836 -214.51501465 385.06195831 C-215.71042264 385.07600531 -215.71042264 385.07600531 -216.92998028 385.09033608 C-220.50233691 385.0413581 -222.47878593 384.8561146 -225.35599518 382.65213346 C-226.99342955 380.38370354 -227.41039349 379.32377684 -227.3671875 376.55859375 C-227.3775 375.89859375 -227.3878125 375.23859375 -227.3984375 374.55859375 C-226.61742802 371.61832277 -225.21582807 370.45959496 -222.8671875 368.55859375 C-220.02636719 368.10449219 -220.02636719 368.10449219 -216.7890625 368.16796875 C-215.04882812 368.18730469 -215.04882812 368.18730469 -213.2734375 368.20703125 C-211.46359375 368.25730469 -211.46359375 368.25730469 -209.6171875 368.30859375 C-208.39515625 368.32664062 -207.173125 368.3446875 -205.9140625 368.36328125 C-202.89764672 368.41041275 -199.88281259 368.47619962 -196.8671875 368.55859375 C-196.86889624 367.69177812 -196.86889624 367.69177812 -196.8706395 366.80745107 C-196.93774968 332.57030565 -196.989235 298.33317517 -197.02038349 264.09597834 C-197.02413568 259.98659287 -197.02801864 255.87720753 -197.03198242 251.76782227 C-197.03276935 250.94970537 -197.03355628 250.13158847 -197.03436706 249.28868016 C-197.04742686 236.03565805 -197.07108386 222.78267491 -197.09864589 209.52967594 C-197.12668413 195.93447504 -197.14336041 182.33929457 -197.14945298 168.74406594 C-197.15357271 160.35267104 -197.16659225 151.96138629 -197.1909369 143.57002529 C-197.20677458 137.81853052 -197.21159233 132.06709284 -197.20769163 126.31557784 C-197.205767 122.99546024 -197.2103828 119.67557645 -197.22480392 116.35548401 C-197.2396696 112.75748939 -197.23616237 109.15997095 -197.22795105 105.56196594 C-197.23668957 104.51041032 -197.2454281 103.45885469 -197.25443143 102.37543374 C-197.19919341 93.45687447 -197.19919341 93.45687447 -193.8671875 89.55859375 C-191.55431822 88.40215911 -190.27295134 88.44323359 -187.70103455 88.4609375 C-186.39119095 88.46576393 -186.39119095 88.46576393 -185.05488586 88.47068787 C-184.09438828 88.47907181 -183.13389069 88.48745575 -182.14428711 88.49609375 C-180.05037038 88.5055417 -177.95645245 88.51472509 -175.86253357 88.52368164 C-174.74802763 88.52997589 -173.63352169 88.53627014 -172.48524284 88.54275513 C-166.59238014 88.56968606 -160.69954764 88.55984883 -154.80664062 88.5546875 C-147.30315668 88.54848162 -139.80042516 88.55374071 -132.29711914 88.60986328 C-126.23841471 88.65420709 -120.18109725 88.65463252 -114.12231636 88.62573242 C-111.81590933 88.62265613 -109.50942252 88.6355084 -107.20319939 88.66479492 C-94.90924952 89.24070974 -94.90924952 89.24070974 -83.51028442 85.61132812 C-81.23501012 83.37105805 -79.56679195 81.24833663 -77.8671875 78.55859375 C-76.82319282 77.33423645 -75.76353862 76.122813 -74.6796875 74.93359375 C-74.12410156 74.28648437 -73.56851563 73.639375 -72.99609375 72.97265625 C-70.10123864 69.6900499 -67.10967785 66.50210208 -64.1171875 63.30859375 C-57.98825839 56.76583235 -51.91413541 50.17718814 -45.8671875 43.55859375 C-44.0346573 41.55785712 -42.20091729 39.55823089 -40.3671875 37.55859375 C-39.45049873 36.55861401 -38.53383204 35.55861403 -37.6171875 34.55859375 C-32.1171875 28.55859375 -32.1171875 28.55859375 -30.74047852 27.05688477 C-29.82930182 26.06277074 -28.91832975 25.06846913 -28.00756836 24.07397461 C-25.63359975 21.48229654 -23.25553387 18.89454992 -20.87109375 16.3125 C-20.37867188 15.77818359 -19.88625 15.24386719 -19.37890625 14.69335938 C-18.01278967 13.21125176 -16.6451168 11.73057907 -15.27734375 10.25 C-13.70628297 8.49560636 -12.18891122 6.69114684 -10.73828125 4.8359375 C-7.49120026 0.88385354 -4.98927348 0.30326956 0 0 Z M-2.8671875 21.55859375 C-11.56618202 30.86240002 -20.23796552 40.19005423 -28.8671875 49.55859375 C-30.82496546 51.68410636 -32.78320972 53.80918687 -34.7421875 55.93359375 C-35.23001709 56.46267334 -35.71784668 56.99175293 -36.22045898 57.53686523 C-39.54597302 61.13910009 -42.88856892 64.724952 -46.23828125 68.3046875 C-56.91789405 77.83705975 -56.91789405 77.83705975 -63.8671875 88.55859375 C-62.30037231 88.58046753 -62.30037231 88.58046753 -60.7019043 88.6027832 C-56.82704405 88.66074926 -52.95276599 88.73798149 -49.07836914 88.82104492 C-47.40138191 88.85430238 -45.72428253 88.88233183 -44.04711914 88.9050293 C-41.63639525 88.93856112 -39.22669988 88.99087353 -36.81640625 89.046875 C-36.06630783 89.05326492 -35.31620941 89.05965485 -34.54338074 89.0662384 C-29.34412462 89.21315481 -29.34412462 89.21315481 -27.17001629 90.78783131 C-25.47394751 93.09307274 -25.4838615 94.47390433 -25.46846008 97.32316589 C-25.45593106 98.30129588 -25.44340204 99.27942587 -25.43049335 100.28719616 C-25.43191932 101.36313188 -25.43334528 102.43906759 -25.43481445 103.54760742 C-25.42454066 104.69778256 -25.41426687 105.84795771 -25.40368176 107.03298664 C-25.37373961 110.7642317 -25.36424326 114.49521378 -25.35546875 118.2265625 C-25.3400098 120.5269056 -25.32321424 122.82724012 -25.30505371 125.12756348 C-25.24704543 133.66697879 -25.2149508 142.20655422 -25.1796875 150.74609375 C-25.0765625 169.82421875 -24.9734375 188.90234375 -24.8671875 208.55859375 C34.8628125 208.55859375 94.5928125 208.55859375 156.1328125 208.55859375 C151.16976725 201.91653478 151.16976725 201.91653478 145.8203125 195.74609375 C141.90844991 191.46260422 138.22428989 187.04220061 134.57421875 182.53515625 C131.84750966 179.21075252 129.0620829 175.94255016 126.2578125 172.68359375 C120.97017539 166.53843401 115.72169212 160.36173566 110.49169922 154.16748047 C108.20735068 151.4628709 105.91995368 148.76084173 103.6328125 146.05859375 C100.89304277 142.82156699 98.15385703 139.58405845 95.41796875 136.34375 C94.51050517 135.26945649 93.6029529 134.19523788 92.6953125 133.12109375 C92.24559082 132.58887207 91.79586914 132.05665039 91.33251953 131.50830078 C88.42030071 128.06677559 85.48924942 124.64205719 82.54882812 121.22460938 C78.54115994 116.56677449 74.56439637 111.89555739 70.6953125 107.12109375 C66.55220259 102.0155191 62.250508 97.06059322 57.92993164 92.10571289 C54.02859609 87.62108524 50.24796088 83.05377705 46.5078125 78.43359375 C43.60785375 74.92311736 40.62523112 71.49026648 37.6328125 68.05859375 C33.15746734 62.92631719 28.79274124 57.72674101 24.5078125 52.43359375 C21.06570538 48.2668325 17.50703713 44.20418085 13.95166016 40.1340332 C9.82250837 35.39385467 5.84164589 30.56087589 1.9375 25.6328125 C0.11964656 23.35942603 0.11964656 23.35942603 -2.8671875 21.55859375 Z M-179.8671875 104.55859375 C-179.8671875 191.67859375 -179.8671875 278.79859375 -179.8671875 368.55859375 C-167.3271875 368.55859375 -154.7871875 368.55859375 -141.8671875 368.55859375 C-141.86132126 365.70885422 -141.85545502 362.85911469 -141.84941101 359.92301941 C-141.79426695 333.80670572 -141.72432948 307.69046232 -141.63820122 281.57423211 C-141.62693269 278.15324821 -141.61579429 274.73226389 -141.60473633 271.3112793 C-141.60253264 270.63020606 -141.60032896 269.94913282 -141.5980585 269.247421 C-141.56265987 258.21109894 -141.53781025 247.17477695 -141.51684048 236.13841911 C-141.49509881 224.8190227 -141.46184042 213.4997112 -141.41848594 202.18037301 C-141.39449352 195.82038756 -141.37580425 189.46048405 -141.36957359 183.10045433 C-141.36354991 177.11935575 -141.34364897 171.138467 -141.31291199 165.15744591 C-141.30408801 162.9575801 -141.30041812 160.75768691 -141.30217934 158.55780411 C-141.30382036 155.56332999 -141.28723334 152.56950453 -141.26591492 149.57511902 C-141.27076249 148.69672133 -141.27561007 147.81832364 -141.28060454 146.91330785 C-141.21081147 141.00760382 -141.21081147 141.00760382 -139.54949981 138.83678418 C-136.80660366 136.75278135 -133.72126697 137.14227624 -130.4140625 137.17041016 C-129.65766479 137.1651532 -128.90126709 137.15989624 -128.12194824 137.15447998 C-125.62015164 137.14126961 -123.11899064 137.15002143 -120.6171875 137.16015625 C-118.87988157 137.15813581 -117.14257646 137.15522461 -115.40527344 137.15145874 C-111.76358976 137.14703399 -108.12212678 137.15347121 -104.48046875 137.16748047 C-99.80945266 137.18457253 -95.13895366 137.17473214 -90.46795654 137.15676308 C-86.88033137 137.14592926 -83.29282905 137.14936971 -79.7052002 137.15714645 C-77.98278747 137.15914958 -76.26036363 137.15668525 -74.53796387 137.14970779 C-72.13177895 137.1420998 -69.7264347 137.15368763 -67.3203125 137.17041016 C-66.24952454 137.16130112 -66.24952454 137.16130112 -65.15710449 137.15200806 C-60.32023924 137.21437324 -60.32023924 137.21437324 -58.18487519 138.83678418 C-55.83060903 141.91308066 -56.44789781 145.84916334 -56.46846008 149.57511902 C-56.46181326 150.50873223 -56.45516643 151.44234544 -56.44831818 152.40424997 C-56.42960271 155.54589527 -56.43229923 158.68716258 -56.43481445 161.82885742 C-56.42580252 164.07558229 -56.41547672 166.32230223 -56.40393066 168.5690155 C-56.37626782 174.68022605 -56.36706355 180.79134356 -56.36107659 186.90260863 C-56.35171705 193.28482639 -56.32551569 199.66697397 -56.30107117 206.04914856 C-56.26230923 216.76510059 -56.23398411 227.4810221 -56.21362305 238.19702148 C-56.19262143 249.23513483 -56.16535352 260.27320332 -56.12963867 271.3112793 C-56.12743985 271.99152612 -56.12524102 272.67177294 -56.12297557 273.3726333 C-56.11190612 276.78518998 -56.10071327 280.19774625 -56.08945906 283.61030233 C-55.99623573 311.92635965 -55.92487734 340.24244329 -55.8671875 368.55859375 C-50.9171875 368.55859375 -45.9671875 368.55859375 -40.8671875 368.55859375 C-40.8671875 281.43859375 -40.8671875 194.31859375 -40.8671875 104.55859375 C-86.7371875 104.55859375 -132.6071875 104.55859375 -179.8671875 104.55859375 Z M-125.8671875 152.55859375 C-125.8671875 200.07859375 -125.8671875 247.59859375 -125.8671875 296.55859375 C-108.0471875 296.55859375 -90.2271875 296.55859375 -71.8671875 296.55859375 C-71.8671875 249.03859375 -71.8671875 201.51859375 -71.8671875 152.55859375 C-89.6871875 152.55859375 -107.5071875 152.55859375 -125.8671875 152.55859375 Z M-24.8671875 224.55859375 C-24.8671875 272.07859375 -24.8671875 319.59859375 -24.8671875 368.55859375 C-4.4071875 368.55859375 16.0528125 368.55859375 37.1328125 368.55859375 C37.1328125 321.03859375 37.1328125 273.51859375 37.1328125 224.55859375 C16.6728125 224.55859375 -3.7871875 224.55859375 -24.8671875 224.55859375 Z M53.1328125 224.55859375 C53.1328125 272.07859375 53.1328125 319.59859375 53.1328125 368.55859375 C88.4428125 368.55859375 123.7528125 368.55859375 160.1328125 368.55859375 C160.1328125 321.03859375 160.1328125 273.51859375 160.1328125 224.55859375 C124.8228125 224.55859375 89.5128125 224.55859375 53.1328125 224.55859375 Z M237.1328125 264.55859375 C229.39434605 280.17249065 226.32100445 297.91679364 223.6953125 314.99609375 C223.5192749 316.11443604 223.3432373 317.23277832 223.16186523 318.38500977 C221.80862122 327.83915095 221.42706185 335.57054284 227.1328125 343.55859375 C229.19116594 344.75254465 229.19116594 344.75254465 231.1328125 345.55859375 C231.26558594 344.63175781 231.39835937 343.70492187 231.53515625 342.75 C231.80005859 340.95369141 231.80005859 340.95369141 232.0703125 339.12109375 C232.24433594 337.92613281 232.41835938 336.73117187 232.59765625 335.5 C233.1328125 332.55859375 233.1328125 332.55859375 234.1328125 331.55859375 C236.46578683 331.51766438 238.79986475 331.51617652 241.1328125 331.55859375 C242.92557116 334.67770231 243.47571968 337.23541803 243.7578125 340.80859375 C243.83257812 341.700625 243.90734375 342.59265625 243.984375 343.51171875 C244.03335937 344.1871875 244.08234375 344.86265625 244.1328125 345.55859375 C248.61003451 343.31998274 250.6904124 340.90976032 253.1328125 336.55859375 C256.75814864 314.43338056 248.67460016 284.53544281 239.1328125 264.55859375 C238.4728125 264.55859375 237.8128125 264.55859375 237.1328125 264.55859375 Z M-125.8671875 312.55859375 C-125.8671875 331.03859375 -125.8671875 349.51859375 -125.8671875 368.55859375 C-108.0471875 368.55859375 -90.2271875 368.55859375 -71.8671875 368.55859375 C-71.8671875 350.07859375 -71.8671875 331.59859375 -71.8671875 312.55859375 C-89.6871875 312.55859375 -107.5071875 312.55859375 -125.8671875 312.55859375 Z " fill="#000000" transform="translate(226.8671875,63.44140625)"/>
</svg>
