<?xml version="1.0" encoding="UTF-8"?>
<!DOCTYPE svg PUBLIC "-//W3C//DTD SVG 1.1//EN" "http://www.w3.org/Graphics/SVG/1.1/DTD/svg11.dtd">
<svg xmlns="http://www.w3.org/2000/svg" version="1.1" width="512px" height="512px" style="shape-rendering:geometricPrecision; text-rendering:geometricPrecision; image-rendering:optimizeQuality; fill-rule:evenodd; clip-rule:evenodd" xmlns:xlink="http://www.w3.org/1999/xlink">
<g><path style="opacity:0.993" fill="#eeebe7" d="M 233.5,-0.5 C 248.167,-0.5 262.833,-0.5 277.5,-0.5C 377.805,11.9821 449.305,63.9821 492,155.5C 502.297,180.687 508.797,206.687 511.5,233.5C 511.5,248.167 511.5,262.833 511.5,277.5C 506.241,330.974 486.575,378.307 452.5,419.5C 435.835,356.982 398.501,311.482 340.5,283C 331.833,279.667 323.167,276.333 314.5,273C 353.234,243.815 367.734,205.315 358,157.5C 341.28,107.376 306.447,81.3765 253.5,79.5C 202.38,82.7858 168.88,108.786 153,157.5C 143.266,205.315 157.766,243.815 196.5,273C 135.827,293.338 92.6605,332.838 67,391.5C 63.2517,400.576 60.4184,409.91 58.5,419.5C 24.4253,378.307 4.75864,330.974 -0.5,277.5C -0.5,262.833 -0.5,248.167 -0.5,233.5C 11.9821,133.195 63.9821,61.6947 155.5,19C 180.687,8.70332 206.687,2.20332 233.5,-0.5 Z"/></g>
<g><path style="opacity:1" fill="#c6c3bd" d="M 452.5,419.5 C 412.788,467.369 362.121,496.702 300.5,507.5C 295.951,507.624 291.618,508.291 287.5,509.5C 284.167,510.167 280.833,510.833 277.5,511.5C 262.833,511.5 248.167,511.5 233.5,511.5C 193.091,507.53 155.424,495.03 120.5,474C 111.228,468.209 102.562,461.709 94.5,454.5C 93.4154,452.413 91.7488,451.08 89.5,450.5C 78.1667,441.167 67.8333,430.833 58.5,419.5C 60.4184,409.91 63.2517,400.576 67,391.5C 92.6605,332.838 135.827,293.338 196.5,273C 157.766,243.815 143.266,205.315 153,157.5C 168.88,108.786 202.38,82.7858 253.5,79.5C 306.447,81.3765 341.28,107.376 358,157.5C 367.734,205.315 353.234,243.815 314.5,273C 323.167,276.333 331.833,279.667 340.5,283C 398.501,311.482 435.835,356.982 452.5,419.5 Z"/></g>
<g><path style="opacity:0.929" fill="#d6d3ce" d="M 89.5,450.5 C 91.7488,451.08 93.4154,452.413 94.5,454.5C 92.2512,453.92 90.5846,452.587 89.5,450.5 Z"/></g>
<g><path style="opacity:0.725" fill="#d7d4cf" d="M 300.5,507.5 C 296.433,509.054 292.1,509.72 287.5,509.5C 291.618,508.291 295.951,507.624 300.5,507.5 Z"/></g>
</svg>
