<?xml version="1.0" encoding="UTF-8"?>
<svg version="1.1" xmlns="http://www.w3.org/2000/svg" width="512" height="512">
<path d="M0 0 C0.84423523 0.00304138 1.68847046 0.00608276 2.55828857 0.00921631 C16.62133439 0.08373611 30.10070772 1.12643557 43.8125 4.4375 C44.68890137 4.64117187 45.56530273 4.84484375 46.46826172 5.0546875 C83.84528267 13.97068587 115.66890668 34.68069039 141.8125 62.4375 C143.21707737 65.24665474 143.06145157 67.32560534 142.8125 70.4375 C141.75 72.75 141.75 72.75 139.8125 74.4375 C136.24059987 75.42969448 133.9510697 75.96493998 130.52734375 74.37890625 C126.86742228 71.76166745 123.86985723 68.66653569 120.75 65.4375 C119.53232667 64.18518265 118.31234137 62.93510838 117.08984375 61.6875 C116.55609131 61.13578125 116.02233887 60.5840625 115.47241211 60.015625 C114.92464111 59.49484375 114.37687012 58.9740625 113.8125 58.4375 C113.23733643 57.88151123 112.66217285 57.32552246 112.06958008 56.75268555 C108.80870991 54.85259819 106.17299618 55.09987505 102.421875 55.14453125 C101.36495453 55.15089851 101.36495453 55.15089851 100.28668213 55.15739441 C98.04489288 55.17413462 95.80401569 55.21177596 93.5625 55.25 C92.03907552 55.26505296 90.51563689 55.2787403 88.9921875 55.29101562 C85.26533059 55.32402209 81.53900437 55.37577146 77.8125 55.4375 C78.13412109 55.90422119 78.45574219 56.37094238 78.78710938 56.85180664 C92.03036095 76.1570102 102.68452046 95.36159206 107.8125 118.4375 C124.3125 118.1075 140.8125 117.7775 157.8125 117.4375 C154.5125 111.1675 151.2125 104.8975 147.8125 98.4375 C147.8125 92.4375 147.8125 92.4375 149.9375 89.5625 C152.8125 87.4375 152.8125 87.4375 155.8125 86.8125 C159.8894371 87.6618619 161.07588705 89.30409863 163.8125 92.4375 C165.60210109 95.17933937 167.12550039 98.02857249 168.625 100.9375 C169.05514404 101.76773682 169.48528809 102.59797363 169.9284668 103.45336914 C185.24942307 133.74714247 190.36840141 165.44117801 190.10546875 199.12109375 C190.09985184 201.28540244 190.0955917 203.44971502 190.09260559 205.61402893 C190.0813214 211.224753 190.05200226 216.83523238 190.01849365 222.44586182 C189.98743188 228.20541069 189.97402428 233.96500032 189.95898438 239.72460938 C189.92711144 250.96234526 189.87612238 262.19990204 189.8125 273.4375 C191.09125 273.39109375 192.37 273.3446875 193.6875 273.296875 C195.39580979 273.25932973 197.10414508 273.22293255 198.8125 273.1875 C199.65167969 273.15398437 200.49085938 273.12046875 201.35546875 273.0859375 C208.31699956 272.97800679 213.52187411 274.59790584 218.8359375 279.18359375 C219.28195312 279.74175781 219.72796875 280.29992187 220.1875 280.875 C220.64898437 281.43058594 221.11046875 281.98617188 221.5859375 282.55859375 C225.64913254 288.78278743 225.50183898 295.22998107 224.8125 302.4375 C223.13824858 308.6332328 219.12356474 312.9704016 213.8125 316.4375 C208.93109485 319.03405612 204.01289224 318.77802751 198.62109375 318.80859375 C197.63883316 318.81762222 196.65657257 318.8266507 195.64454651 318.83595276 C193.57271361 318.85043074 191.50083525 318.85933589 189.42895508 318.86303711 C186.25719878 318.87497291 183.08736394 318.92421589 179.91601562 318.97460938 C177.90105115 318.98406958 175.88607475 318.99130654 173.87109375 318.99609375 C172.9231041 319.01562607 171.97511444 319.03515839 170.99839783 319.05528259 C164.46586057 319.01039476 164.46586057 319.01039476 161.17993164 316.12915039 C159.31453443 312.45730532 159.7242582 310.35517049 160.8125 306.4375 C161.84423828 304.75415039 161.84423828 304.75415039 163.8125 303.4375 C166.69017771 303.13002057 169.36250708 302.99651062 172.2421875 302.99609375 C173.069534 302.98288589 173.89688049 302.96967804 174.7492981 302.95606995 C177.39539931 302.91515664 180.04115403 302.8935076 182.6875 302.875 C185.32659766 302.85117448 187.96537065 302.82296369 190.60427856 302.78321838 C192.24582639 302.75896686 193.88754534 302.74402261 195.52926636 302.73960876 C202.19779864 302.70865999 202.19779864 302.70865999 207.8125 299.4375 C208.06253964 295.97928598 208.06253964 295.97928598 207.8125 292.4375 C204.41044574 289.03544574 200.97686649 289.3217969 196.28593716 289.30263731 C195.55024948 289.30469263 194.81456179 289.30674795 194.05658054 289.30886555 C193.26668101 289.30711251 192.47678148 289.30535947 191.6629456 289.30355331 C188.99993491 289.2988788 186.33697847 289.30136254 183.67396545 289.30378723 C181.75191927 289.30191999 179.82987347 289.29961964 177.90782827 289.29692191 C172.61338103 289.2907868 167.31894953 289.29093951 162.02449954 289.29211628 C156.31957862 289.29231986 150.61466281 289.28680572 144.90974426 289.28205872 C133.72845928 289.27374245 122.54717957 289.27100344 111.36589176 289.27044634 C102.28088323 289.26997168 93.19587644 289.26791946 84.11086845 289.26474571 C62.56273543 289.25737091 41.01460413 289.25122117 19.46646976 289.25174427 C18.43248568 289.25176764 18.43248568 289.25176764 17.37761302 289.25179148 C13.88370418 289.25187459 10.38979533 289.25197363 6.89588649 289.25207619 C6.20196195 289.25209613 5.50803741 289.25211608 4.79308486 289.25213663 C3.38980049 289.25217706 1.98651612 289.25221886 0.58323175 289.25226202 C-21.25563536 289.25287494 -43.09448694 289.24536551 -64.93334961 289.23168945 C-89.45902919 289.21633723 -113.9846968 289.20773537 -138.51038176 289.20865268 C-151.50019858 289.20898518 -164.48999789 289.20621458 -177.47981071 289.19547462 C-188.53760446 289.18639087 -199.59537276 289.18417685 -210.65316861 289.19098405 C-216.29825144 289.19425991 -221.9432854 289.19426767 -227.58836365 289.1856308 C-232.75179246 289.17781185 -237.91513328 289.17914972 -243.07855982 289.18791493 C-244.9506572 289.18946013 -246.82276099 289.18759576 -248.69485079 289.18205485 C-251.23192152 289.17504064 -253.76867963 289.18025213 -256.3057394 289.18861103 C-257.03908592 289.18364285 -257.77243244 289.17867467 -258.52800158 289.17355594 C-262.7011685 289.20278979 -267.06303558 289.31303558 -270.1875 292.4375 C-270.43753964 295.89571402 -270.43753964 295.89571402 -270.1875 299.4375 C-266.52667495 303.09832505 -262.43053124 302.56298101 -257.44391632 302.56499195 C-256.42323406 302.5674577 -256.42323406 302.5674577 -255.38193196 302.56997326 C-253.09123003 302.57430096 -250.80059133 302.57150918 -248.5098877 302.56880188 C-246.85524079 302.57050366 -245.2005943 302.57265317 -243.54594851 302.57521313 C-239.94295117 302.57981449 -236.33997101 302.58123015 -232.7369709 302.58024788 C-226.87529447 302.57865679 -221.01363514 302.58385349 -215.15196228 302.58987427 C-206.64240016 302.59799101 -198.13284104 302.60293232 -189.62327576 302.60616493 C-176.17986791 302.61165713 -162.73648549 302.62854939 -149.29309082 302.64750671 C-144.69609837 302.65386351 -140.09910585 302.66017191 -135.50211334 302.66648388 C-134.35326817 302.66806764 -133.20442299 302.6696514 -132.02076432 302.67128316 C-118.94043976 302.68922341 -105.8601134 302.70544886 -92.77978516 302.72045898 C-91.58385988 302.72183486 -90.3879346 302.72321073 -89.15576917 302.72462829 C-69.76238086 302.74657268 -50.36899907 302.75731802 -30.97560054 302.76482973 C-11.07816686 302.77289215 8.81921069 302.79615297 28.71661234 302.8327834 C40.99761368 302.85484388 53.27849972 302.86446224 65.55951989 302.85828307 C73.96993419 302.85511586 82.38024979 302.86638962 90.79063356 302.88917748 C95.64781639 302.90188303 100.50477942 302.90796973 105.3619709 302.89676094 C109.80442878 302.88664055 114.2464587 302.89474123 118.68886572 302.9176239 C120.2998364 302.92264466 121.91084507 302.9208403 123.5217976 302.91169123 C125.70469219 302.90026424 127.88610877 302.91322411 130.06891632 302.93248463 C131.28337197 302.93346144 132.49782762 302.93443824 133.74908495 302.93544465 C137.43206469 303.53903889 138.62094703 304.45985895 140.8125 307.4375 C141.36338471 311.29369299 141.54959579 313.43213703 139.20885825 316.62478971 C135.9932761 319.05719682 133.9837063 318.93875193 129.97076797 318.94086456 C129.27969291 318.94667833 128.58861784 318.95249209 127.8766011 318.95848203 C125.54940231 318.97313762 123.2232491 318.95917184 120.89605713 318.94543457 C119.2153824 318.95004135 117.53471168 318.95639276 115.85404944 318.96434355 C111.22658059 318.98109147 106.59944035 318.97276573 101.97197008 318.96039867 C96.98476937 318.9513725 91.99762637 318.96530598 87.01043701 318.97631836 C77.23581975 318.99413579 67.46132513 318.99024881 57.686703 318.9786678 C49.74253854 318.96964434 41.79840852 318.96840476 33.85424042 318.97276306 C32.72474477 318.97337599 31.59524913 318.97398893 30.43152635 318.97462043 C28.13712232 318.97589931 25.84271831 318.97719616 23.5483143 318.9785108 C2.01535491 318.98992657 -19.51753645 318.97678833 -41.05048469 318.95530933 C-59.52945881 318.93744715 -78.00833239 318.94053329 -96.48730469 318.95898438 C-117.93556253 318.98039018 -139.38376064 318.98881762 -160.83202767 318.97653532 C-163.11934423 318.97526111 -165.40666079 318.97400362 -167.69397736 318.97276306 C-168.8194287 318.97214596 -169.94488004 318.97152886 -171.10443597 318.97089306 C-179.03763324 318.96743857 -186.97079266 318.97327085 -194.90398407 318.98268127 C-204.57430983 318.99389982 -214.24450571 318.99086458 -223.91481659 318.9695583 C-228.84945747 318.95904452 -233.78388183 318.95493159 -238.71852112 318.96815491 C-243.23643091 318.98007832 -247.75392356 318.97351699 -252.27179554 318.9522447 C-253.90571987 318.94777831 -255.53967947 318.95004576 -257.17358109 318.95974785 C-273.9459337 319.05169736 -273.9459337 319.05169736 -281.2109375 312.65625 C-281.65695312 312.0890625 -282.10296875 311.521875 -282.5625 310.9375 C-283.02398437 310.3703125 -283.48546875 309.803125 -283.9609375 309.21875 C-288.36766352 302.81917336 -287.95328039 295.93741105 -287.1875 288.4375 C-284.95375171 282.09097053 -279.89909506 277.27746342 -273.92700195 274.31689453 C-270.61020396 273.25218493 -267.83754575 273.21150841 -264.35546875 273.2421875 C-263.06318359 273.24863281 -261.77089844 273.25507813 -260.43945312 273.26171875 C-259.0846327 273.27842673 -257.72981499 273.29535658 -256.375 273.3125 C-255.00065749 273.32253997 -253.62630797 273.33166404 -252.25195312 273.33984375 C-248.89695683 273.36338758 -245.54231801 273.39627433 -242.1875 273.4375 C-242.21368408 272.7669458 -242.23986816 272.0963916 -242.2668457 271.40551758 C-242.37107238 268.35391872 -242.43590623 265.30269458 -242.5 262.25 C-242.54189453 261.19490234 -242.58378906 260.13980469 -242.62695312 259.05273438 C-242.75065448 251.2100687 -242.75065448 251.2100687 -239.85546875 247.23828125 C-237.1875 245.4375 -237.1875 245.4375 -234.1875 244.8125 C-229.95022394 245.69526585 -228.7478736 246.92502768 -226.1875 250.4375 C-225.56983987 254.39172853 -225.71658061 258.26026851 -225.875 262.25 C-225.90883789 263.86165039 -225.90883789 263.86165039 -225.94335938 265.50585938 C-226.00212559 268.15033888 -226.09180167 270.79409933 -226.1875 273.4375 C-221.5675 273.4375 -216.9475 273.4375 -212.1875 273.4375 C-212.19638245 272.15536118 -212.20526489 270.87322235 -212.2144165 269.55223083 C-212.29582018 257.41613341 -212.35561731 245.28009203 -212.39474869 233.14378262 C-212.41554344 226.90571572 -212.44371193 220.66787082 -212.48925781 214.42993164 C-212.53300596 208.39985563 -212.55669797 202.36999194 -212.56700897 196.33976936 C-212.57434862 194.04948654 -212.58867987 191.75921415 -212.61042023 189.46902275 C-212.80349714 168.26931694 -210.73244276 151.85833228 -195.671875 135.76171875 C-182.79704476 123.7168697 -168.61611632 120.93564752 -151.703125 121.16015625 C-137.94167484 121.62644949 -126.43020173 128.56092242 -116.578125 137.83984375 C-101.83595959 153.85869996 -101.60141531 172.28081403 -101.796875 192.87109375 C-101.80435052 195.20377616 -101.81003724 197.53646491 -101.81402588 199.86915588 C-101.82917893 205.9601119 -101.86837022 212.05067642 -101.9128418 218.14147949 C-101.95401907 224.37616686 -101.97208454 230.61091849 -101.9921875 236.84570312 C-102.03487568 249.04313921 -102.10299972 261.24028684 -102.1875 273.4375 C-97.5675 273.4375 -92.9475 273.4375 -88.1875 273.4375 C-88.24892594 259.9888576 -88.32618572 246.54040582 -88.42321491 233.09197044 C-88.46778986 226.84615769 -88.50707404 220.60040823 -88.53393555 214.35449219 C-88.56009733 208.31782611 -88.60058976 202.28140533 -88.65068626 196.24489212 C-88.66726829 193.95105687 -88.67883615 191.65717929 -88.68511391 189.36329269 C-88.67454517 167.02375972 -88.67454517 167.02375972 -95.9375 146.125 C-96.28675537 145.45476807 -96.63601074 144.78453613 -96.99584961 144.09399414 C-99.85835961 138.74290855 -103.11573893 133.95123051 -107.1875 129.4375 C-107.69410156 128.839375 -108.20070312 128.24125 -108.72265625 127.625 C-120.68551364 114.45703904 -138.72712991 108.39877071 -156.09570312 107.48046875 C-174.69982326 107.09831129 -191.60553595 114.66730803 -204.9453125 127.23828125 C-205.68523437 127.96402344 -206.42515625 128.68976563 -207.1875 129.4375 C-207.74179688 129.96730469 -208.29609375 130.49710938 -208.8671875 131.04296875 C-221.67815817 144.51180007 -225.29480031 162.46740619 -225.36328125 180.3203125 C-225.38646214 182.64454048 -225.41057874 184.96875928 -225.43554688 187.29296875 C-225.47075199 190.93805263 -225.50007434 194.5827935 -225.51342773 198.22802734 C-225.52887574 201.75920265 -225.56904139 205.28939604 -225.61328125 208.8203125 C-225.61137283 209.90998322 -225.60946442 210.99965393 -225.60749817 212.12234497 C-225.72982967 219.6747746 -225.72982967 219.6747746 -228.09838867 223.62207031 C-230.34385929 225.57337562 -231.25017346 226.11986966 -234.1875 226.0625 C-234.8475 226.07539063 -235.5075 226.08828125 -236.1875 226.1015625 C-239.51469488 224.99682983 -240.38675084 223.45543288 -242.1875 220.4375 C-242.78347282 216.51478578 -242.72374358 212.62516482 -242.68359375 208.6640625 C-242.68504898 207.50812592 -242.68650421 206.35218933 -242.68800354 205.16122437 C-242.68634404 202.71178676 -242.67477727 200.26233878 -242.65405273 197.81298828 C-242.62537211 194.11053691 -242.63338994 190.40954343 -242.64648438 186.70703125 C-242.62240939 158.49687311 -237.18051615 136.36544136 -217.1875 115.4375 C-216.63578125 114.81101562 -216.0840625 114.18453125 -215.515625 113.5390625 C-203.94866328 100.88411923 -186.60998356 94.66028383 -170.1875 91.4375 C-168.52107678 91.40901413 -166.85380759 91.40290538 -165.1875 91.4375 C-162.06973578 91.17278417 -161.34907439 90.62425906 -159.2578125 88.20703125 C-157.5211935 85.56723088 -155.8783161 82.88817871 -154.26074219 80.17431641 C-139.71057192 56.62793077 -116.72866564 38.28456116 -93.1875 24.4375 C-92.58212402 24.07914063 -91.97674805 23.72078125 -91.35302734 23.3515625 C-77.6898291 15.37042446 -62.81492641 9.75036607 -47.5625 5.625 C-46.89702148 5.44235596 -46.23154297 5.25971191 -45.54589844 5.0715332 C-30.52554028 1.26367894 -15.45144217 -0.11933838 0 0 Z M-25.625 17.625 C-26.39013916 17.7588208 -27.15527832 17.8926416 -27.94360352 18.03051758 C-48.34963218 21.75636657 -66.85974004 28.77975822 -85.1875 38.4375 C-85.1875 38.7675 -85.1875 39.0975 -85.1875 39.4375 C-59.4475 39.4375 -33.7075 39.4375 -7.1875 39.4375 C-7.1875 31.8475 -7.1875 24.2575 -7.1875 16.4375 C-13.68672342 16.4375 -19.34951731 16.51408457 -25.625 17.625 Z M8.8125 16.4375 C8.8125 24.0275 8.8125 31.6175 8.8125 39.4375 C34.5525 39.4375 60.2925 39.4375 86.8125 39.4375 C65.72111127 23.61895845 34.68937992 16.4375 8.8125 16.4375 Z M-120.1875 65.4375 C-122.03268767 67.2627017 -123.92218434 69.03344083 -125.8125 70.8125 C-129.80055331 74.83538347 -133.41179054 79.02746275 -136.875 83.5 C-137.52686279 84.34087158 -137.52686279 84.34087158 -138.19189453 85.19873047 C-140.49209989 88.00821878 -140.49209989 88.00821878 -141.1875 91.4375 C-126.6675 91.4375 -112.1475 91.4375 -97.1875 91.4375 C-95.228125 87.910625 -93.26875 84.38375 -91.25 80.75 C-86.75799303 72.72969076 -82.1051378 65.00466438 -76.69921875 57.5703125 C-75.09112232 55.73722979 -75.09112232 55.73722979 -75.1875 54.4375 C-79.66704027 54.16205527 -84.14190208 53.96444992 -88.62744141 53.83325195 C-90.1468703 53.77849342 -91.6657351 53.70384202 -93.18310547 53.60766602 C-106.15869961 52.80686202 -111.57515802 55.68781793 -120.1875 65.4375 Z M-63.1875 65.4375 C-64.3853758 67.04949061 -65.59194597 68.65511191 -66.8125 70.25 C-69.59551229 74.37470317 -72.13397181 78.63236541 -74.625 82.9375 C-74.97965332 83.54956299 -75.33430664 84.16162598 -75.69970703 84.79223633 C-77.5876832 87.91856991 -77.5876832 87.91856991 -78.1875 91.4375 C-77.41784912 91.4468457 -76.64819824 91.45619141 -75.85522461 91.46582031 C-47.3737506 91.90022934 -47.3737506 91.90022934 -35.1875 96.4375 C-34.15238281 96.7984375 -33.11726563 97.159375 -32.05078125 97.53125 C-24.02946683 100.57133844 -14.9235631 104.80527127 -9.43133545 111.61491394 C-4.8850083 116.79758969 -1.01215842 118.95238884 5.75873947 119.39561939 C10.48269295 119.50968517 15.19089096 119.43057082 19.9140625 119.31640625 C21.96240429 119.29959786 24.01078252 119.28679724 26.05917358 119.27781677 C31.42276794 119.24362775 36.78413132 119.15537573 42.14685059 119.05548096 C47.63014553 118.96303159 53.11380481 118.92222769 58.59765625 118.87695312 C69.33691201 118.78073953 80.07451973 118.62735168 90.8125 118.4375 C90.49956762 116.99327389 90.18445033 115.54952108 89.8684082 114.10597229 C89.69316116 113.30193246 89.51791412 112.49789263 89.33735657 111.66948795 C88.32663325 107.37131888 86.56196151 103.41549479 84.8125 99.375 C84.41659668 98.46032959 84.02069336 97.54565918 83.61279297 96.60327148 C77.34392202 82.51858553 68.74556637 70.17946344 58.8125 58.4375 C58.0627037 57.37752052 58.0627037 57.37752052 57.29776001 56.29612732 C53.36590402 53.35564829 49.3909964 53.82301134 44.60302734 53.80883789 C43.04616714 53.7814579 43.04616714 53.7814579 41.45785522 53.75352478 C38.0212524 53.70017261 34.58539873 53.67780389 31.1484375 53.66015625 C28.75672265 53.63968273 26.3650092 53.61904545 23.97329712 53.59825134 C18.95464615 53.56073347 13.93625709 53.54135644 8.91748047 53.53149414 C2.50068187 53.5151646 -3.91316429 53.42951476 -10.32908058 53.32680607 C-15.27242441 53.2596415 -20.21506366 53.24215699 -25.15882492 53.23809624 C-27.52313475 53.22786429 -29.88744094 53.19945411 -32.25130081 53.15220833 C-50.87973922 52.62570927 -50.87973922 52.62570927 -63.1875 65.4375 Z M-107.1875 106.4375 C-104.6929232 108.94379454 -102.19669351 111.42893332 -99.609375 113.83984375 C-82.4237897 130.14604969 -73.44836122 151.17540973 -72.8052206 174.87579155 C-72.71632873 180.35345825 -72.69051876 185.83029851 -72.67578125 191.30859375 C-72.65890568 193.68613088 -72.64075164 196.06365924 -72.62138367 198.44117737 C-72.57419013 204.65029154 -72.54418335 210.85937016 -72.51794434 217.06860352 C-72.48270046 224.54462019 -72.42577614 232.02050043 -72.37255096 239.49640656 C-72.29439715 250.81008621 -72.24351901 262.1235917 -72.1875 273.4375 C-46.4475 273.4375 -20.7075 273.4375 5.8125 273.4375 C5.87076693 256.20801428 5.87076693 256.20801428 5.91015625 238.97851562 C5.92206597 231.94113105 5.93608522 224.903799 5.96337891 217.86645508 C5.98526765 212.18652334 5.99710212 206.50664802 6.00225449 200.82667732 C6.00592167 198.6703916 6.01308188 196.51410862 6.02396011 194.35784721 C6.1300746 172.4323127 5.45931188 151.11572172 -9.1875 133.4375 C-9.8784375 132.58542969 -10.569375 131.73335937 -11.28125 130.85546875 C-23.87702083 116.06430828 -40.99346881 108.29858082 -60.20768738 106.63876343 C-64.77088926 106.33055423 -69.31486456 106.31378946 -73.88671875 106.33984375 C-74.8477803 106.3412587 -75.80884186 106.34267365 -76.79902649 106.34413147 C-79.82438466 106.34966325 -82.84966475 106.36220227 -85.875 106.375 C-87.94466038 106.38002384 -90.01432193 106.38458519 -92.08398438 106.38867188 C-97.118519 106.39961019 -102.15299633 106.41682638 -107.1875 106.4375 Z M10.8125 133.4375 C12.63534498 138.90603493 14.59093493 144.30309424 16.59375 149.70703125 C21.83891718 165.76195001 20.7784899 179.34232328 21.8125 197.4375 C71.9725 197.4375 122.1325 197.4375 173.8125 197.4375 C174.05203758 181.23036289 174.05203758 181.23036289 172.625 165.3125 C172.49625488 164.42143555 172.36750977 163.53037109 172.23486328 162.61230469 C169.95230662 147.60555207 169.95230662 147.60555207 164.8125 133.4375 C113.9925 133.4375 63.1725 133.4375 10.8125 133.4375 Z M-186.9375 150.3515625 C-194.37997009 159.69186246 -196.34541685 168.79028709 -196.30102539 180.46020508 C-196.30117142 181.46555298 -196.30131744 182.47090088 -196.3014679 183.50671387 C-196.30077228 186.82350842 -196.29299625 190.14024653 -196.28515625 193.45703125 C-196.28329083 195.75917022 -196.28186751 198.06130959 -196.28086853 200.3634491 C-196.27705316 206.4182139 -196.2672312 212.47295465 -196.25616455 218.52770996 C-196.24412937 225.79481255 -196.23954353 233.06192319 -196.23371124 240.3290329 C-196.22401896 251.36520531 -196.20485551 262.40132499 -196.1875 273.4375 C-170.4475 273.4375 -144.7075 273.4375 -118.1875 273.4375 C-118.1001821 255.37501399 -118.1001821 255.37501399 -118.04101562 237.3125 C-118.02311126 229.94101449 -118.00197393 222.56964121 -117.96118164 215.19824219 C-117.92848614 209.25248869 -117.91062542 203.30685563 -117.90286827 197.36101913 C-117.89734306 195.09732036 -117.88655379 192.83362786 -117.87030983 190.56998062 C-117.84840036 187.38912168 -117.84553875 184.20875479 -117.84692383 181.02783203 C-117.836138 180.10065872 -117.82535217 179.17348541 -117.8142395 178.21821594 C-117.86666031 167.02723759 -121.43195543 156.79954282 -129.00390625 148.4296875 C-138.49276106 139.57342301 -148.44510126 136.92332452 -161.0703125 137.1640625 C-171.53406713 137.64862885 -179.96835269 142.72905763 -186.9375 150.3515625 Z M21.8125 212.4375 C21.8125 232.5675 21.8125 252.6975 21.8125 273.4375 C49.5325 273.4375 77.2525 273.4375 105.8125 273.4375 C105.8125 253.3075 105.8125 233.1775 105.8125 212.4375 C78.0925 212.4375 50.3725 212.4375 21.8125 212.4375 Z M121.8125 212.4375 C121.8125 232.5675 121.8125 252.6975 121.8125 273.4375 C138.9725 273.4375 156.1325 273.4375 173.8125 273.4375 C173.8125 253.3075 173.8125 233.1775 173.8125 212.4375 C156.6525 212.4375 139.4925 212.4375 121.8125 212.4375 Z " fill="#000000" transform="translate(287.1875,96.5625)"/>
</svg>
