<?xml version="1.0" encoding="UTF-8"?>
<svg version="1.1" xmlns="http://www.w3.org/2000/svg" width="512" height="512">
<path d="M0 0 C0.61117676 0.32226562 1.22235352 0.64453125 1.85205078 0.9765625 C14.1176401 7.49524459 24.59905017 15.57703174 34.79296875 24.98046875 C36.71482152 26.73904907 38.67647489 28.40819775 40.6875 30.0625 C44.54877381 33.35540874 47.76598635 37.10098354 51 41 C51.61617188 41.72832031 52.23234375 42.45664063 52.8671875 43.20703125 C72.36932303 66.82106282 91.48517913 100.59592698 92 132 C90.43818681 135.670261 89.34089404 136.7727373 86 139 C79.90857288 138.67367355 79.90857288 138.67367355 77.3984375 136.8125 C75.54607462 134.41167213 74.95246382 132.09826874 74.125 129.1875 C71.8860851 122.20982912 69.59480378 118.18289326 62.9375 114.6875 C55.36210088 111.13231269 48.22185366 111.01512983 40.3125 113.6875 C32.69585761 116.72990185 28.61342982 120.63930962 25 128 C23.56986097 132.29952625 24.06568557 136.55756725 24.2578125 141.02734375 C23.9362236 144.73536126 22.64623914 147.35376086 20 150 C18.0390625 150.203125 18.0390625 150.203125 15.625 150.25 C14.43777344 150.28867187 14.43777344 150.28867187 13.2265625 150.328125 C11 150 11 150 9.32421875 148.84375 C7.58955966 146.42853144 6.98271131 144.11130826 6.1875 141.25 C3.82292557 133.86182028 0.81119923 129.26070294 -6.125 125.625 C-13.08372026 122.41113322 -20.19302252 121.95750662 -27.5625 124.125 C-33.83457093 126.49347434 -39.22705362 129.82365502 -42.4375 135.875 C-44.4089133 140.88924686 -44.5268806 146.08275793 -44.58569336 151.41552734 C-44.65144412 154.4742377 -44.83878493 156.6952642 -46.28125 159.421875 C-48.2491712 161.22878447 -49.30373906 161.64935341 -51.9375 161.9375 C-52.60652344 162.02902344 -53.27554688 162.12054688 -53.96484375 162.21484375 C-56.81637303 161.91381859 -57.97953914 161.02046086 -60 159 C-60.984375 156.3984375 -60.984375 156.3984375 -61.75 153.375 C-64.19492665 145.59825253 -67.84901615 140.16705775 -75.1875 136.3359375 C-78.09846787 135.10701475 -81.00173126 133.9944258 -84 133 C-83.70118927 134.14033691 -83.40237854 135.28067383 -83.09451294 136.45556641 C-81.99916852 140.84479553 -81.20872984 145.24702665 -80.48779297 149.7109375 C-80.35095093 150.54115921 -80.21410889 151.37138092 -80.07312012 152.22676086 C-79.62632073 154.94233339 -79.18421817 157.65864754 -78.7421875 160.375 C-78.43145345 162.26933486 -78.12042399 164.16362127 -77.80911255 166.05786133 C-76.99406345 171.0221244 -76.18300803 175.98703181 -75.37280273 180.9520874 C-74.54393048 186.02704984 -73.71125502 191.10138806 -72.87890625 196.17578125 C-71.24889638 206.11658269 -69.62310794 216.05806947 -68 226 C-67.3519162 226.00059709 -66.70383239 226.00119418 -66.03610969 226.00180936 C-27.64878994 226.0376819 10.73844894 226.09428783 49.12569566 226.17792095 C53.73207153 226.18793874 58.33844775 226.19778281 62.94482422 226.20751953 C63.86189371 226.2094609 64.77896321 226.21140228 65.72382268 226.21340248 C80.58442786 226.24444683 95.44501757 226.26140992 110.30564907 226.27319422 C125.54731983 226.28559318 140.78890932 226.31306613 156.03052878 226.35461307 C165.43993088 226.3797845 174.84919824 226.39311463 184.25863448 226.39142957 C190.70586015 226.39139988 197.15294829 226.40597567 203.6001204 226.43216428 C207.32314176 226.44685201 211.0458811 226.45497777 214.76892662 226.44580269 C218.80091297 226.43603405 222.83214864 226.45695852 226.86407471 226.48101807 C228.04694447 226.47325765 229.22981423 226.46549723 230.44852853 226.45750165 C231.52589516 226.46894924 232.6032618 226.48039683 233.71327591 226.49219131 C235.10988728 226.49446964 235.10988728 226.49446964 236.53471303 226.49679399 C239.75246334 227.15359027 240.95463903 228.48884094 243 231 C243.56640625 233 243.56640625 233 243.5625 235 C243.58441406 235.66 243.60632813 236.32 243.62890625 237 C242.57241823 240.35976314 241.03633401 241.19980437 238 243 C233.97050324 243.61191497 229.96473853 243.54610132 225.89567566 243.51898193 C224.03329293 243.53023381 224.03329293 243.53023381 222.1332863 243.541713 C218.68961702 243.55850623 215.24679013 243.55741721 211.803146 243.54880548 C208.08876875 243.54386419 204.37449538 243.56194108 200.66015625 243.57722473 C194.22574174 243.60054935 187.79143997 243.60928473 181.35698509 243.60811615 C172.05386735 243.60644767 162.75090001 243.62677389 153.44782237 243.65247145 C138.35430102 243.69356631 123.2608067 243.71686888 108.16723633 243.72900391 C93.50510052 243.74083012 78.84301561 243.76102245 64.1809082 243.79248047 C62.82528914 243.79538462 62.82528914 243.79538462 61.44228383 243.79834744 C56.90846311 243.80811194 52.37464276 243.81804106 47.84082258 243.82805204 C10.22723874 243.91089237 -27.38634286 243.96486661 -65 244 C-63.7640942 251.76109768 -62.5179506 259.52050129 -61.26464844 267.27880859 C-60.83868679 269.91863381 -60.41657086 272.55899327 -59.99609375 275.19970703 C-59.39159043 278.99353562 -58.7786637 282.78592089 -58.1640625 286.578125 C-57.97752106 287.76053772 -57.79097961 288.94295044 -57.5987854 290.16119385 C-57.32873184 291.8124527 -57.32873184 291.8124527 -57.05322266 293.49707031 C-56.82005844 294.94935028 -56.82005844 294.94935028 -56.58218384 296.43096924 C-55.62305073 300.66338225 -54.28479522 303.13157388 -50.71875 305.59375 C-50.05093506 306.06063232 -49.38312012 306.52751465 -48.69506836 307.00854492 C-47.9706958 307.5007251 -47.24632324 307.99290527 -46.5 308.5 C-45.36800171 309.28177612 -45.36800171 309.28177612 -44.21313477 310.0793457 C-41.81527561 311.72931236 -39.408061 313.36496888 -37 315 C-36.23929199 315.52255371 -35.47858398 316.04510742 -34.69482422 316.58349609 C-16.07721058 329.37179862 2.44547853 340.85985496 25 345 C26.07121094 345.19722656 26.07121094 345.19722656 27.1640625 345.3984375 C47.94688881 348.56290077 70.79869993 342.76681801 90 335 C94.12482668 334.39846278 95.48000766 334.61565784 98.875 337.125 C101 340 101 340 101.625 343 C100.77607908 347.07482043 99.16592098 348.32339574 96 351 C93.31288327 352.1955514 90.85032281 353.14365015 88.0625 354 C87.2883374 354.24709717 86.5141748 354.49419434 85.71655273 354.7487793 C79.39770307 356.70328838 73.00380608 358.31675361 66.5625 359.8125 C65.23327515 360.1228418 65.23327515 360.1228418 63.87719727 360.43945312 C30.07476416 367.9140535 -2.38522958 358.11835236 -31 340 C-37.78949277 335.50844602 -44.39836335 330.7613459 -51 326 C-52.54684838 324.88928584 -54.09372261 323.77860768 -55.640625 322.66796875 C-61.59206903 318.38424414 -67.53628269 314.09268533 -73.421875 309.71875 C-104.95573524 286.39997119 -138.6264934 269.28850676 -178.90136719 274.77099609 C-207.55000499 279.33187936 -235.93851211 293.87426814 -253.4375 317.5 C-253.88996094 318.1496875 -254.34242188 318.799375 -254.80859375 319.46875 C-256 321 -256 321 -258 322 C-261.79877599 322.35173852 -264.14360153 322.52701444 -267.4375 320.5 C-269.15783355 317.74746631 -269.87513862 315.60171442 -269.69921875 312.33203125 C-268.08854274 306.96011181 -263.75318471 303.00488861 -260 299 C-259.20722656 298.13890625 -258.41445313 297.2778125 -257.59765625 296.390625 C-234.28794537 272.06087815 -200.76896388 257.87804897 -167.1953125 256.796875 C-133.57115456 256.27191024 -103.17532877 267.12986714 -76 287 C-77.23932137 276.05809682 -78.87964226 265.20741813 -80.67871094 254.34399414 C-80.84918945 253.30621826 -81.01966797 252.26844238 -81.1953125 251.19921875 C-81.35016113 250.26940186 -81.50500977 249.33958496 -81.66455078 248.3815918 C-82 246 -82 246 -82 243 C-82.93337031 243.00368717 -83.86674063 243.00737434 -84.82839489 243.01117325 C-107.52905817 243.09993277 -130.22969898 243.1656846 -152.93049908 243.20724869 C-163.90839997 243.22788252 -174.8861863 243.25601889 -185.86401367 243.30175781 C-195.43119644 243.34160034 -204.99829626 243.36742683 -214.56555969 243.37635398 C-219.63237483 243.38157309 -224.69895261 243.39385706 -229.76569176 243.42292023 C-234.53368264 243.45004845 -239.30133815 243.45845022 -244.06939888 243.45243073 C-245.820167 243.45353212 -247.57094621 243.46150147 -249.32164764 243.4768219 C-251.71127926 243.49670973 -254.09964293 243.49194432 -256.48930359 243.48101807 C-257.18289197 243.49266943 -257.87648035 243.5043208 -258.59108657 243.51632524 C-263.30316617 243.45804603 -265.69841119 242.33799879 -269 239 C-269.6640625 237 -269.6640625 237 -269.625 235 C-269.63789063 234.34 -269.65078125 233.68 -269.6640625 233 C-268.61499298 229.84044946 -266.75252048 228.79530715 -264 227 C-260.58925152 226.50780869 -260.58925152 226.50780869 -256.60319519 226.51898193 C-255.86796719 226.51556423 -255.1327392 226.51214653 -254.37523156 226.50862527 C-251.91666594 226.50204734 -249.4591971 226.52401977 -247.00073242 226.54589844 C-245.2364708 226.54702694 -243.4722073 226.546393 -241.70794678 226.54412842 C-236.92104084 226.54298045 -232.13453557 226.56650322 -227.34772277 226.59442425 C-222.34424732 226.61942404 -217.34076276 226.62177878 -212.3372345 226.62652588 C-202.86354114 226.63895982 -193.39003235 226.67178716 -183.91642028 226.71192384 C-173.13056221 226.75662846 -162.34469533 226.7786253 -151.55876768 226.79870558 C-129.37240876 226.84051937 -107.186216 226.91087964 -85 227 C-85.17539307 225.96096527 -85.35078613 224.92193054 -85.53149414 223.85140991 C-87.18481553 214.0531803 -88.83298115 204.25409556 -90.47612 194.45415306 C-91.32101144 189.41609844 -92.16770811 184.37836119 -93.01855469 179.34130859 C-93.83979819 174.47910105 -94.6562678 169.61611373 -95.4694519 164.75255203 C-95.78033014 162.89835752 -96.0929193 161.04444902 -96.40725708 159.19083786 C-96.84767 156.59199464 -97.28195573 153.99219554 -97.71484375 151.39208984 C-97.91120926 150.24625427 -97.91120926 150.24625427 -98.11154175 149.07727051 C-98.78215289 145.00664884 -99.13384048 141.12490044 -99 137 C-104.88759305 139.77063202 -108.54009265 144.56268082 -111.046875 150.46484375 C-112.35492631 154.46920839 -113.14991701 158.09264269 -113.0625 162.3125 C-113.00180605 165.8934432 -113.38106113 167.85735396 -115 171 C-116 172 -116 172 -119.75 172.375 C-123.03358734 172.30463741 -123.9146858 172.05816877 -126.75 170.125 C-128.74875241 167.34895498 -129.76067771 165.27600171 -130.9375 162.125 C-133.42420172 155.49379541 -136.70685271 150.90328896 -143.0625 147.5625 C-150.51092258 144.66589122 -158.7844393 144.92428589 -166.3125 147.4375 C-172.6160909 150.32707429 -177.46252193 155.41591179 -180.19140625 161.77734375 C-181.32139222 166.28091101 -181.39067714 170.72818486 -181.47851562 175.34179688 C-181.67781148 180.5089066 -181.67781148 180.5089066 -183.2890625 182.96484375 C-186.25658564 184.760263 -189.68419388 184.64915974 -193 184 C-196.75901621 181.89329861 -197.71060856 179.79817637 -198.9375 175.75 C-201.57390069 168.03420184 -204.70885899 163.08338619 -211.8984375 159.00390625 C-218.22494122 155.981766 -224.15895346 155.31660111 -231 157 C-233.79617322 158.13331623 -236.37928777 159.51287208 -239 161 C-239.69480469 161.29003906 -240.38960937 161.58007812 -241.10546875 161.87890625 C-243.47708572 163.2823167 -243.95396205 164.48485987 -245 167 C-245.34160156 167.60457031 -245.68320313 168.20914063 -246.03515625 168.83203125 C-249.24399454 175.01789061 -249.47550901 180.80929208 -249.53125 187.64453125 C-250 191 -250 191 -251.81640625 193.390625 C-254.89414934 195.65901526 -257.20504377 195.93342182 -261 196 C-263.8125 195 -263.8125 195 -266 193 C-273.76080903 173.59797742 -270.58842528 141.99123697 -266 122 C-265.80664062 121.13729492 -265.61328125 120.27458984 -265.4140625 119.38574219 C-259.0619612 91.90898302 -246.70197384 66.89335898 -229 45 C-228.50209961 44.38108887 -228.00419922 43.76217773 -227.49121094 43.12451172 C-197.72322295 6.44298124 -154.08850303 -16.21620708 -107.29296875 -21.58203125 C-69.44027208 -25.08296486 -33.42626803 -17.83188032 0 0 Z M-114 -4 C-117.51754816 1.46436726 -119.03179719 6.32381998 -120.1875 12.6875 C-120.35185547 13.50927734 -120.51621094 14.33105469 -120.68554688 15.17773438 C-123.19999261 28.32003981 -123.23732882 41.54447759 -123.25 54.875 C-123.25167175 55.806539 -123.25334351 56.738078 -123.25506592 57.69784546 C-123.25652987 71.45271453 -122.75164019 85.10389312 -121.625 98.8125 C-121.56187622 99.58648132 -121.49875244 100.36046265 -121.43371582 101.15789795 C-120.62582155 110.82908074 -119.48434327 120.40702674 -118 130 C-117.49871582 129.59056152 -116.99743164 129.18112305 -116.48095703 128.75927734 C-105.29784255 119.7378866 -94.1624061 117.09175874 -80 118 C-76.54061268 118.72664966 -73.30123708 119.74825392 -70 121 C-69.01 121.33 -68.02 121.66 -67 122 C-67.74771585 114.04143539 -69.60837998 106.32809147 -71.4375 98.5625 C-71.69868622 97.45226974 -71.69868622 97.45226974 -71.96514893 96.3196106 C-83.63863322 41.56057608 -83.63863322 41.56057608 -113 -4 C-113.33 -4 -113.66 -4 -114 -4 Z M-90 -2 C-88.67991439 1.47182517 -87.13841765 4.78179057 -85.48852539 8.10791016 C-68.22785725 43.32836957 -59.75474776 82.01128821 -51 120 C-50.5251416 119.58554626 -50.0502832 119.17109253 -49.56103516 118.74407959 C-48.93503418 118.20172668 -48.3090332 117.65937378 -47.6640625 117.10058594 C-47.0448291 116.5623822 -46.4255957 116.02417847 -45.78759766 115.46966553 C-43.65249456 113.71429993 -41.48945735 112.44559465 -39 111.25 C-38.21625 110.86328125 -37.4325 110.4765625 -36.625 110.078125 C-30.52496323 107.57275276 -25.13608747 106.67922731 -18.625 106.75 C-17.56925781 106.73839844 -17.56925781 106.73839844 -16.4921875 106.7265625 C-11.1212898 106.74616432 -6.19272974 107.66337827 -1 109 C-8.10174984 85.41568802 -17.54176551 63.06106266 -32 43 C-32.65452148 42.08734375 -32.65452148 42.08734375 -33.32226562 41.15625 C-46.15789391 23.50963807 -64.88238921 2.69518635 -87.375 -1.65234375 C-88.24125 -1.76707031 -89.1075 -1.88179687 -90 -2 Z M-53 -2 C-50.20976136 0.87743359 -47.3578312 3.58074591 -44.3125 6.1875 C-15.87597487 31.06281544 1.16485715 65.6454749 13 101 C13.28987793 101.86496094 13.57975586 102.72992188 13.87841797 103.62109375 C14.58840126 105.74648449 15.29572166 107.87271331 16 110 C16.86625 109.154375 17.7325 108.30875 18.625 107.4375 C22.16098856 104.38798214 26.02628902 102.25515902 30.1875 100.1875 C30.79352051 99.88577881 31.39954102 99.58405762 32.02392578 99.27319336 C36.46772496 97.12488691 40.15383545 95.87525989 45.08203125 95.8671875 C45.84966797 95.86589844 46.61730469 95.86460937 47.40820312 95.86328125 C48.59833008 95.86908203 48.59833008 95.86908203 49.8125 95.875 C50.59431641 95.87113281 51.37613281 95.86726563 52.18164062 95.86328125 C56.89136737 95.87115047 61.35506176 96.21860852 66 97 C53.69211961 66.35256273 32.02475772 38.84148362 4 21 C2.92613037 20.31284912 2.92613037 20.31284912 1.83056641 19.61181641 C-13.4343299 9.99646836 -34.45832502 -2 -53 -2 Z M-136 4 C-155.17434352 18.77367451 -166.41890698 36.28331307 -174.89453125 58.7421875 C-176 61 -176 61 -179 63 C-182.26606297 63.34745351 -184.36577208 63.28373354 -187.375 61.9375 C-189.83349288 59.00622003 -189.25330675 56.74970754 -189 53 C-185.52278672 41.40928908 -179.59332793 28.47402834 -172 19 C-172.495 18.01 -172.495 18.01 -173 17 C-182.06854021 23.16922711 -190.80656226 29.33250779 -198.77734375 36.89453125 C-200.55168137 38.57531856 -202.33177505 40.11746551 -204.25 41.625 C-231.85309177 65.4640338 -249.94170893 107.03084533 -253 143 C-253.02576817 145.33319104 -253.03224148 147.66688943 -253 150 C-252.31035156 149.60167969 -251.62070313 149.20335937 -250.91015625 148.79296875 C-237.66542865 141.32577665 -225.09677718 137.8206662 -210 142 C-207.31308249 142.95374366 -204.65938935 143.97019391 -202 145 C-201.970271 143.80177612 -201.970271 143.80177612 -201.93994141 142.5793457 C-201.23952349 115.60551645 -201.23952349 115.60551645 -200.0625 103.0625 C-199.98789551 102.2372583 -199.91329102 101.4120166 -199.83642578 100.56176758 C-198.61715526 88.61715526 -198.61715526 88.61715526 -196 86 C-194.14712498 85.92773498 -192.29166122 85.9161878 -190.4375 85.9375 C-189.42558594 85.94652344 -188.41367188 85.95554687 -187.37109375 85.96484375 C-186.58863281 85.97644531 -185.80617188 85.98804688 -185 86 C-183.79212463 89.62362611 -184.08634028 92.19281238 -184.375 96 C-184.46523437 97.2375 -184.55546875 98.475 -184.6484375 99.75 C-184.82467855 102.0006495 -185.02554347 104.24411134 -185.26049805 106.48950195 C-186.00182531 113.74001205 -186.11797762 120.90286133 -186.0625 128.1875 C-186.05798828 129.33025391 -186.05347656 130.47300781 -186.04882812 131.65039062 C-186.03718268 134.4336511 -186.02082997 137.21679572 -186 140 C-185.23341064 139.5366626 -184.46682129 139.0733252 -183.67700195 138.59594727 C-172.04720583 131.66261601 -160.76604832 126.67985293 -147.02734375 129.640625 C-145.17962884 130.14793838 -143.33852409 130.68048584 -141.5078125 131.24609375 C-139.01908712 131.99426197 -136.5497218 132.50721672 -134 133 C-134.4810759 125.18377133 -135.03521599 117.38383793 -135.75390625 109.5859375 C-138.72679837 76.67602168 -140.64442109 42.87021951 -135.16186523 10.12670898 C-134.98855167 7.8495831 -135.32503131 6.16908011 -136 4 Z " fill="#000000" transform="translate(269,92)"/>
<path d="M0 0 C8.70807767 6.8509047 15.01645775 16.83431845 16.47265625 27.9453125 C17.54874159 39.41803775 15.10830138 50.50502727 8.22265625 59.88671875 C1.15180823 68.20443505 -7.53788321 74.30264276 -18.52734375 75.9453125 C-30.63585575 76.80717858 -41.97002557 75.71511525 -51.65234375 67.70703125 C-60.75270046 59.15648776 -66.88194655 50.4111381 -67.75 37.6796875 C-68.0721483 24.73772989 -65.07616009 14.27625129 -56.3359375 4.4921875 C-40.68901836 -10.67753828 -17.88676552 -12.30197686 0 0 Z M-46.52734375 17.9453125 C-51.45444392 24.7663558 -52.46812439 31.69707295 -51.52734375 39.9453125 C-48.77108422 48.83231753 -43.07784348 54.28369945 -35.21484375 58.8828125 C-28.32696751 60.86745481 -21.08405621 60.9675383 -14.4375 58.046875 C-7.04248328 53.78226413 -2.30720875 48.13876167 0.05078125 39.93359375 C1.63733019 32.45624737 -0.12095921 26.61241381 -3.52734375 19.9453125 C-7.38705404 14.10060834 -12.87393249 10.35732088 -19.57421875 8.32421875 C-30.37339169 6.2291792 -39.27050885 9.94965957 -46.52734375 17.9453125 Z " fill="#000000" transform="translate(454.52734375,49.0546875)"/>
<path d="M0 0 C1.30943069 -0.0087616 2.61886139 -0.01752319 3.9679718 -0.02655029 C7.55284398 -0.04931389 11.13699544 -0.04052021 14.72187996 -0.02465487 C18.47651207 -0.01198028 22.2310832 -0.02374028 25.98571777 -0.03158569 C32.29055847 -0.04067779 38.59510615 -0.02870616 44.89990234 -0.00488281 C52.18522355 0.02232797 59.46984511 0.01351347 66.75514936 -0.01401484 C73.01436071 -0.03671772 79.27336165 -0.03990034 85.53260088 -0.02682149 C89.26913958 -0.01903332 93.00534959 -0.01796752 96.74186707 -0.03450394 C100.90775874 -0.05165336 105.07244769 -0.02787422 109.23828125 0 C110.47479935 -0.01012115 111.71131744 -0.02024231 112.98530579 -0.03067017 C122.2834196 0.08477545 122.2834196 0.08477545 125.38513184 2.99990845 C127.54033352 6.28994785 127.92245559 7.79106081 127.11914062 11.64697266 C125.46231919 14.17620592 124.68712423 15.21207652 122.11914062 16.64697266 C117.83323479 17.41108826 113.5819648 17.32949926 109.23828125 17.29394531 C107.27413521 17.30708771 107.27413521 17.30708771 105.27030945 17.32049561 C101.68543727 17.34325921 98.10128581 17.33446552 94.51640129 17.31860018 C90.76176918 17.3059256 87.00719805 17.3176856 83.25256348 17.32553101 C76.94772278 17.3346231 70.6431751 17.32265148 64.33837891 17.29882812 C57.0530577 17.27161735 49.76843614 17.28043185 42.48313189 17.30796015 C36.22392054 17.33066303 29.9649196 17.33384565 23.70568037 17.32076681 C19.96914167 17.31297863 16.23293166 17.31191283 12.49641418 17.32844925 C8.33052251 17.34559867 4.16583356 17.32181953 0 17.29394531 C-1.2365181 17.30406647 -2.47303619 17.31418762 -3.74702454 17.32461548 C-13.04513835 17.20916986 -13.04513835 17.20916986 -16.14685059 14.29403687 C-18.30205227 11.00399746 -18.68417434 9.5028845 -17.88085938 5.64697266 C-13.48621215 -1.06170924 -7.42760925 -0.06079651 0 0 Z " fill="#000000" transform="translate(343.880859375,354.35302734375)"/>
<path d="M0 0 C0.96583008 0.31348389 0.96583008 0.31348389 1.95117188 0.63330078 C14.45356907 4.83539047 30.8677707 12.2067009 39 23 C40.02709604 26.22885939 39.74887393 27.54365877 39 31 C37.4375 33.5 37.4375 33.5 35 35 C28.44570342 35.84441858 25.44460639 33.73853138 20.5 29.9375 C-0.94078969 14.43408313 -24.95031352 9.6214684 -51.234375 13.71875 C-54.05440237 14.21431106 -56.81460039 14.80494442 -59.609375 15.44140625 C-63.71749734 16.11820521 -67.25179528 16.1453755 -70.8125 13.8125 C-72.54363816 11.1702365 -72.87409169 9.14770774 -73 6 C-72.1875 3.3125 -72.1875 3.3125 -70 1 C-49.92666944 -8.06033597 -20.53409218 -6.78748488 0 0 Z " fill="#000000" transform="translate(473,412)"/>
<path d="M0 0 C1.28813599 -0.00938095 2.57627197 -0.0187619 3.90344238 -0.02842712 C5.30607773 -0.0179488 6.70870666 -0.00657978 8.11132812 0.00561523 C9.55334547 0.00546021 10.99536323 0.00397074 12.43737793 0.00120544 C15.45697488 -0.00017798 18.47609652 0.0123692 21.49560547 0.03515625 C25.36280017 0.06354138 29.2292053 0.06080314 33.09645844 0.04806614 C36.07337162 0.04110533 39.05010285 0.0489027 42.0269928 0.06132317 C43.45271608 0.06583381 44.87845893 0.06617783 46.30418396 0.06225777 C48.29787418 0.05934198 50.29156055 0.07802547 52.28515625 0.09765625 C53.418927 0.10305923 54.55269775 0.10846222 55.7208252 0.11402893 C58.96729043 0.54479424 60.33933709 1.20792446 62.64257812 3.50170898 C63.81665447 7.10220977 63.97017488 8.78099611 62.39257812 12.25170898 C60.64257812 14.50170898 60.64257812 14.50170898 57.64257812 16.50170898 C54.96170044 16.7624054 54.96170044 16.7624054 51.68994141 16.77636719 C50.46501984 16.7858992 49.24009827 16.79543121 47.97805786 16.80525208 C46.63966849 16.80499061 45.30127911 16.80405341 43.96289062 16.80249023 C42.58909984 16.80637802 41.21531025 16.81071286 39.84152222 16.81547546 C36.96152858 16.82293719 34.08165752 16.82264724 31.20166016 16.81738281 C27.51730679 16.81159459 23.8334572 16.82850309 20.14918709 16.85172749 C17.31123945 16.86648719 14.47341242 16.86733341 11.6354332 16.86421776 C10.27750528 16.86473006 8.91957045 16.86995081 7.56167984 16.88002968 C5.65916046 16.8924157 3.75653926 16.88364839 1.85400391 16.87402344 C0.23209641 16.87496758 0.23209641 16.87496758 -1.4225769 16.87593079 C-4.77032653 16.44905955 -6.65542925 15.49218485 -9.35742188 13.50170898 C-10.90329063 10.40997147 -10.65101709 7.90741346 -10.35742188 4.50170898 C-7.31605612 0.38602981 -4.99046138 0.00073141 0 0 Z " fill="#000000" transform="translate(293.357421875,385.498291015625)"/>
<path d="M0 0 C3.21142855 2.37366458 4.71584605 3.93442268 5.75 7.8125 C4.58866223 12.74818554 1.49326259 15.45555408 -2 19 C-2.74507813 19.81726563 -3.49015625 20.63453125 -4.2578125 21.4765625 C-5.01835937 22.28867188 -5.77890625 23.10078125 -6.5625 23.9375 C-7.61630859 25.06478516 -7.61630859 25.06478516 -8.69140625 26.21484375 C-11.50608478 28.39133798 -13.47636141 28.7812586 -17 29 C-20.58426279 27.6151712 -21.7131889 26.57362219 -23.4375 23.125 C-24.11815914 19.34356036 -23.80059103 18.37192909 -22 15 C-19.81007307 12.43295798 -17.42326006 10.09540431 -15 7.75 C-14.03707031 6.79480469 -14.03707031 6.79480469 -13.0546875 5.8203125 C-6.37280279 -0.7497415 -6.37280279 -0.7497415 0 0 Z " fill="#000000" transform="translate(391,116)"/>
<path d="M0 0 C4.91624063 1.1567625 7.66813218 4.25684721 11.1875 7.75 C12.30318359 8.82701172 12.30318359 8.82701172 13.44140625 9.92578125 C20.08983231 16.43148618 20.08983231 16.43148618 20.4375 21.125 C20.1875 24.75 20.1875 24.75 19.0625 27.125 C16.43815402 29.39943318 14.63902438 29.68096951 11.1875 29.75 C6.33183903 27.4196217 2.68628147 23.72100394 -1.125 20 C-1.77017578 19.40445313 -2.41535156 18.80890625 -3.08007812 18.1953125 C-6.29837572 15.04853263 -7.69509277 13.55353174 -8.36328125 8.98046875 C-7.48661445 3.83860037 -5.02823036 1.34086143 0 0 Z " fill="#000000" transform="translate(469.8125,115.25)"/>
<path d="M0 0 C3.01690846 1.98512577 5.46500752 4.44100191 8 7 C8.7425 7.71800781 9.485 8.43601562 10.25 9.17578125 C16.84658079 15.61922713 16.84658079 15.61922713 17.3125 19.8125 C16.91378388 23.8794044 16.11416229 25.35296205 13 28 C8.81011855 28.70808545 6.44622493 28.96745864 2.86572266 26.57226562 C0.64509909 24.57806865 -1.40057308 22.49370133 -3.4375 20.3125 C-4.51547852 19.2306543 -4.51547852 19.2306543 -5.61523438 18.12695312 C-11.48602109 12.05659293 -11.48602109 12.05659293 -12 7 C-10.17759602 0.46971909 -6.5327062 -0.9638419 0 0 Z " fill="#000000" transform="translate(379,22)"/>
<path d="M0 0 C4.22609374 0.8804362 5.43438711 2.13422454 8 5.625 C8.66974697 9.49397801 8.56158103 13.27286507 8.4375 17.1875 C8.43169922 18.22841797 8.42589844 19.26933594 8.41992188 20.34179688 C8.28190425 28.92649288 8.28190425 28.92649288 6 32.625 C3.32366974 34.7065902 1.88246332 34.62087591 -1.5625 34.5 C-5 33.625 -5 33.625 -6.68554688 31.91186523 C-9.18682576 27.56017889 -8.51160324 22.58696646 -8.5 17.6875 C-8.52835937 16.60275391 -8.55671875 15.51800781 -8.5859375 14.40039062 C-8.60547011 6.45550316 -8.60547011 6.45550316 -5.65625 2.41015625 C-3 0.625 -3 0.625 0 0 Z " fill="#000000" transform="translate(429,132.375)"/>
<path d="M0 0 C1.55557617 -0.04930664 1.55557617 -0.04930664 3.14257812 -0.09960938 C10.75850064 -0.15341486 10.75850064 -0.15341486 14.74609375 2.77734375 C16.5625 5.4375 16.5625 5.4375 17.1875 8.4375 C16.30297782 12.68320646 15.08446896 13.86984341 11.5625 16.4375 C7.52907951 17.13553364 3.58210122 17.0442216 -0.5 16.9375 C-2.13291992 16.94136719 -2.13291992 16.94136719 -3.79882812 16.9453125 C-12.98721275 16.83222469 -12.98721275 16.83222469 -16.4375 13.4375 C-17.31031149 10.00859774 -17.76672829 7.54490423 -16.75 4.125 C-12.72063847 -1.05560768 -5.91471128 0.03296124 0 0 Z " fill="#000000" transform="translate(362.4375,74.5625)"/>
<path d="M0 0 C2.4375 1.5625 2.4375 1.5625 4 4 C4.6875 7.25 4.6875 7.25 4 11 C2.00329036 14.01014534 -0.44015017 16.46416377 -3 19 C-3.71800781 19.7425 -4.43601562 20.485 -5.17578125 21.25 C-11.64668697 27.87469324 -11.64668697 27.87469324 -16.375 28.3125 C-20 28 -20 28 -22.4375 26.4375 C-24.70159958 22.90550465 -24.7587407 21.13858566 -24 17 C-22.00329036 13.98985466 -19.55984983 11.53583623 -17 9 C-15.92298828 7.88625 -15.92298828 7.88625 -14.82421875 6.75 C-9.785545 1.59157715 -7.57119875 -0.65268955 0 0 Z " fill="#000000" transform="translate(486,22)"/>
<path d="M0 0 C1.03253906 -0.01095703 2.06507813 -0.02191406 3.12890625 -0.03320312 C7.66291951 0.01067442 10.68177805 0.10369333 14.68359375 2.34765625 C16.59779565 4.6817476 17.16116533 5.59093243 17.0625 8.5625 C17.06443359 9.5525 17.06443359 9.5525 17.06640625 10.5625 C16.24358076 13.46792519 14.81780639 14.65776078 12.5 16.5625 C9.81445312 17.08007812 9.81445312 17.08007812 6.78125 17.09375 C5.68425781 17.09890625 4.58726562 17.1040625 3.45703125 17.109375 C2.31621094 17.09390625 1.17539062 17.0784375 0 17.0625 C-1.71123047 17.08570313 -1.71123047 17.08570313 -3.45703125 17.109375 C-4.55402344 17.10421875 -5.65101563 17.0990625 -6.78125 17.09375 C-8.28268555 17.08698242 -8.28268555 17.08698242 -9.81445312 17.08007812 C-13.22041645 16.4236561 -14.4065458 15.28472159 -16.5 12.5625 C-17.18349055 8.3856133 -17.06835714 6.40342411 -14.68359375 2.875 C-9.94436619 -0.56748186 -5.70952616 -0.13186796 0 0 Z " fill="#000000" transform="translate(495.5,74.4375)"/>
<path d="M0 0 C0.66 -0.02191406 1.32 -0.04382812 2 -0.06640625 C5.39230332 1.00031413 6.26525079 2.46201622 8 5.5625 C8.58579774 9.40604275 8.55814177 13.18153664 8.5 17.0625 C8.51546875 18.09503906 8.5309375 19.12757812 8.546875 20.19140625 C8.52345159 24.72969127 8.46190974 27.73693763 6.21875 31.74609375 C3.88237182 33.65879772 2.97221409 34.2236868 0 34.125 C-0.66 34.12628906 -1.32 34.12757812 -2 34.12890625 C-4.90542519 33.30608076 -6.09526078 31.88030639 -8 29.5625 C-8.51757812 26.87695312 -8.51757812 26.87695312 -8.53125 23.84375 C-8.53640625 22.74675781 -8.5415625 21.64976563 -8.546875 20.51953125 C-8.53140625 19.37871094 -8.5159375 18.23789062 -8.5 17.0625 C-8.51546875 15.92167969 -8.5309375 14.78085938 -8.546875 13.60546875 C-8.54171875 12.50847656 -8.5365625 11.41148438 -8.53125 10.28125 C-8.52673828 9.28029297 -8.52222656 8.27933594 -8.51757812 7.24804688 C-7.62683072 2.6262443 -4.72468497 -0.0092279 0 0 Z " fill="#000000" transform="translate(429,-0.5625)"/>
<path d="M0 0 C3.32920557 0.56667329 4.71584456 0.94921042 6.9375 3.5 C8.04123378 7.47344161 8.35293583 9.58999772 6.625 13.375 C4.47209333 16.08606766 3.55285634 16.41795249 0.125 16.875 C-3.0625 16.5 -3.0625 16.5 -5.9375 14.375 C-8.0625 11.5 -8.0625 11.5 -8.6875 8.5 C-7.64069281 3.47532551 -5.09100787 0.83118496 0 0 Z " fill="#000000" transform="translate(138.0625,466.5)"/>
<path d="M0 0 C2 2.125 2 2.125 3 5 C2.88214109 8.41790842 2.58916681 10.92563699 0.9375 13.9375 C-2.2816415 15.70283566 -5.49115615 15.7327706 -9 15 C-11.5625 13 -11.5625 13 -13 10 C-13.26977084 7.11120389 -13.00637432 4.72486146 -12 2 C-8.23256092 -1.65663205 -4.88432883 -1.44720854 0 0 Z " fill="#000000" transform="translate(169,411)"/>
<path d="M0 0 C2.4375 1.5 2.4375 1.5 4 4 C4.61014545 6.8089715 4.65360928 9.19636021 4 12 C1.9375 14.5625 1.9375 14.5625 -1 16 C-4.77910616 16 -7.00693033 15.83289714 -9.9375 13.375 C-11.43699866 10.02317947 -11.45377473 7.63019782 -11 4 C-8.11188513 -0.5054592 -5.11821063 -0.73117295 0 0 Z " fill="#000000" transform="translate(455,455)"/>
<path d="M0 0 C2.81972931 2.36493426 2.97850831 3.8280665 3.4375 7.5 C3 11 3 11 1.4375 13.4375 C-1.94217804 15.60396028 -4.05983987 15.56288002 -8 15 C-10.4375 13.5 -10.4375 13.5 -12 11 C-12.6807995 6.71699557 -12.45945333 3.68917999 -10 0 C-6.20519658 -1.26493447 -3.87641726 -0.89988258 0 0 Z " fill="#000000" transform="translate(39,426)"/>
<path d="M0 0 C2.41486943 2.41486943 2.2961925 3.12707789 2.3125 6.4375 C2.32925781 7.21996094 2.34601563 8.00242187 2.36328125 8.80859375 C1.91088409 11.53757017 1.23070802 12.39510147 -1 14 C-7.79245283 14.75471698 -7.79245283 14.75471698 -11.5 12.4375 C-13.56851618 9.0761612 -13.48505011 6.88040089 -13 3 C-11.66469222 0.46291522 -10.75894138 -0.63361451 -8.1875 -1.875 C-5.09815114 -2.05153422 -2.83819341 -1.17229728 0 0 Z " fill="#000000" transform="translate(368,498)"/>
</svg>
