<?xml version="1.0" encoding="UTF-8"?>
<svg version="1.1" xmlns="http://www.w3.org/2000/svg" width="512" height="512">
<path d="M0 0 C13.60381927 7.88157783 23.30301358 23.63505401 32.640625 36.0546875 C34.95292514 38.94123436 37.33877635 41.44258294 40 44 C41.64706923 42.06353917 43.29287238 40.12603342 44.9375 38.1875 C45.43677002 37.5994458 45.93604004 37.0113916 46.45043945 36.40551758 C49.5820814 32.70666116 52.65194266 28.96602592 55.6875 25.1875 C66.43270748 12.109703 66.43270748 12.109703 72.0625 10.3125 C77.66211255 9.86808631 80.73656375 11.09051675 84.8984375 14.6015625 C89.955725 19.45895722 94.31940173 24.90283663 98.68701172 30.375 C100.10635011 32.1316226 101.55264658 33.86341956 103.00390625 35.59375 C115.61350957 50.70873806 126.35293734 67.06920829 136.65283203 83.82226562 C137.92505411 85.8788479 139.22401022 87.91618169 140.52734375 89.953125 C144.17308449 95.78445602 147.1895965 100.86575846 146.52734375 107.94140625 C145.71051902 111.13004799 144.47652256 112.85814265 142 115 C138.16409947 117.07345975 134.28264538 117.41760039 130 118 C130.81791016 119.32402832 130.81791016 119.32402832 131.65234375 120.67480469 C137.12475974 129.61604606 142.12994687 138.72634342 146.88720703 148.06591797 C148.0219236 150.29302952 149.16468808 152.51587748 150.30859375 154.73828125 C151.03952038 156.16382782 151.7700067 157.58960026 152.5 159.015625 C152.83845947 159.67492004 153.17691895 160.33421509 153.52563477 161.01348877 C156.20877593 166.28999734 157.41191047 170.02729817 157 176 C155.07278902 180.23986415 152.62425397 182.96904308 148.25 184.6875 C146.07521761 184.98955311 144.05236895 185.0306294 141.859375 185.01953125 C140.58578125 185.01308594 139.3121875 185.00664062 138 185 C138.50789063 185.99257813 139.01578125 186.98515625 139.5390625 188.0078125 C145.56407491 199.86082617 151.0143468 211.79907238 155.375 224.375 C155.63812988 225.11218262 155.90125977 225.84936523 156.17236328 226.60888672 C157.84629708 231.59916818 158.39225432 235.7325849 158 241 C155.9048297 245.04068558 154.23939332 247.35999473 150 249 C147.46893311 249.24050903 147.46893311 249.24050903 144.58886719 249.22705078 C143.50804871 249.22689972 142.42723022 249.22674866 141.31365967 249.22659302 C140.15312073 249.21627045 138.99258179 249.20594788 137.796875 249.1953125 C136.00748505 249.19106766 136.00748505 249.19106766 134.1819458 249.18673706 C130.37119524 249.17554053 126.56067955 249.15043653 122.75 249.125 C120.16667006 249.11496954 117.58333644 249.1058438 115 249.09765625 C108.66658651 249.07560289 102.33331003 249.04213035 96 249 C95.8951178 254.53311018 95.85682011 260.06139227 95.87792969 265.59545898 C95.87599307 267.47414366 95.85644078 269.3529015 95.81835938 271.23120117 C95.27912126 282.2873151 95.27912126 282.2873151 99.26660156 292.18798828 C101.9199231 294.62135392 101.9199231 294.62135392 104.75439453 296.46118164 C107 298 107 298 108 301 C108.515625 300.835 109.03125 300.67 109.5625 300.5 C118.35121087 298.69718751 126.45482343 301.13975574 133.875 305.875 C137.17112183 308.22020527 139.79790633 310.55324469 142 314 C142 314.66 142 315.32 142 316 C143.4540625 315.9071875 143.4540625 315.9071875 144.9375 315.8125 C151.55119427 315.86594399 157.05822299 317.71928648 161.875 322.3125 C166.66263464 327.27359967 168.42011781 332.14209286 168.375 339 C168.38273438 340.175625 168.39046875 341.35125 168.3984375 342.5625 C167.73644075 348.27384452 165.03675498 352.96324502 161 357 C153.55284577 361.95248197 146.91414027 362.75469751 138.125 362.5625 C137.01125 362.57345703 135.8975 362.58441406 134.75 362.59570312 C126.63323312 362.52235885 126.63323312 362.52235885 123.68676758 360.09179688 C121.82727729 357.78580284 121.47835367 356.84896309 121.5625 353.9375 C122 350 122 350 123.3125 348.0625 C126.36474174 346.14071816 129.05274925 345.86582069 132.5625 345.7890625 C133.44164062 345.76070313 134.32078125 345.73234375 135.2265625 345.703125 C137.07531742 345.6510474 138.92430869 345.60677419 140.7734375 345.5703125 C142.09214844 345.52390625 142.09214844 345.52390625 143.4375 345.4765625 C144.24058594 345.45674316 145.04367187 345.43692383 145.87109375 345.41650391 C148.50297607 344.90159665 149.40489852 344.12868298 151 342 C151.58333333 339 151.58333333 339 151 336 C149.63926464 333.91313108 149.63926464 333.91313108 147 333 C145.54251657 332.95021878 144.08266196 332.95575394 142.625 333 C138.22444143 333.10803335 135.65836172 332.68279859 132 330 C130.37027448 327.75599332 128.90209394 325.44349706 127.4296875 323.09375 C124.79368206 319.23337044 122.13091504 318.25605623 117.6875 317.25 C114.74882322 317.05076768 112.81363977 317.13519811 110 317.625 C105.71279703 318.20924455 102.51422917 317.572653 99 315 C96.64619551 312.54295847 94.45180019 310.01763253 92.30859375 307.375 C89.05317352 304.02593824 85.89578914 302.32780216 81.2890625 301.53125 C74.71875353 301.45417893 69.86007262 302.34558747 65 307 C63.64914898 308.98821008 62.31419796 310.98737448 61 313 C63.22353551 316.75376799 65.44725567 320.50742651 67.67114258 324.26098633 C68.42672648 325.5363473 69.18226104 326.81173751 69.93774414 328.0871582 C71.0273748 329.92667312 72.11718633 331.76608077 73.20703125 333.60546875 C73.8616333 334.71043701 74.51623535 335.81540527 75.19067383 336.95385742 C75.78775146 337.95908447 76.3848291 338.96431152 77 340 C77.49338867 340.94375488 77.98677734 341.88750977 78.49511719 342.85986328 C78.99172852 343.5661084 79.48833984 344.27235352 80 345 C82.97985237 345.49012708 85.4584383 345.70000656 88.4375 345.6875 C98.10172063 345.79352099 98.10172063 345.79352099 101 348 C102.83066825 352.13890213 103.33931409 354.08385195 101.75 358.375 C100 361 100 361 98 362 C95.63192153 362.09992955 93.29312125 362.13926755 90.92466927 362.13422108 C89.8137438 362.13774942 89.8137438 362.13774942 88.6803754 362.14134905 C86.17298038 362.14806076 83.66563692 362.14758017 81.15823364 362.14717102 C79.35269493 362.15046828 77.54715697 362.15419356 75.74161994 362.1583125 C70.75997066 362.16835606 65.77833342 362.17205306 60.79667544 362.17470181 C55.4318889 362.17859783 50.06711197 362.18817654 44.70233154 362.19691467 C31.73751896 362.21669765 18.77270556 362.22674702 5.80788165 362.23564246 C-0.29131922 362.24002183 -6.39051921 362.2453895 -12.48971939 362.25063133 C-32.75359098 362.26764445 -53.01746201 362.28214032 -73.28133965 362.28938007 C-78.54254024 362.29129009 -83.80374083 362.29321041 -89.06494141 362.29516602 C-91.02650494 362.29589163 -91.02650494 362.29589163 -93.02769603 362.2966319 C-114.22863384 362.30493853 -135.42951534 362.33028578 -156.63042854 362.36274669 C-178.37647095 362.395772 -200.1224847 362.41382468 -221.86855233 362.41702431 C-234.08653575 362.41919348 -246.30443704 362.42800145 -258.52239609 362.45348549 C-268.92408791 362.4751306 -279.32567765 362.48327349 -289.72738944 362.47351871 C-295.0382275 362.46895616 -300.34885466 362.47097317 -305.65966415 362.49028015 C-310.51665812 362.50778553 -315.37328538 362.50701774 -320.23028256 362.49138286 C-321.99206328 362.48898746 -323.75386856 362.49342922 -325.51561151 362.50521151 C-327.90185606 362.52018824 -330.28677708 362.51075838 -332.67298698 362.49498463 C-333.36461054 362.50520683 -334.05623409 362.51542904 -334.76881593 362.52596101 C-338.12130917 362.47725053 -339.75300241 362.19432585 -342.42253792 360.09406346 C-344.12434714 357.83493054 -344.56795658 356.79376886 -344.5625 354 C-344.58441406 353.34 -344.60632813 352.68 -344.62890625 352 C-343.64312774 348.86510189 -341.68159849 347.7979004 -339 346 C-336.13745117 345.54589844 -336.13745117 345.54589844 -333.04296875 345.609375 C-331.37524414 345.62871094 -331.37524414 345.62871094 -329.67382812 345.6484375 C-327.9480957 345.69871094 -327.9480957 345.69871094 -326.1875 345.75 C-325.01767578 345.76804687 -323.84785156 345.78609375 -322.64257812 345.8046875 C-319.7608822 345.8517356 -316.88086203 345.91746291 -314 346 C-313.73678955 345.29166016 -313.4735791 344.58332031 -313.20239258 343.85351562 C-311.93367204 340.84259061 -310.43043768 338.15236028 -308.76171875 335.34375 C-308.11323975 334.24981934 -307.46476074 333.15588867 -306.79663086 332.02880859 C-306.09379764 330.85241334 -305.39074879 329.67614688 -304.6875 328.5 C-303.96028216 327.27820854 -303.23315099 326.0563655 -302.50610352 324.83447266 C-297.7067303 316.78392399 -292.81565369 308.79371925 -287.85717773 300.84008789 C-283.75234595 294.24660369 -279.7367792 287.60295341 -275.75 280.9375 C-270.40540306 272.00218562 -265.03260556 263.08477537 -259.625 254.1875 C-259.27119263 253.60531708 -258.91738525 253.02313416 -258.55285645 252.42330933 C-256.75470445 249.46474815 -254.9560802 246.50647445 -253.15722656 243.54833984 C-249.9555888 238.28287378 -246.75818677 233.01483618 -243.56048584 227.74697876 C-241.7904994 224.83121261 -240.0202356 221.91561488 -238.25 219 C-237.54166534 217.83333414 -236.83333201 216.66666747 -236.125 215.5 C-229.04166667 203.83333333 -221.95833333 192.16666667 -214.875 180.5 C-214.52440018 179.92254028 -214.17380035 179.34508057 -213.81257629 178.75012207 C-213.10399289 177.58304592 -212.39540525 176.41597236 -211.68681335 175.24890137 C-209.91977124 172.33852084 -208.15280216 169.42809603 -206.38598633 166.51757812 C-203.15332415 161.19250205 -199.92004793 155.86780267 -196.68417358 150.54467773 C-186.80496588 134.29477195 -186.80496588 134.29477195 -177 118 C-171.59036636 108.96215851 -166.13374118 99.95303553 -160.65527344 90.95678711 C-157.24600767 85.35669769 -153.84531575 79.75217903 -150.48246765 74.12405396 C-148.94558957 71.5528482 -147.40343379 68.98482673 -145.8609314 66.41699219 C-145.12817561 65.19379345 -144.39799211 63.96904959 -143.67056274 62.74267578 C-142.65682737 61.03411646 -141.63327789 59.33139186 -140.609375 57.62890625 C-139.7426416 56.1759314 -139.7426416 56.1759314 -138.85839844 54.69360352 C-134.88005292 48.92730214 -129.71391604 44.23797201 -123 42 C-115.50922857 41.25092286 -109.39149252 41.90362136 -103 46 C-96.42221818 52.01013143 -92.25288704 59.92029031 -87.875 67.5625 C-81.8563553 78.05037225 -81.8563553 78.05037225 -75 88 C-74.36835938 86.94425781 -73.73671875 85.88851562 -73.0859375 84.80078125 C-62.29894368 66.89146109 -50.83769386 49.51051002 -38 33 C-37.30648438 32.10410156 -36.61296875 31.20820313 -35.8984375 30.28515625 C-30.60432219 23.56402632 -24.99223097 17.11155987 -19.3996582 10.63916016 C-18.00626667 9.00733899 -16.64234467 7.35410744 -15.28125 5.6953125 C-11.10114319 0.75648767 -6.54305582 -1.50265477 0 0 Z M-5 19 C-13.16403194 27.49124765 -20.40949631 36.45846379 -27.4375 45.90234375 C-28.88686215 47.84811243 -30.34812248 49.78427402 -31.8125 51.71875 C-40.67410391 63.51503053 -48.68364828 75.90232292 -56.38671875 88.48046875 C-56.88776123 89.29797607 -57.38880371 90.1154834 -57.9050293 90.95776367 C-59.15750946 92.90756196 -59.15750946 92.90756196 -59 95 C-58.19175781 95.02578125 -57.38351562 95.0515625 -56.55078125 95.078125 C-47.7479855 95.54534214 -47.7479855 95.54534214 -43.8125 97.9375 C-40.95993631 101.18352076 -40.67039332 103.51191979 -40.72802734 107.83837891 C-41.18430028 111.46480674 -42.87668274 114.14647009 -44.8125 117.1875 C-45.16892578 117.77724609 -45.52535156 118.36699219 -45.89257812 118.97460938 C-46.91358459 120.65880169 -47.95634274 122.32974928 -49 124 C-50.00261417 125.66509537 -51.00369999 127.33111892 -52 129 C-51.55068115 129.71857178 -51.55068115 129.71857178 -51.09228516 130.45166016 C-43.63919316 142.38945269 -36.32718829 154.40629996 -29.10122681 166.48233032 C-23.41222385 175.99205199 -23.41222385 175.99205199 -17.68287659 185.47749329 C-16.96144961 186.66619793 -16.2414998 187.85580038 -15.52305603 189.04631042 C-13.75341001 191.97266471 -11.95850747 194.87630565 -10.10327148 197.74926758 C-6.464357 203.44924759 -3.57095109 208.83946028 -1.5 215.30859375 C1.89379961 224.9480256 1.89379961 224.9480256 8.91186523 232.09368896 C24.6951742 238.9441027 48.32487354 234.43923271 65 233 C64.53706961 231.25956979 64.07094908 229.51998794 63.60351562 227.78076172 C63.34429321 226.81194061 63.0850708 225.84311951 62.81799316 224.84494019 C61.65747898 220.80872866 60.15119498 216.98189258 58.5 213.125 C58.16540771 212.33125977 57.83081543 211.53751953 57.48608398 210.71972656 C54.27946701 203.29661415 50.53233805 196.17649499 46.59375 189.11767578 C43.97404737 184.32515 42.18728561 180.50064771 42 175 C43.51516628 170.98480937 44.4055253 169.39631647 48 167 C50.58885171 166.70008931 53.09149082 166.49134775 55.6875 166.375 C56.7403418 166.31699219 56.7403418 166.31699219 57.81445312 166.2578125 C59.54254655 166.1637666 61.27123675 166.0808032 63 166 C60.94310516 159.41659732 57.85815338 153.54365956 54.6875 147.4375 C54.38163971 146.84406799 54.07577942 146.25063599 53.76065063 145.63922119 C48.98985158 136.40148575 43.8440248 127.50239979 38.00073242 118.88842773 C34.62307957 113.73983243 32.66391354 109.26805217 33 103 C34.56181319 99.329739 35.65910596 98.2272627 39 96 C42.13671875 95.5859375 42.13671875 95.5859375 45.6875 95.375 C46.86699219 95.30023438 48.04648437 95.22546875 49.26171875 95.1484375 C50.61716797 95.07496094 50.61716797 95.07496094 52 95 C39.02941085 70.76547818 22.58299485 48.18274458 4.75 27.3125 C4.22510986 26.69431396 3.70021973 26.07612793 3.15942383 25.43920898 C0.6856147 22.61054853 -1.42543667 20.31918408 -5 19 Z M72.22265625 30.6953125 C63.91979887 40.03415028 56.20987965 49.79464877 49 60 C49.35715088 60.57331055 49.71430176 61.14662109 50.08227539 61.73730469 C70.44953677 94.45880145 70.44953677 94.45880145 70 103 C69.4375 105.25 69.4375 105.25 68 107 C63.00482563 109.69739416 58.6253008 110.50655256 53 111 C54.31698998 114.45469612 55.82650618 117.66140917 57.6171875 120.89453125 C58.13635742 121.83917236 58.65552734 122.78381348 59.19042969 123.75708008 C60.02429199 125.26951294 60.02429199 125.26951294 60.875 126.8125 C65.66194372 135.56763917 70.29211996 144.38515571 74.75 153.3125 C75.51932861 154.85031128 75.51932861 154.85031128 76.30419922 156.41918945 C82.34990355 168.6003858 82.34990355 168.6003858 80.4375 176.25 C77.47851255 179.85224559 73.52583013 180.78671192 69.09375 181.40625 C66.39606372 181.65655079 63.70538275 181.8581264 61 182 C61.56847656 183.16273438 62.13695312 184.32546875 62.72265625 185.5234375 C70.23896315 201.04830726 76.19348352 216.74175386 82 233 C101.14 233 120.28 233 140 233 C138.56199322 226.00618664 138.56199322 226.00618664 136.3359375 219.52734375 C136.02229248 218.7806543 135.70864746 218.03396484 135.38549805 217.26464844 C135.05203369 216.49668945 134.71856934 215.72873047 134.375 214.9375 C134.02671143 214.1218457 133.67842285 213.30619141 133.31958008 212.46582031 C130.38504398 205.68500926 127.14813268 199.08020685 123.76171875 192.515625 C118.1897174 181.39633185 118.1897174 181.39633185 120 175 C122.76569205 171.60979684 124.66431701 170.13906211 129.0390625 169.68359375 C130.22242188 169.60238281 131.40578125 169.52117187 132.625 169.4375 C133.81351562 169.35371094 135.00203125 169.26992188 136.2265625 169.18359375 C137.14179688 169.12300781 138.05703125 169.06242188 139 169 C127.08025618 144.68264567 127.08025618 144.68264567 113.4609375 121.30078125 C110.64125632 116.86016036 110.32539151 113.20797754 111 108 C112.79393668 105.12970131 113.98263276 103.50868362 117 102 C118.70363822 101.77377919 120.41328701 101.59111527 122.125 101.4375 C123.03507812 101.35371094 123.94515625 101.26992187 124.8828125 101.18359375 C125.58148438 101.12300781 126.28015625 101.06242187 127 101 C125.30334414 96.13175449 122.68852864 91.92968592 120 87.5625 C119.50943115 86.76408691 119.0188623 85.96567383 118.51342773 85.14306641 C113.98689744 77.85254859 109.11108363 70.88827827 104 64 C103.03115474 62.67845525 102.06240827 61.35683807 101.09375 60.03515625 C94.71807355 51.38835154 88.0154234 43.13478795 81 35 C80.55253418 34.43958008 80.10506836 33.87916016 79.64404297 33.30175781 C78.46992878 31.83443704 77.2389772 30.41297908 76 29 C73.83183211 28.76992969 73.83183211 28.76992969 72.22265625 30.6953125 Z M-126 65 C-126.85779769 66.3084166 -127.66345736 67.651002 -128.44921875 69.00390625 C-128.96000977 69.87740723 -129.47080078 70.7509082 -129.99707031 71.65087891 C-130.55491211 72.61171387 -131.11275391 73.57254883 -131.6875 74.5625 C-136.31081433 82.45693075 -140.98137956 90.31743159 -145.75 98.125 C-146.32476074 99.06649902 -146.89952148 100.00799805 -147.49169922 100.97802734 C-148.69592067 102.95015813 -149.90035242 104.92216051 -151.10498047 106.89404297 C-154.516867 112.48616104 -157.91402503 118.08722612 -161.3125 123.6875 C-162.03220824 124.87322076 -162.75193487 126.05893035 -163.47167969 127.24462891 C-164.92340067 129.63619356 -166.3750566 132.02779767 -167.82666016 134.41943359 C-171.03074083 139.69829518 -174.23565795 144.97664893 -177.44052124 150.2550354 C-179.21038263 153.17000226 -180.98018847 156.08500286 -182.75 159 C-183.45833307 160.16666683 -184.1666664 161.33333349 -184.875 162.5 C-185.225625 163.0775 -185.57625 163.655 -185.9375 164.25 C-192.66666667 175.33333333 -199.39583333 186.41666667 -206.125 197.5 C-206.47559982 198.07745972 -206.82619965 198.65491943 -207.18742371 199.24987793 C-207.89600711 200.41695408 -208.60459475 201.58402764 -209.31318665 202.75109863 C-211.08022876 205.66147916 -212.84719784 208.57190397 -214.61401367 211.48242188 C-217.84667585 216.80749795 -221.07995207 222.13219733 -224.31582642 227.45532227 C-234.19503412 243.70522805 -234.19503412 243.70522805 -244 260 C-250.50235216 270.86343958 -257.08027782 281.68085424 -263.65698242 292.49935913 C-266.26679875 296.79263889 -268.87425431 301.08734542 -271.48046875 305.3828125 C-271.84700562 305.98680878 -272.21354248 306.59080505 -272.59118652 307.21310425 C-274.39753096 310.18969655 -276.20337236 313.16659181 -278.00830078 316.14404297 C-281.15816954 321.33646848 -284.31606457 326.52310277 -287.51171875 331.6875 C-288.03330566 332.53231934 -288.55489258 333.37713867 -289.09228516 334.24755859 C-290.04251136 335.78414158 -290.99636767 337.31848825 -291.95458984 338.85009766 C-294.22238477 342.17605489 -294.22238477 342.17605489 -295 346 C-262.33 346 -229.66 346 -196 346 C-195.79012755 327.55667508 -195.79012755 327.55667508 -195.61206055 309.11303711 C-195.5797614 306.79278972 -195.54638638 304.47255696 -195.51171875 302.15234375 C-195.50235291 300.35996277 -195.50235291 300.35996277 -195.49279785 298.53137207 C-195.38516248 292.2891729 -195.14595912 287.46120389 -192 282 C-174.22704896 265.52750879 -152.50741699 276.45845695 -125 276 C-125 206.37 -125 136.74 -125 65 C-125.33 65 -125.66 65 -126 65 Z M-109 66 C-109 158.4 -109 250.8 -109 346 C-52.9 346 3.2 346 61 346 C58.57711508 341.15423016 56.28659967 336.65163755 53.48828125 332.078125 C52.82183594 330.985 52.15539062 329.891875 51.46875 328.765625 C50.7500256 327.5937343 50.03127487 326.42185975 49.3125 325.25 C48.55565127 324.0106232 47.79914772 322.77103555 47.04296875 321.53125 C45.47479998 318.96077332 43.90516379 316.39120172 42.33447266 313.82226562 C39.06075779 308.46543172 35.80521438 303.09758798 32.54940796 297.7298584 C30.78378958 294.81938897 29.01682242 291.9097386 27.25 289 C26.5416603 287.8333372 25.83332696 286.66667054 25.125 285.5 C24.774375 284.9225 24.42375 284.345 24.0625 283.75 C3.87500001 250.50000001 3.87500001 250.50000001 2.81257629 248.75012207 C2.10399289 247.58304592 1.39540525 246.41597236 0.68681335 245.24890137 C-1.08022876 242.33852084 -2.84719784 239.42809603 -4.61401367 236.51757812 C-7.84667585 231.19250205 -11.07995207 225.86780267 -14.31582642 220.54467773 C-21.37841948 208.92638106 -28.43157876 197.30312697 -35.41455078 185.63671875 C-41.82498947 174.93753021 -48.31562552 164.28676903 -54.79443359 153.62890625 C-58.01259345 148.33454283 -61.22747493 143.03818925 -64.4425354 137.74194336 C-66.21154945 134.82787675 -67.98078624 131.91394537 -69.75 129 C-70.4583344 127.83333398 -71.16666773 126.66666731 -71.875 125.5 C-72.225625 124.9225 -72.57625 124.345 -72.9375 123.75 C-74 122 -75.0625 120.25 -76.125 118.5 C-76.47554443 117.92264099 -76.82608887 117.34528198 -77.18725586 116.75042725 C-77.89643272 115.58235447 -78.6055798 114.41426362 -79.31469727 113.24615479 C-81.07238237 110.35085346 -82.83056376 107.45585598 -84.58984375 104.56152344 C-87.93499597 99.05691908 -91.27446309 93.54904818 -94.59802246 88.03137207 C-96.18143908 85.4032729 -97.76748911 82.77676788 -99.35375977 80.15039062 C-100.11468913 78.88881998 -100.87430416 77.62645559 -101.63256836 76.36328125 C-102.67887723 74.62043957 -103.72993706 72.88045271 -104.78125 71.140625 C-105.38001953 70.14579102 -105.97878906 69.15095703 -106.59570312 68.12597656 C-107.05912109 67.4244043 -107.52253906 66.72283203 -108 66 C-108.33 66 -108.66 66 -109 66 Z M22 249 C23.35186201 252.37965503 24.49267281 255.02567788 26.328125 258.0546875 C26.79186523 258.82393555 27.25560547 259.59318359 27.73339844 260.38574219 C28.48411621 261.6179248 28.48411621 261.6179248 29.25 262.875 C29.76852539 263.73254883 30.28705078 264.59009766 30.82128906 265.47363281 C32.54324243 268.31837735 34.27119248 271.15941616 36 274 C37.30210668 276.14321498 38.60418955 278.28644443 39.90625 280.4296875 C43.26590894 285.95613202 46.63103462 291.47922445 50 297 C51.485 296.505 51.485 296.505 53 296 C54.1760003 293.6479994 54.12084541 292.26265599 54.11352539 289.64208984 C54.11344986 288.74130707 54.11337433 287.84052429 54.11329651 286.91244507 C54.10813522 285.93844757 54.10297394 284.96445007 54.09765625 283.9609375 C54.0962413 282.96494537 54.09482635 281.96895325 54.09336853 280.94277954 C54.08775936 277.75348947 54.0752053 274.56426894 54.0625 271.375 C54.05748618 269.21614685 54.05292307 267.05729259 54.04882812 264.8984375 C54.03863673 259.59890982 54.01906307 254.29953299 54 249 C43.44 249 32.88 249 22 249 Z M70 249 C70 261.21 70 273.42 70 286 C74.95 285.505 74.95 285.505 80 285 C80 273.12 80 261.24 80 249 C76.7 249 73.4 249 70 249 Z M-180 292 C-180 305.86 -180 319.72 -180 334 C-174.34671601 329.18255744 -174.34671601 329.18255744 -168.99243164 324.12182617 C-168.29223404 323.42478073 -167.59203644 322.72773529 -166.87062073 322.00956726 C-166.14116745 321.27808975 -165.41171417 320.54661224 -164.66015625 319.79296875 C-163.89319931 319.02696854 -163.12624237 318.26096832 -162.33604431 317.47175598 C-160.72890453 315.86529264 -159.12301059 314.25758205 -157.51831055 312.64868164 C-155.04915296 310.17412377 -152.57464675 307.70500357 -150.09960938 305.23632812 C-148.5361372 303.67219594 -146.97297482 302.107754 -145.41015625 300.54296875 C-144.66653336 299.80137009 -143.92291046 299.05977142 -143.15675354 298.29570007 C-142.47862106 297.61441544 -141.80048859 296.9331308 -141.10180664 296.23120117 C-140.50114883 295.62974777 -139.90049103 295.02829437 -139.28163147 294.40861511 C-137.8878365 293.19412497 -137.8878365 293.19412497 -138 292 C-151.86 292 -165.72 292 -180 292 Z M-129.96899414 306.83959961 C-130.80979019 307.6772435 -131.65058624 308.51488739 -132.51686096 309.37791443 C-133.43039841 310.2934761 -134.34393585 311.20903778 -135.28515625 312.15234375 C-136.21597519 313.08220596 -137.14679413 314.01206818 -138.1058197 314.97010803 C-140.0787711 316.94158236 -142.04989518 318.9148614 -144.01977539 320.8894043 C-146.55089942 323.42622561 -149.08648509 325.95853233 -151.62345219 328.48950863 C-154.03394716 330.89553102 -156.44063509 333.30534603 -158.84765625 335.71484375 C-159.76321793 336.6283812 -160.6787796 337.54191864 -161.62208557 338.48313904 C-162.45972946 339.32393509 -163.29737335 340.16473114 -164.16040039 341.03100586 C-164.90350967 341.77491074 -165.64661896 342.51881561 -166.4122467 343.28526306 C-168.11323597 344.73280243 -168.11323597 344.73280243 -168 346 C-153.81 346 -139.62 346 -125 346 C-125 331.81 -125 317.62 -125 303 C-127.00858587 303 -128.66457195 305.53657248 -129.96899414 306.83959961 Z " fill="#000000" transform="translate(344,102)"/>
<path d="M0 0 C5.56954904 4.76153156 10.83025728 9.90662006 11.63671875 17.43359375 C11.26171875 20.93359375 11.26171875 20.93359375 9.69921875 23.37109375 C6.27857732 25.56381262 4.25220596 25.56367068 0.26171875 24.93359375 C-2.67158212 22.55901686 -4.63607417 20.07916141 -6.80078125 16.99609375 C-11.15812457 11.73723113 -18.02274386 8.59191715 -24.6484375 7.41796875 C-32.66218897 7.10237797 -38.4082025 9.75623457 -44.98828125 14.05859375 C-50.45250133 19.77118747 -53.02635979 25.4972215 -53.36328125 33.43359375 C-53.1251531 39.93218776 -50.98192215 44.42472167 -47.73828125 49.93359375 C-47.40828125 50.92359375 -47.07828125 51.91359375 -46.73828125 52.93359375 C-44.88863908 54.04881045 -44.88863908 54.04881045 -42.73828125 54.93359375 C-42.13628906 55.27519531 -41.53429687 55.61679688 -40.9140625 55.96875 C-34.65851366 59.4178262 -28.6824463 60.76091483 -21.61328125 59.24609375 C-13.86459215 56.89244854 -9.35994669 52.81586454 -4.046875 46.859375 C-1.23185084 44.51113995 0.63196802 44.11948395 4.26171875 43.93359375 C8.82693614 46.06402853 8.82693614 46.06402853 10.26171875 48.93359375 C10.86715663 54.26144708 9.4742731 56.73942558 6.26171875 60.93359375 C5.66359375 61.74441406 5.06546875 62.55523437 4.44921875 63.390625 C-2.47407269 71.4389513 -12.72316678 75.66345808 -23.05078125 76.74609375 C-35.36464598 77.39867183 -46.09205848 74.12614986 -56.05078125 66.68359375 C-66.05757929 56.44407948 -70.37361547 45.74424733 -70.21118164 31.56860352 C-69.74622785 19.60202856 -64.73411348 9.36517874 -55.98828125 1.18359375 C-39.41379038 -12.4492413 -17.12195443 -12.82078714 0 0 Z " fill="#000000" transform="translate(134.73828125,90.06640625)"/>
<path d="M0 0 C1.9375 1.6875 1.9375 1.6875 3 4 C2.83880811 10.37859335 0.76446876 13.17683981 -3.625 17.375 C-4.13417969 17.90738281 -4.64335938 18.43976563 -5.16796875 18.98828125 C-8.85958303 22.62438253 -11.63974833 23.92342498 -17 24 C-20.14797818 22.22070799 -21.59507626 20.96169389 -23 17.625 C-23 10.73309666 -17.88818337 6.53651516 -13.3515625 1.953125 C-8.66076076 -1.94288974 -5.57069426 -2.66424508 0 0 Z " fill="#000000" transform="translate(74,156)"/>
<path d="M0 0 C5.48950392 3.87891214 11.17326225 8.80809826 14 15 C14 18.8063221 13.84618784 20.99108373 11.375 23.9375 C7.95079325 25.46938197 5.73718795 25.44784484 2 25 C-0.6652701 23.28083832 -2.72022002 21.12439935 -4.875 18.8125 C-5.74511719 17.9452832 -5.74511719 17.9452832 -6.6328125 17.06054688 C-9.6580273 13.93284232 -11.92949743 11.56699985 -12 7 C-9.61239908 1.08784535 -6.62587592 -1.88964651 0 0 Z " fill="#000000" transform="translate(63,68)"/>
<path d="M0 0 C8.85826772 7.71653543 8.85826772 7.71653543 11 12 C11.45786963 19.21144674 11.45786963 19.21144674 9.875 21.9375 C7.17323836 23.46849826 5.10564495 23.8757742 2 24 C-1.98382068 21.98836778 -5.04875804 19.33622728 -8.25 16.25 C-9.12140625 15.43015625 -9.9928125 14.6103125 -10.890625 13.765625 C-13.43316562 10.43207174 -13.79492001 8.14554541 -14 4 C-13.19329123 1.01517755 -12.42833492 0.26923909 -9.8125 -1.375 C-5.94031373 -2.23548584 -3.39273918 -1.9461219 0 0 Z " fill="#000000" transform="translate(152,156)"/>
<path d="M0 0 C2.4375 1.5 2.4375 1.5 4 4 C4.826736 10.67641422 4.826736 10.67641422 2.90112305 13.75927734 C1.3888015 15.43366051 -0.18897982 16.93860105 -1.875 18.4375 C-2.43058594 18.96537109 -2.98617187 19.49324219 -3.55859375 20.03710938 C-8.65537718 24.82071696 -8.65537718 24.82071696 -12.8125 25.375 C-16 25 -16 25 -18.9375 22.9375 C-21 20 -21 20 -21.25 16.6875 C-19.5481797 11.66713012 -16.73107301 8.67722247 -13 5 C-12.48824219 4.46632813 -11.97648438 3.93265625 -11.44921875 3.3828125 C-7.75617611 -0.14100716 -4.99357407 -0.83226234 0 0 Z " fill="#000000" transform="translate(159,68)"/>
<path d="M0 0 C0.90234375 -0.01998047 1.8046875 -0.03996094 2.734375 -0.06054688 C9.2775709 -0.05570723 9.2775709 -0.05570723 12.59765625 2.2109375 C14.92013521 5.89843891 14.47862 8.12992004 14 12.4375 C12.18836733 15.11181489 11.12238923 15.39670359 8 16.4375 C5.1756113 16.56005168 2.38673238 16.62262869 -0.4375 16.625 C-1.20126953 16.63724609 -1.96503906 16.64949219 -2.75195312 16.66210938 C-9.8276387 16.68058375 -9.8276387 16.68058375 -13 14.4375 C-15.0815902 11.76116974 -14.99587591 10.31996332 -14.875 6.875 C-14 3.4375 -14 3.4375 -12.234375 1.74975586 C-8.36593387 -0.52219247 -4.38316309 -0.03443914 0 0 Z " fill="#000000" transform="translate(169,115.5625)"/>
<path d="M0 0 C0.90234375 -0.00708984 1.8046875 -0.01417969 2.734375 -0.02148438 C10.4591047 0.05279187 10.4591047 0.05279187 14 3.4375 C14.87281149 6.86640226 15.32922829 9.33009577 14.3125 12.75 C12.62828315 14.91542167 11.59551295 15.46729228 9 16.4375 C6.14321101 16.65594365 3.41662417 16.7621867 0.5625 16.75 C-0.56381836 16.77416992 -0.56381836 16.77416992 -1.71289062 16.79882812 C-6.32455772 16.80288412 -9.20421398 16.32639302 -13 13.4375 C-14.8503199 11.5871801 -14.29140132 9.01277918 -14.42578125 6.54296875 C-12.90985337 -0.95322508 -6.13745785 -0.13590085 0 0 Z " fill="#000000" transform="translate(46,115.5625)"/>
<path d="M0 0 C2.19140625 1.3671875 2.19140625 1.3671875 4 4 C4.59800096 7.50822113 4.55781352 10.94928617 4.5 14.5 C4.51546875 15.45003906 4.5309375 16.40007812 4.546875 17.37890625 C4.50813988 24.26407327 4.50813988 24.26407327 2.1875 27.625 C-1.0470087 29.65811976 -3.26438239 29.53365966 -7 29 C-9.90717073 26.78136971 -10.83981643 25.48055071 -12 22 C-12.12139491 19.54387046 -12.17542192 17.08409804 -12.1875 14.625 C-12.20167969 13.31789063 -12.21585937 12.01078125 -12.23046875 10.6640625 C-12.01345318 7.21388284 -11.6479888 5.01127521 -10 2 C-6.2794164 -0.48038907 -4.40203429 -0.46337203 0 0 Z " fill="#000000" transform="translate(111,48)"/>
<path d="M0 0 C2.91493325 4.37239988 2.32970877 8.35802061 2.3125 13.5 C2.32861328 14.46292969 2.34472656 15.42585938 2.36132812 16.41796875 C2.36197266 17.34222656 2.36261719 18.26648438 2.36328125 19.21875 C2.36626221 20.06373047 2.36924316 20.90871094 2.37231445 21.77929688 C1.9160273 24.50086272 1.17644054 25.35043316 -1 27 C-4.53068164 28.07455528 -6.30998383 28.28227934 -9.75 26.875 C-12.42675552 24.6443704 -12.9731722 23.30968602 -14 20 C-14.265625 16.625 -14.265625 16.625 -14.25 13 C-14.25773437 11.205625 -14.25773437 11.205625 -14.265625 9.375 C-13.91951801 4.97740534 -13.13625372 2.13625372 -10 -1 C-6.26649505 -2.60007355 -3.61769944 -1.5729128 0 0 Z " fill="#000000" transform="translate(113,172)"/>
</svg>
