<?xml version="1.0" encoding="UTF-8"?>
<svg version="1.1" xmlns="http://www.w3.org/2000/svg" width="512" height="512">
<path d="M0 0 C5.28 0 10.56 0 16 0 C16.33 14.85 16.66 29.7 17 45 C20.3 44.34 23.6 43.68 27 43 C28.65 43 30.3 43 32 43 C32 34.09 32 25.18 32 16 C37.28 16 42.56 16 48 16 C48 23.59 48 31.18 48 39 C51.12984375 38.3503125 54.2596875 37.700625 57.484375 37.03125 C60.51575606 36.40481424 63.5474137 35.77973421 66.57910156 35.15478516 C68.68616576 34.71967997 70.79293948 34.28316561 72.89941406 33.84521484 C75.92698129 33.21601732 78.95555646 32.59189233 81.984375 31.96875 C82.92617615 31.77188599 83.86797729 31.57502197 84.83831787 31.37219238 C85.71892883 31.19200562 86.59953979 31.01181885 87.50683594 30.82617188 C88.27960876 30.66628784 89.05238159 30.50640381 89.84857178 30.3416748 C92 30 92 30 96 30 C96 88.74 96 147.48 96 208 C101.28 208 106.56 208 112 208 C112 192.16 112 176.32 112 160 C117.28 160 122.56 160 128 160 C128 149.44 128 138.88 128 128 C133.28 128 138.56 128 144 128 C144 138.56 144 149.12 144 160 C149.28 160 154.56 160 160 160 C160 175.84 160 191.68 160 208 C165.28 208 170.56 208 176 208 C176 218.56 176 229.12 176 240 C181.28 240 186.56 240 192 240 C192 319.2 192 398.4 192 480 C197.28 480 202.56 480 208 480 C208 485.28 208 490.56 208 496 C44.32 496 -119.36 496 -288 496 C-288 490.72 -288 485.44 -288 480 C-277.44 480 -266.88 480 -256 480 C-256 469.11 -256 458.22 -256 447 C-257.98 446.67 -259.96 446.34 -262 446 C-274.00984586 440.72922125 -281.25675671 430.94874345 -286 419 C-290.56464081 404.18054969 -289.54149336 386.82457512 -282.4921875 373.0546875 C-276.84132165 363.4087909 -268.96955318 355.95655651 -258.24609375 352.421875 C-246.71154966 350.25538672 -236.21502734 351.8722045 -226.375 358.25 C-225.199375 359.11625 -225.199375 359.11625 -224 360 C-224 357.36 -224 354.72 -224 352 C-224.72703125 351.86464844 -225.4540625 351.72929687 -226.203125 351.58984375 C-240.95171103 348.43213366 -252.98142485 340.29696243 -261.32421875 327.6015625 C-271.73778948 310.67686851 -274.77928083 291.11220783 -271.3515625 271.54296875 C-268.10219637 258.28166682 -261.67775515 247.53875687 -252 238 C-251.15501953 237.13955078 -251.15501953 237.13955078 -250.29296875 236.26171875 C-238.20505855 224.87967192 -224.15654657 224 -208 224 C-208 192.32 -208 160.64 -208 128 C-213.28 128 -218.56 128 -224 128 C-224 122.72 -224 117.44 -224 112 C-176.48 112 -128.96 112 -80 112 C-80 96.49 -80 80.98 -80 65 C-73.04498523 63.26124631 -66.1896962 61.54831985 -59.171875 60.17578125 C-58.49592285 60.04119507 -57.8199707 59.90660889 -57.12353516 59.76794434 C-54.6663281 59.27957513 -52.20810953 58.79630631 -49.75 58.3125 C-44.2225 57.219375 -38.695 56.12625 -33 55 C-32.67 42.13 -32.34 29.26 -32 16 C-26.72 16 -21.44 16 -16 16 C-16 27.88 -16 39.76 -16 52 C-11.71 51.01 -7.42 50.02 -3 49 C-2.01 49 -1.02 49 0 49 C0 32.83 0 16.66 0 0 Z M73.58499146 51.05625916 C72.4099707 51.29041031 71.23494995 51.52456146 70.02432251 51.76580811 C68.71038402 52.02866572 67.39644984 52.29154486 66.08251953 52.55444336 C64.70796223 52.82875683 63.3333891 53.10299103 61.95880127 53.37715149 C58.21478726 54.12418189 54.47102583 54.87247077 50.72732782 55.62108302 C47.60605638 56.24514782 44.48468018 56.86868776 41.36330879 57.49225241 C34.00031954 58.96321961 26.63755085 60.4352873 19.27490234 61.90795898 C11.67211488 63.42863662 4.06890121 64.94716958 -3.53451622 66.46469396 C-10.05454888 67.76608773 -16.57428504 69.06895959 -23.09379113 70.37298876 C-26.99099821 71.15248125 -30.88832327 71.93137177 -34.78594589 72.7087841 C-38.45189456 73.44004159 -42.1174714 74.17313447 -45.78276825 74.9076519 C-47.12947226 75.17720238 -48.47630843 75.44609356 -49.82328415 75.71428299 C-51.65955195 76.07999911 -53.4953027 76.44830857 -55.33102417 76.8167572 C-56.35936811 77.02231704 -57.38771206 77.22787687 -58.44721794 77.43966579 C-61.10155149 77.97524984 -61.10155149 77.97524984 -64 79 C-64 190.87 -64 302.74 -64 418 C-62.35 417.67 -60.7 417.34 -59 417 C-41.0782798 415.52856382 -26.33474483 417.40490717 -12 429 C-10.515 430.11375 -10.515 430.11375 -9 431.25 C-7 433 -7 433 -5 436 C-1.92530975 435.56075854 0.88031785 435.04255365 3.8125 434 C7 433 7 433 16 432 C16 368.64 16 305.28 16 240 C21.28 240 26.56 240 32 240 C32 229.44 32 218.88 32 208 C47.84 208 63.68 208 80 208 C80 155.86 80 103.72 80 50 C77.85543786 50 75.67374323 50.63919009 73.58499146 51.05625916 Z M-192 128 C-192.20625 144.685625 -192.4125 161.37125 -192.625 178.5625 C-192.71604004 183.82388916 -192.80708008 189.08527832 -192.90087891 194.50610352 C-192.93433069 199.2374475 -192.93433069 199.2374475 -192.95443726 203.96885681 C-192.96975755 206.0704314 -193.00485796 208.17191995 -193.05575562 210.27293396 C-193.89768269 222.22000642 -193.89768269 222.22000642 -189.80059814 232.89273071 C-187.24408948 234.69374809 -184.89739264 235.85890999 -182 237 C-179.34375 239.328125 -179.34375 239.328125 -177.5 241.25 C-176.8709375 241.89453125 -176.241875 242.5390625 -175.59375 243.203125 C-174 245 -174 245 -172 248 C-169.05570351 248.43869534 -169.05570351 248.43869534 -165.625 248.4375 C-159.35189282 248.73498756 -154.1880736 249.95875845 -148.328125 252.16015625 C-146.09894061 253.11311139 -146.09894061 253.11311139 -144 253 C-144 248.71 -144 244.42 -144 240 C-138.72 240 -133.44 240 -128 240 C-128 245.28 -128 250.56 -128 256 C-131.63 256 -135.26 256 -139 256 C-138.34 256.66 -137.68 257.32 -137 258 C-136.54238281 258.46535156 -136.08476562 258.93070313 -135.61328125 259.41015625 C-134.49512627 260.51206685 -133.34364902 261.58077965 -132.16796875 262.62109375 C-121.41550968 272.48281657 -113.84459203 287.91476174 -112.82299805 302.53271484 C-112.3485419 323.26890587 -114.20067604 340.97434243 -128.375 357.375 C-137.70736505 367.08506617 -147.2836511 371.83657317 -160 376 C-159.95903198 376.85996582 -159.95903198 376.85996582 -159.91723633 377.73730469 C-159.27034282 396.22103554 -159.27034282 396.22103554 -164.5480957 402.21044922 C-166.95997824 404.56028063 -169.47416398 406.77249107 -172 409 C-173.5810068 410.84194967 -175.12482029 412.71664418 -176.625 414.625 C-179.48881783 418.18184136 -182.42346328 421.62539052 -185.5 425 C-189.32473643 429.1965858 -192.92896635 433.52997368 -196.46875 437.96875 C-199 441 -199 441 -201.26538086 443.03857422 C-206.35871727 447.8837853 -208.58981993 451.18217484 -208.87890625 458.3203125 C-208.82813776 460.923517 -208.71217634 463.52560621 -208.5625 466.125 C-208.376875 470.70375 -208.19125 475.2825 -208 480 C-197.44 480 -186.88 480 -176 480 C-175.9175 477.421875 -175.835 474.84375 -175.75 472.1875 C-175.15950774 460.67070588 -172.28369621 451.3785477 -164 443 C-153.14997198 433.76669801 -142.98196754 431.96207218 -129.10302734 432.79296875 C-120.3320624 433.65642107 -113.29280195 438.02183815 -107 444 C-106.525625 444.7321875 -106.05125 445.464375 -105.5625 446.21875 C-104.10629632 448.22857639 -104.10629632 448.22857639 -101.53125 448.5703125 C-98.81199795 448.22613108 -98.81199795 448.22613108 -97.15625 445.8046875 C-96.6096875 444.83789062 -96.063125 443.87109375 -95.5 442.875 C-89.09821955 432.11338631 -89.09821955 432.11338631 -83.39636135 429.08059406 C-80.98446685 427.36358736 -80.12768452 426.47806502 -79.35583794 423.58818567 C-79.11365783 420.40175566 -79.10131284 417.28086995 -79.15821838 414.085495 C-79.15223741 412.86432427 -79.14625644 411.64315354 -79.14009422 410.38497764 C-79.13055457 406.99754801 -79.15242918 403.6129483 -79.18754065 400.22586095 C-79.21776735 396.57288207 -79.20754053 392.91999075 -79.20222473 389.266922 C-79.19855402 382.93872549 -79.22051788 376.61103414 -79.2598896 370.28296471 C-79.31677691 361.13372705 -79.33500941 351.98473368 -79.34380554 342.83533833 C-79.35912637 327.99124267 -79.40571187 313.14741626 -79.47192383 298.3034668 C-79.536176 283.88388415 -79.58572539 269.46437463 -79.61547852 255.04467773 C-79.61823711 253.71146114 -79.61823711 253.71146114 -79.62105144 252.35131087 C-79.63018669 247.89241127 -79.63903265 243.43351115 -79.64773476 238.97461069 C-79.72030322 201.98283465 -79.84934921 164.99155662 -80 128 C-116.96 128 -153.92 128 -192 128 Z M128 176 C128 186.56 128 197.12 128 208 C133.28 208 138.56 208 144 208 C144 197.44 144 186.88 144 176 C138.72 176 133.44 176 128 176 Z M48 224 C48 229.28 48 234.56 48 240 C84.96 240 121.92 240 160 240 C160 234.72 160 229.44 160 224 C123.04 224 86.08 224 48 224 Z M-233 245 C-233.69480469 245.44730469 -234.38960937 245.89460937 -235.10546875 246.35546875 C-245.28006106 253.47577444 -251.81018837 263.68854025 -254.625 275.82885742 C-257.28757834 291.24442331 -254.83711014 306.5157424 -245.984375 319.4921875 C-240.75757937 326.09770482 -234.76912933 330.78518786 -227 334 C-226.01 334 -225.02 334 -224 334 C-224 316.18 -224 298.36 -224 280 C-218.72 280 -213.44 280 -208 280 C-208 297.82 -208 315.64 -208 334 C-198.06527454 332.01305491 -190.81537211 326.17396724 -185 318 C-176.81996226 304.20300301 -174.9547256 289.92872617 -177.65234375 274.1953125 C-181.08556044 261.90645963 -188.18592375 251.27311692 -199.24609375 244.65625 C-209.52787694 239.37386597 -223.02101944 238.54065988 -233 245 Z M32 256 C32 315.07 32 374.14 32 435 C33.65 435.33 35.3 435.66 37 436 C39.56272118 433.85554017 39.56272118 433.85554017 42 431 C43.0288028 430.41898026 44.05760559 429.83796051 45.11758423 429.23933411 C47.49173215 427.25949611 47.96729245 426.17515872 48.54343796 423.0897274 C48.74172038 419.15118706 48.74240668 415.23633633 48.68115234 411.2956543 C48.67945926 409.77769539 48.68041116 408.25973157 48.68380737 406.74177551 C48.68552814 402.62606895 48.65026628 398.51141265 48.60836363 394.39595008 C48.57084249 390.09318865 48.5673302 385.79040284 48.56021118 381.48750305 C48.54156631 373.34176499 48.49233442 365.19651038 48.43211424 357.05098516 C48.35249435 346.0423149 48.3201196 335.03351233 48.28510094 324.02462673 C48.2286915 306.6827224 48.10915716 289.34183825 48 272 C84.96 272 121.92 272 160 272 C159.86078125 284.973125 159.7215625 297.94625 159.578125 311.3125 C159.51682007 319.52476818 159.45855756 327.73687077 159.4140625 335.94921875 C159.34284836 348.98836884 159.25912044 362.02658867 159.09472656 375.06494141 C158.97505603 384.56074373 158.89768738 394.05579171 158.87093806 403.55232716 C158.85530235 408.58040066 158.81861092 413.60631634 158.73123932 418.63369751 C158.64961677 423.36875852 158.62469012 428.10077958 158.64270782 432.83647728 C158.63941345 434.57162205 158.61562977 436.30687113 158.5695343 438.04140663 C158.43746013 443.26883148 158.48194866 447.96724616 160 453 C163.56151773 456.73497712 167.38965451 458.78330689 172 461 C173.32 461.99 174.64 462.98 176 464 C176 395.36 176 326.72 176 256 C128.48 256 80.96 256 32 256 Z M-163 265 C-162.85997559 265.65774414 -162.71995117 266.31548828 -162.57568359 266.99316406 C-158.34004586 288.25748861 -159.85022377 309.57164119 -172 328 C-177.17163392 334.74108773 -183.13237933 340.04953538 -190 345 C-191.33471518 345.99815488 -192.66846414 346.99760784 -194 348 C-184.23600901 356.21744868 -176.72621771 359.94480823 -163.8125 359.3828125 C-158.80819788 358.88033134 -155.20102818 357.71930281 -151 355 C-150.30519531 354.55269531 -149.61039063 354.10539062 -148.89453125 353.64453125 C-138.71993894 346.52422556 -132.18981163 336.31145975 -129.375 324.17114258 C-126.71242166 308.75557669 -129.16288986 293.4842576 -138.015625 280.5078125 C-143.91901674 273.04722688 -151.09532522 267.26528745 -160.5 265.25 C-161.325 265.1675 -162.15 265.085 -163 265 Z M64 288 C64 330.9 64 373.8 64 418 C65.98 417.67 67.96 417.34 70 417 C71.66637741 416.91475919 73.33535168 416.86949236 75.00390625 416.8671875 C75.90947266 416.86589844 76.81503906 416.86460937 77.74804688 416.86328125 C78.67681641 416.86714844 79.60558594 416.87101563 80.5625 416.875 C81.49513672 416.87113281 82.42777344 416.86726562 83.38867188 416.86328125 C84.29294922 416.86457031 85.19722656 416.86585938 86.12890625 416.8671875 C87.35202515 416.86887939 87.35202515 416.86887939 88.59985352 416.87060547 C91 417 91 417 96 418 C96 375.1 96 332.2 96 288 C85.44 288 74.88 288 64 288 Z M112 288 C111.84194213 305.88937199 111.71301452 323.77814756 111.6373148 341.66802406 C111.60123076 349.97473789 111.55204243 358.28098689 111.47192383 366.58740234 C111.40211964 373.8279118 111.35698465 381.06808462 111.34138054 388.30892122 C111.33225981 392.14256555 111.31085079 395.97524688 111.2598896 399.80858231 C111.21228548 403.4187308 111.19773608 407.02752216 111.20824623 410.63795471 C111.2054096 412.59075251 111.16778452 414.54340325 111.12905884 416.49581909 C111.04734806 422.68970103 111.04734806 422.68970103 113.54148674 428.15433884 C116.82480905 431.13973749 116.82480905 431.13973749 121 432 C121.38478516 432.83144531 121.38478516 432.83144531 121.77734375 433.6796875 C123.17550971 436.33307593 124.81852482 438.68561927 126.5625 441.125 C129.90277778 445.80555556 129.90277778 445.80555556 131 448 C135.29 448 139.58 448 144 448 C144 395.2 144 342.4 144 288 C133.44 288 122.88 288 112 288 Z M-208 358 C-208 380.11 -208 402.22 -208 425 C-200.61327855 417.61327855 -193.78099812 409.89088652 -187.28515625 401.7109375 C-185 399 -185 399 -182.43359375 396.5390625 C-177.51108358 391.81839475 -177.51108358 391.81839475 -175.4375 385.484375 C-175.4375 382.27093736 -175.59550831 379.18599626 -176 376 C-177.03898437 375.64808594 -178.07796875 375.29617188 -179.1484375 374.93359375 C-190.55572768 370.94446574 -198.66902718 365.77581069 -208 358 Z M-264 377 C-271.17114212 387.03130863 -272.34537924 396.93146965 -271 409 C-269.23591414 415.84494471 -266.60899817 421.51280146 -261 426 C-260.13375 426.7425 -259.2675 427.485 -258.375 428.25 C-253.63920177 431.73953554 -248.65632088 431.46988246 -243 431 C-236.5238011 428.84126703 -232.0020953 424.20938895 -228.4453125 418.5078125 C-223.71396384 408.8579997 -223.18241297 397.67641219 -225.9921875 387.35546875 C-229.05716489 379.63591389 -232.77483777 374.30435196 -240 370 C-249.59323239 366.80225587 -257.47049426 369.46595491 -264 377 Z M-76.375 443.625 C-82.6271796 450.42424531 -86.27041743 459.00617062 -88 468 C-88.54785156 467.79503906 -89.09570312 467.59007812 -89.66015625 467.37890625 C-95.17366805 465.50520874 -99.91345187 464.88163976 -105.75 464.8125 C-112.37339769 464.49963599 -112.37339769 464.49963599 -115.08203125 462.33984375 C-116.5625 460.25 -116.5625 460.25 -117.8125 458.0703125 C-120.51334062 453.3616101 -124.92385997 450.67497992 -130 449 C-137.08602177 448.13806393 -143.41468354 448.06027123 -149.28515625 452.44140625 C-154.50809723 457.18845283 -158.67600532 461.72217193 -159.23046875 469.04296875 C-159.21628906 470.08066406 -159.20210937 471.11835938 -159.1875 472.1875 C-159.18105469 473.23292969 -159.17460937 474.27835937 -159.16796875 475.35546875 C-159.17388569 477.9769107 -159.17388569 477.9769107 -158 480 C-50.75 480 56.5 480 167 480 C161.95779324 473.85601229 161.95779324 473.85601229 156.0625 469.6875 C155.26972656 469.21699219 154.47695313 468.74648438 153.66015625 468.26171875 C147.85269404 465.50722492 142.43205402 464.6903609 136.0625 464.8125 C135.01352539 464.82216797 135.01352539 464.82216797 133.94335938 464.83203125 C129.22088016 464.90245033 124.65490043 465.22418326 120 466 C119.70867187 465.154375 119.41734375 464.30875 119.1171875 463.4375 C114.94713393 451.89772911 109.29798459 442.43552491 98.171875 436.48828125 C86.58634775 431.30450047 77.13836941 431.16756419 65 435 C53.36707959 440.23877096 46.61630655 448.75031605 41 460 C41 460.66 41 461.32 41 462 C40.29875 461.39671875 39.5975 460.7934375 38.875 460.171875 C30.25589754 452.91121804 24.46507869 448.15037848 12.87890625 448.62890625 C3.9050333 449.785647 -2.36751871 456.29411537 -9 462 C-9.27457031 461.27554687 -9.54914063 460.55109375 -9.83203125 459.8046875 C-14.64359133 448.25050643 -21.47033 440.50444198 -32.82421875 435.23046875 C-48.11806316 429.30480948 -64.21249135 432.52613279 -76.375 443.625 Z M-231.734375 443.7109375 C-234 445 -234 445 -240 447 C-240 457.89 -240 468.78 -240 480 C-234.72 480 -229.44 480 -224 480 C-224 466.8 -224 453.6 -224 440 C-227.14701158 440 -229.17836226 441.99015727 -231.734375 443.7109375 Z " fill="#000000" transform="translate(296,8)"/>
<path d="M0 0 C15.84 0 31.68 0 48 0 C48 21.12 48 42.24 48 64 C32.16 64 16.32 64 0 64 C0 42.88 0 21.76 0 0 Z M16 16 C16 26.56 16 37.12 16 48 C21.28 48 26.56 48 32 48 C32 37.44 32 26.88 32 16 C26.72 16 21.44 16 16 16 Z " fill="#000000" transform="translate(248,344)"/>
<path d="M0 0 C15.84 0 31.68 0 48 0 C48 21.12 48 42.24 48 64 C32.16 64 16.32 64 0 64 C0 42.88 0 21.76 0 0 Z M16 16 C16 26.56 16 37.12 16 48 C21.28 48 26.56 48 32 48 C32 37.44 32 26.88 32 16 C26.72 16 21.44 16 16 16 Z " fill="#000000" transform="translate(248,264)"/>
<path d="M0 0 C15.84 0 31.68 0 48 0 C48 21.12 48 42.24 48 64 C32.16 64 16.32 64 0 64 C0 42.88 0 21.76 0 0 Z M16 16 C16 26.56 16 37.12 16 48 C21.28 48 26.56 48 32 48 C32 37.44 32 26.88 32 16 C26.72 16 21.44 16 16 16 Z " fill="#000000" transform="translate(248,184)"/>
<path d="M0 0 C15.84 0 31.68 0 48 0 C48 21.12 48 42.24 48 64 C32.16 64 16.32 64 0 64 C0 42.88 0 21.76 0 0 Z M16 16 C16 26.56 16 37.12 16 48 C21.28 48 26.56 48 32 48 C32 37.44 32 26.88 32 16 C26.72 16 21.44 16 16 16 Z " fill="#000000" transform="translate(312,104)"/>
<path d="M0 0 C15.84 0 31.68 0 48 0 C48 21.12 48 42.24 48 64 C32.16 64 16.32 64 0 64 C0 42.88 0 21.76 0 0 Z M16 16 C16 26.56 16 37.12 16 48 C21.28 48 26.56 48 32 48 C32 37.44 32 26.88 32 16 C26.72 16 21.44 16 16 16 Z " fill="#000000" transform="translate(248,104)"/>
<path d="M0 0 C5.28 0 10.56 0 16 0 C16 5.28 16 10.56 16 16 C10.72 16 5.44 16 0 16 C0 10.72 0 5.44 0 0 Z " fill="#000000" transform="translate(184,248)"/>
<path d="M0 0 C5.28 0 10.56 0 16 0 C16 5.28 16 10.56 16 16 C10.72 16 5.44 16 0 16 C0 10.72 0 5.44 0 0 Z " fill="#000000" transform="translate(184,216)"/>
<path d="M0 0 C5.28 0 10.56 0 16 0 C16 5.28 16 10.56 16 16 C10.72 16 5.44 16 0 16 C0 10.72 0 5.44 0 0 Z " fill="#000000" transform="translate(152,216)"/>
<path d="M0 0 C5.28 0 10.56 0 16 0 C16 5.28 16 10.56 16 16 C10.72 16 5.44 16 0 16 C0 10.72 0 5.44 0 0 Z " fill="#000000" transform="translate(120,216)"/>
<path d="M0 0 C5.28 0 10.56 0 16 0 C16 5.28 16 10.56 16 16 C10.72 16 5.44 16 0 16 C0 10.72 0 5.44 0 0 Z " fill="#000000" transform="translate(184,184)"/>
<path d="M0 0 C5.28 0 10.56 0 16 0 C16 5.28 16 10.56 16 16 C10.72 16 5.44 16 0 16 C0 10.72 0 5.44 0 0 Z " fill="#000000" transform="translate(152,184)"/>
<path d="M0 0 C5.28 0 10.56 0 16 0 C16 5.28 16 10.56 16 16 C10.72 16 5.44 16 0 16 C0 10.72 0 5.44 0 0 Z " fill="#000000" transform="translate(120,184)"/>
<path d="M0 0 C5.28 0 10.56 0 16 0 C16 5.28 16 10.56 16 16 C10.72 16 5.44 16 0 16 C0 10.72 0 5.44 0 0 Z " fill="#000000" transform="translate(184,152)"/>
<path d="M0 0 C5.28 0 10.56 0 16 0 C16 5.28 16 10.56 16 16 C10.72 16 5.44 16 0 16 C0 10.72 0 5.44 0 0 Z " fill="#000000" transform="translate(152,152)"/>
<path d="M0 0 C5.28 0 10.56 0 16 0 C16 5.28 16 10.56 16 16 C10.72 16 5.44 16 0 16 C0 10.72 0 5.44 0 0 Z " fill="#000000" transform="translate(120,152)"/>
</svg>
