<?xml version="1.0" encoding="UTF-8"?>
<svg version="1.1" xmlns="http://www.w3.org/2000/svg" width="512" height="512">
<path d="M0 0 C1.02103466 -0.00570851 1.02103466 -0.00570851 2.06269628 -0.01153234 C4.36028428 -0.0218987 6.65762754 -0.01793276 8.95523262 -0.01409245 C10.61243054 -0.01854212 12.26962632 -0.02385526 13.92681897 -0.02996117 C18.49383682 -0.04418403 23.06078676 -0.04580365 27.62782359 -0.04536426 C32.54817227 -0.04700869 37.46849266 -0.0600681 42.38882637 -0.07155704 C53.15310354 -0.09443449 63.91736104 -0.10233046 74.68165922 -0.10738349 C81.39902447 -0.11063704 88.11638396 -0.1171574 94.83374596 -0.12438488 C113.42144461 -0.14395365 132.00913791 -0.16035648 150.59684753 -0.16326141 C151.78696408 -0.16344898 152.97708063 -0.16363655 154.20326132 -0.16382981 C156.61605652 -0.16419606 159.02885172 -0.16455976 161.44164692 -0.16492092 C163.23829051 -0.16519514 163.23829051 -0.16519514 165.07122993 -0.16547489 C166.27044902 -0.16565544 167.4696681 -0.16583599 168.70522715 -0.16602201 C188.14655333 -0.16956533 207.58776886 -0.19659634 227.02905665 -0.23397278 C246.97503061 -0.2720136 266.92094959 -0.29141858 286.86696064 -0.29172093 C298.0716706 -0.29230642 309.27624854 -0.30085743 320.48092461 -0.32971859 C330.01997847 -0.35417592 339.55885217 -0.36155362 349.09792887 -0.34647106 C353.96744173 -0.3392792 358.83659844 -0.34025719 363.70607185 -0.36288166 C368.16101168 -0.38338239 372.61531953 -0.38095538 377.07025184 -0.36000682 C378.68464619 -0.35649477 380.29908533 -0.36149399 381.9134209 -0.37571125 C384.10358648 -0.39376161 386.29150228 -0.38116657 388.4815979 -0.36076355 C389.69925366 -0.36157801 390.91690943 -0.36239246 392.17146385 -0.3632316 C396.28006305 0.43824672 397.77196874 2.04823964 400.36664009 5.26006222 C400.99482918 7.6499548 400.99482918 7.6499548 400.99774361 10.15459347 C401.01027672 11.09907345 401.02280983 12.04355343 401.03572273 13.01665401 C401.01583542 14.52932858 401.01583542 14.52932858 400.99554634 16.07256222 C400.9979583 17.11903927 401.00037025 18.16551632 401.0028553 19.2437048 C401.00187733 21.4526464 400.98849577 23.66161266 400.96356392 25.87041378 C400.9292571 29.24854072 400.94290849 32.62405117 400.96234322 36.00224972 C400.95544458 38.15069834 400.94577205 40.29914021 400.93304634 42.44756222 C400.93800621 43.45601192 400.94296608 44.46446163 400.94807625 45.50347042 C400.87452569 49.89003012 400.79174472 52.54386004 398.5187397 56.37334347 C388.68811776 64.99172649 367.59301874 59.26006222 359.36664009 59.26006222 C359.36664009 101.83006222 359.36664009 144.40006222 359.36664009 188.26006222 C371.24664009 188.26006222 383.12664009 188.26006222 395.36664009 188.26006222 C400.36664009 193.26006222 400.36664009 193.26006222 400.98763257 195.38146955 C400.98573397 196.0904074 400.98383537 196.79934526 400.98187923 197.52976608 C400.99183448 198.35483589 401.00178972 199.1799057 401.01204664 200.02997762 C400.99748243 200.92589531 400.98291822 201.82181301 400.96791267 202.74487972 C400.9721848 203.7047031 400.97645692 204.66452648 400.9808585 205.65343541 C400.98909947 208.87214981 400.96158425 212.08956342 400.93426704 215.30815792 C400.93285682 217.61428452 400.93364805 219.92041337 400.93647957 222.22653866 C400.9379161 228.4907017 400.90848716 234.75438754 400.87360978 241.01843953 C400.84238623 247.56340803 400.83941868 254.10838706 400.83348274 260.65341854 C400.82053304 271.63997849 400.78845394 282.62637096 400.74383736 293.61284542 C400.69793273 304.9282662 400.66254529 316.24363937 400.64129829 327.55913448 C400.63998468 328.25677783 400.63867106 328.95442118 400.63731764 329.67320523 C400.63079238 333.17312444 400.62447386 336.67304397 400.61825812 340.17296374 C400.56643592 369.20211055 400.47800808 398.23108404 400.36664009 427.26006222 C401.40070992 427.23911495 402.43477974 427.21816769 403.50018501 427.19658566 C407.34851338 427.12400933 411.19678163 427.07819904 415.04559517 427.04033566 C416.70911022 427.02026015 418.37255505 426.99299346 420.03582954 426.95830441 C422.43143249 426.90960455 424.82610001 426.88705366 427.22210884 426.86943722 C428.33177261 426.83846951 428.33177261 426.83846951 429.46385384 426.80687618 C433.1159991 426.80530068 435.18818062 427.14857125 438.31317329 429.10088253 C440.94345067 431.86656713 441.36664009 433.46117453 441.36664009 437.26006222 C439.76252161 440.78912288 438.62504647 442.0877913 435.36664009 444.26006222 C432.76584562 444.45470825 430.27238568 444.53168813 427.67129898 444.51733112 C426.8757998 444.5208372 426.08030062 444.52434327 425.2606954 444.52795559 C422.57256351 444.53732193 419.8846458 444.53233287 417.19650459 444.52748775 C415.25882091 444.53122138 413.32113874 444.53582174 411.38345897 444.5412184 C406.04113325 444.55349936 400.69886992 444.55318196 395.35653329 444.55082965 C389.6018255 444.55042277 383.84713805 444.56144828 378.09243965 444.57094479 C366.81141917 444.58758351 355.53041959 444.59305562 344.24938788 444.59416954 C335.08330814 444.59511863 325.91723531 444.59922193 316.75115776 444.60557079 C295.01348356 444.62032178 273.27581531 444.63261969 251.53813553 444.63157368 C250.84261535 444.63154252 250.14709516 444.63151136 249.43049861 444.63147926 C245.90513274 444.63131304 242.37976688 444.63111496 238.85440101 444.63090985 C237.80413305 444.63085001 237.80413305 444.63085001 236.73264756 444.63078897 C235.31671517 444.63070809 233.90078278 444.6306245 232.48485038 444.63053818 C210.4514427 444.62931246 188.41809656 444.64432817 166.3847065 444.67168331 C141.64331731 444.70238769 116.90197009 444.71959146 92.16056049 444.71775687 C79.05557135 444.71709182 65.95065161 444.72263438 52.84567833 444.74411297 C41.68902322 444.76228059 30.53246897 444.76670855 19.37580551 444.75309412 C13.68004516 444.74654218 7.98447853 444.74652729 2.28873634 444.76380062 C-2.92108213 444.77943827 -8.13055177 444.77676358 -13.34036125 444.75923236 C-15.22931322 444.75614183 -17.11829063 444.75987131 -19.00721262 444.77095251 C-21.56734814 444.78498158 -24.12624443 444.7745607 -26.68633652 444.75784016 C-27.42638626 444.76777652 -28.16643601 444.77771288 -28.92891151 444.78795034 C-32.50690154 444.73826017 -34.51208864 444.33642089 -37.56754887 442.41254485 C-40.21523613 439.65377324 -40.63335991 438.06505231 -40.63335991 434.26006222 C-39.02924142 430.73100155 -37.89176629 429.43233314 -34.63335991 427.26006222 C-31.27789116 427.06474972 -31.27789116 427.06474972 -27.44585991 427.13506222 C-26.17355522 427.15310909 -24.90125053 427.17115597 -23.59039116 427.18974972 C-22.12666069 427.22455441 -22.12666069 427.22455441 -20.63335991 427.26006222 C-20.59210991 425.98131222 -20.55085991 424.70256222 -20.50835991 423.38506222 C-19.63570343 415.79414623 -15.69871914 409.55610291 -9.75835991 404.82256222 C-7.05310038 402.94849884 -4.66223374 401.89483217 -1.50835991 401.01006222 C3.23593134 399.45637619 4.59791752 396.06547322 6.85492134 391.84209347 C9.35290523 387.57551116 12.89096755 383.49789849 17.36664009 381.26006222 C17.68714731 379.45869291 17.92196617 377.64183634 18.11664009 375.82256222 C19.29572785 368.31034397 21.68338606 362.36921886 27.59710884 357.37724972 C32.03154884 354.4585563 35.79258307 353.03552943 41.05414009 352.38506222 C46.57859216 351.64019228 48.40214153 349.5318811 51.71039009 345.23271847 C55.86976505 340.27874593 61.13707703 339.08245984 67.36664009 338.38506222 C73.66354087 338.03479214 78.41844366 339.27733007 84.36664009 341.26006222 C84.36664009 322.45006222 84.36664009 303.64006222 84.36664009 284.26006222 C77.77179634 284.30646847 71.17695259 284.35287472 64.38226509 284.40068722 C60.20777021 284.42112202 56.03333688 284.44037753 51.85882759 284.45537472 C45.23076785 284.47929912 38.60292885 284.50762113 31.97503853 284.56182003 C26.63229896 284.60523702 21.28979604 284.62919081 15.94689369 284.63957119 C13.90708629 284.64696998 11.86729205 284.6614179 9.82758522 284.68298244 C6.97345536 284.71196109 4.12030712 284.71602052 1.26605415 284.71416378 C0.42016731 284.72854488 -0.42571953 284.74292599 -1.2972393 284.75774288 C-7.03433887 284.71727814 -7.03433887 284.71727814 -10.12707329 282.35668087 C-12.3562512 279.25386105 -12.75905239 277.56745981 -12.76478767 273.79562569 C-12.76862882 272.85072688 -12.77246996 271.90582808 -12.77642751 270.93229598 C-12.77556103 269.88708527 -12.77469454 268.84187456 -12.7738018 267.76499081 C-12.77677293 266.6601671 -12.77974405 265.55534339 -12.7828052 264.41704017 C-12.79152382 260.68982059 -12.79300311 256.96263301 -12.79449272 253.23540401 C-12.79911865 250.57330325 -12.80412213 247.91120545 -12.80953789 245.24910641 C-12.82313277 237.99912202 -12.82914777 230.74914315 -12.83354855 223.49914813 C-12.83630911 218.97398972 -12.84054613 214.44883345 -12.84505272 209.92367649 C-12.85724707 197.40006011 -12.86754594 184.87644545 -12.87092781 172.35282326 C-12.87114738 171.55092866 -12.87136694 170.74903406 -12.87159316 169.92283963 C-12.87181144 169.11900222 -12.87202972 168.31516481 -12.87225461 167.4869687 C-12.87269808 165.85802917 -12.87314464 164.22908964 -12.87359428 162.60015011 C-12.87381571 161.79213606 -12.87403714 160.98412201 -12.87426528 160.15162269 C-12.87821379 147.05715262 -12.89566865 133.96273819 -12.91895381 120.86828961 C-12.94265576 107.43122247 -12.95512914 93.99418326 -12.95629573 80.55709487 C-12.95721316 73.0099248 -12.96298253 65.4628272 -12.98111534 57.91567707 C-12.99650078 51.48926783 -13.00164606 45.06295344 -12.99337724 38.63652929 C-12.9894651 35.35690715 -12.992053 32.07751651 -13.00443459 28.79790974 C-13.0170682 25.24380182 -13.01132375 21.69018842 -13.00085258 18.13608456 C-13.00890899 17.09756602 -13.01696539 16.05904747 -13.02526593 14.98905867 C-12.9641452 6.15257168 -12.9641452 6.15257168 -9.63335991 2.26006222 C-6.00075218 -0.16167627 -4.32655548 0.00693384 0 0 Z M4.36664009 17.26006222 C4.36664009 99.76006222 4.36664009 182.26006222 4.36664009 267.26006222 C24.96585884 267.30904659 45.56507759 267.35803097 66.78851509 267.40849972 C79.80414424 267.44386662 92.81976926 267.47972149 105.83539009 267.51787472 C112.67002507 267.53788353 119.5046604 267.55776811 126.33929634 267.57744503 C127.19593675 267.57991647 128.05257716 267.58238791 128.93517637 267.58493423 C142.77489877 267.62468109 156.61462935 267.65741108 170.45437559 267.68756203 C184.65189537 267.71864812 198.8493803 267.75724529 213.04686093 267.80285227 C221.81132839 267.83076877 230.57577028 267.85278807 239.34027031 267.86732472 C245.3459407 267.87784619 251.35156167 267.89564661 257.35719487 267.91922925 C260.82496074 267.93262954 264.2926572 267.94276462 267.76045036 267.94427586 C271.51638288 267.9475822 275.2720726 267.96301565 279.02795601 267.98158932 C280.12911586 267.97965458 281.2302757 267.97771985 282.36480403 267.97572649 C283.36901936 267.98319198 284.37323469 267.99065747 285.40788078 267.99834919 C286.27516202 268.00062751 287.14244325 268.00290583 288.03600574 268.0052532 C290.59062516 268.28455058 292.20154539 268.89046978 294.36664009 270.26006222 C295.75136216 273.02950636 295.5073278 275.28454511 295.52485847 278.38497066 C295.5395417 280.34538548 295.5395417 280.34538548 295.55452156 282.34540462 C295.56042616 283.80214559 295.56623658 285.25888694 295.57196236 286.71562862 C295.58153807 288.24300052 295.59154796 289.77036975 295.60196114 291.29773617 C295.62904958 295.45242688 295.65003777 299.607129 295.66996312 303.76185942 C295.69179842 308.10074898 295.7191991 312.43960322 295.74601936 316.77846432 C295.79597953 324.99842442 295.84090601 333.21840409 295.88404173 341.43840253 C295.94260663 352.54347098 296.00891132 363.64849301 296.07479191 374.75352001 C296.17841859 392.25566949 296.27167316 409.75785865 296.36664009 427.26006222 C325.07664009 427.26006222 353.78664009 427.26006222 383.36664009 427.26006222 C383.36664009 367.86006222 383.36664009 308.46006222 383.36664009 247.26006222 C358.2312104 247.24588253 333.09578072 247.23170284 307.19867134 247.21709347 C291.31650033 247.19704705 275.43434532 247.17577555 259.55218697 247.14873409 C251.21226244 247.13459914 242.87233748 247.12077607 234.53241158 247.10747433 C232.96444723 247.10495404 232.96444723 247.10495404 231.36480683 247.10238284 C214.47730511 247.07569346 197.58983733 247.06661945 180.70231668 247.06402079 C163.37802486 247.06096401 146.05383135 247.03904925 128.72958392 246.99953765 C118.03496939 246.97574343 107.34055095 246.96675251 96.64591356 246.97654911 C89.3174969 246.98185471 81.98925636 246.96888385 74.66088984 246.94139931 C70.42936123 246.92607341 66.19822662 246.91894155 61.96668625 246.933465 C58.09443925 246.94657782 54.22295723 246.93679993 50.35079678 246.90862449 C48.94830547 246.90249399 47.54574675 246.90484667 46.1432899 246.91643295 C35.56499992 246.99700301 35.56499992 246.99700301 31.03939438 244.21394634 C28.9479851 240.52076754 28.67747072 237.49600832 28.75190926 233.35867977 C28.746226 232.5691043 28.74054274 231.77952884 28.73468727 230.96602684 C28.72177946 228.32318486 28.7445769 225.68187308 28.76727486 223.03911495 C28.76541087 221.14341059 28.76137439 219.24770731 28.75532722 217.35201168 C28.74534467 212.2052992 28.76653543 207.05913661 28.79380727 201.91250396 C28.81762121 196.52918629 28.81469219 191.14587984 28.81511116 185.76251888 C28.81974043 176.72294958 28.8433914 167.68359078 28.87957954 158.64409542 C28.9213263 148.18817235 28.93889509 137.73243885 28.94219929 127.27643722 C28.94579709 116.15076114 28.96466926 105.02515343 28.98931956 93.89950585 C28.99555216 90.69066004 28.99918597 87.48181942 29.00235367 84.27296925 C29.00824899 79.23408352 29.0245475 74.19533362 29.04895782 69.15650463 C29.0564061 67.30536289 29.06047029 65.45420404 29.06093788 63.60304737 C29.06219318 61.08004461 29.07571948 58.55740148 29.09248543 56.03446102 C29.0888628 54.93062444 29.0888628 54.93062444 29.08516699 53.80448812 C29.12320975 50.15841769 29.23120115 47.29899944 31.36664009 44.26006222 C34.04063658 42.92306397 36.08283875 43.12889231 39.07881546 43.12139702 C40.30198601 43.11592257 41.52515656 43.11044813 42.78539288 43.10480779 C44.15509607 43.10373146 45.52479933 43.10274679 46.89450264 43.10184383 C48.33991028 43.09728088 49.7853166 43.09228126 51.23072135 43.08688027 C55.21675059 43.07325932 59.20277127 43.0658694 63.18881774 43.05945361 C67.48194814 43.05146699 71.77506063 43.03776326 76.06817818 43.02474117 C83.51100416 43.00295369 90.95383194 42.98481754 98.3966732 42.96913624 C109.15787486 42.94645826 119.9190567 42.91831259 130.68024157 42.88881696 C148.13803625 42.8411156 165.59583901 42.79785833 183.05365181 42.75737667 C200.0158978 42.71803468 216.97813659 42.67661157 233.94037056 42.63237667 C234.98529356 42.6296524 236.03021657 42.62692813 237.10680391 42.6241213 C242.34868767 42.61044204 247.59057132 42.59672172 252.83245492 42.58298099 C296.34383502 42.46897626 339.85523076 42.36224948 383.36664009 42.26006222 C383.36664009 34.01006222 383.36664009 25.76006222 383.36664009 17.26006222 C258.29664009 17.26006222 133.22664009 17.26006222 4.36664009 17.26006222 Z M45.36664009 59.26006222 C45.36664009 101.83006222 45.36664009 144.40006222 45.36664009 188.26006222 C143.37664009 188.26006222 241.38664009 188.26006222 342.36664009 188.26006222 C342.36664009 145.69006222 342.36664009 103.12006222 342.36664009 59.26006222 C244.35664009 59.26006222 146.34664009 59.26006222 45.36664009 59.26006222 Z M45.36664009 205.26006222 C45.36664009 213.51006222 45.36664009 221.76006222 45.36664009 230.26006222 C143.37664009 230.26006222 241.38664009 230.26006222 342.36664009 230.26006222 C342.36664009 222.01006222 342.36664009 213.76006222 342.36664009 205.26006222 C244.35664009 205.26006222 146.34664009 205.26006222 45.36664009 205.26006222 Z M359.36664009 205.26006222 C359.36664009 213.51006222 359.36664009 221.76006222 359.36664009 230.26006222 C367.28664009 230.26006222 375.20664009 230.26006222 383.36664009 230.26006222 C383.36664009 222.01006222 383.36664009 213.76006222 383.36664009 205.26006222 C375.44664009 205.26006222 367.52664009 205.26006222 359.36664009 205.26006222 Z M101.36664009 284.26006222 C101.18589497 295.38666256 101.0391315 306.51228805 100.95214272 317.64002419 C100.91039191 322.80713787 100.85376671 327.97319523 100.76312447 333.13970089 C100.67619288 338.12591388 100.62836515 343.11111113 100.60762215 348.09802341 C100.59284089 350.00036586 100.5639747 351.9026527 100.52079964 353.80456257 C100.46269387 356.47023048 100.45472696 359.13170463 100.45843697 361.79790401 C100.42967476 362.58409115 100.40091255 363.37027828 100.37127876 364.18028927 C100.32550212 366.6997744 100.32550212 366.6997744 101.36664009 370.26006222 C103.26173244 371.92268199 105.11887166 373.03859341 107.36780739 374.17084122 C112.0853963 376.74159009 114.73949933 381.23071805 116.36664009 386.26006222 C116.69664009 386.26006222 117.02664009 386.26006222 117.36664009 386.26006222 C117.36664009 352.60006222 117.36664009 318.94006222 117.36664009 284.26006222 C112.08664009 284.26006222 106.80664009 284.26006222 101.36664009 284.26006222 Z M134.36664009 284.26006222 C134.11164297 299.37632964 133.91552091 314.49234705 133.7967062 329.61028194 C133.74006238 336.63051878 133.6628919 343.64939221 133.53680611 350.66875362 C133.41515374 357.44454985 133.35149272 364.21892984 133.32299042 370.99574947 C133.30268281 373.57949256 133.26302398 376.1631591 133.20360947 378.74629879 C132.03406355 392.41493932 132.03406355 392.41493932 136.7480793 404.52471066 C139.55714141 406.5664544 142.20180787 407.86825785 145.36664009 409.26006222 C146.68664009 410.58006222 148.00664009 411.90006222 149.36664009 413.26006222 C149.36664009 370.69006222 149.36664009 328.12006222 149.36664009 284.26006222 C144.41664009 284.26006222 139.46664009 284.26006222 134.36664009 284.26006222 Z M166.36664009 284.26006222 C166.36664009 331.45006222 166.36664009 378.64006222 166.36664009 427.26006222 C171.64664009 427.26006222 176.92664009 427.26006222 182.36664009 427.26006222 C182.36664009 380.07006222 182.36664009 332.88006222 182.36664009 284.26006222 C177.08664009 284.26006222 171.80664009 284.26006222 166.36664009 284.26006222 Z M199.36664009 284.26006222 C199.36664009 331.45006222 199.36664009 378.64006222 199.36664009 427.26006222 C204.64664009 427.26006222 209.92664009 427.26006222 215.36664009 427.26006222 C215.36664009 380.07006222 215.36664009 332.88006222 215.36664009 284.26006222 C210.08664009 284.26006222 204.80664009 284.26006222 199.36664009 284.26006222 Z M232.36664009 284.26006222 C232.36664009 331.45006222 232.36664009 378.64006222 232.36664009 427.26006222 C237.31664009 427.26006222 242.26664009 427.26006222 247.36664009 427.26006222 C247.36664009 380.07006222 247.36664009 332.88006222 247.36664009 284.26006222 C242.41664009 284.26006222 237.46664009 284.26006222 232.36664009 284.26006222 Z M264.36664009 284.26006222 C264.36664009 331.45006222 264.36664009 378.64006222 264.36664009 427.26006222 C269.31664009 427.26006222 274.26664009 427.26006222 279.36664009 427.26006222 C279.36664009 380.07006222 279.36664009 332.88006222 279.36664009 284.26006222 C274.41664009 284.26006222 269.46664009 284.26006222 264.36664009 284.26006222 Z M62.36664009 358.26006222 C61.36336031 360.2873507 60.70171423 362.24009752 60.10492134 364.42021847 C59.36664009 366.26006222 59.36664009 366.26006222 56.36664009 368.26006222 C52.58501864 368.56433061 48.82320899 368.63871654 45.03070259 368.72099972 C40.91470442 369.32655169 39.19827821 370.25349665 36.36664009 373.26006222 C36.36664009 374.25006222 36.36664009 375.24006222 36.36664009 376.26006222 C37.31925728 376.29744503 38.27187447 376.33482784 39.25335884 376.37334347 C40.50761665 376.43908566 41.76187447 376.50482784 43.05414009 376.57256222 C44.29550728 376.63057003 45.53687447 376.68857784 46.81585884 376.74834347 C50.48140631 377.27660168 52.48335924 377.96629976 55.36664009 380.26006222 C56.32992904 383.7921217 56.74914942 386.14195803 55.55414009 389.63506222 C54.36664009 391.26006222 54.36664009 391.26006222 52.36664009 392.26006222 C50.93957745 392.3646175 49.50831649 392.41520924 48.07757759 392.43584347 C46.78787056 392.47161495 46.78787056 392.47161495 45.47210884 392.50810909 C43.6754626 392.5505192 41.87852158 392.58206793 40.08148384 392.60185909 C33.10741258 392.82465632 27.60717891 394.23339896 22.41351509 399.08428097 C21.98554634 399.69916378 21.55757759 400.31404659 21.11664009 400.94756222 C20.63066353 401.63592159 20.14468697 402.32428097 19.64398384 403.03349972 C18.32383327 405.33467961 17.53228968 407.56618017 16.67914009 410.07256222 C15.45009811 413.11392034 14.90456677 414.02618105 11.85101509 415.35381222 C9.9098976 415.83130636 7.95860672 416.26925698 5.99945259 416.66631222 C2.56703489 417.44038861 0.69522862 418.63101065 -1.63335991 421.26006222 C-2.29335991 423.24006222 -2.95335991 425.22006222 -3.63335991 427.26006222 C42.89664009 427.26006222 89.42664009 427.26006222 137.36664009 427.26006222 C133.45036226 420.7329325 129.05897392 416.25128526 121.74945259 413.77178097 C117.65005351 412.89141822 113.5019185 412.78523601 109.31976509 412.66631222 C106.06129987 412.21805774 104.67308015 411.57194199 102.36664009 409.26006222 C101.36390229 405.16554954 101.39704749 401.36994171 101.55414009 397.19756222 C101.59033099 392.4420784 100.73528307 389.8060022 97.36664009 386.26006222 C94.61738778 384.98134021 92.05748401 384.38545512 89.08539009 383.84599972 C88.29132759 383.69389034 87.49726509 383.54178097 86.67914009 383.38506222 C85.9327729 383.26389034 85.18640572 383.14271847 84.41742134 383.01787472 C81.54312486 381.95575373 80.72884994 381.01554207 79.36664009 378.26006222 C79.39550613 374.82861144 79.71120932 371.58804705 80.12835884 368.19170284 C80.58943472 363.55049564 80.33491562 360.92391972 77.36664009 357.26006222 C71.87569476 354.30339935 67.47599818 354.78135033 62.36664009 358.26006222 Z " fill="#221E1F" transform="translate(55.63335990905762,33.7399377822876)"/>
<path d="M0 0 C3.24541268 2.13513992 3.89478226 3.64489014 5 7.375 C5 13.06724824 2.52705558 15.42787507 -1.25 19.31640625 C-2.98312264 21.04688693 -4.72561207 22.76802896 -6.4765625 24.48046875 C-9.25241671 27.25202597 -11.80355883 30.15416033 -14.3515625 33.1328125 C-16.55763595 35.63163503 -18.92471206 37.94179567 -21.3125 40.265625 C-23.0294817 42.03030064 -24.5329985 43.88469082 -26.0625 45.8125 C-28.74250005 48.95334661 -30.76471789 50.48139403 -35 51 C-37.65888821 50.31065861 -39.54774621 49.34633541 -42 48 C-43.65202054 44.69595891 -43.76140726 41.5445636 -43 38 C-41.69238281 36.11279297 -41.69238281 36.11279297 -39.953125 34.2421875 C-39.31632813 33.54883301 -38.67953125 32.85547852 -38.0234375 32.14111328 C-37.35570312 31.4345459 -36.68796875 30.72797852 -36 30 C-35.37351563 29.32565918 -34.74703125 28.65131836 -34.1015625 27.95654297 C-32.16164998 25.87742376 -30.2077634 23.81231112 -28.25 21.75 C-22.43655143 15.60810037 -16.69450371 9.41262044 -11.0390625 3.125 C-7.56222847 -0.49836727 -4.94069152 -0.42592168 0 0 Z " fill="#221E1F" transform="translate(239,131)"/>
<path d="M0 0 C2.78227332 2.49691195 3.80269892 4.19285922 4.6875 7.8125 C3.61465706 12.78659 0.47693191 15.41071825 -3 19 C-4.34301596 20.46163563 -5.68578561 21.92350519 -7.02441406 23.38916016 C-9.08500773 25.63863021 -11.16435951 27.87046192 -13.2421875 30.10400391 C-15.15833255 32.17077924 -17.06346029 34.24743458 -18.96875 36.32421875 C-20.31222706 37.77889795 -21.65597327 39.23332864 -23 40.6875 C-23.63486328 41.38294922 -24.26972656 42.07839844 -24.92382812 42.79492188 C-25.52646484 43.44396484 -26.12910156 44.09300781 -26.75 44.76171875 C-27.28109375 45.33881592 -27.8121875 45.91591309 -28.359375 46.51049805 C-31.44708599 49.31379042 -33.36026177 50.02244696 -37.5625 49.875 C-41 49 -41 49 -42.9375 47.4375 C-44.45376591 43.95900761 -44.62650463 40.69842644 -44 37 C-42.33513992 34.58198893 -40.95126937 32.92072976 -38.875 30.9375 C-37.77429394 29.81814637 -36.67405292 28.69833532 -35.57421875 27.578125 C-34.70095947 26.70897461 -34.70095947 26.70897461 -33.81005859 25.82226562 C-30.69204076 22.68321988 -27.69774212 19.42942383 -24.6875 16.1875 C-24.09259766 15.55295898 -23.49769531 14.91841797 -22.88476562 14.26464844 C-19.27811754 10.4131045 -15.76889033 6.506236 -12.4296875 2.41796875 C-8.55139187 -1.42853757 -5.16040398 -1.38225107 0 0 Z " fill="#221E1F" transform="translate(285,124)"/>
</svg>
