<?xml version="1.0" encoding="UTF-8"?>
<!DOCTYPE svg PUBLIC "-//W3C//DTD SVG 1.1//EN" "http://www.w3.org/Graphics/SVG/1.1/DTD/svg11.dtd">
<svg xmlns="http://www.w3.org/2000/svg" version="1.1" width="512px" height="512px" style="shape-rendering:geometricPrecision; text-rendering:geometricPrecision; image-rendering:optimizeQuality; fill-rule:evenodd; clip-rule:evenodd" xmlns:xlink="http://www.w3.org/1999/xlink">
<g><path style="opacity:0.926" fill="#000000" d="M 336.5,-0.5 C 340.167,-0.5 343.833,-0.5 347.5,-0.5C 352.991,2.46469 355.991,7.13136 356.5,13.5C 339.341,58.7256 340.841,103.392 361,147.5C 374.797,176.271 392.13,202.604 413,226.5C 436.921,266.013 445.587,308.68 439,354.5C 426.936,420.883 390.436,468.383 329.5,497C 311.653,504.21 293.32,509.043 274.5,511.5C 261.833,511.5 249.167,511.5 236.5,511.5C 201.317,507.384 169.817,494.384 142,472.5C 138.785,463.42 141.952,459.253 151.5,460C 201.749,497.115 256.416,505.448 315.5,485C 372.671,461.156 408.171,418.99 422,358.5C 429.977,315.026 422.644,274.359 400,236.5C 375.035,208.259 355.368,176.593 341,141.5C 325.418,100.055 324.584,58.3882 338.5,16.5C 289.704,27.1875 250.204,52.1875 220,91.5C 216.667,96.8333 213.333,102.167 210,107.5C 204.559,111.926 199.892,111.259 196,105.5C 192.334,88.6723 189.834,71.6723 188.5,54.5C 178.037,64.7954 168.87,76.1287 161,88.5C 115.502,159.83 90.3355,237.83 85.5,322.5C 86.2777,367.02 101.111,406.02 130,439.5C 132.785,446.268 130.618,450.268 123.5,451.5C 121.366,451.485 119.366,450.985 117.5,450C 86.0369,413.129 70.0369,370.296 69.5,321.5C 74.9518,223.63 106.452,135.297 164,56.5C 169.801,49.6975 175.968,43.1975 182.5,37C 192.045,33.0868 199.212,35.5868 204,44.5C 204.927,56.5506 206.26,68.5506 208,80.5C 230.368,50.4667 258.868,28.3 293.5,14C 307.704,8.43227 322.038,3.59894 336.5,-0.5 Z"/></g>
<g><path style="opacity:0.917" fill="#000000" d="M 250.5,202.5 C 255.742,202.023 260.742,202.856 265.5,205C 290.341,231.497 312.508,259.997 332,290.5C 335.53,300.957 332.03,305.124 321.5,303C 303.58,276.001 284.08,250.168 263,225.5C 260.651,222.983 258.151,220.65 255.5,218.5C 241.779,233.221 228.779,248.555 216.5,264.5C 207.921,267.407 203.755,264.407 204,255.5C 205.271,252.567 206.938,249.901 209,247.5C 220.418,232.744 232.585,218.577 245.5,205C 247.315,204.243 248.981,203.41 250.5,202.5 Z"/></g>
<g><path style="opacity:0.924" fill="#000000" d="M 187.5,278.5 C 198.151,277.149 201.651,281.482 198,291.5C 187.817,306.865 179.484,323.199 173,340.5C 166.991,376.65 178.824,405.483 208.5,427C 243.836,447.399 277.836,445.399 310.5,421C 339.313,393.902 347.147,361.735 334,324.5C 337.449,317.972 342.115,316.972 348,321.5C 363.798,364.478 354.964,401.644 321.5,433C 289.22,458.268 253.887,463.602 215.5,449C 167.989,425.144 148.822,386.978 158,334.5C 164.984,314.194 174.817,295.527 187.5,278.5 Z"/></g>
</svg>
