<?xml version="1.0" encoding="UTF-8"?>
<svg version="1.1" xmlns="http://www.w3.org/2000/svg" width="512" height="512">
<path d="M0 0 C3.32736677 0.8714532 4.84356765 3.0459241 7.1328125 5.55859375 C8.06413235 6.54128651 8.99645302 7.52303158 9.9296875 8.50390625 C15.46615745 14.44268992 20.77090125 20.47747829 25.85546875 26.8125 C28.35107797 29.82178522 30.97048055 32.69796397 33.6328125 35.55859375 C37.92241657 40.16858318 41.93692372 44.93642891 45.88671875 49.84375 C48.2211184 52.6653287 50.65271848 55.36450087 53.1328125 58.05859375 C56.40699673 61.61529619 59.53923683 65.23021186 62.5703125 68.99609375 C65.79224351 72.99083361 69.13936745 76.80413724 72.6328125 80.55859375 C76.92236363 85.16863711 80.93691922 89.93642331 84.88671875 94.84375 C87.2211184 97.6653287 89.65271848 100.36450087 92.1328125 103.05859375 C95.40699673 106.61529619 98.53923683 110.23021186 101.5703125 113.99609375 C104.79224351 117.99083361 108.13936745 121.80413724 111.6328125 125.55859375 C115.92236363 130.16863711 119.93691922 134.93642331 123.88671875 139.84375 C126.2211184 142.6653287 128.65271848 145.36450087 131.1328125 148.05859375 C136.02840035 153.38121107 140.61419682 158.91471969 145.1328125 164.55859375 C145.86886719 165.41582031 146.60492188 166.27304688 147.36328125 167.15625 C149.79167912 170.45308155 149.64218238 172.55640182 149.1328125 176.55859375 C147.37266119 179.74362945 146.63390334 180.39156347 143.1328125 181.55859375 C140.99486725 181.64197415 138.85439241 181.66593122 136.71484375 181.65625 C134.83442383 181.65141602 134.83442383 181.65141602 132.91601562 181.64648438 C131.60568359 181.63810547 130.29535156 181.62972656 128.9453125 181.62109375 C127.61002769 181.61607692 126.27474109 181.61151434 124.93945312 181.60742188 C121.67052777 181.5956207 118.40169259 181.57915672 115.1328125 181.55859375 C114.93550415 195.39823268 114.82072055 209.23650615 114.79859352 223.07757759 C114.78595546 229.50601979 114.74771742 235.93211504 114.64941406 242.35986328 C114.55537152 248.57228686 114.53061464 254.78159665 114.55234909 260.99465561 C114.54873058 263.35567522 114.52083197 265.71679568 114.46739578 268.07721329 C113.90984254 283.26786991 113.90984254 283.26786991 121.04154015 296.07136345 C123.92367129 298.78859452 126.95960967 301.19498588 130.1328125 303.55859375 C131.58097525 304.81726299 133.02228692 306.08407323 134.4453125 307.37109375 C135.04988281 307.88285156 135.65445312 308.39460938 136.27734375 308.921875 C139.30105848 311.58910968 142.07974047 314.4979324 144.91015625 317.3671875 C146.944872 319.37329565 149.02866687 321.25972891 151.1953125 323.12109375 C152.51011442 324.26428498 153.82255758 325.41019385 155.1328125 326.55859375 C155.87273437 327.20699219 156.61265625 327.85539062 157.375 328.5234375 C160.84018801 331.7358271 162.87792404 333.70896554 164.2578125 338.30859375 C164.13626994 341.46870022 163.99654985 343.04254832 162.1328125 345.55859375 C158.99751021 347.64879528 158.3144948 347.80605325 154.75317383 347.78564453 C153.87248734 347.78549347 152.99180084 347.78534241 152.08442688 347.78518677 C150.66398323 347.76970291 150.66398323 347.76970291 149.21484375 347.75390625 C148.24246262 347.75107635 147.27008148 347.74824646 146.26823425 347.74533081 C143.16046884 347.73412974 140.05299091 347.70902523 136.9453125 347.68359375 C134.83919687 347.67356386 132.73307672 347.66443802 130.62695312 347.65625 C125.4621287 347.63419063 120.29751935 347.59966121 115.1328125 347.55859375 C115.13649967 348.21973804 115.14018684 348.88088234 115.14398575 349.56206131 C115.23229968 365.64463463 115.2985039 381.72712369 115.34006119 397.8098793 C115.36069185 405.58737136 115.38882188 413.36470163 115.43457031 421.14208984 C115.47442289 427.9203905 115.50024165 434.698574 115.50916648 441.47698855 C115.51438399 445.06660639 115.52665689 448.65588901 115.55573273 452.24539948 C115.58791874 456.25131641 115.58877295 460.25664954 115.58691406 464.26269531 C115.60129517 465.45455948 115.61567627 466.64642365 115.63049316 467.87440491 C115.62224518 469.5107917 115.62224518 469.5107917 115.61383057 471.18023682 C115.61751774 472.12784 115.62120491 473.07544319 115.62500381 474.05176163 C115.1328125 476.55859375 115.1328125 476.55859375 113.66736984 478.86299515 C109.890812 481.38948215 106.55070739 481.11245243 102.09887695 481.06652832 C100.71365955 481.07588826 100.71365955 481.07588826 99.30045795 481.0854373 C96.19874531 481.10142211 93.09781255 481.08874142 89.99609375 481.07617188 C87.77541647 481.08159054 85.55474278 481.08871176 83.33407593 481.09741211 C77.29695736 481.11567862 71.26011159 481.10856407 65.22298813 481.09589577 C58.91207888 481.08578539 52.60119335 481.09515598 46.2902832 481.10144043 C35.01182666 481.10918931 23.73350894 481.09674018 12.45508015 481.07640308 C2.22747879 481.05853183 -7.99994098 481.06163587 -18.22753906 481.08007812 C-30.10240983 481.10148067 -41.97717024 481.10945417 -53.85206699 481.09762907 C-60.13883895 481.09138529 -66.42548578 481.09058287 -72.71224976 481.10377502 C-78.62202818 481.11530934 -84.53146287 481.10735178 -90.44120407 481.084198 C-92.61324873 481.078898 -94.78532221 481.08044661 -96.9573555 481.08924866 C-99.91638139 481.10013656 -102.8742973 481.08652204 -105.83325195 481.06652832 C-107.13071366 481.07991265 -107.13071366 481.07991265 -108.45438671 481.09356737 C-112.18640374 481.04446124 -114.2467573 480.9736566 -117.40174484 478.86299515 C-119.17958328 476.06735292 -119.36105225 474.48183359 -119.34820557 471.18023682 C-119.35370422 470.08931229 -119.35920288 468.99838776 -119.36486816 467.87440491 C-119.35048706 466.68254074 -119.33610596 465.49067657 -119.32128906 464.26269531 C-119.32187317 463.0039006 -119.32245728 461.7451059 -119.32305908 460.44816589 C-119.3242065 456.99993687 -119.30069363 453.55226471 -119.27276325 450.10416508 C-119.24775372 446.49938342 -119.24540797 442.89458892 -119.24066162 439.28973389 C-119.22823046 432.46508711 -119.19540718 425.64069672 -119.15526366 418.81616282 C-119.11055014 411.04600022 -119.08856 403.27582536 -119.06848192 395.50556612 C-119.02667449 379.52309353 -118.95631997 363.5408767 -118.8671875 347.55859375 C-120.17913086 347.57954102 -121.49107422 347.60048828 -122.84277344 347.62207031 C-127.71050094 347.69447345 -132.57818085 347.74039488 -137.44628906 347.77832031 C-139.55314132 347.79843501 -141.65993775 347.82573042 -143.76660156 347.86035156 C-146.79506197 347.90887543 -149.82278428 347.93156391 -152.8515625 347.94921875 C-154.26426422 347.98018646 -154.26426422 347.98018646 -155.70550537 348.01177979 C-162.2320083 348.01401893 -162.2320083 348.01401893 -165.43457031 345.71777344 C-167.31065112 342.89022425 -167.79790987 340.95319763 -167.8671875 337.55859375 C-165.73679502 333.21755427 -162.60448076 330.02283402 -159.1796875 326.68359375 C-158.6436792 326.15403076 -158.1076709 325.62446777 -157.55541992 325.07885742 C-154.07946461 321.66971729 -150.50132416 318.42118209 -146.79296875 315.265625 C-143.75057055 312.56881362 -140.94392941 309.64324979 -138.08984375 306.75 C-136.055128 304.74389185 -133.97133313 302.85745859 -131.8046875 300.99609375 C-131.20011719 300.46651817 -130.59554687 299.9369426 -129.97265625 299.39131927 C-128.5910211 298.18866167 -127.18963701 297.00824895 -125.76782227 295.85337067 C-121.82764591 292.38770183 -119.40188017 289.83823821 -118.8671875 284.49645996 C-118.82667263 282.57684352 -118.82920675 280.65599638 -118.8671875 278.73632812 C-118.85080482 277.15449738 -118.85080482 277.15449738 -118.83409119 275.54071045 C-118.80751334 272.07692562 -118.83698418 268.61605914 -118.8671875 265.15234375 C-118.85966567 262.74237765 -118.84862885 260.33242017 -118.83422852 257.92248535 C-118.80583534 251.59616601 -118.82505957 245.27086051 -118.85430908 238.94458008 C-118.87572479 232.48251775 -118.85195855 226.02063744 -118.83203125 219.55859375 C-118.79961034 206.89171709 -118.81597379 194.22539433 -118.8671875 181.55859375 C-120.10021606 181.58215942 -120.10021606 181.58215942 -121.3581543 181.60620117 C-125.09026178 181.66864448 -128.82225922 181.70761511 -132.5546875 181.74609375 C-133.84826172 181.77123047 -135.14183594 181.79636719 -136.47460938 181.82226562 C-138.34536133 181.83676758 -138.34536133 181.83676758 -140.25390625 181.8515625 C-141.40076904 181.86727295 -142.54763184 181.8829834 -143.72924805 181.89916992 C-147.21956548 181.52034842 -149.07363749 180.64701277 -151.8671875 178.55859375 C-153.41765413 175.45766048 -153.15218396 172.98215877 -152.8671875 169.55859375 C-151.21484375 166.8203125 -151.21484375 166.8203125 -148.9296875 164.24609375 C-147.69412109 162.82876953 -147.69412109 162.82876953 -146.43359375 161.3828125 C-145.58667969 160.45082031 -144.73976563 159.51882812 -143.8671875 158.55859375 C-143.11308594 157.71941406 -142.35898438 156.88023437 -141.58203125 156.015625 C-140.09580409 154.3668827 -138.60484674 152.72239299 -137.109375 151.08203125 C-134.82202846 148.50777017 -132.65170479 145.86569886 -130.4921875 143.18359375 C-126.81146903 138.63078868 -122.94070102 134.32441964 -118.95581055 130.04174805 C-115.15333736 125.93098418 -111.62455451 121.63592852 -108.11328125 117.2734375 C-104.98551571 113.49292089 -101.65444867 109.913785 -98.33203125 106.3046875 C-95.94011453 103.63984209 -93.67463866 100.9102755 -91.4296875 98.12109375 C-87.77212486 93.58623214 -83.92101723 89.30323192 -79.95556641 85.04150391 C-76.15319943 80.93080099 -72.62448158 76.63583791 -69.11328125 72.2734375 C-65.98551571 68.49292089 -62.65444867 64.913785 -59.33203125 61.3046875 C-56.94011453 58.63984209 -54.67463866 55.9102755 -52.4296875 53.12109375 C-48.77212486 48.58623214 -44.92101723 44.30323192 -40.95556641 40.04150391 C-37.15319943 35.93080099 -33.62448158 31.63583791 -30.11328125 27.2734375 C-26.99604341 23.50564568 -23.6778934 19.93759624 -20.36328125 16.34375 C-17.01437134 12.60701641 -13.88849659 8.70896115 -10.77734375 4.7734375 C-7.45562139 0.92186985 -4.97710397 0.30252985 0 0 Z M-5.15234375 24.796875 C-6.08454546 25.8157774 -7.00987898 26.84098967 -7.9296875 27.87109375 C-8.42138428 28.41435303 -8.91308105 28.9576123 -9.41967773 29.51733398 C-13.30215995 33.84173495 -16.97736915 38.31669822 -20.62109375 42.84375 C-23.74885929 46.62426661 -27.07992633 50.2034025 -30.40234375 53.8125 C-32.79426047 56.47734541 -35.05973634 59.206912 -37.3046875 61.99609375 C-40.96225014 66.53095536 -44.81335777 70.81395558 -48.77880859 75.07568359 C-52.58117557 79.18638651 -56.10989342 83.48134959 -59.62109375 87.84375 C-62.74885929 91.62426661 -66.07992633 95.2034025 -69.40234375 98.8125 C-71.79426047 101.47734541 -74.05973634 104.206912 -76.3046875 106.99609375 C-79.96289765 111.53175818 -83.81461715 115.81560545 -87.78100586 120.07788086 C-90.7714575 123.3105335 -93.60497757 126.62556141 -96.3671875 130.05859375 C-99.99724414 134.57023557 -103.82275387 138.82629218 -107.76586914 143.06054688 C-111.67176715 147.28075997 -115.31248209 151.68427219 -118.89453125 156.18359375 C-120.8671875 158.55859375 -120.8671875 158.55859375 -123.12109375 160.74609375 C-125.0984511 162.3791953 -125.0984511 162.3791953 -124.8671875 164.55859375 C-123.09601563 164.61466797 -123.09601563 164.61466797 -121.2890625 164.671875 C-119.73173962 164.73754524 -118.17444936 164.80399222 -116.6171875 164.87109375 C-115.45123047 164.90493164 -115.45123047 164.90493164 -114.26171875 164.93945312 C-110.8645701 165.09914815 -108.42949374 165.26594695 -105.3828125 166.8515625 C-102.66666148 169.91073259 -102.73972624 173.37504203 -102.70896912 177.32952881 C-102.69919509 178.2838467 -102.68942106 179.2381646 -102.67935085 180.22140121 C-102.6735806 181.26563374 -102.66781034 182.30986626 -102.66186523 183.38574219 C-102.65183251 184.50630131 -102.64179979 185.62686043 -102.63146305 186.78137589 C-102.60006962 190.41021911 -102.57530327 194.03907326 -102.55078125 197.66796875 C-102.5323786 199.90771848 -102.51354196 202.14746468 -102.4942627 204.38720703 C-102.42580704 212.69429423 -102.36575937 221.00144899 -102.3046875 229.30859375 C-102.1603125 247.87109375 -102.0159375 266.43359375 -101.8671875 285.55859375 C-35.8671875 285.55859375 30.1328125 285.55859375 98.1328125 285.55859375 C98.38249743 248.59540351 98.38249743 248.59540351 98.61083984 211.63208008 C98.6652832 204.48181152 98.6652832 204.48181152 98.69326782 201.13407898 C98.71094904 198.79682318 98.72475606 196.45953612 98.73550415 194.12223816 C98.75254102 190.58111377 98.78188356 187.04028335 98.81396484 183.49926758 C98.81613699 182.45863317 98.81830914 181.41799875 98.8205471 180.34582996 C98.83169863 179.39013457 98.84285015 178.43443918 98.8543396 177.44978333 C98.85987036 176.62109143 98.86540112 175.79239954 98.87109947 174.93859577 C99.17801589 172.14751696 99.86853333 170.06458036 101.1328125 167.55859375 C104.09629679 165.58293755 104.81301623 165.29482516 108.14453125 165.14453125 C108.90185547 165.10585937 109.65917969 165.0671875 110.43945312 165.02734375 C111.61797852 164.9809375 111.61797852 164.9809375 112.8203125 164.93359375 C113.61759766 164.89492187 114.41488281 164.85625 115.23632812 164.81640625 C117.20144725 164.72226881 119.1670979 164.63934743 121.1328125 164.55859375 C119.53487861 160.69615927 116.91130289 157.976448 114.0703125 154.99609375 C110.4235497 151.10075593 106.91775947 147.15649213 103.5703125 142.99609375 C100.53923683 139.23021186 97.40699673 135.61529619 94.1328125 132.05859375 C90.85862827 128.50189131 87.72638817 124.88697564 84.6953125 121.12109375 C81.47338149 117.12635389 78.12625755 113.31305026 74.6328125 109.55859375 C70.34326137 104.94855039 66.32870578 100.18076419 62.37890625 95.2734375 C60.0445066 92.4518588 57.61290652 89.75268663 55.1328125 87.05859375 C51.85862827 83.50189131 48.72638817 79.88697564 45.6953125 76.12109375 C42.47338149 72.12635389 39.12625755 68.31305026 35.6328125 64.55859375 C31.34326137 59.94855039 27.32870578 55.18076419 23.37890625 50.2734375 C20.26111021 46.50497099 16.9415285 42.93670035 13.62890625 39.33984375 C10.29540184 35.62551646 7.16218976 31.76587425 4.04296875 27.87109375 C1.7339799 25.07129023 1.7339799 25.07129023 -0.8671875 22.55859375 C-3.16217636 22.32534652 -3.16217636 22.32534652 -5.15234375 24.796875 Z M-123.04464257 316.56867111 C-125.81526643 319.59374174 -128.85210377 322.28999636 -131.9296875 324.99609375 C-133.59479094 326.49580436 -135.24868901 328.00870213 -136.8671875 329.55859375 C-136.8671875 329.88859375 -136.8671875 330.21859375 -136.8671875 330.55859375 C-47.7671875 330.55859375 41.3328125 330.55859375 133.1328125 330.55859375 C130.45398935 327.21006481 128.58702205 324.91680546 125.4453125 322.30859375 C121.62333214 319.04679233 118.09916876 315.57006867 114.6015625 311.96484375 C113.786875 311.17078125 112.9721875 310.37671875 112.1328125 309.55859375 C111.70893722 308.9879013 111.28506193 308.41720884 110.84834194 307.82922268 C107.0001523 303.40422273 103.403253 302.11995273 97.73260319 301.70646107 C93.16499851 301.52836134 88.60400748 301.50818462 84.03344727 301.51000977 C81.97117243 301.48577303 79.90892921 301.4587067 77.84672546 301.42903137 C72.25522465 301.35875623 66.66442828 301.33402155 61.07253003 301.32193112 C57.5726616 301.3124958 54.07297356 301.29359785 50.57316399 301.27143669 C38.34433249 301.19471706 26.11602704 301.15634258 13.88696289 301.15161133 C2.51947734 301.14615095 -8.84513304 301.05484998 -20.21179813 300.92357117 C-29.99399858 300.81461101 -39.77525629 300.76796482 -49.55805928 300.76848549 C-55.39076154 300.76766733 -61.22068448 300.74211172 -67.05276299 300.65295601 C-72.54799987 300.57097733 -78.03806438 300.56721933 -83.53359795 300.62081718 C-85.53742432 300.62753191 -87.54156937 300.60749691 -89.5447731 300.55709839 C-105.25516951 300.18684815 -112.70176176 304.91694896 -123.04464257 316.56867111 Z M-101.8671875 347.55859375 C-101.8671875 386.16859375 -101.8671875 424.77859375 -101.8671875 464.55859375 C-87.6771875 464.55859375 -73.4871875 464.55859375 -58.8671875 464.55859375 C-58.81820312 458.396875 -58.76921875 452.23515625 -58.71875 445.88671875 C-58.68336902 441.98566054 -58.64741209 438.08462475 -58.609375 434.18359375 C-58.54904187 427.99026682 -58.49085441 421.79697129 -58.4453125 415.60351562 C-58.40846678 410.61082314 -58.36210862 405.6183017 -58.30912399 400.62575531 C-58.29057628 398.71998847 -58.27546971 396.81418497 -58.26384354 394.90836334 C-58.24698763 392.24113918 -58.21795411 389.57430704 -58.18603516 386.90722656 C-58.18387497 386.11744415 -58.18171478 385.32766174 -58.17948914 384.51394653 C-58.07417509 377.63561386 -58.07417509 377.63561386 -55.8671875 374.55859375 C-53.56545722 373.40772861 -52.25894939 373.42815736 -49.69862366 373.41815186 C-48.38839485 373.40958664 -48.38839485 373.40958664 -47.05169678 373.40084839 C-45.6108371 373.3991716 -45.6108371 373.3991716 -44.14086914 373.39746094 C-42.62610237 373.39001358 -42.62610237 373.39001358 -41.08073425 373.38241577 C-37.72959724 373.36777255 -34.37850754 373.36098911 -31.02734375 373.35546875 C-28.70568337 373.34971979 -26.38402301 373.34396203 -24.06236267 373.3381958 C-19.19074278 373.32768014 -14.31913942 373.32184094 -9.44750977 373.31835938 C-3.19481336 373.31286858 3.05766594 373.28883028 9.31029415 373.26038742 C14.10657904 373.2417971 18.90281122 373.2365574 23.6991291 373.2350235 C26.00489046 373.23198909 28.31065072 373.22393424 30.61637688 373.21083832 C33.83678774 373.19385067 37.05666257 373.19564014 40.27709961 373.20214844 C41.2356485 373.19293365 42.19419739 373.18371887 43.18179321 373.17422485 C44.49625175 373.18257858 44.49625175 373.18257858 45.83726501 373.19110107 C46.97961813 373.18890123 46.97961813 373.18890123 48.1450491 373.18665695 C50.67710814 373.66043866 51.53497197 374.58043669 53.1328125 376.55859375 C54.72337899 379.73972673 54.31289047 383.18453637 54.33813477 386.68017578 C54.34803436 387.5192749 54.35793396 388.35837402 54.36813354 389.22290039 C54.39979042 392.00404004 54.4245225 394.78519679 54.44921875 397.56640625 C54.46978466 399.49169363 54.49078104 401.41697646 54.51219177 403.34225464 C54.56744991 408.41555093 54.61684267 413.48888822 54.66503906 418.56225586 C54.72404701 424.64626054 54.79029553 430.73019012 54.85533905 436.81413269 C54.95339563 446.0622406 55.04221948 455.31039614 55.1328125 464.55859375 C69.3228125 464.55859375 83.5128125 464.55859375 98.1328125 464.55859375 C98.1328125 425.94859375 98.1328125 387.33859375 98.1328125 347.55859375 C32.1328125 347.55859375 -33.8671875 347.55859375 -101.8671875 347.55859375 Z M-41.8671875 389.55859375 C-41.8671875 414.30859375 -41.8671875 439.05859375 -41.8671875 464.55859375 C-31.3071875 464.55859375 -20.7471875 464.55859375 -9.8671875 464.55859375 C-9.8671875 439.80859375 -9.8671875 415.05859375 -9.8671875 389.55859375 C-20.4271875 389.55859375 -30.9871875 389.55859375 -41.8671875 389.55859375 Z M6.1328125 389.55859375 C6.1328125 414.30859375 6.1328125 439.05859375 6.1328125 464.55859375 C16.6928125 464.55859375 27.2528125 464.55859375 38.1328125 464.55859375 C38.1328125 439.80859375 38.1328125 415.05859375 38.1328125 389.55859375 C27.5728125 389.55859375 17.0128125 389.55859375 6.1328125 389.55859375 Z " fill="#000000" transform="translate(257.8671875,15.44140625)"/>
<path d="M0 0 C1.16476364 -0.00101212 1.16476364 -0.00101212 2.35305786 -0.00204468 C14.84842806 0.01515838 26.92851801 0.64908092 39.1875 3.25 C40.05955078 3.43224121 40.93160156 3.61448242 41.83007812 3.80224609 C66.18534955 9.04186865 66.18534955 9.04186865 70.27531433 14.77479553 C71.65131552 18.50855765 71.47364321 22.23350257 71.4621582 26.16186523 C71.46726913 27.06149994 71.47238007 27.96113464 71.47764587 28.88803101 C71.49154492 31.86161961 71.49058489 34.83497653 71.48828125 37.80859375 C71.49216794 39.87598253 71.49650256 41.94337051 71.50126648 44.01075745 C71.50872932 48.3441934 71.50843688 52.67754789 71.50317383 57.01098633 C71.49737847 62.56395673 71.51431161 68.11659367 71.5375185 73.66950893 C71.55225062 77.93917287 71.55312826 82.20875639 71.55000877 86.47844124 C71.55052223 88.52576419 71.55576443 90.57309162 71.56582069 92.62038994 C71.57815782 95.4833938 71.57140973 98.34574678 71.55981445 101.20874023 C71.56745819 102.05409836 71.57510193 102.89945648 71.58297729 103.77043152 C71.54142368 108.41262339 71.20885872 111.48224586 68.1875 115.25 C65.62358762 116.53195619 63.79651549 116.38456757 60.92471313 116.39717102 C59.80866196 116.40432632 58.69261078 116.41148163 57.54273987 116.41885376 C55.69747963 116.42288712 55.69747963 116.42288712 53.81494141 116.42700195 C52.52384964 116.43357315 51.23275787 116.44014435 49.90254211 116.44691467 C46.35499067 116.46432785 42.80745269 116.47487697 39.2598691 116.4831202 C37.04434124 116.48826898 34.82881759 116.49434472 32.61329269 116.50063133 C25.68387369 116.51968307 18.75446536 116.53391505 11.8250252 116.5422433 C3.8213489 116.55202109 -4.18205124 116.57835451 -12.1856302 116.61874419 C-18.36912377 116.64888023 -24.55253806 116.66370971 -30.73610365 116.66702431 C-34.43074452 116.66937742 -38.12509034 116.67837116 -41.81965256 116.70348549 C-45.94033014 116.73104405 -50.06038857 116.72694285 -54.18115234 116.7199707 C-55.40727737 116.73278076 -56.6334024 116.74559082 -57.89668274 116.75878906 C-59.57921898 116.74837334 -59.57921898 116.74837334 -61.29574585 116.73774719 C-62.75750024 116.74132972 -62.75750024 116.74132972 -64.24878502 116.74498463 C-67.5951655 116.09888828 -68.77317079 114.94161228 -70.8125 112.25 C-71.32145119 110.2568903 -71.32145119 110.2568903 -71.33389282 108.12013245 C-71.34806244 107.30568665 -71.36223206 106.49124084 -71.37683105 105.65211487 C-71.3693988 104.3249369 -71.3693988 104.3249369 -71.36181641 102.97094727 C-71.37203827 102.03229828 -71.38226013 101.09364929 -71.39279175 100.1265564 C-71.42059828 97.02291378 -71.41866968 93.92015864 -71.4140625 90.81640625 C-71.42183551 88.659334 -71.43050466 86.5022648 -71.44003296 84.34519958 C-71.45496032 79.82337523 -71.45437291 75.30186316 -71.44384766 70.7800293 C-71.43225589 64.98455539 -71.46612163 59.19035935 -71.512537 53.39509678 C-71.54199743 48.94008406 -71.54375724 44.48537965 -71.53751755 40.03028679 C-71.53854467 37.89363002 -71.54903339 35.75695615 -71.56914139 33.62039375 C-71.59381271 30.63223303 -71.58032885 27.64656788 -71.55712891 24.65844727 C-71.57241638 23.77568619 -71.58770386 22.89292511 -71.60345459 21.9834137 C-71.50285997 16.12307292 -71.50285997 16.12307292 -69.50549316 13.59707642 C-66.76244215 11.25155879 -63.93326958 9.58196653 -60.484375 8.5546875 C-59.69337402 8.31516357 -58.90237305 8.07563965 -58.08740234 7.82885742 C-57.25418457 7.59658447 -56.4209668 7.36431152 -55.5625 7.125 C-54.68932129 6.87274658 -53.81614258 6.62049316 -52.91650391 6.3605957 C-44.32949495 3.96395081 -35.65330838 2.3572597 -26.8125 1.25 C-25.7462439 1.10860596 -25.7462439 1.10860596 -24.65844727 0.96435547 C-16.46535577 -0.00014661 -8.23815065 0.00644895 0 0 Z M-12.8125 17.25 C-12.8125 21.21 -12.8125 25.17 -12.8125 29.25 C-4.5625 29.25 3.6875 29.25 12.1875 29.25 C12.1875 25.29 12.1875 21.33 12.1875 17.25 C3.9375 17.25 -4.3125 17.25 -12.8125 17.25 Z M29.1875 19.25 C29.1875 22.55 29.1875 25.85 29.1875 29.25 C37.4375 29.25 45.6875 29.25 54.1875 29.25 C54.1875 27.93 54.1875 26.61 54.1875 25.25 C45.91226987 22.50048805 37.83091319 20.43360253 29.1875 19.25 Z M-36.6015625 20.34375 C-37.54257813 20.56933594 -38.48359375 20.79492188 -39.453125 21.02734375 C-40.93039063 21.38505859 -40.93039063 21.38505859 -42.4375 21.75 C-43.43007812 21.98847656 -44.42265625 22.22695312 -45.4453125 22.47265625 C-47.90153314 23.0630939 -50.35722948 23.65562599 -52.8125 24.25 C-53.1425 25.9 -53.4725 27.55 -53.8125 29.25 C-45.8925 29.25 -37.9725 29.25 -29.8125 29.25 C-29.8125 25.95 -29.8125 22.65 -29.8125 19.25 C-32.22236459 19.25 -34.25596171 19.77854499 -36.6015625 20.34375 Z M-53.8125 46.25 C-53.8125 63.74 -53.8125 81.23 -53.8125 99.25 C-45.8925 99.25 -37.9725 99.25 -29.8125 99.25 C-29.8125 81.76 -29.8125 64.27 -29.8125 46.25 C-37.7325 46.25 -45.6525 46.25 -53.8125 46.25 Z M-12.8125 46.25 C-12.8125 63.74 -12.8125 81.23 -12.8125 99.25 C-4.5625 99.25 3.6875 99.25 12.1875 99.25 C12.1875 81.76 12.1875 64.27 12.1875 46.25 C3.9375 46.25 -4.3125 46.25 -12.8125 46.25 Z M29.1875 46.25 C29.1875 63.74 29.1875 81.23 29.1875 99.25 C37.4375 99.25 45.6875 99.25 54.1875 99.25 C54.1875 81.76 54.1875 64.27 54.1875 46.25 C45.9375 46.25 37.6875 46.25 29.1875 46.25 Z " fill="#000000" transform="translate(258.8125,149.75)"/>
</svg>
