<?xml version="1.0" encoding="UTF-8"?>
<svg version="1.1" xmlns="http://www.w3.org/2000/svg" width="512" height="512">
<path d="M0 0 C4.7344316 1.91391916 7.72684393 5.45368786 10 10 C10.09878177 11.76394876 10.13342629 13.53163334 10.13803101 15.29833984 C10.14348434 16.42254837 10.14893768 17.5467569 10.15455627 18.70503235 C10.1555986 19.94448105 10.15664093 21.18392975 10.15771484 22.4609375 C10.1655144 24.45807955 10.17331799 26.45522158 10.18127275 28.45236301 C10.18899536 30.60399304 10.19437328 32.75561879 10.19923019 34.90725708 C10.20991194 39.39646311 10.23016022 43.8855938 10.25234985 48.37475586 C10.31425859 61.14221723 10.36819038 73.90967541 10.40136719 86.67724609 C10.41976204 93.72523872 10.44876393 100.77310622 10.4893719 107.82100677 C10.51037099 111.54816297 10.52588893 115.27516192 10.52817917 119.00238037 C10.5307426 123.16972976 10.5562885 127.33664479 10.58349609 131.50390625 C10.58048996 132.7271611 10.57748383 133.95041595 10.5743866 135.21073914 C10.69891753 148.08445628 13.63185031 156.63185031 22.75 165.75 C31.38089843 171.72523737 39.56774412 173.16313657 50 172 C58.38718954 170.04761015 64.97620132 165.52225892 69.7578125 158.37109375 C73.44496612 151.68256146 74.66862615 145.60949474 75.53125 138.078125 C76.26027967 133.29083017 77.83962936 130.59210988 81.72265625 127.73046875 C86.13750344 125.10613613 89.67663278 124.64926487 94.7265625 125.25 C100.36027941 127.10854578 103.67921535 130.35775035 106.625 135.375 C106.94855469 135.92172363 107.27210938 136.46844727 107.60546875 137.03173828 C112.48854228 145.39017272 117.04686948 153.94196928 121.62939453 162.46728516 C122.76509574 164.56592505 123.9183859 166.6516996 125.08984375 168.73046875 C149.15089039 212.12174313 164.36899042 260.79444896 170 310 C170.13277344 311.12792969 170.26554687 312.25585938 170.40234375 313.41796875 C174.97780795 360.86490576 163.05856758 408.57616414 133 446 C132.55527344 446.55445801 132.11054688 447.10891602 131.65234375 447.68017578 C116.21429756 466.7250914 97.7774443 481.68207876 76 493 C75.37222656 493.3295166 74.74445313 493.6590332 74.09765625 493.99853516 C39.42839904 511.94245021 -4.75984443 518.60534713 -43 509 C-43.82097168 508.80132324 -44.64194336 508.60264648 -45.48779297 508.39794922 C-76.35622747 500.7566809 -104.02936384 486.06628041 -127 464 C-127.49032715 463.54077148 -127.9806543 463.08154297 -128.48583984 462.60839844 C-157.98231319 434.91635122 -178.93146125 393.64308327 -181.11401367 352.87007141 C-181.17989641 350.59665406 -181.21633549 348.32504754 -181.23828125 346.05078125 C-181.25297203 344.78726082 -181.25297203 344.78726082 -181.26795959 343.49821472 C-182.16942322 245.62462063 -136.11573393 150.8437289 -76.546875 74.99121094 C-73.89393343 71.57621861 -71.3285494 68.09626608 -68.75 64.625 C-61.87010156 55.41214101 -54.5441814 46.60246433 -47.09448242 37.84838867 C-44.09261651 34.31557332 -41.15832504 30.73567565 -38.25 27.125 C-35.2359417 23.4191027 -32.1179366 19.99118087 -28.6796875 16.6796875 C-26.8452531 14.8452531 -25.17886995 12.91483572 -23.5 10.9375 C-16.23162175 2.50421237 -11.31600009 -0.90200001 0 0 Z M-22 56 C-23.30531372 57.49134418 -24.56703822 59.02082028 -25.8125 60.5625 C-26.6271875 61.57054687 -27.441875 62.57859375 -28.28125 63.6171875 C-28.94253906 64.44041504 -28.94253906 64.44041504 -29.6171875 65.28027344 C-31.02138769 67.02659868 -32.43223745 68.76739451 -33.84375 70.5078125 C-50.00970222 90.50233077 -65.06037949 111.39228055 -79 133 C-79.70793701 134.09707275 -79.70793701 134.09707275 -80.43017578 135.21630859 C-115.56713408 190.03904579 -149.53539682 256.89192967 -150.23828125 323.453125 C-150.24812042 324.22723724 -150.25795959 325.00134949 -150.26809692 325.79891968 C-150.54762626 350.1614523 -150.54762626 350.1614523 -146 374 C-145.76394043 374.81984375 -145.52788086 375.6396875 -145.28466797 376.484375 C-137.99958455 400.98404948 -124.94248141 421.95947224 -107 440 C-106.27707764 440.72896484 -106.27707764 440.72896484 -105.53955078 441.47265625 C-97.79697191 449.17066219 -89.33422523 455.36076423 -80 461 C-79.0399707 461.58394531 -79.0399707 461.58394531 -78.06054688 462.1796875 C-61.09838807 472.29925371 -41.63257008 478.80841239 -22 481 C-21.0112085 481.11746582 -21.0112085 481.11746582 -20.00244141 481.23730469 C17.6351149 485.41621397 55.67252243 473.18592132 85.25 450 C115.85917688 424.20525353 135.90763332 389.68725925 139.6875 349.46875 C144.37922718 289.32933794 121.74040566 230.64921612 95 178 C94.319375 178.680625 93.63875 179.36125 92.9375 180.0625 C92.47472656 180.52011719 92.01195312 180.97773438 91.53515625 181.44921875 C90.50104345 182.49385687 89.48806924 183.55979961 88.49609375 184.64453125 C79.14612999 194.62533594 65.43185277 202.14441073 51.63500977 203.17700195 C31.93197335 203.67110348 15.97666294 200.91721024 0.1953125 188.10546875 C-13.89432624 174.59245223 -20.1270381 156.89858264 -20.54589844 137.73828125 C-20.60057095 133.92945244 -20.6077538 130.12166576 -20.609375 126.3125 C-20.62439186 124.27269197 -20.64112621 122.23289593 -20.65948486 120.19311523 C-20.70277734 114.87995783 -20.72307203 109.56696431 -20.73822021 104.25366211 C-20.75793015 98.80963602 -20.79988355 93.36578344 -20.83984375 87.921875 C-20.91473208 77.28130403 -20.96527263 66.64077265 -21 56 C-21.33 56 -21.66 56 -22 56 Z " fill="#000000" transform="translate(262,0)"/>
<path d="M0 0 C0.72217209 -0.0065712 1.44434418 -0.0131424 2.18840027 -0.01991272 C4.58360902 -0.03965786 6.97875498 -0.05131204 9.37402344 -0.0612793 C10.19214256 -0.06535482 11.01026169 -0.06943035 11.8531723 -0.07362938 C16.18482715 -0.09449705 20.51645027 -0.10879474 24.84814453 -0.11816406 C29.31828056 -0.12921947 33.78791755 -0.16360697 38.25787735 -0.20333576 C41.69804801 -0.22950946 45.13810004 -0.23785663 48.57836151 -0.24144554 C50.22576003 -0.24631096 51.87315326 -0.25792375 53.52045441 -0.27648354 C55.83044161 -0.30088812 58.13914152 -0.29990803 60.44921875 -0.29296875 C61.76222961 -0.29883499 63.07524048 -0.30470123 64.42803955 -0.31074524 C69.95158284 0.44701025 72.7940382 2.76061993 76.3260498 6.96681213 C78.28947835 10.7698613 78.49036797 13.27254686 78.50097656 17.54003906 C78.50798584 18.25143539 78.51499512 18.96283173 78.5222168 19.69578552 C78.53972926 22.03237698 78.52819803 24.3677433 78.51464844 26.7043457 C78.51734562 28.33810151 78.52122993 29.97185575 78.52624512 31.60560608 C78.53213124 35.02433606 78.52360728 38.442647 78.50488281 41.86132812 C78.48211148 46.23047533 78.49520979 50.59863859 78.51917267 54.9677496 C78.53367034 58.3402489 78.52900628 61.71251738 78.5186615 65.08502388 C78.51600421 66.69527873 78.51922868 68.30555494 78.52857971 69.91578484 C78.53880948 72.17260592 78.5231569 74.42786474 78.50097656 76.68457031 C78.49779419 77.96553085 78.49461182 79.24649139 78.49133301 80.56626892 C77.80436803 85.44966787 75.9891423 89.27154528 72.34277344 92.7355957 C67.66205483 95.29181339 64.31510346 95.76941362 58.98339844 95.17700195 C53.71996762 93.31932049 51.14917171 90.60908453 47.98339844 86.17700195 C46.82193875 82.79236042 46.78444599 79.43729919 46.66699219 75.88012695 C46.60415039 74.0722168 46.60415039 74.0722168 46.54003906 72.2277832 C46.50072266 70.97352539 46.46140625 69.71926758 46.42089844 68.42700195 C46.37771484 67.15727539 46.33453125 65.88754883 46.29003906 64.5793457 C46.18400122 61.4453383 46.08193786 58.31125262 45.98339844 55.17700195 C45.09914185 56.07014099 44.21488525 56.96328003 43.30383301 57.88348389 C34.95810781 66.31039208 26.60176757 74.7266452 18.23499298 83.1326561 C13.93417135 87.45432777 9.63713997 91.77963072 5.34863281 96.11352539 C1.20773649 100.29796992 -2.94293235 104.47248927 -7.10047913 108.64038849 C-8.68276417 110.23004865 -10.26153184 111.8232181 -11.83665466 113.41997528 C-14.04815633 115.66062845 -16.27198113 117.88833236 -18.49902344 120.11352539 C-19.1435144 120.77239746 -19.78800537 121.43126953 -20.45202637 122.11010742 C-25.44432584 127.05790266 -30.44450204 130.66670202 -37.51660156 131.67700195 C-45.93188198 130.47481904 -51.27351244 125.48493965 -57.01660156 119.56762695 C-57.73775146 118.84081726 -58.45890137 118.11400757 -59.2019043 117.36517334 C-61.48310733 115.06173793 -63.74993531 112.74473444 -66.01660156 110.42700195 C-67.56905498 108.85446673 -69.12243158 107.28284232 -70.67675781 105.7121582 C-74.46744701 101.87757617 -78.24645962 98.03178208 -82.01660156 94.17700195 C-85.5882959 95.85373735 -87.84410911 97.79787248 -90.60644531 100.6418457 C-91.47333984 101.52420898 -92.34023437 102.40657227 -93.23339844 103.31567383 C-95.04335033 105.1775985 -96.85324641 107.03957744 -98.66308594 108.90161133 C-99.53126953 109.78526367 -100.39945313 110.66891602 -101.29394531 111.5793457 C-102.08019287 112.38879639 -102.86644043 113.19824707 -103.67651367 114.03222656 C-108.13377749 118.11747045 -111.92621836 119.97398918 -118.01660156 120.17700195 C-122.50621732 119.32617798 -125.99172733 118.07048205 -129.45410156 115.05200195 C-132.18187106 110.03290609 -133.22217294 105.43828714 -132.70410156 99.73950195 C-127.9514775 89.70618449 -117.45201725 81.42609469 -109.64941406 73.62451172 C-107.75068708 71.7235689 -105.8601478 69.81471622 -103.96972656 67.90551758 C-102.75146537 66.68432662 -101.53273241 65.46360608 -100.31347656 64.2434082 C-99.75505066 63.67779678 -99.19662476 63.11218536 -98.62127686 62.5294342 C-93.92920733 57.86454278 -90.07499907 54.74957858 -83.20410156 54.61450195 C-82.22828125 54.57196289 -81.25246094 54.52942383 -80.24707031 54.4855957 C-72.62723337 56.11644351 -66.75596671 63.15638029 -61.45410156 68.54418945 C-60.77734375 69.22377716 -60.10058594 69.90336487 -59.40332031 70.60354614 C-57.26961833 72.74833029 -55.14302578 74.90000467 -53.01660156 77.05200195 C-51.56003718 78.51861161 -50.10301007 79.98476185 -48.64550781 81.45043945 C-45.09717231 85.02067636 -41.55518967 88.5971049 -38.01660156 92.17700195 C-31.07556723 86.49678404 -24.8398625 80.12698439 -18.52050781 73.77856445 C-17.32003869 72.57622728 -16.11934638 71.3741129 -14.91844177 70.17221069 C-11.77793608 67.02791032 -8.64044675 63.88061717 -5.50360107 60.73266602 C-2.29427538 57.51306022 0.91792849 54.29632874 4.12988281 51.0793457 C10.41718946 44.7813556 16.7013095 38.4801963 22.98339844 32.17700195 C22.202146 32.16241943 21.42089355 32.14783691 20.6159668 32.1328125 C17.05046476 32.05799697 13.48586466 31.96144562 9.92089844 31.86450195 C8.0772168 31.83066406 8.0772168 31.83066406 6.19628906 31.79614258 C-7.27710054 31.39666202 -7.27710054 31.39666202 -12.75878906 26.67700195 C-16.60722832 21.58113755 -17.6791637 17.52555193 -17.01660156 11.17700195 C-13.89423783 2.63158543 -8.58314273 0.06450787 0 0 Z " fill="#000000" transform="translate(279.0166015625,252.822998046875)"/>
</svg>
